M48
METRIC,0000.00
T01C0.3
T02C0.9
T03C1.5
%
T01
X+001109Y-000312
X+001076Y+000383
X+001220Y+000379
X-000188Y-001302
X-000297Y-001669
X-000419Y-002211
X+000264Y-002406
X+000396Y-001881
X+000546Y-001879
X+000727Y-001879
X+000980Y-002181
X+000929Y-002360
X-001108Y-001119
X-001107Y-000884
X-001308Y+000783
T02
X-000254Y-003150
X+000000Y-003150
X+000254Y-003150
X+000254Y-002896
X+000000Y-002896
X-000254Y-002896
T03
X-001190Y+000990
X+001190Y+000990
X+001190Y-001690
X-001190Y-001690
T00
M30
