G04 DipTrace 3.2.0.1*
G04 Верхний.gbr*
%MOMM*%
G04 #@! TF.FileFunction,Copper,L1,Top*
G04 #@! TF.Part,Single*
%AMOUTLINE0*
4,1,4,
0.52847,-0.84007,
-0.90667,-0.4037,
-0.52847,0.84007,
0.90667,0.4037,
0.52847,-0.84007,
0*%
%AMOUTLINE3*
4,1,4,
0.69643,-0.7071,
-0.7989,-0.58883,
-0.69643,0.7071,
0.7989,0.58883,
0.69643,-0.7071,
0*%
%AMOUTLINE6*
4,1,4,
0.75013,-0.64983,
-0.7499,-0.65013,
-0.75013,0.64983,
0.7499,0.65013,
0.75013,-0.64983,
0*%
%ADD15C,0.3*%
%ADD30C,0.9*%
G04 #@! TA.AperFunction,Conductor*
%ADD16C,0.6*%
%ADD17C,0.5*%
%ADD18C,0.4*%
%ADD19R,1.3X1.5*%
%ADD21R,0.65X1.05*%
%ADD23R,3.2X1.8*%
%ADD24R,0.75X1.6*%
%ADD25R,1.6X0.75*%
G04 #@! TA.AperFunction,ComponentPad*
%ADD27C,2.1*%
G04 #@! TA.AperFunction,ViaPad*
%ADD29C,1.0*%
%ADD55OUTLINE0*%
%ADD58OUTLINE3*%
%ADD61OUTLINE6*%
%FSLAX35Y35*%
G04*
G71*
G90*
G75*
G01*
G04 Top*
%LPD*%
X-900000Y-626500D2*
D15*
X-1072500D1*
X-1130000Y-684000D1*
X-900000Y-499500D2*
X-1070500D1*
X-1130000Y-440000D1*
X-1320000Y-684000D2*
Y-440000D1*
X900000Y-626500D2*
X1072500D1*
X1130000Y-684000D1*
X1320000D2*
Y-440000D1*
X1108917Y-312217D2*
Y-418917D1*
X1130000Y-440000D1*
X1108917Y-312217D2*
X1329763Y-91370D1*
Y658587D1*
X1174537Y813813D1*
X1108430D1*
X1016897Y905347D1*
Y976407D1*
X968803Y1024500D1*
X900000D1*
X-900000Y1151500D2*
X2277D1*
X900000D1*
X-900000Y1024500D2*
X2277D1*
X900000D1*
X2277Y1151500D2*
Y1024500D1*
X-254000Y-3150000D2*
D16*
Y-2824850D1*
X-711940Y-2366910D1*
Y-2110930D1*
X-767500Y-2055370D1*
X-900000Y-880500D2*
D15*
Y-888910D1*
D17*
X-1106547D1*
Y-884310D1*
X-900000Y-880500D2*
D15*
X-737673D1*
X-566313Y-709140D1*
Y730233D1*
X-606580Y770500D1*
X-900000D1*
X395600Y-1881167D2*
Y-2533750D1*
X832827Y-2970977D1*
X943737D1*
X963533Y-2990773D1*
X-418780Y-2210937D2*
X-363953Y-2156110D1*
X-80927D1*
X-95177Y-2170360D1*
Y-1924177D1*
X-94610Y-1923610D1*
X-698500Y-1080000D2*
D16*
Y-1322557D1*
Y-1497667D1*
X-468350D1*
X-297217Y-1668800D1*
X-1107593Y-1119303D2*
D18*
X-707320D1*
D15*
Y-1080000D1*
X-698500D1*
Y-1322557D2*
X-692600D1*
Y-1420470D1*
X-767500Y-1495370D1*
X264207Y-2405507D2*
Y-2585210D1*
X854357Y-3175363D1*
X958163D1*
X963573Y-3180773D1*
X-177Y-2400360D2*
D18*
Y-3150000D1*
X0D1*
X-187877Y-1301797D2*
D15*
Y-1082623D1*
X-190500Y-1080000D1*
X254000Y-2896000D2*
Y-3150000D1*
X95390Y-1923610D2*
Y-2169793D1*
X94823Y-2170360D1*
X92127Y-1693497D2*
Y-1920347D1*
X95390Y-1923610D1*
X698500Y-1080000D2*
Y-1458283D1*
X980800Y-1740583D1*
Y-2163053D1*
X1032533Y-2214787D1*
X1094277D1*
X979887Y-2180580D2*
X1032533D1*
Y-2214787D1*
X571500Y-1080000D2*
Y-1460853D1*
X840940Y-1730293D1*
Y-2279723D1*
X927713Y-2366497D1*
X1069080D1*
X1039003Y-2396573D1*
X929383Y-2360080D2*
X849027Y-2279723D1*
X840940D1*
X545733Y-1878770D2*
X573543D1*
Y-2537827D1*
X837027Y-2801313D1*
X969700D1*
X900000Y389500D2*
X1035590D1*
X1053723Y371367D1*
X1088040D1*
X1076127Y383280D1*
X727337Y-1879303D2*
Y-2506063D1*
X829047Y-2607773D1*
X984680D1*
Y-2611900D1*
X900000Y262500D2*
X1178133D1*
X1214700Y299070D1*
Y373927D1*
X1220027Y379257D1*
X-63500Y-1080000D2*
Y-1659123D1*
X-97873Y-1693497D1*
X-1308273Y783380D2*
X-1126910D1*
X-1012537Y897753D1*
X-69533D1*
X693140Y135080D1*
X899580D1*
X900000Y135500D1*
D29*
X1108917Y-312217D3*
X-418780Y-2210937D3*
X-187877Y-1301797D3*
X1076127Y383280D3*
X1220027Y379257D3*
X545733Y-1878770D3*
X727337Y-1879303D3*
X-297217Y-1668800D3*
X-1107593Y-1119303D3*
X-1106547Y-884310D3*
X-1308273Y783380D3*
X264207Y-2405507D3*
X395600Y-1881167D3*
D30*
X929383Y-2360080D3*
X979887Y-2180580D3*
D19*
X1130000Y-440000D3*
X1320000D3*
D21*
X94823Y-2170360D3*
X-95177D3*
X-177Y-2400360D3*
D19*
X-1320000Y-440000D3*
X-1130000D3*
X-1320000Y-684000D3*
X-1130000D3*
X1320000D3*
X1130000D3*
X-94610Y-1923610D3*
X95390D3*
D55*
X1039003Y-2396573D3*
X1094277Y-2214787D3*
D58*
X969700Y-2801313D3*
X984680Y-2611900D3*
D61*
X963573Y-3180773D3*
X963533Y-2990773D3*
D23*
X-767500Y-1495370D3*
Y-2055370D3*
D24*
X-63500Y-1080000D3*
X63500D3*
X-190500D3*
X-317500D3*
X-444500D3*
X-571500D3*
X-698500D3*
X190500D3*
X317500D3*
X444500D3*
X571500D3*
X698500D3*
D25*
X-900000Y-880500D3*
Y-753500D3*
X900000Y-880500D3*
X-900000Y-626500D3*
Y-499500D3*
Y-372500D3*
Y-245500D3*
Y-118500D3*
Y8500D3*
Y135500D3*
Y262500D3*
Y389500D3*
Y516500D3*
Y643500D3*
Y770500D3*
X900000Y-753500D3*
Y-626500D3*
Y-499500D3*
Y-372500D3*
Y-245500D3*
Y-118500D3*
Y8500D3*
Y135500D3*
Y262500D3*
Y389500D3*
Y516500D3*
Y643500D3*
Y770500D3*
X-900000Y1024500D3*
Y1151500D3*
X900000Y1024500D3*
Y1151500D3*
D27*
X-254000Y-3150000D3*
X0D3*
X254000D3*
X-254000Y-2896000D3*
X0D3*
X254000D3*
D19*
X-97873Y-1693497D3*
X92127D3*
G04 Top Clear*
%LPC*%
D15*
X1108917Y-312217D3*
X-418780Y-2210937D3*
X-187877Y-1301797D3*
X1076127Y383280D3*
X1220027Y379257D3*
X545733Y-1878770D3*
X727337Y-1879303D3*
X-297217Y-1668800D3*
X-1107593Y-1119303D3*
X-1106547Y-884310D3*
X-1308273Y783380D3*
X264207Y-2405507D3*
X395600Y-1881167D3*
X929383Y-2360080D3*
X979887Y-2180580D3*
D30*
X-254000Y-3150000D3*
X0D3*
X254000D3*
X-254000Y-2896000D3*
X0D3*
X254000D3*
M02*
