G04 DipTrace 3.2.0.1*
G04 Нижний.gbr*
%MOMM*%
G04 #@! TF.FileFunction,Copper,L2,Bot*
G04 #@! TF.Part,Single*
%AMOUTLINE9*
4,1,4,
-0.3758,0.7496,
0.3742,0.75043,
0.3758,-0.7496,
-0.3742,-0.75043,
-0.3758,0.7496,
0*%
%ADD15C,0.3*%
%ADD30C,0.9*%
G04 #@! TA.AperFunction,Conductor*
%ADD16C,0.6*%
%ADD22R,1.5X1.3*%
%ADD26R,0.7X1.1*%
G04 #@! TA.AperFunction,ComponentPad*
%ADD27C,2.1*%
%ADD28R,4.2X3.2*%
G04 #@! TA.AperFunction,ViaPad*
%ADD29C,1.0*%
%ADD64OUTLINE9*%
%FSLAX35Y35*%
G04*
G71*
G90*
G75*
G01*
G04 Bottom*
%LPD*%
X-254000Y-3150000D2*
D16*
Y-2839810D1*
X-973067Y-2120743D1*
Y-998817D1*
X-992040D1*
X-1106547Y-884310D1*
X-973067Y-998817D2*
X-832970D1*
X-154003Y-319850D1*
X-3483D1*
Y989360D1*
X-1097727Y232953D2*
D15*
Y-875490D1*
X-1106547Y-884310D1*
X395600Y-1881167D2*
Y-326133D1*
X-154003D1*
Y-319850D1*
X1108917Y-312217D2*
X1119900Y-323200D1*
X-133D1*
X-3483Y-319850D1*
X501683Y-2098333D2*
Y-2092303D1*
X398163Y-1988783D1*
Y-1883727D1*
X395600Y-1881167D1*
X-418780Y-2210937D2*
D16*
Y-2214270D1*
X-116730D1*
D15*
X0Y-2331000D1*
X-297217Y-1668800D2*
D16*
Y-2195840D1*
D15*
X0D1*
Y-2331000D1*
X-1289510Y-409070D2*
Y-937387D1*
X-1107593Y-1119303D1*
X264207Y-2405507D2*
X74507D1*
X0Y-2331000D1*
X502090Y-2475337D2*
X334037D1*
X264207Y-2405507D1*
X0Y-2896000D2*
Y-3150000D1*
X254000D2*
Y-2702043D1*
X184340Y-2632383D1*
X-249387D1*
X-542870Y-2338900D1*
Y-1652050D1*
X-190247Y-1299427D1*
X-187877Y-1301797D1*
X755683Y-2098060D2*
X897367D1*
X979887Y-2180580D1*
X756093Y-2475060D2*
X900747D1*
X937503Y-2438303D1*
Y-2360080D1*
X929383D1*
X1076127Y383280D2*
Y-74327D1*
X1254863Y-253063D1*
Y-1048343D1*
X637217Y-1665990D1*
Y-1787290D1*
X545733Y-1878770D1*
Y-1888453D1*
X628680Y-1971397D1*
Y-2098197D1*
X1220027Y379257D2*
Y-49317D1*
X1330990Y-160280D1*
Y-1110470D1*
X826070Y-1615390D1*
Y-1780570D1*
X727337Y-1879303D1*
X917550D1*
X1099297Y-2061050D1*
Y-2448080D1*
X848650Y-2698730D1*
X674177D1*
X625123Y-2649677D1*
Y-2479167D1*
X629093Y-2475197D1*
X-1312727Y647953D2*
Y232953D1*
Y-195853D1*
X-1289510Y-219070D1*
X-1312727Y647953D2*
Y783380D1*
X-1308273D1*
D29*
X1108917Y-312217D3*
X-418780Y-2210937D3*
X-187877Y-1301797D3*
X1076127Y383280D3*
X1220027Y379257D3*
X545733Y-1878770D3*
X727337Y-1879303D3*
X-297217Y-1668800D3*
X-1107593Y-1119303D3*
X-1106547Y-884310D3*
X-1308273Y783380D3*
X264207Y-2405507D3*
X395600Y-1881167D3*
D30*
X929383Y-2360080D3*
X979887Y-2180580D3*
D22*
X-1289510Y-409070D3*
Y-219070D3*
D26*
X-1097727Y232953D3*
X-1312727D3*
X-1097727Y647953D3*
X-1312727D3*
D27*
X-254000Y-3150000D3*
X0D3*
X254000D3*
X-254000Y-2896000D3*
X0D3*
X254000D3*
D28*
X0Y1031000D3*
Y-2331000D3*
D64*
X502090Y-2475337D3*
X629093Y-2475197D3*
X756093Y-2475060D3*
X501683Y-2098333D3*
X628680Y-2098197D3*
X755683Y-2098060D3*
G04 Bottom Clear*
%LPC*%
D15*
X1108917Y-312217D3*
X-418780Y-2210937D3*
X-187877Y-1301797D3*
X1076127Y383280D3*
X1220027Y379257D3*
X545733Y-1878770D3*
X727337Y-1879303D3*
X-297217Y-1668800D3*
X-1107593Y-1119303D3*
X-1106547Y-884310D3*
X-1308273Y783380D3*
X264207Y-2405507D3*
X395600Y-1881167D3*
X929383Y-2360080D3*
X979887Y-2180580D3*
D30*
X-254000Y-3150000D3*
X0D3*
X254000D3*
X-254000Y-2896000D3*
X0D3*
X254000D3*
M02*
