G04 DipTrace 3.2.0.1*
G04 BottomSilk.gbr*
%MOIN*%
G04 #@! TF.FileFunction,Legend,Bot*
G04 #@! TF.Part,Single*
%ADD10C,0.009843*%
%ADD14C,0.001969*%
%ADD19C,0.007874*%
%ADD52C,0.006176*%
%FSLAX26Y26*%
G04*
G70*
G90*
G75*
G01*
G04 BotSilk*
%LPD*%
X194737Y-1019026D2*
D10*
X169966Y-1019048D1*
X169379Y-1018848D2*
X169365Y-994074D1*
X314961Y272911D2*
X-314961D1*
Y-786171D1*
X314961D1*
Y272911D1*
X141732Y390909D2*
Y272766D1*
X-141732Y390909D2*
Y272766D1*
X141732Y390909D2*
X-141732D1*
X141732Y-784577D2*
Y-902720D1*
X-141732Y-784577D2*
Y-902720D1*
X141732D2*
X-141732D1*
X-545562Y-52152D2*
D19*
X-470193D1*
Y-192785D1*
X-545562D1*
Y-52152D1*
X339609Y-879896D2*
D14*
X353388D1*
X358310D2*
X362247D1*
X374058D2*
X377010D1*
X388822D2*
X392759D1*
X402601D2*
X410475D1*
X337871Y-880880D2*
X353388D1*
X358646D2*
X362284D1*
X374020D2*
X377163D1*
X388784D2*
X392422D1*
X400871D2*
X412213D1*
X336441Y-881864D2*
X353388D1*
X358943D2*
X362410D1*
X373894D2*
X377407D1*
X388658D2*
X392129D1*
X399326D2*
X413643D1*
X335398Y-882848D2*
X353388D1*
X359164D2*
X362646D1*
X373654D2*
X377665D1*
X388422D2*
X391939D1*
X398529D2*
X414682D1*
X334636Y-883833D2*
X340790D1*
X349451D2*
X353388D1*
X359386D2*
X362903D1*
X373367D2*
X377872D1*
X388166D2*
X391808D1*
X398416D2*
X403585D1*
X409294D2*
X415410D1*
X334028Y-884817D2*
X339269D1*
X349451D2*
X353388D1*
X359665D2*
X363109D1*
X373070D2*
X378089D1*
X387959D2*
X391639D1*
X398664D2*
X400633D1*
X410815D2*
X415892D1*
X333524Y-885801D2*
X338119D1*
X349451D2*
X353388D1*
X359939D2*
X363326D1*
X372743D2*
X378367D1*
X387743D2*
X391385D1*
X411961D2*
X416161D1*
X333142Y-886785D2*
X337245D1*
X349451D2*
X353388D1*
X360152D2*
X363603D1*
X372445D2*
X378640D1*
X387465D2*
X391122D1*
X412823D2*
X416290D1*
X332915Y-887770D2*
X336941D1*
X349451D2*
X353388D1*
X360371D2*
X363876D1*
X372222D2*
X378853D1*
X387196D2*
X390913D1*
X413076D2*
X416345D1*
X332801Y-888754D2*
X336777D1*
X349451D2*
X353388D1*
X360650D2*
X364089D1*
X371998D2*
X379072D1*
X387013D2*
X390696D1*
X412934D2*
X416364D1*
X332751Y-889738D2*
X336703D1*
X349451D2*
X353388D1*
X360924D2*
X364308D1*
X371718D2*
X379351D1*
X386885D2*
X390418D1*
X412422D2*
X416334D1*
X332731Y-890722D2*
X336673D1*
X349451D2*
X353388D1*
X361137D2*
X364587D1*
X371444D2*
X374054D1*
X375837D2*
X379624D1*
X386717D2*
X390145D1*
X410981D2*
X416173D1*
X332723Y-891707D2*
X336662D1*
X349451D2*
X353388D1*
X361356D2*
X364857D1*
X371231D2*
X374019D1*
X376447D2*
X379837D1*
X386464D2*
X389932D1*
X408716D2*
X415770D1*
X332721Y-892691D2*
X336658D1*
X349451D2*
X353388D1*
X361634D2*
X365039D1*
X371012D2*
X373894D1*
X376902D2*
X380057D1*
X386201D2*
X389713D1*
X405849D2*
X415069D1*
X332720Y-893675D2*
X336657D1*
X349451D2*
X353388D1*
X361908D2*
X365167D1*
X370733D2*
X373658D1*
X377298D2*
X380335D1*
X385992D2*
X389434D1*
X403068D2*
X413970D1*
X332719Y-894659D2*
X336656D1*
X349451D2*
X353388D1*
X362121D2*
X365335D1*
X370460D2*
X373402D1*
X377623D2*
X380609D1*
X385775D2*
X389160D1*
X400885D2*
X412210D1*
X332719Y-895644D2*
X336656D1*
X349451D2*
X353388D1*
X362340D2*
X365589D1*
X370247D2*
X373196D1*
X377857D2*
X380822D1*
X385497D2*
X388947D1*
X399359D2*
X409651D1*
X332719Y-896628D2*
X336656D1*
X349451D2*
X353388D1*
X362618D2*
X365852D1*
X370027D2*
X372979D1*
X378084D2*
X381041D1*
X385227D2*
X388728D1*
X398335D2*
X406698D1*
X332719Y-897612D2*
X336656D1*
X349451D2*
X353388D1*
X362892D2*
X366060D1*
X369749D2*
X372698D1*
X378365D2*
X381327D1*
X385041D2*
X388450D1*
X397634D2*
X404076D1*
X332719Y-898596D2*
X336656D1*
X349451D2*
X353388D1*
X363105D2*
X366282D1*
X369475D2*
X372393D1*
X378640D2*
X381672D1*
X384872D2*
X388176D1*
X397170D2*
X402197D1*
X332723Y-899581D2*
X336660D1*
X349451D2*
X353388D1*
X363324D2*
X366597D1*
X369260D2*
X372090D1*
X378853D2*
X382155D1*
X384641D2*
X387963D1*
X396910D2*
X400831D1*
X332758Y-900565D2*
X336698D1*
X349451D2*
X353388D1*
X363603D2*
X367021D1*
X369013D2*
X371760D1*
X379072D2*
X382927D1*
X383863D2*
X387744D1*
X396784D2*
X400278D1*
X332887Y-901549D2*
X336866D1*
X349451D2*
X353388D1*
X363872D2*
X367551D1*
X368633D2*
X371461D1*
X379354D2*
X387466D1*
X396734D2*
X400243D1*
X333157Y-902533D2*
X337185D1*
X349451D2*
X353388D1*
X364055D2*
X371238D1*
X379659D2*
X387192D1*
X396750D2*
X400563D1*
X333539Y-903518D2*
X338104D1*
X349451D2*
X353388D1*
X364183D2*
X371014D1*
X379963D2*
X386979D1*
X396906D2*
X401386D1*
X415396D2*
X416381D1*
X333989Y-904502D2*
X340800D1*
X349451D2*
X353388D1*
X364351D2*
X370734D1*
X380292D2*
X386760D1*
X397303D2*
X403919D1*
X411997D2*
X416907D1*
X334534Y-905486D2*
X345099D1*
X349451D2*
X353388D1*
X364604D2*
X370460D1*
X380591D2*
X386481D1*
X397961D2*
X407775D1*
X407621D2*
X417587D1*
X335311Y-906470D2*
X353388D1*
X364863D2*
X370244D1*
X380818D2*
X386211D1*
X398860D2*
X418349D1*
X336467Y-907455D2*
X353388D1*
X365038D2*
X369998D1*
X381068D2*
X386032D1*
X400079D2*
X416200D1*
X337963Y-908439D2*
X353388D1*
X365136D2*
X369617D1*
X381451D2*
X385933D1*
X401707D2*
X413886D1*
X339609Y-909423D2*
X353388D1*
X365199D2*
X369136D1*
X381932D2*
X385869D1*
X403585D2*
X411459D1*
X-420827Y-107924D2*
X-391299D1*
X-420827Y-108908D2*
X-391299D1*
X-420827Y-109892D2*
X-391299D1*
X-420827Y-110877D2*
X-391299D1*
X-420827Y-111861D2*
X-417874D1*
X-408031D2*
X-404094D1*
X-420827Y-112845D2*
X-417874D1*
X-408031D2*
X-404094D1*
X-420827Y-113829D2*
X-417874D1*
X-408031D2*
X-404094D1*
X-420827Y-114814D2*
X-417874D1*
X-408031D2*
X-404091D1*
X-420827Y-115798D2*
X-417874D1*
X-408031D2*
X-404048D1*
X-420827Y-116782D2*
X-417874D1*
X-408031D2*
X-403945D1*
X-420827Y-117766D2*
X-417874D1*
X-408031D2*
X-403447D1*
X-420827Y-118751D2*
X-417870D1*
X-408035D2*
X-402272D1*
X-420827Y-119735D2*
X-417828D1*
X-408078D2*
X-400766D1*
X-420823Y-120719D2*
X-417724D1*
X-408181D2*
X-399019D1*
X-420784Y-121703D2*
X-417180D1*
X-408725D2*
X-397154D1*
X-420621Y-122688D2*
X-415495D1*
X-410410D2*
X-395299D1*
X-420221Y-123672D2*
X-412995D1*
X-412910D2*
X-404930D1*
X-402126D2*
X-393673D1*
X-419569Y-124656D2*
X-405708D1*
X-400161D2*
X-392325D1*
X-418746Y-125640D2*
X-406587D1*
X-398230D2*
X-391799D1*
X-417833Y-126625D2*
X-407720D1*
X-396414D2*
X-391513D1*
X-416890Y-127609D2*
X-409016D1*
X-394782D2*
X-391378D1*
X-393268Y-128593D2*
X-391299D1*
X-401142Y-135483D2*
X-396220D1*
X-403110Y-136467D2*
X-396220D1*
X-405079Y-137451D2*
X-396220D1*
X-407051Y-138436D2*
X-396220D1*
X-409054Y-139420D2*
X-396220D1*
X-411148Y-140404D2*
X-402278D1*
X-399173D2*
X-396220D1*
X-413349Y-141388D2*
X-404491D1*
X-399173D2*
X-396220D1*
X-415527Y-142373D2*
X-406714D1*
X-399173D2*
X-396220D1*
X-417465Y-143357D2*
X-408855D1*
X-399173D2*
X-396220D1*
X-418961Y-144341D2*
X-410915D1*
X-399173D2*
X-396220D1*
X-420090Y-145325D2*
X-412925D1*
X-399173D2*
X-396220D1*
X-420474Y-146310D2*
X-414911D1*
X-399173D2*
X-396220D1*
X-420689Y-147294D2*
X-416886D1*
X-399173D2*
X-396220D1*
X-420827Y-148278D2*
X-418858D1*
X-409016D2*
X-391299D1*
X-409016Y-149262D2*
X-391299D1*
X-409016Y-150247D2*
X-391299D1*
X-409016Y-151231D2*
X-391299D1*
X-409016Y-152215D2*
X-391299D1*
X-399173Y-153199D2*
X-396220D1*
X-399173Y-154184D2*
X-396220D1*
X-65945Y-262150D2*
X-60039D1*
X-46260D2*
X-31496D1*
X-19685D2*
X-15748D1*
X4921D2*
X11811D1*
X29528D2*
X44291D1*
X58071D2*
X63976D1*
X-67380Y-263134D2*
X-58605D1*
X-46260D2*
X-31496D1*
X-19311D2*
X-15374D1*
X3639D2*
X13212D1*
X28093D2*
X44291D1*
X56333D2*
X65865D1*
X-68608Y-264118D2*
X-57376D1*
X-46260D2*
X-31496D1*
X-18888D2*
X-14951D1*
X2650D2*
X14349D1*
X26864D2*
X44291D1*
X54900D2*
X67380D1*
X-69572Y-265102D2*
X-56413D1*
X-46260D2*
X-31496D1*
X-18431D2*
X-14494D1*
X1907D2*
X15202D1*
X25897D2*
X44291D1*
X53825D2*
X68522D1*
X-70328Y-266087D2*
X-64726D1*
X-61258D2*
X-55657D1*
X-35433D2*
X-31496D1*
X-17953D2*
X-14020D1*
X1306D2*
X7125D1*
X10481D2*
X15834D1*
X25214D2*
X30861D1*
X40354D2*
X44291D1*
X52972D2*
X59252D1*
X62795D2*
X69358D1*
X-70605Y-267071D2*
X-66121D1*
X-59863D2*
X-55342D1*
X-35433D2*
X-31496D1*
X-17467D2*
X-13565D1*
X808D2*
X5729D1*
X11792D2*
X16275D1*
X24731D2*
X29584D1*
X40354D2*
X44291D1*
X52254D2*
X57730D1*
X64320D2*
X69978D1*
X-70755Y-268055D2*
X-67194D1*
X-58790D2*
X-55066D1*
X-35433D2*
X-31496D1*
X-16977D2*
X-13169D1*
X461D2*
X4656D1*
X12833D2*
X16543D1*
X24325D2*
X28689D1*
X40354D2*
X44291D1*
X51730D2*
X56567D1*
X65505D2*
X70414D1*
X-70822Y-269039D2*
X-67567D1*
X-58417D2*
X-54762D1*
X-35437D2*
X-31496D1*
X-16486D2*
X-12820D1*
X271D2*
X4234D1*
X13780D2*
X16732D1*
X24004D2*
X28018D1*
X40354D2*
X44291D1*
X51408D2*
X55752D1*
X66375D2*
X70697D1*
X-70850Y-270024D2*
X-67767D1*
X-58217D2*
X-54482D1*
X-35474D2*
X-31496D1*
X-15994D2*
X-12438D1*
X463D2*
X4229D1*
X23838D2*
X27819D1*
X40354D2*
X44291D1*
X51181D2*
X55118D1*
X67012D2*
X70944D1*
X-70860Y-271008D2*
X-67856D1*
X-58128D2*
X-54300D1*
X-35627D2*
X-31496D1*
X-15502D2*
X-12007D1*
X717D2*
X4427D1*
X23861D2*
X27745D1*
X40354D2*
X44291D1*
X67452D2*
X71232D1*
X-70864Y-271992D2*
X-67892D1*
X-58092D2*
X-54205D1*
X-42323D2*
X-37402D1*
X-35963D2*
X-31496D1*
X-15009D2*
X-11545D1*
X1002D2*
X4776D1*
X24055D2*
X27992D1*
X40354D2*
X44291D1*
X67704D2*
X71506D1*
X-70866Y-272976D2*
X-67906D1*
X-58078D2*
X-54162D1*
X-43724D2*
X-31496D1*
X-14518D2*
X-11065D1*
X1361D2*
X5210D1*
X24327D2*
X28651D1*
X40354D2*
X44291D1*
X67826D2*
X71685D1*
X-70866Y-273961D2*
X-67911D1*
X-58073D2*
X-54144D1*
X-44861D2*
X-31496D1*
X-22638D2*
X-19685D1*
X-14029D2*
X-10578D1*
X1812D2*
X5712D1*
X24656D2*
X31244D1*
X40354D2*
X44291D1*
X67880D2*
X71780D1*
X-70866Y-274945D2*
X-67913D1*
X-58072D2*
X-54138D1*
X-45714D2*
X-31496D1*
X-22638D2*
X-19685D1*
X-13568D2*
X-10087D1*
X2365D2*
X6320D1*
X25148D2*
X35691D1*
X40354D2*
X44291D1*
X67901D2*
X71822D1*
X-70866Y-275929D2*
X-67913D1*
X-58071D2*
X-54135D1*
X-46345D2*
X-41301D1*
X-37583D2*
X-31496D1*
X-22638D2*
X-19685D1*
X-13170D2*
X-9597D1*
X2989D2*
X7045D1*
X25871D2*
X44291D1*
X67909D2*
X71840D1*
X-70866Y-276913D2*
X-67913D1*
X-58071D2*
X-54134D1*
X-46784D2*
X-42155D1*
X-35959D2*
X-31496D1*
X-22638D2*
X-19685D1*
X-12820D2*
X-9104D1*
X3621D2*
X7792D1*
X26795D2*
X44291D1*
X67912D2*
X71847D1*
X-70866Y-277898D2*
X-67913D1*
X-58071D2*
X-54134D1*
X-47035D2*
X-42865D1*
X-34449D2*
X-31496D1*
X-22638D2*
X-19685D1*
X-12438D2*
X-8613D1*
X4298D2*
X8491D1*
X27754D2*
X44291D1*
X67913D2*
X71849D1*
X-70866Y-278882D2*
X-67913D1*
X-58071D2*
X-54134D1*
X-47157D2*
X-43433D1*
X-22638D2*
X-19685D1*
X-12007D2*
X-8120D1*
X5056D2*
X9202D1*
X28596D2*
X44291D1*
X67913D2*
X71846D1*
X-70866Y-279866D2*
X-67913D1*
X-58071D2*
X-54134D1*
X-47210D2*
X-43846D1*
X-22638D2*
X-19685D1*
X-11542D2*
X-7628D1*
X5815D2*
X10003D1*
X28800D2*
X33621D1*
X40354D2*
X44291D1*
X67909D2*
X71812D1*
X-70866Y-280850D2*
X-67913D1*
X-58071D2*
X-54138D1*
X-47232D2*
X-44083D1*
X-22638D2*
X-19685D1*
X-11036D2*
X-7139D1*
X6519D2*
X10859D1*
X28529D2*
X32915D1*
X40354D2*
X44291D1*
X67875D2*
X71686D1*
X-70866Y-281835D2*
X-67913D1*
X-58071D2*
X-54172D1*
X-47240D2*
X-44168D1*
X-22638D2*
X-19685D1*
X-10467D2*
X-6683D1*
X7229D2*
X11675D1*
X28075D2*
X32315D1*
X40354D2*
X44291D1*
X67746D2*
X71451D1*
X-70866Y-282819D2*
X-67910D1*
X-58075D2*
X-54298D1*
X-47243D2*
X-44090D1*
X-22638D2*
X-19685D1*
X-9843D2*
X-6319D1*
X8000D2*
X12406D1*
X27499D2*
X31773D1*
X40354D2*
X44291D1*
X67471D2*
X71195D1*
X-70866Y-283803D2*
X-67867D1*
X-58117D2*
X-54533D1*
X-47240D2*
X-43837D1*
X-24606D2*
X-6098D1*
X8765D2*
X13127D1*
X26919D2*
X31262D1*
X40354D2*
X44291D1*
X51181D2*
X55118D1*
X67051D2*
X70988D1*
X-70862Y-284787D2*
X-67763D1*
X-58221D2*
X-54790D1*
X-47205D2*
X-43417D1*
X-34449D2*
X-31496D1*
X-24606D2*
X-5986D1*
X9471D2*
X13903D1*
X26374D2*
X30762D1*
X40354D2*
X44291D1*
X51371D2*
X55701D1*
X66430D2*
X70768D1*
X-70824Y-285772D2*
X-67219D1*
X-58765D2*
X-55000D1*
X-47076D2*
X-42877D1*
X-35097D2*
X-31652D1*
X-24606D2*
X-5935D1*
X10185D2*
X14666D1*
X25855D2*
X30268D1*
X40354D2*
X44291D1*
X51745D2*
X56477D1*
X65608D2*
X70452D1*
X-70660Y-286756D2*
X-65535D1*
X-60450D2*
X-55255D1*
X-46802D2*
X-41574D1*
X-36808D2*
X-31934D1*
X-24606D2*
X-5906D1*
X10990D2*
X15334D1*
X25352D2*
X29774D1*
X40354D2*
X44291D1*
X52278D2*
X58322D1*
X63742D2*
X70018D1*
X-70257Y-287740D2*
X-63035D1*
X-62950D2*
X-55700D1*
X-46382D2*
X-39679D1*
X-39321D2*
X-32357D1*
X-22638D2*
X-19685D1*
X11876D2*
X15885D1*
X24855D2*
X29282D1*
X40354D2*
X44291D1*
X52905D2*
X60917D1*
X61136D2*
X69433D1*
X-69567Y-288724D2*
X-56407D1*
X-45773D2*
X-32966D1*
X-22638D2*
X-19685D1*
X0D2*
X16291D1*
X24358D2*
X28792D1*
X40354D2*
X44291D1*
X53731D2*
X68612D1*
X-68592Y-289709D2*
X-57389D1*
X-44879D2*
X-33861D1*
X-22638D2*
X-19685D1*
X0D2*
X16530D1*
X23839D2*
X28326D1*
X40354D2*
X44291D1*
X54912D2*
X67442D1*
X-67343Y-290693D2*
X-58640D1*
X-43683D2*
X-35057D1*
X-22638D2*
X-19685D1*
X0D2*
X16654D1*
X23265D2*
X27916D1*
X40354D2*
X44291D1*
X56418D2*
X65838D1*
X-65945Y-291677D2*
X-60039D1*
X-42323D2*
X-36417D1*
X-22638D2*
X-19685D1*
X0D2*
X16732D1*
X22638D2*
X27559D1*
X40354D2*
X44291D1*
X58071D2*
X63976D1*
X-534787Y37290D2*
X-515102D1*
X-512150D2*
X-493449D1*
X-480654D2*
X-472780D1*
X-459984D2*
X-441283D1*
X-427504D2*
X-412740D1*
X-534787Y36306D2*
X-515102D1*
X-512150D2*
X-493449D1*
X-482383D2*
X-471042D1*
X-459984D2*
X-441283D1*
X-428939D2*
X-412740D1*
X-534787Y35322D2*
X-515102D1*
X-512150D2*
X-493449D1*
X-483928D2*
X-469612D1*
X-459984D2*
X-441283D1*
X-430167D2*
X-412740D1*
X-534787Y34337D2*
X-515102D1*
X-512150D2*
X-493449D1*
X-484726D2*
X-468573D1*
X-459984D2*
X-441283D1*
X-431134D2*
X-412740D1*
X-526913Y33353D2*
X-523961D1*
X-497386D2*
X-493449D1*
X-484838D2*
X-479669D1*
X-473961D2*
X-467845D1*
X-445220D2*
X-441283D1*
X-431817D2*
X-426170D1*
X-416677D2*
X-412740D1*
X-526913Y32369D2*
X-523961D1*
X-497386D2*
X-493449D1*
X-484591D2*
X-482622D1*
X-472440D2*
X-467363D1*
X-445220D2*
X-441283D1*
X-432301D2*
X-427448D1*
X-416677D2*
X-412740D1*
X-526913Y31385D2*
X-523961D1*
X-497386D2*
X-493449D1*
X-471293D2*
X-467094D1*
X-445220D2*
X-441283D1*
X-432707D2*
X-428343D1*
X-416677D2*
X-412740D1*
X-526913Y30400D2*
X-523961D1*
X-497386D2*
X-493449D1*
X-470431D2*
X-466965D1*
X-445220D2*
X-441283D1*
X-433028D2*
X-429014D1*
X-416677D2*
X-412740D1*
X-526913Y29416D2*
X-523961D1*
X-497386D2*
X-493449D1*
X-470178D2*
X-466909D1*
X-445220D2*
X-441283D1*
X-433194D2*
X-429212D1*
X-416677D2*
X-412740D1*
X-526913Y28432D2*
X-523961D1*
X-497386D2*
X-493449D1*
X-470321D2*
X-466891D1*
X-445220D2*
X-441283D1*
X-433170D2*
X-429286D1*
X-416677D2*
X-412740D1*
X-526913Y27448D2*
X-523961D1*
X-497386D2*
X-493449D1*
X-470833D2*
X-466921D1*
X-445220D2*
X-441283D1*
X-432976D2*
X-429040D1*
X-416677D2*
X-412740D1*
X-526913Y26463D2*
X-523961D1*
X-497386D2*
X-493449D1*
X-472274D2*
X-467082D1*
X-445220D2*
X-441283D1*
X-432704D2*
X-428380D1*
X-416677D2*
X-412740D1*
X-526913Y25479D2*
X-523961D1*
X-497386D2*
X-493449D1*
X-474538D2*
X-467484D1*
X-445220D2*
X-441283D1*
X-432376D2*
X-425787D1*
X-416677D2*
X-412740D1*
X-526913Y24495D2*
X-523961D1*
X-497386D2*
X-493449D1*
X-477406D2*
X-468186D1*
X-445220D2*
X-441283D1*
X-431884D2*
X-421340D1*
X-416677D2*
X-412740D1*
X-526913Y23510D2*
X-523961D1*
X-510181D2*
X-493449D1*
X-480186D2*
X-469285D1*
X-458016D2*
X-441283D1*
X-431160D2*
X-412740D1*
X-526913Y22526D2*
X-523961D1*
X-510181D2*
X-493449D1*
X-482370D2*
X-471045D1*
X-458016D2*
X-441283D1*
X-430236D2*
X-412740D1*
X-526913Y21542D2*
X-523961D1*
X-510181D2*
X-493449D1*
X-483896D2*
X-473604D1*
X-458016D2*
X-441283D1*
X-429278D2*
X-412740D1*
X-526913Y20558D2*
X-523961D1*
X-510181D2*
X-493449D1*
X-484920D2*
X-476557D1*
X-458016D2*
X-441283D1*
X-428435D2*
X-412740D1*
X-526913Y19573D2*
X-523961D1*
X-497386D2*
X-493449D1*
X-485620D2*
X-479179D1*
X-445220D2*
X-441283D1*
X-428232D2*
X-423411D1*
X-416677D2*
X-412740D1*
X-526913Y18589D2*
X-523961D1*
X-497386D2*
X-493449D1*
X-486085D2*
X-481058D1*
X-445220D2*
X-441283D1*
X-428503D2*
X-424117D1*
X-416677D2*
X-412740D1*
X-526913Y17605D2*
X-523961D1*
X-497386D2*
X-493449D1*
X-486345D2*
X-482424D1*
X-445220D2*
X-441283D1*
X-428957D2*
X-424717D1*
X-416677D2*
X-412740D1*
X-526913Y16621D2*
X-523961D1*
X-497386D2*
X-493449D1*
X-486470D2*
X-482976D1*
X-445220D2*
X-441283D1*
X-429533D2*
X-425258D1*
X-416677D2*
X-412740D1*
X-526913Y15636D2*
X-523961D1*
X-497386D2*
X-493449D1*
X-486521D2*
X-483012D1*
X-445220D2*
X-441283D1*
X-430113D2*
X-425769D1*
X-416677D2*
X-412740D1*
X-526913Y14652D2*
X-523961D1*
X-497386D2*
X-493449D1*
X-486504D2*
X-482691D1*
X-445220D2*
X-441283D1*
X-430657D2*
X-426270D1*
X-416677D2*
X-412740D1*
X-526913Y13668D2*
X-523961D1*
X-497386D2*
X-493449D1*
X-486348D2*
X-481868D1*
X-467858D2*
X-466874D1*
X-445220D2*
X-441283D1*
X-431177D2*
X-426764D1*
X-416677D2*
X-412740D1*
X-526913Y12684D2*
X-523961D1*
X-497386D2*
X-493449D1*
X-485952D2*
X-479336D1*
X-471258D2*
X-466348D1*
X-445220D2*
X-441283D1*
X-431680D2*
X-427258D1*
X-416677D2*
X-412740D1*
X-526913Y11699D2*
X-523961D1*
X-497386D2*
X-493449D1*
X-485293D2*
X-475479D1*
X-475633D2*
X-465668D1*
X-445220D2*
X-441283D1*
X-432177D2*
X-427749D1*
X-416677D2*
X-412740D1*
X-526913Y10715D2*
X-523961D1*
X-512150D2*
X-493449D1*
X-484395D2*
X-464906D1*
X-459984D2*
X-441283D1*
X-432673D2*
X-428239D1*
X-416677D2*
X-412740D1*
X-526913Y9731D2*
X-523961D1*
X-512150D2*
X-493449D1*
X-483176D2*
X-467055D1*
X-459984D2*
X-441283D1*
X-433192D2*
X-428705D1*
X-416677D2*
X-412740D1*
X-526913Y8747D2*
X-523961D1*
X-512150D2*
X-493449D1*
X-481547D2*
X-469369D1*
X-459984D2*
X-441283D1*
X-433767D2*
X-429115D1*
X-416677D2*
X-412740D1*
X-526913Y7762D2*
X-523961D1*
X-512150D2*
X-493449D1*
X-479669D2*
X-471795D1*
X-459984D2*
X-441283D1*
X-434394D2*
X-429472D1*
X-416677D2*
X-412740D1*
X339609Y-879896D2*
X337871Y-880880D1*
X336441Y-881864D1*
X335398Y-882848D1*
X334636Y-883833D1*
X334028Y-884817D1*
X333524Y-885801D1*
X333142Y-886785D1*
X332915Y-887770D1*
X332801Y-888754D1*
X332751Y-889738D1*
X332731Y-890722D1*
X332723Y-891707D1*
X332721Y-892691D1*
X332720Y-893675D1*
X332719Y-894659D1*
Y-895644D1*
Y-896628D1*
Y-897612D1*
Y-898596D1*
X332723Y-899581D1*
X332758Y-900565D1*
X332887Y-901549D1*
X333157Y-902533D1*
X333539Y-903518D1*
X333989Y-904502D1*
X334534Y-905486D1*
X335311Y-906470D1*
X336467Y-907455D1*
X337963Y-908439D1*
X339609Y-909423D1*
X353388Y-879896D2*
Y-880880D1*
Y-881864D1*
Y-882848D1*
Y-883833D1*
Y-884817D1*
Y-885801D1*
Y-886785D1*
Y-887770D1*
Y-888754D1*
Y-889738D1*
Y-890722D1*
Y-891707D1*
Y-892691D1*
Y-893675D1*
Y-894659D1*
Y-895644D1*
Y-896628D1*
Y-897612D1*
Y-898596D1*
Y-899581D1*
Y-900565D1*
Y-901549D1*
Y-902533D1*
Y-903518D1*
Y-904502D1*
Y-905486D1*
Y-906470D1*
Y-907455D1*
Y-908439D1*
Y-909423D1*
X358310Y-879896D2*
X358646Y-880880D1*
X358943Y-881864D1*
X359164Y-882848D1*
X359386Y-883833D1*
X359665Y-884817D1*
X359939Y-885801D1*
X360152Y-886785D1*
X360371Y-887770D1*
X360650Y-888754D1*
X360924Y-889738D1*
X361137Y-890722D1*
X361356Y-891707D1*
X361634Y-892691D1*
X361908Y-893675D1*
X362121Y-894659D1*
X362340Y-895644D1*
X362618Y-896628D1*
X362892Y-897612D1*
X363105Y-898596D1*
X363324Y-899581D1*
X363603Y-900565D1*
X363872Y-901549D1*
X364055Y-902533D1*
X364183Y-903518D1*
X364351Y-904502D1*
X364604Y-905486D1*
X364863Y-906470D1*
X365038Y-907455D1*
X365136Y-908439D1*
X365199Y-909423D1*
X362247Y-879896D2*
X362284Y-880880D1*
X362410Y-881864D1*
X362646Y-882848D1*
X362903Y-883833D1*
X363109Y-884817D1*
X363326Y-885801D1*
X363603Y-886785D1*
X363876Y-887770D1*
X364089Y-888754D1*
X364308Y-889738D1*
X364587Y-890722D1*
X364857Y-891707D1*
X365039Y-892691D1*
X365167Y-893675D1*
X365335Y-894659D1*
X365589Y-895644D1*
X365852Y-896628D1*
X366060Y-897612D1*
X366282Y-898596D1*
X366597Y-899581D1*
X367021Y-900565D1*
X367551Y-901549D1*
X368152Y-902533D1*
X374058Y-879896D2*
X374020Y-880880D1*
X373894Y-881864D1*
X373654Y-882848D1*
X373367Y-883833D1*
X373070Y-884817D1*
X372743Y-885801D1*
X372445Y-886785D1*
X372222Y-887770D1*
X371998Y-888754D1*
X371718Y-889738D1*
X371444Y-890722D1*
X371231Y-891707D1*
X371012Y-892691D1*
X370733Y-893675D1*
X370460Y-894659D1*
X370247Y-895644D1*
X370027Y-896628D1*
X369749Y-897612D1*
X369475Y-898596D1*
X369260Y-899581D1*
X369013Y-900565D1*
X368633Y-901549D1*
X368152Y-902533D1*
X377010Y-879896D2*
X377163Y-880880D1*
X377407Y-881864D1*
X377665Y-882848D1*
X377872Y-883833D1*
X378089Y-884817D1*
X378367Y-885801D1*
X378640Y-886785D1*
X378853Y-887770D1*
X379072Y-888754D1*
X379351Y-889738D1*
X379624Y-890722D1*
X379837Y-891707D1*
X380057Y-892691D1*
X380335Y-893675D1*
X380609Y-894659D1*
X380822Y-895644D1*
X381041Y-896628D1*
X381327Y-897612D1*
X381672Y-898596D1*
X382155Y-899581D1*
X382927Y-900565D1*
X383900Y-901549D1*
X388822Y-879896D2*
X388784Y-880880D1*
X388658Y-881864D1*
X388422Y-882848D1*
X388166Y-883833D1*
X387959Y-884817D1*
X387743Y-885801D1*
X387465Y-886785D1*
X387196Y-887770D1*
X387013Y-888754D1*
X386885Y-889738D1*
X386717Y-890722D1*
X386464Y-891707D1*
X386201Y-892691D1*
X385992Y-893675D1*
X385775Y-894659D1*
X385497Y-895644D1*
X385227Y-896628D1*
X385041Y-897612D1*
X384872Y-898596D1*
X384641Y-899581D1*
X383863Y-900565D1*
X382916Y-901549D1*
X392759Y-879896D2*
X392422Y-880880D1*
X392129Y-881864D1*
X391939Y-882848D1*
X391808Y-883833D1*
X391639Y-884817D1*
X391385Y-885801D1*
X391122Y-886785D1*
X390913Y-887770D1*
X390696Y-888754D1*
X390418Y-889738D1*
X390145Y-890722D1*
X389932Y-891707D1*
X389713Y-892691D1*
X389434Y-893675D1*
X389160Y-894659D1*
X388947Y-895644D1*
X388728Y-896628D1*
X388450Y-897612D1*
X388176Y-898596D1*
X387963Y-899581D1*
X387744Y-900565D1*
X387466Y-901549D1*
X387192Y-902533D1*
X386979Y-903518D1*
X386760Y-904502D1*
X386481Y-905486D1*
X386211Y-906470D1*
X386032Y-907455D1*
X385933Y-908439D1*
X385869Y-909423D1*
X402601Y-879896D2*
X400871Y-880880D1*
X399326Y-881864D1*
X398529Y-882848D1*
X398416Y-883833D1*
X398664Y-884817D1*
X410475Y-879896D2*
X412213Y-880880D1*
X413643Y-881864D1*
X414682Y-882848D1*
X415410Y-883833D1*
X415892Y-884817D1*
X416161Y-885801D1*
X416290Y-886785D1*
X416345Y-887770D1*
X416364Y-888754D1*
X416334Y-889738D1*
X416173Y-890722D1*
X415770Y-891707D1*
X415069Y-892691D1*
X413970Y-893675D1*
X412210Y-894659D1*
X409651Y-895644D1*
X406698Y-896628D1*
X404076Y-897612D1*
X402197Y-898596D1*
X400831Y-899581D1*
X400278Y-900565D1*
X400243Y-901549D1*
X400563Y-902533D1*
X401386Y-903518D1*
X403919Y-904502D1*
X407775Y-905486D1*
X412444Y-906470D1*
X342562Y-882848D2*
X340790Y-883833D1*
X339269Y-884817D1*
X338119Y-885801D1*
X337245Y-886785D1*
X336941Y-887770D1*
X336777Y-888754D1*
X336703Y-889738D1*
X336673Y-890722D1*
X336662Y-891707D1*
X336658Y-892691D1*
X336657Y-893675D1*
X336656Y-894659D1*
Y-895644D1*
Y-896628D1*
Y-897612D1*
Y-898596D1*
X336660Y-899581D1*
X336698Y-900565D1*
X336866Y-901549D1*
X337185Y-902533D1*
X338104Y-903518D1*
X340800Y-904502D1*
X345099Y-905486D1*
X350436Y-906470D1*
X349451Y-882848D2*
Y-883833D1*
Y-884817D1*
Y-885801D1*
Y-886785D1*
Y-887770D1*
Y-888754D1*
Y-889738D1*
Y-890722D1*
Y-891707D1*
Y-892691D1*
Y-893675D1*
Y-894659D1*
Y-895644D1*
Y-896628D1*
Y-897612D1*
Y-898596D1*
Y-899581D1*
Y-900565D1*
Y-901549D1*
Y-902533D1*
Y-903518D1*
Y-904502D1*
Y-905486D1*
X341577Y-906470D1*
X406538Y-882848D2*
X403585Y-883833D1*
X400633Y-884817D1*
X407522Y-882848D2*
X409294Y-883833D1*
X410815Y-884817D1*
X411961Y-885801D1*
X412823Y-886785D1*
X413076Y-887770D1*
X412934Y-888754D1*
X412422Y-889738D1*
X410981Y-890722D1*
X408716Y-891707D1*
X405849Y-892691D1*
X403068Y-893675D1*
X400885Y-894659D1*
X399359Y-895644D1*
X398335Y-896628D1*
X397634Y-897612D1*
X397170Y-898596D1*
X396910Y-899581D1*
X396784Y-900565D1*
X396734Y-901549D1*
X396750Y-902533D1*
X396906Y-903518D1*
X397303Y-904502D1*
X397961Y-905486D1*
X398860Y-906470D1*
X400079Y-907455D1*
X401707Y-908439D1*
X403585Y-909423D1*
X374058Y-889738D2*
X374054Y-890722D1*
X374019Y-891707D1*
X373894Y-892691D1*
X373658Y-893675D1*
X373402Y-894659D1*
X373196Y-895644D1*
X372979Y-896628D1*
X372698Y-897612D1*
X372393Y-898596D1*
X372090Y-899581D1*
X371760Y-900565D1*
X371461Y-901549D1*
X371238Y-902533D1*
X371014Y-903518D1*
X370734Y-904502D1*
X370460Y-905486D1*
X370244Y-906470D1*
X369998Y-907455D1*
X369617Y-908439D1*
X369136Y-909423D1*
X375042Y-889738D2*
X375837Y-890722D1*
X376447Y-891707D1*
X376902Y-892691D1*
X377298Y-893675D1*
X377623Y-894659D1*
X377857Y-895644D1*
X378084Y-896628D1*
X378365Y-897612D1*
X378640Y-898596D1*
X378853Y-899581D1*
X379072Y-900565D1*
X379354Y-901549D1*
X379659Y-902533D1*
X379963Y-903518D1*
X380292Y-904502D1*
X380591Y-905486D1*
X380818Y-906470D1*
X381068Y-907455D1*
X381451Y-908439D1*
X381932Y-909423D1*
X415396Y-903518D2*
X411997Y-904502D1*
X407621Y-905486D1*
X402601Y-906470D1*
X416381Y-903518D2*
X416907Y-904502D1*
X417587Y-905486D1*
X418349Y-906470D1*
X416200Y-907455D1*
X413886Y-908439D1*
X411459Y-909423D1*
X-420827Y-107924D2*
Y-108908D1*
Y-109892D1*
Y-110877D1*
Y-111861D1*
Y-112845D1*
Y-113829D1*
Y-114814D1*
Y-115798D1*
Y-116782D1*
Y-117766D1*
Y-118751D1*
Y-119735D1*
X-420823Y-120719D1*
X-420784Y-121703D1*
X-420621Y-122688D1*
X-420221Y-123672D1*
X-419569Y-124656D1*
X-418746Y-125640D1*
X-417833Y-126625D1*
X-416890Y-127609D1*
X-391299Y-107924D2*
Y-108908D1*
Y-109892D1*
Y-110877D1*
X-417874D2*
Y-111861D1*
Y-112845D1*
Y-113829D1*
Y-114814D1*
Y-115798D1*
Y-116782D1*
Y-117766D1*
X-417870Y-118751D1*
X-417828Y-119735D1*
X-417724Y-120719D1*
X-417180Y-121703D1*
X-415495Y-122688D1*
X-412995Y-123672D1*
X-410000Y-124656D1*
X-408031Y-110877D2*
Y-111861D1*
Y-112845D1*
Y-113829D1*
Y-114814D1*
Y-115798D1*
Y-116782D1*
Y-117766D1*
X-408035Y-118751D1*
X-408078Y-119735D1*
X-408181Y-120719D1*
X-408725Y-121703D1*
X-410410Y-122688D1*
X-412910Y-123672D1*
X-415906Y-124656D1*
X-404094Y-110877D2*
Y-111861D1*
Y-112845D1*
Y-113829D1*
X-404091Y-114814D1*
X-404048Y-115798D1*
X-403945Y-116782D1*
X-403447Y-117766D1*
X-402272Y-118751D1*
X-400766Y-119735D1*
X-399019Y-120719D1*
X-397154Y-121703D1*
X-395299Y-122688D1*
X-393673Y-123672D1*
X-392325Y-124656D1*
X-391799Y-125640D1*
X-391513Y-126625D1*
X-391378Y-127609D1*
X-391299Y-128593D1*
X-404094Y-122688D2*
X-404930Y-123672D1*
X-405708Y-124656D1*
X-406587Y-125640D1*
X-407720Y-126625D1*
X-409016Y-127609D1*
X-404094Y-122688D2*
X-402126Y-123672D1*
X-400161Y-124656D1*
X-398230Y-125640D1*
X-396414Y-126625D1*
X-394782Y-127609D1*
X-393268Y-128593D1*
X-401142Y-135483D2*
X-403110Y-136467D1*
X-405079Y-137451D1*
X-407051Y-138436D1*
X-409054Y-139420D1*
X-411148Y-140404D1*
X-413349Y-141388D1*
X-415527Y-142373D1*
X-417465Y-143357D1*
X-418961Y-144341D1*
X-420090Y-145325D1*
X-420474Y-146310D1*
X-420689Y-147294D1*
X-420827Y-148278D1*
X-396220Y-135483D2*
Y-136467D1*
Y-137451D1*
Y-138436D1*
Y-139420D1*
Y-140404D1*
Y-141388D1*
Y-142373D1*
Y-143357D1*
Y-144341D1*
Y-145325D1*
Y-146310D1*
Y-147294D1*
Y-148278D1*
X-391299D1*
Y-149262D1*
Y-150247D1*
Y-151231D1*
Y-152215D1*
Y-153199D1*
X-396220D1*
Y-154184D1*
X-400157Y-139420D2*
X-402278Y-140404D1*
X-404491Y-141388D1*
X-406714Y-142373D1*
X-408855Y-143357D1*
X-410915Y-144341D1*
X-412925Y-145325D1*
X-414911Y-146310D1*
X-416886Y-147294D1*
X-418858Y-148278D1*
X-399173Y-139420D2*
Y-140404D1*
Y-141388D1*
Y-142373D1*
Y-143357D1*
Y-144341D1*
Y-145325D1*
Y-146310D1*
Y-147294D1*
Y-148278D1*
X-409016D1*
Y-149262D1*
Y-150247D1*
Y-151231D1*
Y-152215D1*
Y-153199D1*
X-399173D1*
Y-154184D1*
X-65945Y-262150D2*
X-67380Y-263134D1*
X-68608Y-264118D1*
X-69572Y-265102D1*
X-70328Y-266087D1*
X-70605Y-267071D1*
X-70755Y-268055D1*
X-70822Y-269039D1*
X-70850Y-270024D1*
X-70860Y-271008D1*
X-70864Y-271992D1*
X-70866Y-272976D1*
Y-273961D1*
Y-274945D1*
Y-275929D1*
Y-276913D1*
Y-277898D1*
Y-278882D1*
Y-279866D1*
Y-280850D1*
Y-281835D1*
Y-282819D1*
Y-283803D1*
X-70862Y-284787D1*
X-70824Y-285772D1*
X-70660Y-286756D1*
X-70257Y-287740D1*
X-69567Y-288724D1*
X-68592Y-289709D1*
X-67343Y-290693D1*
X-65945Y-291677D1*
X-60039Y-262150D2*
X-58605Y-263134D1*
X-57376Y-264118D1*
X-56413Y-265102D1*
X-55657Y-266087D1*
X-55342Y-267071D1*
X-55066Y-268055D1*
X-54762Y-269039D1*
X-54482Y-270024D1*
X-54300Y-271008D1*
X-54205Y-271992D1*
X-54162Y-272976D1*
X-54144Y-273961D1*
X-54138Y-274945D1*
X-54135Y-275929D1*
X-54134Y-276913D1*
Y-277898D1*
Y-278882D1*
Y-279866D1*
X-54138Y-280850D1*
X-54172Y-281835D1*
X-54298Y-282819D1*
X-54533Y-283803D1*
X-54790Y-284787D1*
X-55000Y-285772D1*
X-55255Y-286756D1*
X-55700Y-287740D1*
X-56407Y-288724D1*
X-57389Y-289709D1*
X-58640Y-290693D1*
X-60039Y-291677D1*
X-46260Y-262150D2*
Y-263134D1*
Y-264118D1*
Y-265102D1*
Y-266087D1*
X-35433D1*
Y-267071D1*
Y-268055D1*
X-35437Y-269039D1*
X-35474Y-270024D1*
X-35627Y-271008D1*
X-35963Y-271992D1*
X-36417Y-272976D1*
X-31496Y-262150D2*
Y-263134D1*
Y-264118D1*
Y-265102D1*
Y-266087D1*
Y-267071D1*
Y-268055D1*
Y-269039D1*
Y-270024D1*
Y-271008D1*
Y-271992D1*
Y-272976D1*
Y-273961D1*
Y-274945D1*
Y-275929D1*
Y-276913D1*
Y-277898D1*
X-19685Y-262150D2*
X-19311Y-263134D1*
X-18888Y-264118D1*
X-18431Y-265102D1*
X-17953Y-266087D1*
X-17467Y-267071D1*
X-16977Y-268055D1*
X-16486Y-269039D1*
X-15994Y-270024D1*
X-15502Y-271008D1*
X-15009Y-271992D1*
X-14518Y-272976D1*
X-14029Y-273961D1*
X-13568Y-274945D1*
X-13170Y-275929D1*
X-12820Y-276913D1*
X-12438Y-277898D1*
X-12007Y-278882D1*
X-11542Y-279866D1*
X-11036Y-280850D1*
X-10467Y-281835D1*
X-9843Y-282819D1*
X-17717Y-283803D1*
X-15748Y-262150D2*
X-15374Y-263134D1*
X-14951Y-264118D1*
X-14494Y-265102D1*
X-14020Y-266087D1*
X-13565Y-267071D1*
X-13169Y-268055D1*
X-12820Y-269039D1*
X-12438Y-270024D1*
X-12007Y-271008D1*
X-11545Y-271992D1*
X-11065Y-272976D1*
X-10578Y-273961D1*
X-10087Y-274945D1*
X-9597Y-275929D1*
X-9104Y-276913D1*
X-8613Y-277898D1*
X-8120Y-278882D1*
X-7628Y-279866D1*
X-7139Y-280850D1*
X-6683Y-281835D1*
X-6319Y-282819D1*
X-6098Y-283803D1*
X-5986Y-284787D1*
X-5935Y-285772D1*
X-5906Y-286756D1*
X4921Y-262150D2*
X3639Y-263134D1*
X2650Y-264118D1*
X1907Y-265102D1*
X1306Y-266087D1*
X808Y-267071D1*
X461Y-268055D1*
X271Y-269039D1*
X463Y-270024D1*
X717Y-271008D1*
X1002Y-271992D1*
X1361Y-272976D1*
X1812Y-273961D1*
X2365Y-274945D1*
X2989Y-275929D1*
X3621Y-276913D1*
X4298Y-277898D1*
X5056Y-278882D1*
X5815Y-279866D1*
X6519Y-280850D1*
X7229Y-281835D1*
X8000Y-282819D1*
X8765Y-283803D1*
X9471Y-284787D1*
X10185Y-285772D1*
X10990Y-286756D1*
X11876Y-287740D1*
X12795Y-288724D1*
X11811Y-262150D2*
X13212Y-263134D1*
X14349Y-264118D1*
X15202Y-265102D1*
X15834Y-266087D1*
X16275Y-267071D1*
X16543Y-268055D1*
X16732Y-269039D1*
X29528Y-262150D2*
X28093Y-263134D1*
X26864Y-264118D1*
X25897Y-265102D1*
X25214Y-266087D1*
X24731Y-267071D1*
X24325Y-268055D1*
X24004Y-269039D1*
X23838Y-270024D1*
X23861Y-271008D1*
X24055Y-271992D1*
X24327Y-272976D1*
X24656Y-273961D1*
X25148Y-274945D1*
X25871Y-275929D1*
X26795Y-276913D1*
X27754Y-277898D1*
X28596Y-278882D1*
X28800Y-279866D1*
X28529Y-280850D1*
X28075Y-281835D1*
X27499Y-282819D1*
X26919Y-283803D1*
X26374Y-284787D1*
X25855Y-285772D1*
X25352Y-286756D1*
X24855Y-287740D1*
X24358Y-288724D1*
X23839Y-289709D1*
X23265Y-290693D1*
X22638Y-291677D1*
X44291Y-262150D2*
Y-263134D1*
Y-264118D1*
Y-265102D1*
Y-266087D1*
Y-267071D1*
Y-268055D1*
Y-269039D1*
Y-270024D1*
Y-271008D1*
Y-271992D1*
Y-272976D1*
Y-273961D1*
Y-274945D1*
Y-275929D1*
Y-276913D1*
Y-277898D1*
Y-278882D1*
Y-279866D1*
Y-280850D1*
Y-281835D1*
Y-282819D1*
Y-283803D1*
Y-284787D1*
Y-285772D1*
Y-286756D1*
Y-287740D1*
Y-288724D1*
Y-289709D1*
Y-290693D1*
Y-291677D1*
X58071Y-262150D2*
X56333Y-263134D1*
X54900Y-264118D1*
X53825Y-265102D1*
X52972Y-266087D1*
X52254Y-267071D1*
X51730Y-268055D1*
X51408Y-269039D1*
X51181Y-270024D1*
X63976Y-262150D2*
X65865Y-263134D1*
X67380Y-264118D1*
X68522Y-265102D1*
X69358Y-266087D1*
X69978Y-267071D1*
X70414Y-268055D1*
X70697Y-269039D1*
X70944Y-270024D1*
X71232Y-271008D1*
X71506Y-271992D1*
X71685Y-272976D1*
X71780Y-273961D1*
X71822Y-274945D1*
X71840Y-275929D1*
X71847Y-276913D1*
X71849Y-277898D1*
X71846Y-278882D1*
X71812Y-279866D1*
X71686Y-280850D1*
X71451Y-281835D1*
X71195Y-282819D1*
X70988Y-283803D1*
X70768Y-284787D1*
X70452Y-285772D1*
X70018Y-286756D1*
X69433Y-287740D1*
X68612Y-288724D1*
X67442Y-289709D1*
X65838Y-290693D1*
X63976Y-291677D1*
X-62992Y-265102D2*
X-64726Y-266087D1*
X-66121Y-267071D1*
X-67194Y-268055D1*
X-67567Y-269039D1*
X-67767Y-270024D1*
X-67856Y-271008D1*
X-67892Y-271992D1*
X-67906Y-272976D1*
X-67911Y-273961D1*
X-67913Y-274945D1*
Y-275929D1*
Y-276913D1*
Y-277898D1*
Y-278882D1*
Y-279866D1*
Y-280850D1*
Y-281835D1*
X-67910Y-282819D1*
X-67867Y-283803D1*
X-67763Y-284787D1*
X-67219Y-285772D1*
X-65535Y-286756D1*
X-63035Y-287740D1*
X-60039Y-288724D1*
X-62992Y-265102D2*
X-61258Y-266087D1*
X-59863Y-267071D1*
X-58790Y-268055D1*
X-58417Y-269039D1*
X-58217Y-270024D1*
X-58128Y-271008D1*
X-58092Y-271992D1*
X-58078Y-272976D1*
X-58073Y-273961D1*
X-58072Y-274945D1*
X-58071Y-275929D1*
Y-276913D1*
Y-277898D1*
Y-278882D1*
Y-279866D1*
Y-280850D1*
Y-281835D1*
X-58075Y-282819D1*
X-58117Y-283803D1*
X-58221Y-284787D1*
X-58765Y-285772D1*
X-60450Y-286756D1*
X-62950Y-287740D1*
X-65945Y-288724D1*
X8858Y-265102D2*
X7125Y-266087D1*
X5729Y-267071D1*
X4656Y-268055D1*
X4234Y-269039D1*
X4229Y-270024D1*
X4427Y-271008D1*
X4776Y-271992D1*
X5210Y-272976D1*
X5712Y-273961D1*
X6320Y-274945D1*
X7045Y-275929D1*
X7792Y-276913D1*
X8491Y-277898D1*
X9202Y-278882D1*
X10003Y-279866D1*
X10859Y-280850D1*
X11675Y-281835D1*
X12406Y-282819D1*
X13127Y-283803D1*
X13903Y-284787D1*
X14666Y-285772D1*
X15334Y-286756D1*
X15885Y-287740D1*
X16291Y-288724D1*
X16530Y-289709D1*
X16654Y-290693D1*
X16732Y-291677D1*
X8858Y-265102D2*
X10481Y-266087D1*
X11792Y-267071D1*
X12833Y-268055D1*
X13780Y-269039D1*
X32480Y-265102D2*
X30861Y-266087D1*
X29584Y-267071D1*
X28689Y-268055D1*
X28018Y-269039D1*
X27819Y-270024D1*
X27745Y-271008D1*
X27992Y-271992D1*
X28651Y-272976D1*
X31244Y-273961D1*
X35691Y-274945D1*
X41339Y-275929D1*
X40354Y-265102D2*
Y-266087D1*
Y-267071D1*
Y-268055D1*
Y-269039D1*
Y-270024D1*
Y-271008D1*
Y-271992D1*
Y-272976D1*
Y-273961D1*
Y-274945D1*
X31496Y-275929D1*
X61024Y-265102D2*
X59252Y-266087D1*
X57730Y-267071D1*
X56567Y-268055D1*
X55752Y-269039D1*
X55118Y-270024D1*
X61024Y-265102D2*
X62795Y-266087D1*
X64320Y-267071D1*
X65505Y-268055D1*
X66375Y-269039D1*
X67012Y-270024D1*
X67452Y-271008D1*
X67704Y-271992D1*
X67826Y-272976D1*
X67880Y-273961D1*
X67901Y-274945D1*
X67909Y-275929D1*
X67912Y-276913D1*
X67913Y-277898D1*
Y-278882D1*
X67909Y-279866D1*
X67875Y-280850D1*
X67746Y-281835D1*
X67471Y-282819D1*
X67051Y-283803D1*
X66430Y-284787D1*
X65608Y-285772D1*
X63742Y-286756D1*
X61136Y-287740D1*
X58071Y-288724D1*
X-42323Y-271992D2*
X-43724Y-272976D1*
X-44861Y-273961D1*
X-45714Y-274945D1*
X-46345Y-275929D1*
X-46784Y-276913D1*
X-47035Y-277898D1*
X-47157Y-278882D1*
X-47210Y-279866D1*
X-47232Y-280850D1*
X-47240Y-281835D1*
X-47243Y-282819D1*
X-47240Y-283803D1*
X-47205Y-284787D1*
X-47076Y-285772D1*
X-46802Y-286756D1*
X-46382Y-287740D1*
X-45773Y-288724D1*
X-44879Y-289709D1*
X-43683Y-290693D1*
X-42323Y-291677D1*
X-37402Y-271992D2*
X-36417Y-272976D1*
X-22638Y-273961D2*
Y-274945D1*
Y-275929D1*
Y-276913D1*
Y-277898D1*
Y-278882D1*
Y-279866D1*
Y-280850D1*
Y-281835D1*
Y-282819D1*
Y-283803D1*
X-24606D1*
Y-284787D1*
Y-285772D1*
Y-286756D1*
Y-287740D1*
X-22638D1*
Y-288724D1*
Y-289709D1*
Y-290693D1*
Y-291677D1*
X-19685Y-273961D2*
Y-274945D1*
Y-275929D1*
Y-276913D1*
Y-277898D1*
Y-278882D1*
Y-279866D1*
Y-280850D1*
Y-281835D1*
Y-282819D1*
X-10827Y-283803D1*
X-40354Y-274945D2*
X-41301Y-275929D1*
X-42155Y-276913D1*
X-42865Y-277898D1*
X-43433Y-278882D1*
X-43846Y-279866D1*
X-44083Y-280850D1*
X-44168Y-281835D1*
X-44090Y-282819D1*
X-43837Y-283803D1*
X-43417Y-284787D1*
X-42877Y-285772D1*
X-41574Y-286756D1*
X-39679Y-287740D1*
X-37402Y-288724D1*
X-39370Y-274945D2*
X-37583Y-275929D1*
X-35959Y-276913D1*
X-34449Y-277898D1*
X34449Y-278882D2*
X33621Y-279866D1*
X32915Y-280850D1*
X32315Y-281835D1*
X31773Y-282819D1*
X31262Y-283803D1*
X30762Y-284787D1*
X30268Y-285772D1*
X29774Y-286756D1*
X29282Y-287740D1*
X28792Y-288724D1*
X28326Y-289709D1*
X27916Y-290693D1*
X27559Y-291677D1*
X40354Y-278882D2*
Y-279866D1*
Y-280850D1*
Y-281835D1*
Y-282819D1*
Y-283803D1*
Y-284787D1*
Y-285772D1*
Y-286756D1*
Y-287740D1*
Y-288724D1*
Y-289709D1*
Y-290693D1*
Y-291677D1*
X51181Y-283803D2*
X51371Y-284787D1*
X51745Y-285772D1*
X52278Y-286756D1*
X52905Y-287740D1*
X53731Y-288724D1*
X54912Y-289709D1*
X56418Y-290693D1*
X58071Y-291677D1*
X55118Y-283803D2*
X55701Y-284787D1*
X56477Y-285772D1*
X58322Y-286756D1*
X60917Y-287740D1*
X63976Y-288724D1*
X-34449Y-284787D2*
X-35097Y-285772D1*
X-36808Y-286756D1*
X-39321Y-287740D1*
X-42323Y-288724D1*
X-31496Y-284787D2*
X-31652Y-285772D1*
X-31934Y-286756D1*
X-32357Y-287740D1*
X-32966Y-288724D1*
X-33861Y-289709D1*
X-35057Y-290693D1*
X-36417Y-291677D1*
X-19685Y-286756D2*
Y-287740D1*
Y-288724D1*
Y-289709D1*
Y-290693D1*
Y-291677D1*
X0Y-288724D2*
Y-289709D1*
Y-290693D1*
Y-291677D1*
X-534787Y37290D2*
Y36306D1*
Y35322D1*
Y34337D1*
Y33353D1*
X-526913D1*
Y32369D1*
Y31385D1*
Y30400D1*
Y29416D1*
Y28432D1*
Y27448D1*
Y26463D1*
Y25479D1*
Y24495D1*
Y23510D1*
Y22526D1*
Y21542D1*
Y20558D1*
Y19573D1*
Y18589D1*
Y17605D1*
Y16621D1*
Y15636D1*
Y14652D1*
Y13668D1*
Y12684D1*
Y11699D1*
Y10715D1*
Y9731D1*
Y8747D1*
Y7762D1*
X-515102Y37290D2*
Y36306D1*
Y35322D1*
Y34337D1*
Y33353D1*
X-523961D1*
Y32369D1*
Y31385D1*
Y30400D1*
Y29416D1*
Y28432D1*
Y27448D1*
Y26463D1*
Y25479D1*
Y24495D1*
Y23510D1*
Y22526D1*
Y21542D1*
Y20558D1*
Y19573D1*
Y18589D1*
Y17605D1*
Y16621D1*
Y15636D1*
Y14652D1*
Y13668D1*
Y12684D1*
Y11699D1*
Y10715D1*
Y9731D1*
Y8747D1*
Y7762D1*
X-512150Y37290D2*
Y36306D1*
Y35322D1*
Y34337D1*
X-493449Y37290D2*
Y36306D1*
Y35322D1*
Y34337D1*
Y33353D1*
Y32369D1*
Y31385D1*
Y30400D1*
Y29416D1*
Y28432D1*
Y27448D1*
Y26463D1*
Y25479D1*
Y24495D1*
Y23510D1*
Y22526D1*
Y21542D1*
Y20558D1*
Y19573D1*
Y18589D1*
Y17605D1*
Y16621D1*
Y15636D1*
Y14652D1*
Y13668D1*
Y12684D1*
Y11699D1*
Y10715D1*
Y9731D1*
Y8747D1*
Y7762D1*
X-480654Y37290D2*
X-482383Y36306D1*
X-483928Y35322D1*
X-484726Y34337D1*
X-484838Y33353D1*
X-484591Y32369D1*
X-472780Y37290D2*
X-471042Y36306D1*
X-469612Y35322D1*
X-468573Y34337D1*
X-467845Y33353D1*
X-467363Y32369D1*
X-467094Y31385D1*
X-466965Y30400D1*
X-466909Y29416D1*
X-466891Y28432D1*
X-466921Y27448D1*
X-467082Y26463D1*
X-467484Y25479D1*
X-468186Y24495D1*
X-469285Y23510D1*
X-471045Y22526D1*
X-473604Y21542D1*
X-476557Y20558D1*
X-479179Y19573D1*
X-481058Y18589D1*
X-482424Y17605D1*
X-482976Y16621D1*
X-483012Y15636D1*
X-482691Y14652D1*
X-481868Y13668D1*
X-479336Y12684D1*
X-475479Y11699D1*
X-470811Y10715D1*
X-459984Y37290D2*
Y36306D1*
Y35322D1*
Y34337D1*
X-441283Y37290D2*
Y36306D1*
Y35322D1*
Y34337D1*
Y33353D1*
Y32369D1*
Y31385D1*
Y30400D1*
Y29416D1*
Y28432D1*
Y27448D1*
Y26463D1*
Y25479D1*
Y24495D1*
Y23510D1*
Y22526D1*
Y21542D1*
Y20558D1*
Y19573D1*
Y18589D1*
Y17605D1*
Y16621D1*
Y15636D1*
Y14652D1*
Y13668D1*
Y12684D1*
Y11699D1*
Y10715D1*
Y9731D1*
Y8747D1*
Y7762D1*
X-427504Y37290D2*
X-428939Y36306D1*
X-430167Y35322D1*
X-431134Y34337D1*
X-431817Y33353D1*
X-432301Y32369D1*
X-432707Y31385D1*
X-433028Y30400D1*
X-433194Y29416D1*
X-433170Y28432D1*
X-432976Y27448D1*
X-432704Y26463D1*
X-432376Y25479D1*
X-431884Y24495D1*
X-431160Y23510D1*
X-430236Y22526D1*
X-429278Y21542D1*
X-428435Y20558D1*
X-428232Y19573D1*
X-428503Y18589D1*
X-428957Y17605D1*
X-429533Y16621D1*
X-430113Y15636D1*
X-430657Y14652D1*
X-431177Y13668D1*
X-431680Y12684D1*
X-432177Y11699D1*
X-432673Y10715D1*
X-433192Y9731D1*
X-433767Y8747D1*
X-434394Y7762D1*
X-412740Y37290D2*
Y36306D1*
Y35322D1*
Y34337D1*
Y33353D1*
Y32369D1*
Y31385D1*
Y30400D1*
Y29416D1*
Y28432D1*
Y27448D1*
Y26463D1*
Y25479D1*
Y24495D1*
Y23510D1*
Y22526D1*
Y21542D1*
Y20558D1*
Y19573D1*
Y18589D1*
Y17605D1*
Y16621D1*
Y15636D1*
Y14652D1*
Y13668D1*
Y12684D1*
Y11699D1*
Y10715D1*
Y9731D1*
Y8747D1*
Y7762D1*
X-497386Y34337D2*
Y33353D1*
Y32369D1*
Y31385D1*
Y30400D1*
Y29416D1*
Y28432D1*
Y27448D1*
Y26463D1*
Y25479D1*
Y24495D1*
Y23510D1*
X-476717Y34337D2*
X-479669Y33353D1*
X-482622Y32369D1*
X-475732Y34337D2*
X-473961Y33353D1*
X-472440Y32369D1*
X-471293Y31385D1*
X-470431Y30400D1*
X-470178Y29416D1*
X-470321Y28432D1*
X-470833Y27448D1*
X-472274Y26463D1*
X-474538Y25479D1*
X-477406Y24495D1*
X-480186Y23510D1*
X-482370Y22526D1*
X-483896Y21542D1*
X-484920Y20558D1*
X-485620Y19573D1*
X-486085Y18589D1*
X-486345Y17605D1*
X-486470Y16621D1*
X-486521Y15636D1*
X-486504Y14652D1*
X-486348Y13668D1*
X-485952Y12684D1*
X-485293Y11699D1*
X-484395Y10715D1*
X-483176Y9731D1*
X-481547Y8747D1*
X-479669Y7762D1*
X-445220Y34337D2*
Y33353D1*
Y32369D1*
Y31385D1*
Y30400D1*
Y29416D1*
Y28432D1*
Y27448D1*
Y26463D1*
Y25479D1*
Y24495D1*
Y23510D1*
X-424551Y34337D2*
X-426170Y33353D1*
X-427448Y32369D1*
X-428343Y31385D1*
X-429014Y30400D1*
X-429212Y29416D1*
X-429286Y28432D1*
X-429040Y27448D1*
X-428380Y26463D1*
X-425787Y25479D1*
X-421340Y24495D1*
X-415693Y23510D1*
X-416677Y34337D2*
Y33353D1*
Y32369D1*
Y31385D1*
Y30400D1*
Y29416D1*
Y28432D1*
Y27448D1*
Y26463D1*
Y25479D1*
Y24495D1*
X-425535Y23510D1*
X-510181D2*
Y22526D1*
Y21542D1*
Y20558D1*
X-458016Y23510D2*
Y22526D1*
Y21542D1*
Y20558D1*
X-497386D2*
Y19573D1*
Y18589D1*
Y17605D1*
Y16621D1*
Y15636D1*
Y14652D1*
Y13668D1*
Y12684D1*
Y11699D1*
Y10715D1*
X-445220Y20558D2*
Y19573D1*
Y18589D1*
Y17605D1*
Y16621D1*
Y15636D1*
Y14652D1*
Y13668D1*
Y12684D1*
Y11699D1*
Y10715D1*
X-422583Y20558D2*
X-423411Y19573D1*
X-424117Y18589D1*
X-424717Y17605D1*
X-425258Y16621D1*
X-425769Y15636D1*
X-426270Y14652D1*
X-426764Y13668D1*
X-427258Y12684D1*
X-427749Y11699D1*
X-428239Y10715D1*
X-428705Y9731D1*
X-429115Y8747D1*
X-429472Y7762D1*
X-416677Y20558D2*
Y19573D1*
Y18589D1*
Y17605D1*
Y16621D1*
Y15636D1*
Y14652D1*
Y13668D1*
Y12684D1*
Y11699D1*
Y10715D1*
Y9731D1*
Y8747D1*
Y7762D1*
X-467858Y13668D2*
X-471258Y12684D1*
X-475633Y11699D1*
X-480654Y10715D1*
X-466874Y13668D2*
X-466348Y12684D1*
X-465668Y11699D1*
X-464906Y10715D1*
X-467055Y9731D1*
X-469369Y8747D1*
X-471795Y7762D1*
X-512150Y10715D2*
Y9731D1*
Y8747D1*
Y7762D1*
X-459984Y10715D2*
Y9731D1*
Y8747D1*
Y7762D1*
X460778Y245622D2*
D52*
Y270471D1*
X500970D1*
Y245622D1*
X479924Y270471D2*
Y255172D1*
X500970Y225621D2*
X460822Y206476D1*
Y233270D1*
Y190278D2*
Y169275D1*
X476121Y180727D1*
Y174979D1*
X478022Y171176D1*
X479924Y169275D1*
X485672Y167330D1*
X489474D1*
X495222Y169275D1*
X499069Y173078D1*
X500970Y178826D1*
Y184574D1*
X499069Y190278D1*
X497123Y192179D1*
X493321Y194124D1*
X507603Y154978D2*
Y118633D1*
X460778Y106282D2*
X500970D1*
Y89038D1*
X499025Y83290D1*
X497123Y81388D1*
X493321Y79487D1*
X487573D1*
X483726Y81388D1*
X481825Y83290D1*
X479924Y89038D1*
X477978Y83290D1*
X476077Y81388D1*
X472274Y79487D1*
X468428D1*
X464625Y81388D1*
X462680Y83290D1*
X460778Y89038D1*
Y106282D1*
X479924D2*
Y89038D1*
X507603Y67136D2*
Y30790D1*
X500970Y-12158D2*
X460778D1*
X500970Y3140D1*
X460778Y18439D1*
X500970D1*
X474176Y-34060D2*
X476077Y-30258D1*
X479924Y-26411D1*
X485672Y-24510D1*
X489474D1*
X495222Y-26411D1*
X499025Y-30258D1*
X500970Y-34060D1*
Y-39808D1*
X499025Y-43655D1*
X495222Y-47458D1*
X489474Y-49403D1*
X485672D1*
X479924Y-47458D1*
X476077Y-43655D1*
X474176Y-39808D1*
Y-34060D1*
X460778Y-84702D2*
X500970D1*
X479924D2*
X476077Y-80900D1*
X474176Y-77053D1*
Y-71305D1*
X476077Y-67502D1*
X479924Y-63656D1*
X485672Y-61754D1*
X489474D1*
X495222Y-63656D1*
X499025Y-67502D1*
X500970Y-71305D1*
Y-77053D1*
X499025Y-80900D1*
X495222Y-84702D1*
X507603Y-97054D2*
Y-133399D1*
X481825Y-145750D2*
Y-162994D1*
X479924Y-168698D1*
X477978Y-170644D1*
X474176Y-172545D1*
X468428D1*
X464625Y-170644D1*
X462680Y-168698D1*
X460778Y-162994D1*
Y-145750D1*
X500970D1*
X460778Y-184896D2*
X500970Y-194491D1*
X460778Y-204042D1*
X500970Y-213592D1*
X460778Y-223187D1*
X466526Y-262333D2*
X462680Y-258531D1*
X460778Y-252783D1*
Y-245133D1*
X462680Y-239385D1*
X466526Y-235539D1*
X470329D1*
X474176Y-237484D1*
X476077Y-239385D1*
X477978Y-243188D1*
X481825Y-254684D1*
X483726Y-258531D1*
X485672Y-260432D1*
X489474Y-262333D1*
X495222D1*
X499025Y-258531D1*
X500970Y-252783D1*
Y-245133D1*
X499025Y-239385D1*
X495222Y-235539D1*
X460822Y-286181D2*
X462724Y-280433D1*
X468472Y-276586D1*
X478022Y-274685D1*
X483770D1*
X493321Y-276586D1*
X499069Y-280433D1*
X500970Y-286181D1*
Y-289983D1*
X499069Y-295731D1*
X493321Y-299534D1*
X483770Y-301479D1*
X478022D1*
X468472Y-299534D1*
X462724Y-295731D1*
X460822Y-289983D1*
Y-286181D1*
X468472Y-299534D2*
X493321Y-276586D1*
X468472Y-313831D2*
X466526Y-317677D1*
X460822Y-323426D1*
X500970D1*
X507603Y-335777D2*
Y-372122D1*
X460822Y-395970D2*
X462724Y-390222D1*
X468472Y-386375D1*
X478022Y-384474D1*
X483770D1*
X493321Y-386375D1*
X499069Y-390222D1*
X500970Y-395970D1*
Y-399772D1*
X499069Y-405520D1*
X493321Y-409323D1*
X483770Y-411268D1*
X478022D1*
X468472Y-409323D1*
X462724Y-405520D1*
X460822Y-399772D1*
Y-395970D1*
X468472Y-409323D2*
X493321Y-386375D1*
X500970Y-431269D2*
X460823Y-450414D1*
Y-423620D1*
X507603Y-462766D2*
Y-499111D1*
X468472Y-511462D2*
X466526Y-515309D1*
X460823Y-521057D1*
X500970D1*
X474176Y-558302D2*
X479924Y-556356D1*
X483770Y-552554D1*
X485672Y-546806D1*
Y-544904D1*
X483770Y-539156D1*
X479924Y-535354D1*
X474176Y-533408D1*
X472274D1*
X466526Y-535354D1*
X462724Y-539156D1*
X460822Y-544904D1*
Y-546806D1*
X462724Y-552554D1*
X466526Y-556356D1*
X474176Y-558302D1*
X483770D1*
X493321Y-556356D1*
X499069Y-552554D1*
X500970Y-546806D1*
Y-543003D1*
X499069Y-537255D1*
X495222Y-535354D1*
M02*
