M48
METRIC,0000.00
T01C0.2
T02C0.3
T03C0.9
T04C1.5
%
T01
X-001308Y+000783
X-001107Y-000884
X-001108Y-001119
X-000189Y-001257
X-000305Y-001726
X-000419Y-002211
X+000264Y-002406
X+000506Y-001878
X+000625Y-001881
X+000763Y-001877
X+000980Y-002181
X+000929Y-002360
X+001109Y-000312
X+001073Y+000389
X+001212Y+000390
T02
X+000003Y+000117
X+000001Y+000003
X-000103Y+000003
X+000003Y-000108
X+000112Y+000006
T03
X-000254Y-003150
X+000000Y-003150
X+000254Y-003150
X+000254Y-002896
X+000000Y-002896
X-000254Y-002896
T04
X-001190Y+000990
X+001190Y+000990
X+001190Y-001690
X-001190Y-001690
T00
M30
