M48
INCH
T01C0.0118
T02C0.0354
T03C0.0591
%
T01
X-005151Y+003084
X-000407Y+000012
X+000002Y+000012
X+000441Y+000022
X+000012Y+000461
X+000012Y-000427
X+004366Y-001229
X+004225Y+001532
X+004772Y+001536
X-000746Y-004950
X-001199Y-006794
X-001649Y-008704
X+001040Y-009470
X+001994Y-007394
X+002460Y-007404
X+003003Y-007388
X+003858Y-008585
X+003659Y-009292
X-004361Y-004407
X-004356Y-003482
T02
X-001000Y-012402
X+000000Y-012402
X+001000Y-012402
X+001000Y-011402
X+000000Y-011402
X-001000Y-011402
T03
X-004685Y+003898
X+004685Y+003898
X+004685Y-006654
X-004685Y-006654
T00
M30
