G04 DipTrace 3.2.0.1*
G04 TopMask.gbr*
%MOIN*%
G04 #@! TF.FileFunction,Soldermask,Top*
G04 #@! TF.Part,Single*
%AMOUTLINE4*
4,1,4,
0.023427,-0.037986,
-0.040608,-0.018515,
-0.023427,0.037986,
0.040608,0.018515,
0.023427,-0.037986,
0*%
%AMOUTLINE7*
4,1,4,
0.031033,-0.032074,
-0.035688,-0.026797,
-0.031033,0.032074,
0.035688,0.026797,
0.031033,-0.032074,
0*%
%AMOUTLINE10*
4,1,4,
0.033471,-0.02952,
-0.03346,-0.029534,
-0.033471,0.02952,
0.03346,0.029534,
0.033471,-0.02952,
0*%
%ADD30C,0.059055*%
%ADD37C,0.090551*%
%ADD39R,0.070866X0.037402*%
%ADD41R,0.037402X0.070866*%
%ADD45R,0.033465X0.049213*%
%ADD47R,0.059055X0.066929*%
%ADD49R,0.133858X0.07874*%
%ADD57OUTLINE4*%
%ADD60OUTLINE7*%
%ADD63OUTLINE10*%
%FSLAX26Y26*%
G04*
G70*
G90*
G75*
G01*
G04 TopMask*
%LPD*%
D49*
X-302165Y-679802D3*
Y-900274D3*
D47*
X437795Y-176772D3*
X512598D3*
D30*
X-468504Y389764D3*
X468504D3*
X-468504Y-665354D3*
X468504D3*
D45*
X37332Y-854472D3*
X-37471D3*
X-70Y-945024D3*
D47*
X-512592Y-176776D3*
X-437789D3*
X-510818Y-269291D3*
X-436014D3*
X510827D3*
X436024D3*
X-38533Y-666731D3*
X36270D3*
X-37248Y-757327D3*
X37555D3*
D57*
X409056Y-943533D3*
X430818Y-871963D3*
D60*
X381772Y-1102879D3*
X387669Y-1028307D3*
D63*
X379360Y-1252273D3*
X379344Y-1177470D3*
D41*
X-25000Y-425197D3*
X25000D3*
X-75000D3*
X-125000D3*
X-175000D3*
X-225000D3*
X-275000D3*
X75000D3*
X125000D3*
X175000D3*
X225000D3*
X275000D3*
D39*
X-354331Y-346654D3*
Y-296654D3*
X354331Y-346654D3*
X-354331Y-246654D3*
Y-196654D3*
Y-146654D3*
Y-96654D3*
Y-46654D3*
Y3346D3*
Y53346D3*
Y103346D3*
Y153346D3*
Y203346D3*
Y253346D3*
Y303346D3*
X354331Y-296654D3*
Y-246654D3*
Y-196654D3*
Y-146654D3*
Y-96654D3*
Y-46654D3*
Y3346D3*
Y53346D3*
Y103346D3*
Y153346D3*
Y203346D3*
Y253346D3*
Y303346D3*
X-354331Y403346D3*
Y453346D3*
X354331Y403346D3*
Y453346D3*
D37*
X-100000Y-1240157D3*
X0D3*
X100000D3*
X-100000Y-1140157D3*
X0D3*
X100000D3*
M02*
