G04 DipTrace 3.2.0.1*
G04 TopPaste.gbr*
%MOIN*%
G04 #@! TF.FileFunction,Paste,Top*
G04 #@! TF.Part,Single*
%AMOUTLINE5*
4,1,4,
0.018184,-0.028161,
-0.030783,-0.013272,
-0.018184,0.028161,
0.030783,0.013272,
0.018184,-0.028161,
0*%
%AMOUTLINE8*
4,1,4,
0.023804,-0.023603,
-0.027218,-0.019568,
-0.023804,0.023603,
0.027218,0.019568,
0.023804,-0.023603,
0*%
%AMOUTLINE11*
4,1,4,
0.025595,-0.021648,
-0.025587,-0.021658,
-0.025595,0.021648,
0.025587,0.021658,
0.025595,-0.021648,
0*%
%ADD40R,0.055118X0.021654*%
%ADD42R,0.021654X0.055118*%
%ADD46R,0.017717X0.033465*%
%ADD48R,0.043307X0.051181*%
%ADD50R,0.11811X0.062992*%
%ADD58OUTLINE5*%
%ADD61OUTLINE8*%
%ADD64OUTLINE11*%
%FSLAX26Y26*%
G04*
G70*
G90*
G75*
G01*
G04 TopPaste*
%LPD*%
D50*
X-302165Y-679802D3*
Y-900274D3*
D48*
X437795Y-176772D3*
X512598D3*
D46*
X37332Y-854472D3*
X-37471D3*
X-70Y-945024D3*
D48*
X-512592Y-176776D3*
X-437789D3*
X-510818Y-269291D3*
X-436014D3*
X510827D3*
X436024D3*
X-38533Y-666731D3*
X36270D3*
X-37248Y-757327D3*
X37555D3*
D58*
X409056Y-943533D3*
X430818Y-871963D3*
D61*
X381772Y-1102879D3*
X387669Y-1028307D3*
D64*
X379360Y-1252273D3*
X379344Y-1177470D3*
D42*
X-25000Y-425197D3*
X25000D3*
X-75000D3*
X-125000D3*
X-175000D3*
X-225000D3*
X-275000D3*
X75000D3*
X125000D3*
X175000D3*
X225000D3*
X275000D3*
D40*
X-354331Y-346654D3*
Y-296654D3*
X354331Y-346654D3*
X-354331Y-246654D3*
Y-196654D3*
Y-146654D3*
Y-96654D3*
Y-46654D3*
Y3346D3*
Y53346D3*
Y103346D3*
Y153346D3*
Y203346D3*
Y253346D3*
Y303346D3*
X354331Y-296654D3*
Y-246654D3*
Y-196654D3*
Y-146654D3*
Y-96654D3*
Y-46654D3*
Y3346D3*
Y53346D3*
Y103346D3*
Y153346D3*
Y203346D3*
Y253346D3*
Y303346D3*
X-354331Y403346D3*
Y453346D3*
X354331Y403346D3*
Y453346D3*
M02*
