G04 DipTrace 3.2.0.1*
G04 Верхняямаркировка.gbr*
%MOMM*%
G04 #@! TF.FileFunction,Legend,Top*
G04 #@! TF.Part,Single*
%ADD10C,0.25*%
%ADD12C,0.0762*%
%ADD13C,0.06667*%
%ADD14C,0.05*%
%ADD19C,0.2*%
%ADD22O,0.39127X0.39172*%
%ADD52C,0.11765*%
%FSLAX35Y35*%
G04*
G71*
G90*
G75*
G01*
G04 TopSilk*
%LPD*%
X-617420Y-1846857D2*
D10*
Y-2166537D1*
X-917580Y-1846857D2*
Y-2166537D1*
X1017053Y-513950D2*
Y-384050D1*
D22*
X173180Y-2132999D3*
X149810Y-2260360D2*
D10*
X-150177D1*
Y-2310360D1*
X149810D1*
Y-2260360D1*
X-874944Y1815000D2*
X874944D1*
Y-1054982D1*
X-874944D1*
Y1815000D1*
X-472948Y1293185D2*
Y1719800D1*
X-219912D1*
Y1552903D1*
X9016D1*
Y1718015D1*
X254996D1*
Y1554985D1*
X460012D1*
Y1718015D1*
X717948Y1718907D1*
Y1532970D1*
X716968Y1486857D1*
X674044Y1483882D2*
X760088Y1484775D1*
X-471968Y1720990D2*
X-643076Y1719800D1*
G36*
X-656012D2*
X-607992D1*
Y1263137D1*
X-656012D1*
Y1719800D1*
G37*
X92904Y1286045D2*
D10*
X471968D1*
Y920120D1*
X92904D1*
Y1286045D1*
X141904Y1102041D2*
X142245Y1111888D1*
X143267Y1121687D1*
X144964Y1131391D1*
X147329Y1140951D1*
X150350Y1150322D1*
X154011Y1159458D1*
X158296Y1168314D1*
X163184Y1176847D1*
X168650Y1185015D1*
X174668Y1192780D1*
X181208Y1200102D1*
X188240Y1206946D1*
X195728Y1213280D1*
X203636Y1219071D1*
X211925Y1224293D1*
X220556Y1228918D1*
X229485Y1232926D1*
X238671Y1236296D1*
X248067Y1239012D1*
X257628Y1241060D1*
X267308Y1242432D1*
X277059Y1243119D1*
X286833D1*
X296584Y1242432D1*
X306264Y1241060D1*
X315825Y1239012D1*
X325221Y1236296D1*
X334407Y1232926D1*
X343336Y1228918D1*
X351967Y1224293D1*
X360256Y1219071D1*
X368164Y1213280D1*
X375652Y1206946D1*
X382684Y1200102D1*
X389224Y1192780D1*
X395242Y1185015D1*
X400708Y1176847D1*
X405596Y1168314D1*
X409881Y1159458D1*
X413542Y1150322D1*
X416563Y1140951D1*
X418928Y1131391D1*
X420625Y1121687D1*
X421647Y1111888D1*
X421988Y1102041D1*
X421647Y1092194D1*
X420625Y1082395D1*
X418928Y1072692D1*
X416563Y1063131D1*
X413542Y1053760D1*
X409881Y1044625D1*
X405596Y1035769D1*
X400708Y1027236D1*
X395242Y1019067D1*
X389224Y1011303D1*
X382684Y1003981D1*
X375652Y997136D1*
X368164Y990803D1*
X360256Y985011D1*
X351967Y979790D1*
X343336Y975164D1*
X334407Y971157D1*
X325221Y967787D1*
X315825Y965071D1*
X306264Y963022D1*
X296584Y961651D1*
X286833Y960963D1*
X277059D1*
X267308Y961651D1*
X257628Y963022D1*
X248067Y965071D1*
X238671Y967787D1*
X229485Y971157D1*
X220556Y975164D1*
X211925Y979790D1*
X203636Y985011D1*
X195728Y990803D1*
X188240Y997136D1*
X181208Y1003981D1*
X174668Y1011303D1*
X168650Y1019067D1*
X163184Y1027236D1*
X158296Y1035769D1*
X154011Y1044625D1*
X150350Y1053760D1*
X147329Y1063131D1*
X144964Y1072692D1*
X143267Y1082395D1*
X142245Y1092194D1*
X141904Y1102041D1*
X-1382270Y-588740D2*
D19*
X-1018467D1*
Y-781563D1*
X-1382270D1*
Y-588740D1*
X-1382000Y-353643D2*
X-1030657D1*
Y-545080D1*
X-1382000D1*
Y-353643D1*
X1020360Y-588443D2*
X1384163D1*
Y-781267D1*
X1020360D1*
Y-588443D1*
X1027617Y-352677D2*
X1378960D1*
Y-544113D1*
X1027617D1*
Y-352677D1*
X-178147Y-1595177D2*
X173197D1*
Y-1786613D1*
X-178147D1*
Y-1595177D1*
X-174520Y-1827317D2*
X176823D1*
Y-2018753D1*
X-174520D1*
Y-1827317D1*
X-783723Y-1953640D2*
D14*
X-768723D1*
X-728723D2*
X-718723D1*
X-788522Y-1956140D2*
X-764310D1*
X-732272D2*
X-718723D1*
X-792370Y-1958640D2*
X-760668D1*
X-735072D2*
X-718723D1*
X-795268Y-1961140D2*
X-757940D1*
X-737236D2*
X-718723D1*
X-797394Y-1963640D2*
X-780722D1*
X-771724D2*
X-755773D1*
X-738007D2*
X-718723D1*
X-798967Y-1966140D2*
X-784596D1*
X-767857D2*
X-753949D1*
X-738442D2*
X-731223D1*
X-726223D2*
X-718723D1*
X-800075Y-1968640D2*
X-787605D1*
X-764904D2*
X-752617D1*
X-738723D2*
X-736223D1*
X-726223D2*
X-718723D1*
X-800793Y-1971140D2*
X-789815D1*
X-762833D2*
X-751800D1*
X-726223D2*
X-718723D1*
X-801420Y-1973640D2*
X-791433D1*
X-761223D2*
X-751223D1*
X-726223D2*
X-718723D1*
X-802153Y-1976140D2*
X-792552D1*
X-726223D2*
X-718723D1*
X-802848Y-1978640D2*
X-793191D1*
X-726223D2*
X-718723D1*
X-803304Y-1981140D2*
X-793502D1*
X-726223D2*
X-718723D1*
X-803543Y-1983640D2*
X-793637D1*
X-726223D2*
X-718723D1*
X-803652Y-1986140D2*
X-793692D1*
X-726223D2*
X-718723D1*
X-803697Y-1988640D2*
X-793712D1*
X-726223D2*
X-718723D1*
X-803714Y-1991140D2*
X-793720D1*
X-726223D2*
X-718723D1*
X-803720Y-1993640D2*
X-793722D1*
X-726223D2*
X-718723D1*
X-803712Y-1996140D2*
X-793723D1*
X-726223D2*
X-718723D1*
X-803625Y-1998640D2*
X-793713D1*
X-726223D2*
X-718723D1*
X-803307Y-2001140D2*
X-793626D1*
X-726223D2*
X-718723D1*
X-802708Y-2003640D2*
X-793297D1*
X-726223D2*
X-718723D1*
X-802058Y-2006140D2*
X-792601D1*
X-726223D2*
X-718723D1*
X-801534Y-2008640D2*
X-791534D1*
X-761223D2*
X-751223D1*
X-726223D2*
X-718723D1*
X-800973Y-2011140D2*
X-789956D1*
X-762704D2*
X-751705D1*
X-726223D2*
X-718723D1*
X-800171Y-2013640D2*
X-787867D1*
X-764674D2*
X-752655D1*
X-726223D2*
X-718723D1*
X-799070Y-2016140D2*
X-783129D1*
X-769362D2*
X-754009D1*
X-726223D2*
X-718723D1*
X-797582Y-2018640D2*
X-776510D1*
X-775954D2*
X-755602D1*
X-726223D2*
X-718723D1*
X-795498Y-2021140D2*
X-757701D1*
X-726223D2*
X-718723D1*
X-792526Y-2023640D2*
X-760699D1*
X-726223D2*
X-718723D1*
X-788453Y-2026140D2*
X-764526D1*
X-726223D2*
X-718723D1*
X-783723Y-2028640D2*
X-768723D1*
X-726223D2*
X-718723D1*
X1155803Y-234500D2*
X1190803D1*
X1233303D2*
X1243303D1*
X1155803Y-237000D2*
X1195217D1*
X1229754D2*
X1243303D1*
X1155803Y-239500D2*
X1198849D1*
X1226954D2*
X1243303D1*
X1155803Y-242000D2*
X1201499D1*
X1224790D2*
X1243303D1*
X1155803Y-244500D2*
X1165803D1*
X1187802D2*
X1203435D1*
X1224020D2*
X1243303D1*
X1155803Y-247000D2*
X1165803D1*
X1191667D2*
X1204979D1*
X1223584D2*
X1230803D1*
X1235803D2*
X1243303D1*
X1155803Y-249500D2*
X1165803D1*
X1194588D2*
X1206259D1*
X1223303D2*
X1225803D1*
X1235803D2*
X1243303D1*
X1155803Y-252000D2*
X1165803D1*
X1196807D2*
X1207229D1*
X1235803D2*
X1243303D1*
X1155803Y-254500D2*
X1165803D1*
X1197580D2*
X1207806D1*
X1235803D2*
X1243303D1*
X1155803Y-257000D2*
X1165803D1*
X1197997D2*
X1208095D1*
X1235803D2*
X1243303D1*
X1155803Y-259500D2*
X1165803D1*
X1198184D2*
X1208222D1*
X1235803D2*
X1243303D1*
X1155803Y-262000D2*
X1165803D1*
X1198259D2*
X1208273D1*
X1235803D2*
X1243303D1*
X1155803Y-264500D2*
X1165803D1*
X1198288D2*
X1208293D1*
X1235803D2*
X1243303D1*
X1155803Y-267000D2*
X1165803D1*
X1198298D2*
X1208300D1*
X1235803D2*
X1243303D1*
X1155803Y-269500D2*
X1165803D1*
X1198302D2*
X1208302D1*
X1235803D2*
X1243303D1*
X1155803Y-272000D2*
X1165803D1*
X1198303D2*
X1208303D1*
X1235803D2*
X1243303D1*
X1155803Y-274500D2*
X1165803D1*
X1198303D2*
X1208303D1*
X1235803D2*
X1243303D1*
X1155803Y-277000D2*
X1165803D1*
X1198303D2*
X1208303D1*
X1235803D2*
X1243303D1*
X1155803Y-279500D2*
X1165803D1*
X1198303D2*
X1208303D1*
X1235803D2*
X1243303D1*
X1155803Y-282000D2*
X1165803D1*
X1198303D2*
X1208303D1*
X1235803D2*
X1243303D1*
X1155803Y-284500D2*
X1165803D1*
X1198294D2*
X1208294D1*
X1235803D2*
X1243303D1*
X1155803Y-287000D2*
X1165803D1*
X1198196D2*
X1208206D1*
X1235803D2*
X1243303D1*
X1155803Y-289500D2*
X1165803D1*
X1197770D2*
X1207877D1*
X1235803D2*
X1243303D1*
X1155803Y-292000D2*
X1165803D1*
X1196961D2*
X1207191D1*
X1235803D2*
X1243303D1*
X1155803Y-294500D2*
X1165803D1*
X1194625D2*
X1206221D1*
X1235803D2*
X1243303D1*
X1155803Y-297000D2*
X1165803D1*
X1187777D2*
X1205079D1*
X1235803D2*
X1243303D1*
X1155803Y-299500D2*
X1165803D1*
X1176859D2*
X1203692D1*
X1235803D2*
X1243303D1*
X1155803Y-302000D2*
X1201720D1*
X1235803D2*
X1243303D1*
X1155803Y-304500D2*
X1198784D1*
X1235803D2*
X1243303D1*
X1155803Y-307000D2*
X1194985D1*
X1235803D2*
X1243303D1*
X1155803Y-309500D2*
X1190803D1*
X1235803D2*
X1243303D1*
X-163443Y-2387057D2*
X-148443D1*
X-103443D2*
X-93443D1*
X-168242Y-2389557D2*
X-143645D1*
X-106992D2*
X-93443D1*
X-172090Y-2392057D2*
X-139797D1*
X-109792D2*
X-93443D1*
X-174988Y-2394557D2*
X-136899D1*
X-111956D2*
X-93443D1*
X-177114Y-2397057D2*
X-157451D1*
X-151435D2*
X-134773D1*
X-112727D2*
X-93443D1*
X-178687Y-2399557D2*
X-162787D1*
X-147482D2*
X-133190D1*
X-113162D2*
X-105943D1*
X-100943D2*
X-93443D1*
X-179795Y-2402057D2*
X-166633D1*
X-144243D2*
X-132003D1*
X-113443D2*
X-110943D1*
X-100943D2*
X-93443D1*
X-180513Y-2404557D2*
X-169249D1*
X-141753D2*
X-131055D1*
X-100943D2*
X-93443D1*
X-181140Y-2407057D2*
X-171043D1*
X-139814D2*
X-130148D1*
X-100943D2*
X-93443D1*
X-181873Y-2409557D2*
X-172232D1*
X-139109D2*
X-129373D1*
X-100943D2*
X-93443D1*
X-182568Y-2412057D2*
X-172896D1*
X-138727D2*
X-128883D1*
X-100943D2*
X-93443D1*
X-183024Y-2414557D2*
X-173217D1*
X-138554D2*
X-128631D1*
X-100943D2*
X-93443D1*
X-183263Y-2417057D2*
X-173356D1*
X-138484D2*
X-128517D1*
X-100943D2*
X-93443D1*
X-183372Y-2419557D2*
X-173411D1*
X-138458D2*
X-128471D1*
X-100943D2*
X-93443D1*
X-183417Y-2422057D2*
X-173432D1*
X-138448D2*
X-128453D1*
X-100943D2*
X-93443D1*
X-183434Y-2424557D2*
X-173439D1*
X-138445D2*
X-128447D1*
X-100943D2*
X-93443D1*
X-183440Y-2427057D2*
X-173442D1*
X-138444D2*
X-128444D1*
X-100943D2*
X-93443D1*
X-183432Y-2429557D2*
X-173443D1*
X-138443D2*
X-128444D1*
X-100943D2*
X-93443D1*
X-183345Y-2432057D2*
X-173433D1*
X-138463D2*
X-128453D1*
X-100943D2*
X-93443D1*
X-183027Y-2434557D2*
X-173346D1*
X-138653D2*
X-128541D1*
X-100943D2*
X-93443D1*
X-182428Y-2437057D2*
X-173017D1*
X-150943D2*
X-148443D1*
X-139107D2*
X-128860D1*
X-100943D2*
X-93443D1*
X-181778Y-2439557D2*
X-172321D1*
X-151915D2*
X-143600D1*
X-141056D2*
X-129458D1*
X-100943D2*
X-93443D1*
X-181254Y-2442057D2*
X-171244D1*
X-151651D2*
X-130090D1*
X-100943D2*
X-93443D1*
X-180693Y-2444557D2*
X-169578D1*
X-150081D2*
X-130428D1*
X-100943D2*
X-93443D1*
X-179891Y-2447057D2*
X-167284D1*
X-148106D2*
X-130476D1*
X-100943D2*
X-93443D1*
X-178780Y-2449557D2*
X-161840D1*
X-145943D2*
X-129402D1*
X-100943D2*
X-93443D1*
X-177215Y-2452057D2*
X-154455D1*
X-153287D2*
X-127854D1*
X-100943D2*
X-93443D1*
X-174905Y-2454557D2*
X-126279D1*
X-100943D2*
X-93443D1*
X-171699Y-2457057D2*
X-125008D1*
X-100943D2*
X-93443D1*
X-167737Y-2459557D2*
X-140943D1*
X-130943D2*
X-125293D1*
X-100943D2*
X-93443D1*
X-163443Y-2462057D2*
X-148443D1*
X-128443D2*
X-125943D1*
X-100943D2*
X-93443D1*
X-1251983Y-243287D2*
X-1214483D1*
X-1174483D2*
X-1164483D1*
X-1251983Y-245787D2*
X-1210839D1*
X-1178032D2*
X-1164483D1*
X-1251983Y-248287D2*
X-1207719D1*
X-1180832D2*
X-1164483D1*
X-1251983Y-250787D2*
X-1205262D1*
X-1182996D2*
X-1164483D1*
X-1251983Y-253287D2*
X-1241983D1*
X-1217871D2*
X-1203528D1*
X-1183767D2*
X-1164483D1*
X-1251983Y-255787D2*
X-1241983D1*
X-1214626D2*
X-1202300D1*
X-1184202D2*
X-1176983D1*
X-1171983D2*
X-1164483D1*
X-1251983Y-258287D2*
X-1241983D1*
X-1212352D2*
X-1201269D1*
X-1184483D2*
X-1181983D1*
X-1171983D2*
X-1164483D1*
X-1251983Y-260787D2*
X-1241983D1*
X-1210648D2*
X-1200452D1*
X-1171983D2*
X-1164483D1*
X-1251983Y-263287D2*
X-1241983D1*
X-1210145D2*
X-1200031D1*
X-1171983D2*
X-1164483D1*
X-1251983Y-265787D2*
X-1241983D1*
X-1209956D2*
X-1200090D1*
X-1171983D2*
X-1164483D1*
X-1251983Y-268287D2*
X-1241983D1*
X-1210582D2*
X-1200583D1*
X-1171983D2*
X-1164483D1*
X-1251983Y-270787D2*
X-1241983D1*
X-1212258D2*
X-1201275D1*
X-1171983D2*
X-1164483D1*
X-1251983Y-273287D2*
X-1241983D1*
X-1218843D2*
X-1202109D1*
X-1171983D2*
X-1164483D1*
X-1251983Y-275787D2*
X-1241983D1*
X-1230139D2*
X-1203359D1*
X-1171983D2*
X-1164483D1*
X-1251983Y-278287D2*
X-1205197D1*
X-1171983D2*
X-1164483D1*
X-1251983Y-280787D2*
X-1207543D1*
X-1171983D2*
X-1164483D1*
X-1251983Y-283287D2*
X-1209978D1*
X-1171983D2*
X-1164483D1*
X-1251983Y-285787D2*
X-1212117D1*
X-1171983D2*
X-1164483D1*
X-1251983Y-288287D2*
X-1241983D1*
X-1224879D2*
X-1212634D1*
X-1171983D2*
X-1164483D1*
X-1251983Y-290787D2*
X-1241983D1*
X-1223087D2*
X-1211946D1*
X-1171983D2*
X-1164483D1*
X-1251983Y-293287D2*
X-1241983D1*
X-1221563D2*
X-1210794D1*
X-1171983D2*
X-1164483D1*
X-1251983Y-295787D2*
X-1241983D1*
X-1220187D2*
X-1209330D1*
X-1171983D2*
X-1164483D1*
X-1251983Y-298287D2*
X-1241983D1*
X-1218889D2*
X-1207857D1*
X-1171983D2*
X-1164483D1*
X-1251983Y-300787D2*
X-1241983D1*
X-1217618D2*
X-1206473D1*
X-1171983D2*
X-1164483D1*
X-1251983Y-303287D2*
X-1241983D1*
X-1216363D2*
X-1205154D1*
X-1171983D2*
X-1164483D1*
X-1251983Y-305787D2*
X-1241983D1*
X-1215109D2*
X-1203877D1*
X-1171983D2*
X-1164483D1*
X-1251983Y-308287D2*
X-1241983D1*
X-1213860D2*
X-1202614D1*
X-1171983D2*
X-1164483D1*
X-1251983Y-310787D2*
X-1241983D1*
X-1212615D2*
X-1201354D1*
X-1171983D2*
X-1164483D1*
X-1251983Y-313287D2*
X-1241983D1*
X-1211432D2*
X-1200035D1*
X-1171983D2*
X-1164483D1*
X-1251983Y-315787D2*
X-1241983D1*
X-1210391D2*
X-1198576D1*
X-1171983D2*
X-1164483D1*
X-1251983Y-318287D2*
X-1241983D1*
X-1209483D2*
X-1196983D1*
X-1171983D2*
X-1164483D1*
X-1257477Y-807443D2*
X-1219977D1*
X-1174977D2*
X-1157477D1*
X-1257477Y-809943D2*
X-1216332D1*
X-1178535D2*
X-1154219D1*
X-1257477Y-812443D2*
X-1213212D1*
X-1181423D2*
X-1151708D1*
X-1257477Y-814943D2*
X-1210755D1*
X-1183590D2*
X-1149821D1*
X-1257477Y-817443D2*
X-1247477D1*
X-1223364D2*
X-1209021D1*
X-1185194D2*
X-1171598D1*
X-1163073D2*
X-1148294D1*
X-1257477Y-819943D2*
X-1247477D1*
X-1220119D2*
X-1207793D1*
X-1186315D2*
X-1174928D1*
X-1159529D2*
X-1147028D1*
X-1257477Y-822443D2*
X-1247477D1*
X-1217846D2*
X-1206762D1*
X-1186997D2*
X-1177572D1*
X-1156803D2*
X-1146148D1*
X-1257477Y-824943D2*
X-1247477D1*
X-1216142D2*
X-1205946D1*
X-1187477D2*
X-1179977D1*
X-1155732D2*
X-1145664D1*
X-1257477Y-827443D2*
X-1247477D1*
X-1215638D2*
X-1205524D1*
X-1155719D2*
X-1146154D1*
X-1257477Y-829943D2*
X-1247477D1*
X-1215450D2*
X-1205584D1*
X-1156220D2*
X-1146798D1*
X-1257477Y-832443D2*
X-1247477D1*
X-1216075D2*
X-1206077D1*
X-1157108D2*
X-1147521D1*
X-1257477Y-834943D2*
X-1247477D1*
X-1217751D2*
X-1206768D1*
X-1158209D2*
X-1148433D1*
X-1257477Y-837443D2*
X-1247477D1*
X-1224337D2*
X-1207602D1*
X-1159486D2*
X-1149580D1*
X-1257477Y-839943D2*
X-1247477D1*
X-1235633D2*
X-1208852D1*
X-1161030D2*
X-1150985D1*
X-1257477Y-842443D2*
X-1210690D1*
X-1162872D2*
X-1152570D1*
X-1257477Y-844943D2*
X-1213037D1*
X-1164768D2*
X-1154175D1*
X-1257477Y-847443D2*
X-1215472D1*
X-1166543D2*
X-1155894D1*
X-1257477Y-849943D2*
X-1217611D1*
X-1168351D2*
X-1157818D1*
X-1257477Y-852443D2*
X-1247477D1*
X-1230373D2*
X-1218128D1*
X-1170386D2*
X-1159747D1*
X-1257477Y-854943D2*
X-1247477D1*
X-1228580D2*
X-1217439D1*
X-1172559D2*
X-1161535D1*
X-1257477Y-857443D2*
X-1247477D1*
X-1227056D2*
X-1216287D1*
X-1174632D2*
X-1163338D1*
X-1257477Y-859943D2*
X-1247477D1*
X-1225681D2*
X-1214824D1*
X-1176488D2*
X-1165297D1*
X-1257477Y-862443D2*
X-1247477D1*
X-1224382D2*
X-1213351D1*
X-1178320D2*
X-1167240D1*
X-1257477Y-864943D2*
X-1247477D1*
X-1223111D2*
X-1211967D1*
X-1180290D2*
X-1169033D1*
X-1257477Y-867443D2*
X-1247477D1*
X-1221856D2*
X-1210648D1*
X-1182228D2*
X-1170847D1*
X-1257477Y-869943D2*
X-1247477D1*
X-1220602D2*
X-1209371D1*
X-1183925D2*
X-1172892D1*
X-1257477Y-872443D2*
X-1247477D1*
X-1219353D2*
X-1208107D1*
X-1185323D2*
X-1175141D1*
X-1257477Y-874943D2*
X-1247477D1*
X-1218109D2*
X-1206847D1*
X-1186355D2*
X-1144977D1*
X-1257477Y-877443D2*
X-1247477D1*
X-1216925D2*
X-1205529D1*
X-1186964D2*
X-1144977D1*
X-1257477Y-879943D2*
X-1247477D1*
X-1215884D2*
X-1204070D1*
X-1187278D2*
X-1144977D1*
X-1257477Y-882443D2*
X-1247477D1*
X-1214977D2*
X-1202477D1*
X-1187477D2*
X-1144977D1*
X1143110Y-829390D2*
X1180610D1*
X1225610D2*
X1240610D1*
X1143110Y-831890D2*
X1184254D1*
X1222051D2*
X1244254D1*
X1143110Y-834390D2*
X1187375D1*
X1219163D2*
X1247375D1*
X1143110Y-836890D2*
X1189831D1*
X1216997D2*
X1249822D1*
X1143110Y-839390D2*
X1153110D1*
X1177223D2*
X1191565D1*
X1215393D2*
X1228110D1*
X1237223D2*
X1251742D1*
X1143110Y-841890D2*
X1153110D1*
X1180467D2*
X1192793D1*
X1214271D2*
X1225610D1*
X1240467D2*
X1252446D1*
X1143110Y-844390D2*
X1153110D1*
X1182741D2*
X1193825D1*
X1213590D2*
X1223110D1*
X1242731D2*
X1252827D1*
X1143110Y-846890D2*
X1153110D1*
X1184445D2*
X1194641D1*
X1213110D2*
X1220610D1*
X1244406D2*
X1252989D1*
X1143110Y-849390D2*
X1153110D1*
X1184949D2*
X1195062D1*
X1244843D2*
X1252971D1*
X1143110Y-851890D2*
X1153110D1*
X1185137D2*
X1195003D1*
X1244188D2*
X1252670D1*
X1143110Y-854390D2*
X1153110D1*
X1184511D2*
X1194510D1*
X1243109D2*
X1251973D1*
X1143110Y-856890D2*
X1153110D1*
X1182835D2*
X1193819D1*
X1240298D2*
X1250824D1*
X1143110Y-859390D2*
X1153110D1*
X1176250D2*
X1192984D1*
X1236940D2*
X1248995D1*
X1143110Y-861890D2*
X1153110D1*
X1164954D2*
X1191734D1*
X1233655D2*
X1246297D1*
X1143110Y-864390D2*
X1189896D1*
X1232026D2*
X1243110D1*
X1143110Y-866890D2*
X1187550D1*
X1231508D2*
X1246069D1*
X1143110Y-869390D2*
X1185115D1*
X1234946D2*
X1248605D1*
X1143110Y-871890D2*
X1182976D1*
X1238609D2*
X1250603D1*
X1143110Y-874390D2*
X1153110D1*
X1170214D2*
X1182459D1*
X1241638D2*
X1252214D1*
X1143110Y-876890D2*
X1153110D1*
X1172006D2*
X1183148D1*
X1243997D2*
X1253535D1*
X1143110Y-879390D2*
X1153110D1*
X1173531D2*
X1184300D1*
X1244832D2*
X1254523D1*
X1143110Y-881890D2*
X1153110D1*
X1174906D2*
X1185763D1*
X1245271D2*
X1255098D1*
X1143110Y-884390D2*
X1153110D1*
X1176204D2*
X1187236D1*
X1245364D2*
X1255302D1*
X1143110Y-886890D2*
X1153110D1*
X1177475D2*
X1188620D1*
X1210610D2*
X1220610D1*
X1245203D2*
X1255102D1*
X1143110Y-889390D2*
X1153110D1*
X1178730D2*
X1189939D1*
X1211570D2*
X1222256D1*
X1243839D2*
X1254467D1*
X1143110Y-891890D2*
X1153110D1*
X1179985D2*
X1191216D1*
X1212732D2*
X1226603D1*
X1239565D2*
X1253507D1*
X1143110Y-894390D2*
X1153110D1*
X1181234D2*
X1192479D1*
X1214231D2*
X1232985D1*
X1233217D2*
X1252284D1*
X1143110Y-896890D2*
X1153110D1*
X1182478D2*
X1193740D1*
X1216227D2*
X1250583D1*
X1143110Y-899390D2*
X1153110D1*
X1183661D2*
X1195058D1*
X1218815D2*
X1248027D1*
X1143110Y-901890D2*
X1153110D1*
X1184703D2*
X1196517D1*
X1222034D2*
X1244540D1*
X1143110Y-904390D2*
X1153110D1*
X1185610D2*
X1198110D1*
X1225610D2*
X1240610D1*
X207187Y-1642367D2*
X244687D1*
X302187D2*
X312187D1*
X207187Y-1644867D2*
X248331D1*
X301237D2*
X311237D1*
X207187Y-1647367D2*
X251451D1*
X300163D2*
X310163D1*
X207187Y-1649867D2*
X253908D1*
X299002D2*
X309002D1*
X207187Y-1652367D2*
X217187D1*
X241299D2*
X255642D1*
X297797D2*
X307787D1*
X207187Y-1654867D2*
X217187D1*
X244544D2*
X256870D1*
X296642D2*
X306554D1*
X207187Y-1657367D2*
X217187D1*
X246818D2*
X257901D1*
X295636D2*
X305308D1*
X207187Y-1659867D2*
X217187D1*
X248522D2*
X258718D1*
X294748D2*
X304062D1*
X207187Y-1662367D2*
X217187D1*
X249025D2*
X259139D1*
X293780D2*
X302810D1*
X207187Y-1664867D2*
X217187D1*
X249214D2*
X259080D1*
X292685D2*
X301563D1*
X207187Y-1667367D2*
X217187D1*
X248588D2*
X258587D1*
X291512D2*
X300311D1*
X207187Y-1669867D2*
X217187D1*
X246912D2*
X257895D1*
X290291D2*
X299063D1*
X207187Y-1672367D2*
X217187D1*
X240327D2*
X257061D1*
X289056D2*
X297820D1*
X312187D2*
X319687D1*
X207187Y-1674867D2*
X217187D1*
X229031D2*
X255811D1*
X287808D2*
X296651D1*
X312187D2*
X319687D1*
X207187Y-1677367D2*
X253973D1*
X286562D2*
X295639D1*
X312187D2*
X319687D1*
X207187Y-1679867D2*
X251627D1*
X285310D2*
X294749D1*
X312187D2*
X319687D1*
X207187Y-1682367D2*
X249192D1*
X284063D2*
X293780D1*
X312187D2*
X319687D1*
X207187Y-1684867D2*
X247053D1*
X282811D2*
X292685D1*
X312187D2*
X319687D1*
X207187Y-1687367D2*
X217187D1*
X234291D2*
X246536D1*
X281563D2*
X291504D1*
X312187D2*
X319706D1*
X207187Y-1689867D2*
X217187D1*
X236083D2*
X247224D1*
X280320D2*
X290219D1*
X312187D2*
X319882D1*
X207187Y-1692367D2*
X217187D1*
X237607D2*
X248376D1*
X279160D2*
X288773D1*
X312187D2*
X320292D1*
X207187Y-1694867D2*
X217187D1*
X238983D2*
X249840D1*
X278237D2*
X287187D1*
X312187D2*
X321660D1*
X207187Y-1697367D2*
X217187D1*
X240281D2*
X251313D1*
X277675D2*
X322984D1*
X207187Y-1699867D2*
X217187D1*
X241552D2*
X252697D1*
X277392D2*
X323867D1*
X207187Y-1702367D2*
X217187D1*
X242807D2*
X254016D1*
X277262D2*
X324335D1*
X207187Y-1704867D2*
X217187D1*
X244061D2*
X255293D1*
X277187D2*
X324556D1*
X207187Y-1707367D2*
X217187D1*
X245310D2*
X256556D1*
X312187D2*
X319687D1*
X207187Y-1709867D2*
X217187D1*
X246555D2*
X257816D1*
X312187D2*
X319687D1*
X207187Y-1712367D2*
X217187D1*
X247738D2*
X259135D1*
X312187D2*
X319687D1*
X207187Y-1714867D2*
X217187D1*
X248779D2*
X260594D1*
X312187D2*
X319687D1*
X207187Y-1717367D2*
X217187D1*
X249687D2*
X262187D1*
X312187D2*
X319687D1*
X206747Y-1884867D2*
X244247D1*
X279247D2*
X316747D1*
X206747Y-1887367D2*
X247891D1*
X279247D2*
X316747D1*
X206747Y-1889867D2*
X251011D1*
X279247D2*
X316747D1*
X206747Y-1892367D2*
X253468D1*
X279247D2*
X316747D1*
X206747Y-1894867D2*
X216747D1*
X240859D2*
X255202D1*
X279247D2*
X289247D1*
X206747Y-1897367D2*
X216747D1*
X244104D2*
X256430D1*
X279247D2*
X289247D1*
X206747Y-1899867D2*
X216747D1*
X246378D2*
X257461D1*
X279247D2*
X289247D1*
X206747Y-1902367D2*
X216747D1*
X248082D2*
X258278D1*
X279247D2*
X289256D1*
X206747Y-1904867D2*
X216747D1*
X248585D2*
X258699D1*
X279247D2*
X289352D1*
X206747Y-1907367D2*
X216747D1*
X248774D2*
X258640D1*
X279247D2*
X289738D1*
X206747Y-1909867D2*
X216747D1*
X248148D2*
X258147D1*
X279247D2*
X290593D1*
X294247D2*
X306747D1*
X206747Y-1912367D2*
X216747D1*
X246472D2*
X257455D1*
X279247D2*
X310305D1*
X206747Y-1914867D2*
X216747D1*
X239887D2*
X256621D1*
X279247D2*
X313193D1*
X206747Y-1917367D2*
X216747D1*
X228591D2*
X255371D1*
X279247D2*
X315360D1*
X206747Y-1919867D2*
X253533D1*
X279247D2*
X294706D1*
X304151D2*
X316964D1*
X206747Y-1922367D2*
X251187D1*
X279247D2*
X290583D1*
X306321D2*
X318078D1*
X206747Y-1924867D2*
X248752D1*
X279247D2*
X286747D1*
X308124D2*
X318715D1*
X206747Y-1927367D2*
X246613D1*
X309567D2*
X319025D1*
X206747Y-1929867D2*
X216747D1*
X233851D2*
X246096D1*
X310616D2*
X319161D1*
X206747Y-1932367D2*
X216747D1*
X235643D2*
X246784D1*
X311218D2*
X319215D1*
X206747Y-1934867D2*
X216747D1*
X237167D2*
X247936D1*
X311432D2*
X319236D1*
X206747Y-1937367D2*
X216747D1*
X238543D2*
X249400D1*
X311236D2*
X319243D1*
X206747Y-1939867D2*
X216747D1*
X239841D2*
X250873D1*
X310593D2*
X319236D1*
X206747Y-1942367D2*
X216747D1*
X241112D2*
X252257D1*
X279247D2*
X286747D1*
X309527D2*
X319149D1*
X206747Y-1944867D2*
X216747D1*
X242367D2*
X253576D1*
X279643D2*
X288392D1*
X308155D2*
X318821D1*
X206747Y-1947367D2*
X216747D1*
X243621D2*
X254853D1*
X280360D2*
X292739D1*
X304844D2*
X318124D1*
X206747Y-1949867D2*
X216747D1*
X244870D2*
X256116D1*
X281434D2*
X299122D1*
X300031D2*
X317057D1*
X206747Y-1952367D2*
X216747D1*
X246115D2*
X257376D1*
X282982D2*
X315511D1*
X206747Y-1954867D2*
X216747D1*
X247298D2*
X258695D1*
X285254D2*
X313239D1*
X206747Y-1957367D2*
X216747D1*
X248339D2*
X260154D1*
X288292D2*
X310201D1*
X206747Y-1959867D2*
X216747D1*
X249247D2*
X261747D1*
X291747D2*
X306747D1*
X-503983Y-2985493D2*
X-496483D1*
X-461483D2*
X-451483D1*
X-421483D2*
X-403983D1*
X-503983Y-2987993D2*
X-496483D1*
X-461483D2*
X-451483D1*
X-425042D2*
X-400725D1*
X-503983Y-2990493D2*
X-496483D1*
X-461483D2*
X-451483D1*
X-427930D2*
X-398215D1*
X-503983Y-2992993D2*
X-496483D1*
X-461483D2*
X-451483D1*
X-430096D2*
X-396327D1*
X-503983Y-2995493D2*
X-496483D1*
X-461483D2*
X-451483D1*
X-431701D2*
X-418104D1*
X-409580D2*
X-394801D1*
X-503983Y-2997993D2*
X-496483D1*
X-461483D2*
X-451483D1*
X-432822D2*
X-421435D1*
X-406036D2*
X-393535D1*
X-503983Y-3000493D2*
X-496483D1*
X-461483D2*
X-451483D1*
X-433504D2*
X-424079D1*
X-403310D2*
X-392655D1*
X-503983Y-3002993D2*
X-496483D1*
X-461483D2*
X-451483D1*
X-433983D2*
X-426483D1*
X-402239D2*
X-392171D1*
X-503983Y-3005493D2*
X-496483D1*
X-461483D2*
X-451483D1*
X-402226D2*
X-392660D1*
X-503983Y-3007993D2*
X-496483D1*
X-461483D2*
X-451483D1*
X-402727D2*
X-393304D1*
X-503983Y-3010493D2*
X-496483D1*
X-461483D2*
X-451483D1*
X-403615D2*
X-394028D1*
X-503983Y-3012993D2*
X-496483D1*
X-461483D2*
X-451483D1*
X-404716D2*
X-394939D1*
X-503983Y-3015493D2*
X-496483D1*
X-461483D2*
X-451483D1*
X-405993D2*
X-396087D1*
X-503983Y-3017993D2*
X-496483D1*
X-461483D2*
X-451483D1*
X-407536D2*
X-397491D1*
X-503983Y-3020493D2*
X-496483D1*
X-461483D2*
X-451483D1*
X-409379D2*
X-399077D1*
X-503983Y-3022993D2*
X-496483D1*
X-461483D2*
X-451483D1*
X-411275D2*
X-400682D1*
X-503983Y-3025493D2*
X-496483D1*
X-461483D2*
X-451483D1*
X-413049D2*
X-402401D1*
X-503983Y-3027993D2*
X-496483D1*
X-461483D2*
X-451483D1*
X-414857D2*
X-404324D1*
X-503983Y-3030493D2*
X-496474D1*
X-461483D2*
X-451483D1*
X-416892D2*
X-406254D1*
X-503983Y-3032993D2*
X-496386D1*
X-461493D2*
X-451493D1*
X-419065D2*
X-408042D1*
X-503983Y-3035493D2*
X-496057D1*
X-461581D2*
X-451581D1*
X-421138D2*
X-409845D1*
X-503974Y-3037993D2*
X-495361D1*
X-461909D2*
X-451900D1*
X-422995D2*
X-411803D1*
X-503886Y-3040493D2*
X-494284D1*
X-462625D2*
X-452508D1*
X-424827D2*
X-413747D1*
X-503557Y-3042993D2*
X-492618D1*
X-463623D2*
X-453247D1*
X-426797D2*
X-415540D1*
X-502861Y-3045493D2*
X-490324D1*
X-465718D2*
X-454099D1*
X-428735D2*
X-417354D1*
X-501804Y-3047993D2*
X-484880D1*
X-470878D2*
X-455346D1*
X-430431D2*
X-419399D1*
X-500333Y-3050493D2*
X-477495D1*
X-478090D2*
X-457118D1*
X-431830D2*
X-421648D1*
X-498255Y-3052993D2*
X-459349D1*
X-432862D2*
X-391483D1*
X-495285Y-3055493D2*
X-462076D1*
X-433470D2*
X-391483D1*
X-491213Y-3057993D2*
X-465364D1*
X-433785D2*
X-391483D1*
X-486483Y-3060493D2*
X-468983D1*
X-433983D2*
X-391483D1*
X-232700Y-1317320D2*
D12*
X-202220D1*
X315940D2*
X354040D1*
X586450D2*
X624550D1*
X780760D2*
X815050D1*
X944590D2*
X971260D1*
X1028410D2*
X1055080D1*
X-1135670Y-1321130D2*
X-1089950D1*
X-1070900D2*
X-1021370D1*
X-1006130D2*
X-956600D1*
X-926120D2*
X-880400D1*
X-861350D2*
X-811820D1*
X-796580D2*
X-747050D1*
X-716570D2*
X-670850D1*
X-651800D2*
X-602270D1*
X-587030D2*
X-537500D1*
X-373670D2*
X-312710D1*
X-241475D2*
X-194760D1*
X-122210D2*
X-61250D1*
X-26960D2*
X22570D1*
X68290D2*
X117820D1*
X125440D2*
X251170D1*
X306721D2*
X360911D1*
X575458D2*
X633914D1*
X769768D2*
X826027D1*
X937263D2*
X978116D1*
X1021539D2*
X1062407D1*
X-1135670Y-1324940D2*
X-1089950D1*
X-1070900D2*
X-1021370D1*
X-1006130D2*
X-956600D1*
X-926120D2*
X-880400D1*
X-861350D2*
X-811820D1*
X-796580D2*
X-747050D1*
X-716570D2*
X-670850D1*
X-651800D2*
X-602270D1*
X-587030D2*
X-537500D1*
X-381441D2*
X-312710D1*
X-249081D2*
X-187777D1*
X-129981D2*
X-61250D1*
X-26960D2*
X22570D1*
X65928D2*
X115458D1*
X125440D2*
X251170D1*
X298659D2*
X366949D1*
X566152D2*
X642479D1*
X760462D2*
X835199D1*
X931264D2*
X984021D1*
X1015486D2*
X1068391D1*
X-1135670Y-1328750D2*
X-1089950D1*
X-1070900D2*
X-1021370D1*
X-1006130D2*
X-956600D1*
X-926120D2*
X-880400D1*
X-861350D2*
X-811820D1*
X-796580D2*
X-747050D1*
X-716570D2*
X-670850D1*
X-651800D2*
X-602270D1*
X-587030D2*
X-537500D1*
X-387896D2*
X-312710D1*
X-255500D2*
X-181705D1*
X-136436D2*
X-61250D1*
X-26960D2*
X22570D1*
X63755D2*
X113270D1*
X125440D2*
X251170D1*
X292167D2*
X372021D1*
X558487D2*
X650019D1*
X752797D2*
X842379D1*
X926361D2*
X988618D1*
X1010255D2*
X1073175D1*
X-1135670Y-1332560D2*
X-1089950D1*
X-1070900D2*
X-1021370D1*
X-1006130D2*
X-956600D1*
X-926120D2*
X-880400D1*
X-861350D2*
X-811820D1*
X-796580D2*
X-747050D1*
X-716570D2*
X-670850D1*
X-651800D2*
X-602270D1*
X-587030D2*
X-537500D1*
X-392872D2*
X-312710D1*
X-260666D2*
X-176605D1*
X-141412D2*
X-61250D1*
X-26960D2*
X22570D1*
X61714D2*
X111110D1*
X125440D2*
X251170D1*
X287326D2*
X376315D1*
X551987D2*
X656337D1*
X746297D2*
X847966D1*
X922209D2*
X992104D1*
X1005236D2*
X1076975D1*
X-1135670Y-1336370D2*
X-1089950D1*
X-1070900D2*
X-1021370D1*
X-1006130D2*
X-956600D1*
X-926120D2*
X-880400D1*
X-861350D2*
X-811820D1*
X-796580D2*
X-747050D1*
X-716570D2*
X-670850D1*
X-651800D2*
X-602270D1*
X-587030D2*
X-537500D1*
X-396729D2*
X-312710D1*
X-264580D2*
X-172143D1*
X-145269D2*
X-61250D1*
X-26960D2*
X22570D1*
X59740D2*
X108784D1*
X125440D2*
X251170D1*
X283841D2*
X379893D1*
X546395D2*
X661518D1*
X740705D2*
X852596D1*
X918820D2*
X995057D1*
X999846D2*
X1079923D1*
X-1135670Y-1340180D2*
X-1089950D1*
X-1070900D2*
X-1021370D1*
X-1006130D2*
X-956600D1*
X-926120D2*
X-880400D1*
X-861350D2*
X-811820D1*
X-796580D2*
X-747050D1*
X-716570D2*
X-670850D1*
X-651800D2*
X-602270D1*
X-587030D2*
X-537500D1*
X-399927D2*
X-312710D1*
X-267777D2*
X-167930D1*
X-148467D2*
X-61250D1*
X-26960D2*
X22570D1*
X57690D2*
X106308D1*
X125440D2*
X251170D1*
X281202D2*
X382748D1*
X541710D2*
X665854D1*
X736020D2*
X856750D1*
X916347D2*
X1082212D1*
X-1135670Y-1343990D2*
X-1089950D1*
X-1070900D2*
X-1021370D1*
X-1006130D2*
X-956600D1*
X-926120D2*
X-880400D1*
X-861350D2*
X-811820D1*
X-796580D2*
X-747050D1*
X-716570D2*
X-670850D1*
X-651800D2*
X-602270D1*
X-587030D2*
X-537500D1*
X-402560D2*
X-312710D1*
X-270637D2*
X-172329D1*
X-151100D2*
X-61250D1*
X-26960D2*
X22570D1*
X55413D2*
X103966D1*
X125440D2*
X251170D1*
X278983D2*
X384987D1*
X537899D2*
X669460D1*
X732209D2*
X860679D1*
X914548D2*
X1083972D1*
X-1135670Y-1347800D2*
X-1089950D1*
X-1070900D2*
X-1021370D1*
X-1006130D2*
X-956600D1*
X-926120D2*
X-880400D1*
X-861350D2*
X-811820D1*
X-796580D2*
X-747050D1*
X-716570D2*
X-670850D1*
X-651800D2*
X-602270D1*
X-587030D2*
X-537500D1*
X-404691D2*
X-312710D1*
X-273118D2*
X-177098D1*
X-153231D2*
X-61250D1*
X-26960D2*
X22570D1*
X52956D2*
X101822D1*
X125440D2*
X251170D1*
X276959D2*
X386614D1*
X534805D2*
X672454D1*
X729115D2*
X864405D1*
X913005D2*
X1085399D1*
X-1135670Y-1351610D2*
X-1089950D1*
X-1070900D2*
X-1021370D1*
X-1006130D2*
X-956600D1*
X-926120D2*
X-880400D1*
X-861350D2*
X-811820D1*
X-796580D2*
X-747050D1*
X-716570D2*
X-670850D1*
X-651800D2*
X-602270D1*
X-587030D2*
X-537500D1*
X-406258D2*
X-312710D1*
X-275202D2*
X-182029D1*
X-154798D2*
X-61250D1*
X-26960D2*
X22570D1*
X50622D2*
X99799D1*
X125440D2*
X251170D1*
X275020D2*
X387686D1*
X532021D2*
X675195D1*
X726331D2*
X867732D1*
X911756D2*
X1086775D1*
X-1135670Y-1355420D2*
X-1089950D1*
X-1070900D2*
X-1021370D1*
X-1006130D2*
X-956600D1*
X-926120D2*
X-880400D1*
X-861350D2*
X-811820D1*
X-796580D2*
X-747050D1*
X-716570D2*
X-670850D1*
X-651800D2*
X-602270D1*
X-587030D2*
X-537500D1*
X-407178D2*
X-312710D1*
X-276880D2*
X-186994D1*
X-155718D2*
X-61250D1*
X-26960D2*
X22570D1*
X48465D2*
X97834D1*
X125440D2*
X251170D1*
X273236D2*
X388633D1*
X529345D2*
X677855D1*
X723655D2*
X870501D1*
X910984D2*
X1087955D1*
X-1135670Y-1359230D2*
X-1089950D1*
X-1070900D2*
X-1021370D1*
X-1006130D2*
X-956600D1*
X-926120D2*
X-880400D1*
X-861350D2*
X-811820D1*
X-796580D2*
X-747050D1*
X-716570D2*
X-670850D1*
X-651800D2*
X-602270D1*
X-587030D2*
X-537500D1*
X-407633D2*
X-312710D1*
X-278276D2*
X-192104D1*
X-156173D2*
X-61250D1*
X-26960D2*
X22570D1*
X46325D2*
X95788D1*
X125440D2*
X251170D1*
X271823D2*
X389748D1*
X526923D2*
X680255D1*
X721233D2*
X872836D1*
X910590D2*
X1088701D1*
X-1135670Y-1363040D2*
X-1089950D1*
X-1070900D2*
X-1021370D1*
X-1006130D2*
X-956600D1*
X-926120D2*
X-880400D1*
X-861350D2*
X-811820D1*
X-796580D2*
X-747050D1*
X-716570D2*
X-670850D1*
X-651800D2*
X-602270D1*
X-587030D2*
X-537500D1*
X-407832D2*
X-312710D1*
X-279641D2*
X-228141D1*
X-213650D2*
X-197216D1*
X-156372D2*
X-61250D1*
X-26960D2*
X22570D1*
X44008D2*
X93512D1*
X125440D2*
X251170D1*
X270966D2*
X390806D1*
X524748D2*
X682309D1*
X719058D2*
X874936D1*
X910414D2*
X1089085D1*
X-1135670Y-1366850D2*
X-1089950D1*
X-1070900D2*
X-1021370D1*
X-1006130D2*
X-956600D1*
X-926120D2*
X-880400D1*
X-861350D2*
X-811820D1*
X-796580D2*
X-747050D1*
X-716570D2*
X-670850D1*
X-651800D2*
X-602270D1*
X-587030D2*
X-537500D1*
X-407913D2*
X-333344D1*
X-280817D2*
X-230369D1*
X-209840D2*
X-202220D1*
X-156453D2*
X-81884D1*
X-26960D2*
X22570D1*
X41535D2*
X91056D1*
X163540D2*
X213070D1*
X270534D2*
X324294D1*
X338051D2*
X391501D1*
X522729D2*
X590435D1*
X616181D2*
X683975D1*
X717039D2*
X784875D1*
X810491D2*
X876915D1*
X910342D2*
X959685D1*
X970511D2*
X1024600D1*
X1039840D2*
X1089257D1*
X-1135670Y-1370660D2*
X-1089950D1*
X-1070900D2*
X-1021370D1*
X-1006130D2*
X-956600D1*
X-926120D2*
X-880400D1*
X-861350D2*
X-811820D1*
X-796580D2*
X-747050D1*
X-716570D2*
X-670850D1*
X-651800D2*
X-602270D1*
X-587030D2*
X-537500D1*
X-407943D2*
X-348899D1*
X-281561D2*
X-231645D1*
X-156483D2*
X-97439D1*
X-26960D2*
X22570D1*
X39195D2*
X88722D1*
X163540D2*
X213070D1*
X270343D2*
X321932D1*
X340279D2*
X391866D1*
X520909D2*
X583586D1*
X622205D2*
X685368D1*
X715204D2*
X778381D1*
X816529D2*
X878838D1*
X910315D2*
X959197D1*
X972739D2*
X1024600D1*
X1039840D2*
X1089328D1*
X-1135670Y-1374470D2*
X-1089950D1*
X-1070900D2*
X-1021370D1*
X-1006130D2*
X-956600D1*
X-926120D2*
X-880400D1*
X-861350D2*
X-811820D1*
X-796580D2*
X-747050D1*
X-716570D2*
X-670850D1*
X-651800D2*
X-602270D1*
X-587030D2*
X-537500D1*
X-407954D2*
X-354578D1*
X-281945D2*
X-232264D1*
X-156494D2*
X-103118D1*
X-26960D2*
X22570D1*
X37051D2*
X86565D1*
X163540D2*
X213070D1*
X270266D2*
X320170D1*
X341555D2*
X392031D1*
X519467D2*
X578014D1*
X627157D2*
X686732D1*
X713643D2*
X773236D1*
X821601D2*
X880617D1*
X910305D2*
X958283D1*
X974015D2*
X1024600D1*
X1039840D2*
X1089355D1*
X-1135670Y-1378280D2*
X-1089950D1*
X-1070900D2*
X-1021370D1*
X-1006130D2*
X-956600D1*
X-926120D2*
X-880400D1*
X-861350D2*
X-811820D1*
X-796580D2*
X-747050D1*
X-716570D2*
X-670850D1*
X-651800D2*
X-602270D1*
X-587030D2*
X-537500D1*
X-407958D2*
X-357269D1*
X-282118D2*
X-232532D1*
X-156498D2*
X-105809D1*
X-26960D2*
X22585D1*
X35029D2*
X84425D1*
X163540D2*
X213070D1*
X270236D2*
X318639D1*
X342174D2*
X392099D1*
X518470D2*
X573964D1*
X631097D2*
X687907D1*
X712294D2*
X769251D1*
X825881D2*
X882028D1*
X910302D2*
X957306D1*
X974634D2*
X1024600D1*
X1039840D2*
X1089365D1*
X-1135670Y-1382090D2*
X-1089950D1*
X-1070900D2*
X-1021370D1*
X-1006130D2*
X-956600D1*
X-926120D2*
X-880400D1*
X-861350D2*
X-811820D1*
X-796580D2*
X-747050D1*
X-716570D2*
X-670850D1*
X-651800D2*
X-602270D1*
X-587030D2*
X-537500D1*
X-407959D2*
X-338002D1*
X-282188D2*
X-232638D1*
X-156499D2*
X-86542D1*
X-26960D2*
X22730D1*
X33067D2*
X82108D1*
X163540D2*
X213070D1*
X270226D2*
X317394D1*
X342442D2*
X392126D1*
X517551D2*
X571010D1*
X634230D2*
X688654D1*
X710948D2*
X765984D1*
X829339D2*
X882900D1*
X910301D2*
X956642D1*
X974902D2*
X1024600D1*
X1039840D2*
X1089368D1*
X-1135670Y-1385900D2*
X-1089950D1*
X-1070900D2*
X-1021370D1*
X-1006130D2*
X-956600D1*
X-926120D2*
X-880400D1*
X-861350D2*
X-811820D1*
X-796580D2*
X-747050D1*
X-716570D2*
X-670850D1*
X-651800D2*
X-602270D1*
X-587030D2*
X-537500D1*
X-407960D2*
X-316520D1*
X-282215D2*
X-232678D1*
X-156500D2*
X-65060D1*
X-26960D2*
X23319D1*
X31041D2*
X79623D1*
X163540D2*
X213070D1*
X270222D2*
X316623D1*
X342548D2*
X392135D1*
X516447D2*
X568657D1*
X637016D2*
X689059D1*
X709780D2*
X763321D1*
X831842D2*
X883465D1*
X910300D2*
X956288D1*
X975008D2*
X1024600D1*
X1039840D2*
X1089369D1*
X-1135670Y-1389710D2*
X-1089950D1*
X-1070900D2*
X-1021370D1*
X-1006130D2*
X-956600D1*
X-926120D2*
X-880400D1*
X-861350D2*
X-811820D1*
X-796580D2*
X-747050D1*
X-716570D2*
X-670850D1*
X-651800D2*
X-602270D1*
X-587030D2*
X-537500D1*
X-407960D2*
X-316520D1*
X-282225D2*
X-232693D1*
X-156500D2*
X-65060D1*
X-26960D2*
X24621D1*
X28811D2*
X77182D1*
X163540D2*
X213070D1*
X270221D2*
X316230D1*
X342588D2*
X392138D1*
X515392D2*
X566705D1*
X639790D2*
X689320D1*
X709037D2*
X761177D1*
X833654D2*
X884141D1*
X910300D2*
X956127D1*
X975048D2*
X1024600D1*
X1039840D2*
X1089370D1*
X-1135670Y-1393520D2*
X-1089950D1*
X-1070900D2*
X-1021370D1*
X-1006130D2*
X-956600D1*
X-926120D2*
X-880400D1*
X-861350D2*
X-811820D1*
X-796580D2*
X-747050D1*
X-716570D2*
X-670850D1*
X-651800D2*
X-602270D1*
X-587030D2*
X-537500D1*
X-407960D2*
X-316520D1*
X-282228D2*
X-232698D1*
X-156500D2*
X-65060D1*
X-26960D2*
X74702D1*
X163540D2*
X213070D1*
X270220D2*
X316054D1*
X342603D2*
X392139D1*
X514698D2*
X565228D1*
X708655D2*
X759605D1*
X835203D2*
X885131D1*
X910300D2*
X956060D1*
X975063D2*
X1024600D1*
X1039840D2*
X1089370D1*
X-1135670Y-1397330D2*
X-1089950D1*
X-1070900D2*
X-1021370D1*
X-1006130D2*
X-956600D1*
X-926120D2*
X-880400D1*
X-861350D2*
X-811820D1*
X-796580D2*
X-747050D1*
X-716570D2*
X-670850D1*
X-651800D2*
X-602270D1*
X-587030D2*
X-537500D1*
X-407960D2*
X-316520D1*
X-282229D2*
X-232699D1*
X-156500D2*
X-65060D1*
X-26960D2*
X72100D1*
X163540D2*
X213070D1*
X270220D2*
X315982D1*
X342608D2*
X392140D1*
X514334D2*
X564348D1*
X708482D2*
X758683D1*
X836453D2*
X886138D1*
X910300D2*
X956034D1*
X975068D2*
X1024600D1*
X1039840D2*
X1089370D1*
X-1135670Y-1401140D2*
X-1089950D1*
X-1070900D2*
X-1021370D1*
X-1006130D2*
X-956600D1*
X-926120D2*
X-880400D1*
X-861350D2*
X-811820D1*
X-796580D2*
X-747050D1*
X-716570D2*
X-670850D1*
X-651800D2*
X-602270D1*
X-587030D2*
X-537500D1*
X-407960D2*
X-316520D1*
X-282230D2*
X-217460D1*
X-156500D2*
X-65060D1*
X-26960D2*
X74462D1*
X163540D2*
X213070D1*
X270220D2*
X315954D1*
X342609D2*
X392140D1*
X514169D2*
X563908D1*
X708412D2*
X758228D1*
X837211D2*
X886798D1*
X910300D2*
X956025D1*
X975069D2*
X1024600D1*
X1039840D2*
X1089370D1*
X-1135670Y-1404950D2*
X-1089950D1*
X-1070900D2*
X-1021370D1*
X-1006130D2*
X-956600D1*
X-926120D2*
X-880400D1*
X-861350D2*
X-811820D1*
X-796580D2*
X-747050D1*
X-716570D2*
X-670850D1*
X-651800D2*
X-602270D1*
X-587030D2*
X-537500D1*
X-407960D2*
X-316520D1*
X-282230D2*
X-217460D1*
X-156500D2*
X-65060D1*
X-26960D2*
X22570D1*
X30779D2*
X76635D1*
X163540D2*
X213070D1*
X270220D2*
X331180D1*
X342610D2*
X392140D1*
X514101D2*
X563729D1*
X708385D2*
X758043D1*
X837471D2*
X887021D1*
X910300D2*
X956022D1*
X975070D2*
X1024600D1*
X1039840D2*
X1089370D1*
X-1135670Y-1408760D2*
X-1089950D1*
X-1070900D2*
X-1021370D1*
X-1006130D2*
X-956600D1*
X-926120D2*
X-880400D1*
X-861350D2*
X-811820D1*
X-796580D2*
X-747050D1*
X-716570D2*
X-670850D1*
X-651800D2*
X-602270D1*
X-587030D2*
X-537500D1*
X-407960D2*
X-316520D1*
X-282230D2*
X-217460D1*
X-156500D2*
X-65060D1*
X-26960D2*
X22570D1*
X31738D2*
X78676D1*
X163540D2*
X213070D1*
X270220D2*
X331180D1*
X342610D2*
X392140D1*
X514074D2*
X563785D1*
X639790D2*
X693130D1*
X708390D2*
X758096D1*
X837161D2*
X886698D1*
X910300D2*
X956021D1*
X975070D2*
X1024600D1*
X1039840D2*
X1089370D1*
X-1135670Y-1412570D2*
X-1089950D1*
X-1070900D2*
X-1021370D1*
X-1006130D2*
X-956600D1*
X-926120D2*
X-880400D1*
X-861350D2*
X-811820D1*
X-796580D2*
X-747050D1*
X-716570D2*
X-670850D1*
X-651800D2*
X-602270D1*
X-587030D2*
X-537500D1*
X-407960D2*
X-316520D1*
X-282230D2*
X-217460D1*
X-156500D2*
X-65060D1*
X-26960D2*
X22570D1*
X32859D2*
X80635D1*
X163540D2*
X213070D1*
X270220D2*
X331180D1*
X342610D2*
X392140D1*
X514080D2*
X564256D1*
X639645D2*
X691828D1*
X708521D2*
X758566D1*
X836306D2*
X885853D1*
X910300D2*
X956020D1*
X975070D2*
X1024600D1*
X1039840D2*
X1089370D1*
X-1135670Y-1416380D2*
X-1089950D1*
X-1070900D2*
X-1021370D1*
X-1006130D2*
X-956600D1*
X-926120D2*
X-880400D1*
X-861350D2*
X-811820D1*
X-796580D2*
X-747050D1*
X-716570D2*
X-670850D1*
X-651800D2*
X-602270D1*
X-587030D2*
X-537500D1*
X-407960D2*
X-316520D1*
X-282230D2*
X-217460D1*
X-156500D2*
X-65060D1*
X-26960D2*
X22570D1*
X34026D2*
X82566D1*
X163540D2*
X213070D1*
X270220D2*
X331180D1*
X342610D2*
X392140D1*
X514210D2*
X565291D1*
X639142D2*
X690679D1*
X709005D2*
X759616D1*
X835207D2*
X884902D1*
X910300D2*
X956020D1*
X975070D2*
X1024600D1*
X1039840D2*
X1089370D1*
X-1135670Y-1420190D2*
X-1089935D1*
X-1070900D2*
X-1021370D1*
X-1006130D2*
X-956600D1*
X-926120D2*
X-880385D1*
X-861350D2*
X-811820D1*
X-796580D2*
X-747050D1*
X-716570D2*
X-670835D1*
X-651800D2*
X-602270D1*
X-587030D2*
X-537500D1*
X-407960D2*
X-316520D1*
X-282230D2*
X-217460D1*
X-156500D2*
X-65060D1*
X-26960D2*
X22570D1*
X35427D2*
X84476D1*
X163540D2*
X213070D1*
X270220D2*
X331180D1*
X342610D2*
X392140D1*
X514695D2*
X566765D1*
X638080D2*
X689822D1*
X709917D2*
X761224D1*
X833919D2*
X884232D1*
X910300D2*
X956020D1*
X975070D2*
X1024600D1*
X1039840D2*
X1089370D1*
X-1135670Y-1424000D2*
X-1089801D1*
X-1070900D2*
X-1021370D1*
X-1006130D2*
X-956600D1*
X-926120D2*
X-880251D1*
X-861350D2*
X-811820D1*
X-796580D2*
X-747050D1*
X-716570D2*
X-670701D1*
X-651800D2*
X-602270D1*
X-587030D2*
X-537500D1*
X-407960D2*
X-337169D1*
X-282230D2*
X-217460D1*
X-156500D2*
X-85709D1*
X-26960D2*
X22570D1*
X37051D2*
X86387D1*
X163540D2*
X213070D1*
X270220D2*
X331180D1*
X342610D2*
X392140D1*
X515622D2*
X568489D1*
X636468D2*
X688964D1*
X710909D2*
X763434D1*
X832022D2*
X883748D1*
X910300D2*
X956020D1*
X975070D2*
X1024600D1*
X1039840D2*
X1089370D1*
X-1135670Y-1427810D2*
X-1089316D1*
X-1070915D2*
X-1021370D1*
X-1006145D2*
X-956600D1*
X-926120D2*
X-879766D1*
X-861365D2*
X-811820D1*
X-796595D2*
X-747050D1*
X-716570D2*
X-670216D1*
X-651815D2*
X-602270D1*
X-587045D2*
X-537500D1*
X-407960D2*
X-352769D1*
X-282230D2*
X-217460D1*
X-156500D2*
X-101309D1*
X-26960D2*
X22570D1*
X38710D2*
X88290D1*
X163540D2*
X213070D1*
X270220D2*
X331180D1*
X342610D2*
X392140D1*
X516733D2*
X570483D1*
X634242D2*
X687868D1*
X711707D2*
X766325D1*
X829323D2*
X883102D1*
X910300D2*
X956020D1*
X975070D2*
X1024600D1*
X1039840D2*
X1089370D1*
X-1135670Y-1431620D2*
X-1088373D1*
X-1071093D2*
X-1021340D1*
X-1006323D2*
X-956600D1*
X-926120D2*
X-878823D1*
X-861543D2*
X-811790D1*
X-796773D2*
X-747050D1*
X-716570D2*
X-669273D1*
X-651993D2*
X-602240D1*
X-587223D2*
X-537500D1*
X-407960D2*
X-358590D1*
X-282230D2*
X-217460D1*
X-156500D2*
X-107130D1*
X-26960D2*
X22570D1*
X40200D2*
X90199D1*
X163540D2*
X213070D1*
X270220D2*
X331180D1*
X342610D2*
X392140D1*
X517898D2*
X573243D1*
X631127D2*
X686688D1*
X712561D2*
X769913D1*
X825830D2*
X882108D1*
X910300D2*
X956020D1*
X975070D2*
X1024600D1*
X1039840D2*
X1089370D1*
X-1135670Y-1435430D2*
X-1087106D1*
X-1071540D2*
X-1021050D1*
X-1006770D2*
X-956600D1*
X-926120D2*
X-877556D1*
X-861990D2*
X-811500D1*
X-797220D2*
X-747050D1*
X-716570D2*
X-668006D1*
X-652440D2*
X-601950D1*
X-587670D2*
X-537500D1*
X-484160D2*
X-465110D1*
X-407960D2*
X-361354D1*
X-282230D2*
X-217460D1*
X-156500D2*
X-109894D1*
X-26960D2*
X22570D1*
X41536D2*
X92101D1*
X163540D2*
X213070D1*
X270220D2*
X331180D1*
X342610D2*
X392140D1*
X445480D2*
X464530D1*
X519297D2*
X577002D1*
X627256D2*
X685497D1*
X713769D2*
X775026D1*
X820759D2*
X880957D1*
X910300D2*
X956020D1*
X975070D2*
X1024600D1*
X1039840D2*
X1089370D1*
X-1135670Y-1439240D2*
X-1085261D1*
X-1073895D2*
X-1020358D1*
X-1009125D2*
X-956600D1*
X-926120D2*
X-875711D1*
X-864345D2*
X-810808D1*
X-799575D2*
X-747050D1*
X-716570D2*
X-666161D1*
X-654795D2*
X-601258D1*
X-590025D2*
X-537500D1*
X-487955D2*
X-459686D1*
X-407960D2*
X-359768D1*
X-282230D2*
X-217460D1*
X-156500D2*
X-108308D1*
X-26960D2*
X22570D1*
X43006D2*
X94009D1*
X163540D2*
X213070D1*
X270220D2*
X331180D1*
X342610D2*
X392140D1*
X441685D2*
X469954D1*
X520936D2*
X587968D1*
X617844D2*
X684088D1*
X715313D2*
X783821D1*
X811980D2*
X879663D1*
X910300D2*
X956020D1*
X975070D2*
X1024600D1*
X1039840D2*
X1089370D1*
X-1135670Y-1443050D2*
X-1082283D1*
X-1079561D2*
X-1017389D1*
X-1014791D2*
X-956615D1*
X-926120D2*
X-872733D1*
X-870011D2*
X-807839D1*
X-805241D2*
X-747065D1*
X-716570D2*
X-663183D1*
X-660461D2*
X-598289D1*
X-595691D2*
X-537515D1*
X-491616D2*
X-455285D1*
X-407945D2*
X-357399D1*
X-282230D2*
X-217460D1*
X-156485D2*
X-105939D1*
X-26960D2*
X22570D1*
X44656D2*
X95911D1*
X163540D2*
X213070D1*
X270220D2*
X331180D1*
X342610D2*
X392140D1*
X438024D2*
X474355D1*
X522714D2*
X604514D1*
X603682D2*
X682446D1*
X717065D2*
X797851D1*
X797956D2*
X877894D1*
X910300D2*
X956020D1*
X975070D2*
X1024600D1*
X1039840D2*
X1089370D1*
X-1135655Y-1446860D2*
X-956749D1*
X-926105D2*
X-747199D1*
X-716555D2*
X-537649D1*
X-494807D2*
X-451984D1*
X-407811D2*
X-312710D1*
X-282230D2*
X-232700D1*
X-156351D2*
X-61250D1*
X-26960D2*
X22570D1*
X46325D2*
X97819D1*
X163540D2*
X213070D1*
X270220D2*
X331180D1*
X342610D2*
X392140D1*
X434833D2*
X477656D1*
X524570D2*
X680652D1*
X719024D2*
X875693D1*
X910300D2*
X956020D1*
X975070D2*
X1024600D1*
X1039840D2*
X1089370D1*
X-1135521Y-1450670D2*
X-957234D1*
X-925971D2*
X-747684D1*
X-716421D2*
X-538134D1*
X-497204D2*
X-449539D1*
X-407326D2*
X-312710D1*
X-282230D2*
X-232700D1*
X-155866D2*
X-61250D1*
X-26960D2*
X22570D1*
X47818D2*
X99721D1*
X163540D2*
X213070D1*
X270220D2*
X315940D1*
X342610D2*
X392140D1*
X432436D2*
X480101D1*
X526467D2*
X678676D1*
X721266D2*
X873350D1*
X910300D2*
X956020D1*
X975070D2*
X1024600D1*
X1039840D2*
X1089370D1*
X-1135036Y-1454480D2*
X-958162D1*
X-925486D2*
X-748612D1*
X-715936D2*
X-539062D1*
X-498976D2*
X-447841D1*
X-406398D2*
X-312710D1*
X-282230D2*
X-232700D1*
X-154938D2*
X-61250D1*
X-26960D2*
X22570D1*
X49155D2*
X101629D1*
X163540D2*
X213070D1*
X270220D2*
X315940D1*
X342610D2*
X392140D1*
X430664D2*
X481799D1*
X528502D2*
X676427D1*
X723725D2*
X870760D1*
X910300D2*
X956020D1*
X975070D2*
X1024600D1*
X1039840D2*
X1089370D1*
X-1134108Y-1458290D2*
X-959273D1*
X-924558D2*
X-749723D1*
X-715008D2*
X-540173D1*
X-500495D2*
X-446871D1*
X-405273D2*
X-312710D1*
X-282230D2*
X-232700D1*
X-153813D2*
X-61250D1*
X-26960D2*
X22570D1*
X50625D2*
X103531D1*
X163540D2*
X213070D1*
X270220D2*
X315940D1*
X342610D2*
X392140D1*
X429145D2*
X482769D1*
X530902D2*
X673966D1*
X726189D2*
X867712D1*
X910300D2*
X956020D1*
X975070D2*
X1024600D1*
X1039840D2*
X1089370D1*
X-1132983Y-1462100D2*
X-960437D1*
X-923433D2*
X-750887D1*
X-713883D2*
X-541337D1*
X-501606D2*
X-446397D1*
X-403974D2*
X-312710D1*
X-282230D2*
X-232700D1*
X-152514D2*
X-61250D1*
X-26960D2*
X22570D1*
X52276D2*
X105439D1*
X163540D2*
X213070D1*
X270220D2*
X315940D1*
X342610D2*
X392140D1*
X428034D2*
X483243D1*
X533855D2*
X671487D1*
X728845D2*
X864292D1*
X910300D2*
X956020D1*
X975070D2*
X1024600D1*
X1039840D2*
X1089370D1*
X-1131699Y-1465910D2*
X-961852D1*
X-922149D2*
X-752302D1*
X-712599D2*
X-542752D1*
X-502211D2*
X-446206D1*
X-402073D2*
X-312710D1*
X-282230D2*
X-232700D1*
X-150613D2*
X-61250D1*
X-26960D2*
X22570D1*
X53945D2*
X107341D1*
X163540D2*
X213070D1*
X270220D2*
X315940D1*
X342610D2*
X392140D1*
X427429D2*
X483434D1*
X537249D2*
X668712D1*
X732046D2*
X860656D1*
X910300D2*
X956020D1*
X975070D2*
X1024600D1*
X1039840D2*
X1089370D1*
X-1129932Y-1469720D2*
X-963625D1*
X-920382D2*
X-754075D1*
X-710832D2*
X-544525D1*
X-501308D2*
X-446272D1*
X-399373D2*
X-312710D1*
X-282230D2*
X-232700D1*
X-147913D2*
X-61250D1*
X-26960D2*
X22570D1*
X55438D2*
X109249D1*
X163540D2*
X213070D1*
X270220D2*
X315940D1*
X342610D2*
X392140D1*
X428332D2*
X483368D1*
X541017D2*
X665143D1*
X735974D2*
X856903D1*
X910300D2*
X956020D1*
X975070D2*
X1024600D1*
X1039840D2*
X1089370D1*
X-1127718Y-1473530D2*
X-1052614D1*
X-1044230D2*
X-965918D1*
X-918168D2*
X-843064D1*
X-834680D2*
X-756368D1*
X-708618D2*
X-633514D1*
X-625130D2*
X-546818D1*
X-499944D2*
X-446875D1*
X-395954D2*
X-312710D1*
X-282230D2*
X-232700D1*
X-144494D2*
X-61250D1*
X-26960D2*
X22570D1*
X56775D2*
X111151D1*
X163540D2*
X213070D1*
X270220D2*
X315940D1*
X342610D2*
X392140D1*
X429696D2*
X482765D1*
X545384D2*
X660655D1*
X740673D2*
X852971D1*
X910300D2*
X956020D1*
X975070D2*
X1024600D1*
X1039840D2*
X1089370D1*
X-1125226Y-1477340D2*
X-1053893D1*
X-1040390D2*
X-968970D1*
X-915676D2*
X-844343D1*
X-830840D2*
X-759420D1*
X-706126D2*
X-634793D1*
X-621290D2*
X-549870D1*
X-498259D2*
X-448426D1*
X-391609D2*
X-312710D1*
X-282230D2*
X-232700D1*
X-140149D2*
X-61250D1*
X-26960D2*
X22570D1*
X58257D2*
X113047D1*
X163540D2*
X213070D1*
X270220D2*
X315940D1*
X342610D2*
X392140D1*
X431381D2*
X481214D1*
X550726D2*
X655391D1*
X746039D2*
X848507D1*
X910300D2*
X956020D1*
X975070D2*
X1024600D1*
X1039840D2*
X1089370D1*
X-1122003Y-1481150D2*
X-1057399D1*
X-1036290D2*
X-972962D1*
X-912453D2*
X-847849D1*
X-826740D2*
X-763412D1*
X-702903D2*
X-638299D1*
X-617190D2*
X-553862D1*
X-496174D2*
X-451091D1*
X-385774D2*
X-312710D1*
X-282230D2*
X-232700D1*
X-134314D2*
X-61250D1*
X-26960D2*
X22570D1*
X60021D2*
X114850D1*
X163540D2*
X213070D1*
X270220D2*
X315940D1*
X342610D2*
X392140D1*
X433466D2*
X478549D1*
X557194D2*
X649295D1*
X752178D2*
X842864D1*
X910300D2*
X956020D1*
X975070D2*
X1024600D1*
X1039840D2*
X1089370D1*
X-1117424Y-1484960D2*
X-1062207D1*
X-1031302D2*
X-978107D1*
X-907874D2*
X-852657D1*
X-821752D2*
X-768557D1*
X-698324D2*
X-643107D1*
X-612202D2*
X-559007D1*
X-493231D2*
X-454865D1*
X-378263D2*
X-312710D1*
X-282230D2*
X-232700D1*
X-126803D2*
X-61250D1*
X-26960D2*
X22570D1*
X62125D2*
X116437D1*
X163540D2*
X213070D1*
X270220D2*
X315940D1*
X342610D2*
X392140D1*
X436409D2*
X474775D1*
X564776D2*
X642049D1*
X759441D2*
X835357D1*
X910300D2*
X956020D1*
X975070D2*
X1024600D1*
X1039840D2*
X1089370D1*
X-1111588Y-1488770D2*
X-1068197D1*
X-1024887D2*
X-984271D1*
X-902038D2*
X-858647D1*
X-815337D2*
X-774721D1*
X-692488D2*
X-649097D1*
X-605787D2*
X-565171D1*
X-489053D2*
X-459699D1*
X-369860D2*
X-312710D1*
X-282230D2*
X-232700D1*
X-118400D2*
X-61250D1*
X-26960D2*
X22570D1*
X64480D2*
X117820D1*
X163540D2*
X213070D1*
X270220D2*
X315940D1*
X342610D2*
X392140D1*
X440587D2*
X469941D1*
X573420D2*
X633620D1*
X767877D2*
X825784D1*
X910300D2*
X956020D1*
X975070D2*
X1024600D1*
X1039840D2*
X1089370D1*
X-1105190Y-1492580D2*
X-1074710D1*
X-1017560D2*
X-990890D1*
X-895640D2*
X-865160D1*
X-808010D2*
X-781340D1*
X-686090D2*
X-655610D1*
X-598460D2*
X-571790D1*
X-484160D2*
X-465110D1*
X445480D2*
X464530D1*
X582640D2*
X624550D1*
X776950D2*
X815050D1*
X30794Y776344D2*
X61274D1*
X25196Y772534D2*
X66828D1*
X-37786Y768724D2*
X-7306D1*
X20001D2*
X71598D1*
X-43210Y764914D2*
X-2095D1*
X14459D2*
X75461D1*
X-47611Y761104D2*
X4389D1*
X7789D2*
X78456D1*
X-50912Y757294D2*
X80754D1*
X-53371Y753484D2*
X82390D1*
X-55203Y749674D2*
X83337D1*
X-56660Y745864D2*
X83802D1*
X-58046Y742054D2*
X84005D1*
X-59229Y738244D2*
X35353D1*
X46034D2*
X84086D1*
X-59976Y734434D2*
X33124D1*
X46034D2*
X84117D1*
X-60361Y730624D2*
X-17972D1*
X-3496D2*
X31844D1*
X46034D2*
X84128D1*
X-60533Y726814D2*
X-20503D1*
X-3496D2*
X31196D1*
X46034D2*
X84132D1*
X-60604Y723004D2*
X-21228D1*
X-3496D2*
X30794D1*
X46034D2*
X84134D1*
X-60631Y719194D2*
X-19914D1*
X-60641Y715384D2*
X-17655D1*
X-60644Y711574D2*
X84134D1*
X-60645Y707764D2*
X84134D1*
X-60646Y703954D2*
X84134D1*
X-60646Y700144D2*
X84134D1*
X-60646Y696334D2*
X84134D1*
X-60646Y692524D2*
X84134D1*
X-60646Y688714D2*
X84134D1*
X-60646Y684904D2*
X84134D1*
X-60646Y681094D2*
X84134D1*
X-60646Y677284D2*
X84134D1*
X-60646Y673474D2*
X84134D1*
X-60646Y612514D2*
X84134D1*
X-60646Y608704D2*
X84134D1*
X-60646Y604894D2*
X84134D1*
X-60646Y601084D2*
X84134D1*
X-60646Y597274D2*
X84134D1*
X-60646Y593464D2*
X84134D1*
X-60646Y589654D2*
X84134D1*
X-60646Y585844D2*
X84134D1*
X-60646Y582034D2*
X84134D1*
X-60646Y578224D2*
X84134D1*
X-60646Y574414D2*
X84134D1*
X-60646Y521074D2*
X-22546D1*
X-61948Y517264D2*
X-23725D1*
X23174D2*
X53654D1*
X-63082Y513454D2*
X-24302D1*
X14473D2*
X60525D1*
X-63790Y509644D2*
X-18695D1*
X4532D2*
X66563D1*
X-64029Y505834D2*
X-10159D1*
X-8102D2*
X71635D1*
X-63712Y502024D2*
X75929D1*
X-62853Y498214D2*
X79507D1*
X-61769Y494404D2*
X82362D1*
X-60613Y490594D2*
X84601D1*
X-59202Y486784D2*
X86213D1*
X-57430Y482974D2*
X87151D1*
X-55153Y479164D2*
X87613D1*
X-52235Y475354D2*
X87815D1*
X-48712Y471544D2*
X87897D1*
X-44322Y467734D2*
X26828D1*
X45285D2*
X87927D1*
X-38470Y463924D2*
X18616D1*
X47499D2*
X87923D1*
X-30952Y460114D2*
X9693D1*
X48987D2*
X87782D1*
X-22546Y456304D2*
X314D1*
X48750D2*
X87195D1*
X47658Y452494D2*
X85893D1*
X46034Y448684D2*
X84134D1*
X-60646Y429634D2*
X84134D1*
X-60646Y425824D2*
X84134D1*
X-60646Y422014D2*
X84134D1*
X-60646Y418204D2*
X84134D1*
X-60646Y414394D2*
X84134D1*
X-60646Y410584D2*
X84134D1*
X-60646Y406774D2*
X84134D1*
X-60646Y402964D2*
X84134D1*
X-60646Y399154D2*
X84134D1*
X-60646Y395344D2*
X84134D1*
X-60646Y391534D2*
X84134D1*
X-60646Y387724D2*
X-22691D1*
X-60646Y383914D2*
X-15545D1*
X-60631Y380104D2*
X-8693D1*
X-60467Y376294D2*
X-1471D1*
X11744D2*
X38414D1*
X-60066Y372484D2*
X6729D1*
X9958D2*
X38414D1*
X-58138Y368674D2*
X38414D1*
X-53446Y364864D2*
X38414D1*
X-47112Y361054D2*
X38414D1*
X-39305Y357244D2*
X38414D1*
X-30590Y353434D2*
X38414D1*
X-21523Y349624D2*
X38414D1*
X-12493Y345814D2*
X38414D1*
X-3581Y342004D2*
X38414D1*
X5366Y338194D2*
X38414D1*
X14158Y334384D2*
X38414D1*
X22578Y330574D2*
X38414D1*
X30794Y326764D2*
X38414D1*
X-26356Y300094D2*
X53654D1*
X-33227Y296284D2*
X60525D1*
X-39265Y292474D2*
X66563D1*
X-44337Y288664D2*
X71635D1*
X-48631Y284854D2*
X75929D1*
X-52209Y281044D2*
X79507D1*
X-55064Y277234D2*
X82362D1*
X-57317Y273424D2*
X84601D1*
X-59064Y269614D2*
X86213D1*
X-60488Y265804D2*
X87151D1*
X-61862Y261994D2*
X87613D1*
X-63041Y258184D2*
X-23246D1*
X49844D2*
X87815D1*
X-63772Y254374D2*
X-24583D1*
X49844D2*
X87897D1*
X-64022Y250564D2*
X-26356D1*
X49844D2*
X87927D1*
X-63709Y246754D2*
X-24583D1*
X49844D2*
X87938D1*
X-62867Y242944D2*
X-23406D1*
X49844D2*
X87927D1*
X-61902Y239134D2*
X87795D1*
X-61099Y235324D2*
X87295D1*
X-60115Y231514D2*
X86233D1*
X-58407Y227704D2*
X84622D1*
X-55817Y223894D2*
X82411D1*
X-52588Y220084D2*
X79519D1*
X-48889Y216274D2*
X76020D1*
X-44549Y212464D2*
X71778D1*
X-39244Y208654D2*
X66516D1*
X-33012Y204844D2*
X60301D1*
X-26356Y201034D2*
X53654D1*
X-33976Y174364D2*
X84134D1*
X-40847Y170554D2*
X84134D1*
X-46871Y166744D2*
X84134D1*
X-51808Y162934D2*
X84134D1*
X-55617Y159124D2*
X84134D1*
X-58282Y155314D2*
X84134D1*
X-60160Y151504D2*
X84134D1*
X-61734Y147694D2*
X84134D1*
X-62994Y143884D2*
X84134D1*
X-63755Y140074D2*
X84134D1*
X-64016Y136264D2*
X84134D1*
X-63707Y132454D2*
X84134D1*
X-62852Y128644D2*
X-26356D1*
X-61768Y124834D2*
X-22546D1*
X-60613Y121024D2*
X-18736D1*
X-59187Y117214D2*
X84134D1*
X-57282Y113404D2*
X84134D1*
X-54516Y109594D2*
X84134D1*
X-50671Y105784D2*
X84134D1*
X-46201Y101974D2*
X84134D1*
X-41596Y98164D2*
X84134D1*
X-47020Y94354D2*
X84134D1*
X-51421Y90544D2*
X84134D1*
X-54737Y86734D2*
X84134D1*
X-57315Y82924D2*
X84134D1*
X-59499Y79114D2*
X84134D1*
X-61382Y75304D2*
X-22546D1*
X-62833Y71494D2*
X-26356D1*
X-63689Y67684D2*
X-22546D1*
X-63991Y63874D2*
X84134D1*
X-63698Y60064D2*
X84134D1*
X-62848Y56254D2*
X84134D1*
X-61752Y52444D2*
X84134D1*
X-60479Y48634D2*
X84134D1*
X-58702Y44824D2*
X84134D1*
X-56369Y41014D2*
X84134D1*
X-53512Y37204D2*
X84134D1*
X-49718Y33394D2*
X84134D1*
X-44509Y29584D2*
X84134D1*
X-37783Y25774D2*
X84134D1*
X-30166Y21964D2*
X84134D1*
X-60646Y-896D2*
X84134D1*
X-60646Y-4706D2*
X84134D1*
X-60646Y-8516D2*
X84134D1*
X-60646Y-12326D2*
X84134D1*
X-60646Y-16136D2*
X84134D1*
X-60646Y-19946D2*
X84134D1*
X-60646Y-23756D2*
X84134D1*
X-60646Y-27566D2*
X84134D1*
X-60646Y-31376D2*
X84134D1*
X-60646Y-35186D2*
X84134D1*
X-60646Y-38996D2*
X84134D1*
X-60646Y-42806D2*
X-22691D1*
X-60646Y-46616D2*
X-15545D1*
X-60631Y-50426D2*
X-8693D1*
X-60467Y-54236D2*
X-1471D1*
X11744D2*
X38414D1*
X-60066Y-58046D2*
X6729D1*
X9958D2*
X38414D1*
X-58138Y-61856D2*
X38414D1*
X-53446Y-65666D2*
X38414D1*
X-47112Y-69476D2*
X38414D1*
X-39305Y-73286D2*
X38414D1*
X-30590Y-77096D2*
X38414D1*
X-21523Y-80906D2*
X38414D1*
X-12493Y-84716D2*
X38414D1*
X-3581Y-88526D2*
X38414D1*
X5366Y-92336D2*
X38414D1*
X14158Y-96146D2*
X38414D1*
X22578Y-99956D2*
X38414D1*
X30794Y-103766D2*
X38414D1*
X30794Y-122816D2*
X49844D1*
X22179Y-126626D2*
X57745D1*
X15195Y-130436D2*
X64554D1*
X10190Y-134246D2*
X69973D1*
X6502Y-138056D2*
X74014D1*
X5269Y-141866D2*
X77266D1*
X4608Y-145676D2*
X80148D1*
X4312Y-149486D2*
X82638D1*
X-60646Y-153296D2*
X-18736D1*
X4193D2*
X84710D1*
X-61235Y-157106D2*
X-20640D1*
X4148D2*
X86254D1*
X-62179Y-160916D2*
X-22208D1*
X4132D2*
X39163D1*
X45285D2*
X87166D1*
X-63166Y-164726D2*
X-23541D1*
X4127D2*
X36934D1*
X47513D2*
X87618D1*
X-63833Y-168536D2*
X-24608D1*
X4125D2*
X35654D1*
X48789D2*
X87817D1*
X-64172Y-172346D2*
X-24197D1*
X4124D2*
X35006D1*
X49393D2*
X87897D1*
X-64200Y-176156D2*
X-23415D1*
X4124D2*
X34604D1*
X49512D2*
X87927D1*
X-63782Y-179966D2*
X-22410D1*
X48984D2*
X87938D1*
X-62895Y-183776D2*
X-21048D1*
X47477D2*
X87927D1*
X-61912Y-187586D2*
X-19138D1*
X44938D2*
X87795D1*
X-61117Y-191396D2*
X-16694D1*
X41398D2*
X87309D1*
X-60265Y-195206D2*
X-10533D1*
X36010D2*
X86382D1*
X-59057Y-199016D2*
X-643D1*
X26886D2*
X85257D1*
X-57513Y-202826D2*
X13798D1*
X13034D2*
X83973D1*
X-55761Y-206636D2*
X82206D1*
X-53788Y-210446D2*
X80007D1*
X-51411Y-214256D2*
X77664D1*
X-48466Y-218066D2*
X75074D1*
X-45090Y-221876D2*
X72011D1*
X-41458Y-225686D2*
X68442D1*
X-37562Y-229496D2*
X64172D1*
X-33003Y-233306D2*
X58887D1*
X-27081Y-237116D2*
X52584D1*
X-19536Y-240926D2*
X45626D1*
X-11116Y-244736D2*
X38414D1*
X-22546Y-267596D2*
X-3496D1*
X46034D2*
X84134D1*
X-31176Y-271406D2*
X5883D1*
X46034D2*
X84134D1*
X-38308Y-275216D2*
X14612D1*
X46019D2*
X84134D1*
X-43933Y-279026D2*
X22931D1*
X45874D2*
X84134D1*
X-48474Y-282836D2*
X31385D1*
X45285D2*
X84134D1*
X-52150Y-286646D2*
X40410D1*
X43983D2*
X84134D1*
X-55043Y-290456D2*
X84134D1*
X-57310Y-294266D2*
X84134D1*
X-59062Y-298076D2*
X84134D1*
X-60487Y-301886D2*
X84134D1*
X-61862Y-305696D2*
X84134D1*
X-63041Y-309506D2*
X84134D1*
X-63772Y-313316D2*
X-21637D1*
X-3496D2*
X84134D1*
X-64022Y-317126D2*
X-23852D1*
X4124D2*
X84134D1*
X-63709Y-320936D2*
X-24287D1*
X11744D2*
X84134D1*
X-62852Y-324746D2*
X-19389D1*
X19364D2*
X84134D1*
X-61769Y-328556D2*
X-12194D1*
X-3496D2*
X4124D1*
X26984D2*
X84134D1*
X-60613Y-332366D2*
X9985D1*
X34604D2*
X84134D1*
X-59202Y-336176D2*
X16507D1*
X42224D2*
X84134D1*
X-57430Y-339986D2*
X23545D1*
X49844D2*
X84134D1*
X-55153Y-343796D2*
X30794D1*
X57464D2*
X84134D1*
X-52250Y-347606D2*
X28272D1*
X65084D2*
X84134D1*
X-48861Y-351416D2*
X25447D1*
X72704D2*
X84134D1*
X-44959Y-355226D2*
X21726D1*
X80324D2*
X84134D1*
X-40052Y-359036D2*
X16756D1*
X-33668Y-362846D2*
X10685D1*
X-26356Y-366656D2*
X4124D1*
X7934Y-381896D2*
X34604D1*
X7934Y-385706D2*
X34604D1*
X7934Y-389516D2*
X34604D1*
X7934Y-393326D2*
X34604D1*
X7934Y-397136D2*
X34604D1*
X7934Y-400946D2*
X34604D1*
X7934Y-404756D2*
X34604D1*
X7934Y-408566D2*
X34604D1*
X7934Y-412376D2*
X34604D1*
X7934Y-416186D2*
X34604D1*
X7934Y-419996D2*
X34604D1*
X7934Y-423806D2*
X34604D1*
X7934Y-427616D2*
X34604D1*
X26984Y-454286D2*
X49844D1*
X-60646Y-458096D2*
X-53026D1*
X19657D2*
X58474D1*
X-60646Y-461906D2*
X-43443D1*
X13613D2*
X65592D1*
X-60646Y-465716D2*
X-33657D1*
X8261D2*
X71097D1*
X-60646Y-469526D2*
X-22181D1*
X2192D2*
X75271D1*
X-60646Y-473336D2*
X-7962D1*
X-5730D2*
X78402D1*
X-60646Y-477146D2*
X80879D1*
X-60646Y-480956D2*
X83017D1*
X-60646Y-484766D2*
X84881D1*
X-60646Y-488576D2*
X86324D1*
X-60646Y-492386D2*
X87193D1*
X-60646Y-496196D2*
X87628D1*
X-60646Y-500006D2*
X19509D1*
X42064D2*
X87820D1*
X-60646Y-503816D2*
X16202D1*
X45237D2*
X87898D1*
X-60646Y-507626D2*
X13454D1*
X47499D2*
X87928D1*
X-60646Y-511436D2*
X11255D1*
X48785D2*
X87938D1*
X-60646Y-515246D2*
X9646D1*
X49392D2*
X87927D1*
X-60646Y-519056D2*
X-22546D1*
X-7306D2*
X8645D1*
X49516D2*
X87783D1*
X-60646Y-522866D2*
X-22546D1*
X4124D2*
X7934D1*
X49034D2*
X87195D1*
X-60646Y-526676D2*
X-22546D1*
X47772D2*
X85893D1*
X-60646Y-530486D2*
X-22546D1*
X46034D2*
X84134D1*
X-60646Y-572396D2*
X-49216D1*
X-60646Y-576206D2*
X-35438D1*
X-60646Y-580016D2*
X-21955D1*
X-60646Y-583826D2*
X-8851D1*
X-60646Y-587636D2*
X3993D1*
X-60646Y-591446D2*
X16923D1*
X-60646Y-595256D2*
X30029D1*
X-60646Y-599066D2*
X43206D1*
X-60646Y-602876D2*
X56036D1*
X-60646Y-606686D2*
X67312D1*
X-60646Y-610496D2*
X76769D1*
X-60646Y-614306D2*
X81160D1*
X-60646Y-618116D2*
X82746D1*
X-60646Y-621926D2*
X83565D1*
X-60646Y-625736D2*
X-22546D1*
X-7306D2*
X83918D1*
X-60646Y-629546D2*
X-22546D1*
X4139D2*
X84057D1*
X-60646Y-633356D2*
X-22546D1*
X15703D2*
X84107D1*
X-60646Y-637166D2*
X-22546D1*
X27618D2*
X84125D1*
X-60646Y-640976D2*
X-22546D1*
X39962D2*
X84131D1*
X-60646Y-644786D2*
X-22546D1*
X52378D2*
X84133D1*
X-60646Y-648596D2*
X-22546D1*
X64530D2*
X84134D1*
X-60646Y-652406D2*
X-22546D1*
X76514D2*
X84134D1*
X-60646Y-656216D2*
X-22546D1*
X-60646Y-660026D2*
X-22546D1*
X-60646Y-663836D2*
X-22546D1*
X-60646Y-667646D2*
X-22546D1*
X-60646Y-694316D2*
X-22546D1*
X-3496D2*
X26984D1*
X46034D2*
X84134D1*
X-60646Y-698126D2*
X-22546D1*
X-3496D2*
X26984D1*
X46034D2*
X84134D1*
X-60646Y-701936D2*
X-22546D1*
X-3496D2*
X26984D1*
X46034D2*
X84134D1*
X-60646Y-705746D2*
X-22546D1*
X-3496D2*
X26984D1*
X46034D2*
X84134D1*
X-60646Y-709556D2*
X-22531D1*
X-3496D2*
X26984D1*
X46034D2*
X84134D1*
X-60646Y-713366D2*
X-22397D1*
X-3496D2*
X26999D1*
X46034D2*
X84134D1*
X-60646Y-717176D2*
X-21867D1*
X-3541D2*
X27133D1*
X46019D2*
X84134D1*
X-60646Y-720986D2*
X-20901D1*
X-3976D2*
X27648D1*
X45841D2*
X84134D1*
X-60646Y-724796D2*
X-17861D1*
X-5014D2*
X28852D1*
X45394D2*
X84134D1*
X-60631Y-728606D2*
X-13160D1*
X-9468D2*
X31016D1*
X43039D2*
X84134D1*
X-60497Y-732416D2*
X34343D1*
X37373D2*
X84134D1*
X-60012Y-736226D2*
X84119D1*
X-59084Y-740036D2*
X83985D1*
X-57973Y-743846D2*
X83485D1*
X-56809Y-747656D2*
X82423D1*
X-55394Y-751466D2*
X80812D1*
X-53606Y-755276D2*
X78601D1*
X-51179Y-759086D2*
X75694D1*
X-47643Y-762896D2*
X72054D1*
X-42751Y-766706D2*
X67268D1*
X-36710Y-770516D2*
X60937D1*
X-30166Y-774326D2*
X53654D1*
X187968Y1150311D2*
D13*
X214635D1*
X261301D2*
X284635D1*
X307968D2*
X337968D1*
X357968D2*
X381301D1*
X187968Y1146977D2*
X214635D1*
X255303D2*
X289507D1*
X310773D2*
X339234D1*
X356815D2*
X381174D1*
X187968Y1143644D2*
X214635D1*
X250137D2*
X293784D1*
X313163D2*
X340667D1*
X355680D2*
X380734D1*
X187968Y1140311D2*
X214635D1*
X246125D2*
X297472D1*
X315195D2*
X342225D1*
X354367D2*
X379818D1*
X187968Y1136977D2*
X214635D1*
X243179D2*
X300478D1*
X317029D2*
X343931D1*
X352628D2*
X378525D1*
X187968Y1133644D2*
X214635D1*
X241021D2*
X302662D1*
X318760D2*
X345855D1*
X348870D2*
X377015D1*
X187968Y1130311D2*
X214635D1*
X239529D2*
X304245D1*
X320455D2*
X375310D1*
X187968Y1126977D2*
X214635D1*
X238678D2*
X305600D1*
X322129D2*
X373351D1*
X187968Y1123644D2*
X214635D1*
X238263D2*
X264635D1*
X277968D2*
X306680D1*
X323801D2*
X371213D1*
X187968Y1120311D2*
X214635D1*
X238083D2*
X264635D1*
X281301D2*
X307239D1*
X325466D2*
X369175D1*
X187968Y1116977D2*
X214635D1*
X238010D2*
X264635D1*
X277484D2*
X307159D1*
X327136D2*
X367303D1*
X187968Y1113644D2*
X214635D1*
X237983D2*
X264635D1*
X274116D2*
X306502D1*
X328810D2*
X365560D1*
X187968Y1110311D2*
X214635D1*
X237973D2*
X264635D1*
X272687D2*
X305580D1*
X330566D2*
X364089D1*
X187968Y1106977D2*
X214635D1*
X237970D2*
X264635D1*
X271899D2*
X304467D1*
X332511D2*
X362940D1*
X187968Y1103644D2*
X214635D1*
X237969D2*
X264635D1*
X271538D2*
X302800D1*
X334635D2*
X363355D1*
X187968Y1100311D2*
X214635D1*
X237968D2*
X264635D1*
X271389D2*
X300327D1*
X332568D2*
X364332D1*
X187968Y1096977D2*
X214635D1*
X237968D2*
X264635D1*
X271333D2*
X296966D1*
X330667D2*
X365677D1*
X187968Y1093644D2*
X214635D1*
X237968D2*
X264635D1*
X271312D2*
X292714D1*
X328882D2*
X367214D1*
X187968Y1090311D2*
X214635D1*
X237968D2*
X264635D1*
X271301D2*
X287968D1*
X327154D2*
X368828D1*
X187968Y1086977D2*
X214635D1*
X237968D2*
X264635D1*
X325361D2*
X370479D1*
X187968Y1083644D2*
X214635D1*
X237968D2*
X264635D1*
X323369D2*
X372137D1*
X187968Y1080311D2*
X214635D1*
X237968D2*
X264635D1*
X321219D2*
X373804D1*
X187968Y1076977D2*
X214635D1*
X237968D2*
X264635D1*
X319177D2*
X375467D1*
X187968Y1073644D2*
X214635D1*
X237968D2*
X264635D1*
X317303D2*
X341174D1*
X351829D2*
X377123D1*
X187968Y1070311D2*
X214635D1*
X237968D2*
X264635D1*
X315534D2*
X340734D1*
X352773D2*
X378670D1*
X187968Y1066977D2*
X214635D1*
X237968D2*
X264635D1*
X313818D2*
X339808D1*
X354064D2*
X379901D1*
X187968Y1063644D2*
X214635D1*
X237968D2*
X264635D1*
X312046D2*
X338429D1*
X355476D2*
X380653D1*
X187968Y1060311D2*
X214635D1*
X237968D2*
X264635D1*
X310095D2*
X336658D1*
X356796D2*
X381049D1*
X187968Y1056977D2*
X214635D1*
X237968D2*
X264635D1*
X307968D2*
X334635D1*
X357968D2*
X381301D1*
X201540Y-105345D2*
X204873D1*
X193296Y-108678D2*
X204873D1*
X138207Y-112012D2*
X144873D1*
X185291D2*
X204873D1*
X138207Y-115345D2*
X153378D1*
X176593D2*
X204873D1*
X138207Y-118678D2*
X163554D1*
X166285D2*
X204873D1*
X138207Y-122012D2*
X204834D1*
X138233Y-125345D2*
X204444D1*
X138493Y-128678D2*
X203506D1*
X139118Y-132012D2*
X199027D1*
X142241Y-135345D2*
X192642D1*
X147255Y-138678D2*
X184532D1*
X154915Y-142012D2*
X174031D1*
X165659Y-145345D2*
X160391D1*
X111540Y-152012D2*
X204873D1*
X111540Y-155345D2*
X204873D1*
X111540Y-158678D2*
X204873D1*
X111540Y-162012D2*
X204873D1*
X111540Y-165345D2*
X204873D1*
X111540Y-168678D2*
X204873D1*
X111540Y-172012D2*
X204873D1*
X111540Y-175345D2*
X204873D1*
X138207Y-185345D2*
X161540D1*
X138220Y-188678D2*
X163656D1*
X138337Y-192012D2*
X171989D1*
X138775Y-195345D2*
X186410D1*
X139690Y-198678D2*
X204873D1*
X140983Y-202012D2*
X204873D1*
X142506Y-205345D2*
X204873D1*
X144368Y-208678D2*
X204873D1*
X147125Y-212012D2*
X204873D1*
X151554Y-215345D2*
X204873D1*
X157759Y-218678D2*
X204873D1*
X164873Y-222012D2*
X204873D1*
X158207Y-235345D2*
X174873D1*
X154249Y-238678D2*
X174873D1*
X150763Y-242012D2*
X174873D1*
X147791Y-245345D2*
X174873D1*
X145257Y-248678D2*
X174873D1*
X198207D2*
X201540D1*
X143322Y-252012D2*
X174873D1*
X194886D2*
X202680D1*
X141854Y-255345D2*
X174873D1*
X191683D2*
X203672D1*
X140547Y-258678D2*
X174873D1*
X188905D2*
X204304D1*
X139471Y-262012D2*
X158989D1*
X164925D2*
X174821D1*
X186912D2*
X204630D1*
X138815Y-265345D2*
X157012D1*
X165082D2*
X174665D1*
X185643D2*
X204777D1*
X138590Y-268678D2*
X156957D1*
X166644D2*
X173103D1*
X184388D2*
X204838D1*
X138861Y-272012D2*
X158439D1*
X171839D2*
X167907D1*
X182664D2*
X204848D1*
X139610Y-275345D2*
X163026D1*
X177490D2*
X204739D1*
X140558Y-278678D2*
X169930D1*
X170154D2*
X204304D1*
X141569Y-282012D2*
X203376D1*
X142803Y-285345D2*
X201967D1*
X144366Y-288678D2*
X200032D1*
X146489Y-292012D2*
X197502D1*
X149583Y-295345D2*
X194445D1*
X153863Y-298678D2*
X190773D1*
X159148Y-302012D2*
X186373D1*
X164873Y-305345D2*
X181540D1*
X178207Y-312012D2*
X184873D1*
X171522Y-315345D2*
X190758D1*
X124873Y-318678D2*
X144873D1*
X165232D2*
X195600D1*
X121680Y-322012D2*
X154665D1*
X158600D2*
X199121D1*
X118891Y-325345D2*
X201586D1*
X116795Y-328678D2*
X203219D1*
X115245Y-332012D2*
X204128D1*
X113902Y-335345D2*
X204566D1*
X112813Y-338678D2*
X175528D1*
X181540D2*
X204755D1*
X112138Y-342012D2*
X173566D1*
X181540D2*
X204830D1*
X111794Y-345345D2*
X138861D1*
X148207D2*
X172374D1*
X181540D2*
X204859D1*
X111640Y-348678D2*
X136900D1*
X148207D2*
X171540D1*
X181540D2*
X204873D1*
X111577Y-352012D2*
X135707D1*
X111553Y-355345D2*
X204873D1*
X111545Y-358678D2*
X204873D1*
X111542Y-362012D2*
X204873D1*
X111540Y-365345D2*
X204873D1*
X111540Y-368678D2*
X204873D1*
X111540Y-372012D2*
X204873D1*
X111540Y-375345D2*
X204873D1*
X111540Y-378678D2*
X204873D1*
X111540Y-382012D2*
X204873D1*
X138207Y-442012D2*
X214873D1*
X138207Y-445345D2*
X219745D1*
X138207Y-448678D2*
X224023D1*
X138207Y-452012D2*
X227711D1*
X138207Y-455345D2*
X230704D1*
X138207Y-458678D2*
X232771D1*
X138207Y-462012D2*
X233929D1*
X138207Y-465345D2*
X234485D1*
X181540Y-468678D2*
X200885D1*
X211400D2*
X234724D1*
X181540Y-472012D2*
X202834D1*
X214176D2*
X234819D1*
X181540Y-475345D2*
X203951D1*
X216155D2*
X234854D1*
X138207Y-478678D2*
X204479D1*
X217280D2*
X234867D1*
X138207Y-482012D2*
X204596D1*
X217824D2*
X234871D1*
X138207Y-485345D2*
X204251D1*
X218060D2*
X234873D1*
X138207Y-488678D2*
X203345D1*
X218156D2*
X234873D1*
X138207Y-492012D2*
X201821D1*
X218207D2*
X234873D1*
X138207Y-495345D2*
X199385D1*
X138207Y-498678D2*
X195789D1*
X138207Y-502012D2*
X191540D1*
X161540Y-515345D2*
X184873D1*
X156668Y-518678D2*
X189732D1*
X152390Y-522012D2*
X193906D1*
X148703Y-525345D2*
X197286D1*
X145697Y-528678D2*
X199905D1*
X143512Y-532012D2*
X201916D1*
X141929Y-535345D2*
X203348D1*
X140575Y-538678D2*
X204176D1*
X139481Y-542012D2*
X164371D1*
X177552D2*
X204582D1*
X138805Y-545345D2*
X163671D1*
X179488D2*
X204760D1*
X138460Y-548678D2*
X163021D1*
X180790D2*
X204832D1*
X138300Y-552012D2*
X163747D1*
X180828D2*
X204859D1*
X138207Y-555345D2*
X164873D1*
X179446D2*
X204855D1*
X177341Y-558678D2*
X204741D1*
X111540Y-562012D2*
X204305D1*
X111540Y-565345D2*
X203377D1*
X111540Y-568678D2*
X201954D1*
X111540Y-572012D2*
X199889D1*
X111540Y-575345D2*
X196818D1*
X111540Y-578678D2*
X192546D1*
X111540Y-582012D2*
X187264D1*
X111540Y-585345D2*
X181540D1*
X-563348Y-38605D2*
D12*
X-510008D1*
X-422378D2*
X-369038D1*
X-563348Y-42415D2*
X-510008D1*
X-487148D2*
X-445238D1*
X-422378D2*
X-369038D1*
X-563348Y-46225D2*
X-510008D1*
X-487148D2*
X-445238D1*
X-422378D2*
X-369038D1*
X-563348Y-50035D2*
X-510008D1*
X-487148D2*
X-445238D1*
X-422378D2*
X-369038D1*
X-563348Y-53845D2*
X-510008D1*
X-487148D2*
X-445238D1*
X-422378D2*
X-369038D1*
X-563348Y-57655D2*
X-510008D1*
X-487148D2*
X-445238D1*
X-422378D2*
X-369038D1*
X-563348Y-61465D2*
X-510008D1*
X-487148D2*
X-445238D1*
X-422378D2*
X-369038D1*
X-563348Y-65275D2*
X-509993D1*
X-487148D2*
X-445238D1*
X-422378D2*
X-369038D1*
X-563348Y-69085D2*
X-509859D1*
X-487148D2*
X-445223D1*
X-422378D2*
X-369038D1*
X-563348Y-72895D2*
X-509359D1*
X-487163D2*
X-445089D1*
X-422378D2*
X-369038D1*
X-563348Y-76705D2*
X-508268D1*
X-487341D2*
X-444589D1*
X-422393D2*
X-369038D1*
X-563348Y-80515D2*
X-506367D1*
X-487788D2*
X-443498D1*
X-422571D2*
X-369038D1*
X-563348Y-84325D2*
X-503707D1*
X-490143D2*
X-441597D1*
X-423018D2*
X-369038D1*
X-563333Y-88135D2*
X-497753D1*
X-495809D2*
X-438937D1*
X-425373D2*
X-369038D1*
X-563199Y-91945D2*
X-432983D1*
X-431039D2*
X-369038D1*
X-562714Y-95755D2*
X-369053D1*
X-561801Y-99565D2*
X-369187D1*
X-560809Y-103375D2*
X-369672D1*
X-560011Y-107185D2*
X-370600D1*
X-559157Y-110995D2*
X-371711D1*
X-557949Y-114805D2*
X-372875D1*
X-556405Y-118615D2*
X-374290D1*
X-554653Y-122425D2*
X-376063D1*
X-552665Y-126235D2*
X-378341D1*
X-550140Y-130045D2*
X-381259D1*
X-546545Y-133855D2*
X-384797D1*
X-541478Y-137665D2*
X-389332D1*
X-534751Y-141475D2*
X-395773D1*
X-526560Y-145285D2*
X-404593D1*
X-517628Y-149095D2*
X-414758D1*
X-563348Y-168145D2*
X-510008D1*
X-563348Y-171955D2*
X-510008D1*
X-563348Y-175765D2*
X-510008D1*
X-563348Y-179575D2*
X-510008D1*
X-563348Y-183385D2*
X-510008D1*
X-563348Y-187195D2*
X-510008D1*
X-563348Y-191005D2*
X-510008D1*
X-563348Y-194815D2*
X-510008D1*
X-563348Y-198625D2*
X-510008D1*
X-563348Y-202435D2*
X-510008D1*
X-563348Y-206245D2*
X-510008D1*
X-563348Y-210055D2*
X-510008D1*
X-563348Y-213865D2*
X-369038D1*
X-563348Y-217675D2*
X-369038D1*
X-563348Y-221485D2*
X-369038D1*
X-563348Y-225295D2*
X-369038D1*
X-563348Y-229105D2*
X-369038D1*
X-563348Y-232915D2*
X-369038D1*
X-563348Y-236725D2*
X-369038D1*
X-563348Y-240535D2*
X-369038D1*
X-563348Y-244345D2*
X-369038D1*
X-563348Y-248155D2*
X-369038D1*
X-563348Y-251965D2*
X-369038D1*
X-563348Y-255775D2*
X-369038D1*
X-563348Y-259585D2*
X-369038D1*
X-563348Y-263395D2*
X-369038D1*
X-563348Y-267205D2*
X-369038D1*
X-563348Y-271015D2*
X-369038D1*
X-563348Y-274825D2*
X-510008D1*
X-563348Y-278635D2*
X-510008D1*
X-563348Y-282445D2*
X-510008D1*
X-563348Y-286255D2*
X-510008D1*
X-563348Y-290065D2*
X-510008D1*
X-563348Y-293875D2*
X-510008D1*
X-563348Y-297685D2*
X-510008D1*
X-563348Y-301495D2*
X-510008D1*
X-563348Y-305305D2*
X-510008D1*
X-563348Y-309115D2*
X-510008D1*
X-563348Y-312925D2*
X-510008D1*
X-563348Y-316735D2*
X-551918D1*
X-563348Y-320545D2*
X-545746D1*
X-563348Y-324355D2*
X-539748D1*
X-563348Y-328165D2*
X-533778D1*
X-563348Y-331975D2*
X-527642D1*
X-563348Y-335785D2*
X-521356D1*
X-563348Y-339595D2*
X-515204D1*
X-563348Y-343405D2*
X-509250D1*
X-563348Y-347215D2*
X-503417D1*
X-563348Y-351025D2*
X-497642D1*
X-563318Y-354835D2*
X-491772D1*
X-563035Y-358645D2*
X-485563D1*
X-562366Y-362455D2*
X-478861D1*
X-559424Y-366265D2*
X-369038D1*
X-555335Y-370075D2*
X-369038D1*
X-550414Y-373885D2*
X-369038D1*
X-545037Y-377695D2*
X-369038D1*
X-539448Y-381505D2*
X-369038D1*
X-533681Y-385315D2*
X-369038D1*
X-527666Y-389125D2*
X-369038D1*
X-521438Y-392935D2*
X-369038D1*
X-526710Y-396745D2*
X-369038D1*
X-532277Y-400555D2*
X-369038D1*
X-538223Y-404365D2*
X-369038D1*
X-544414Y-408175D2*
X-369038D1*
X-550371Y-411985D2*
X-369038D1*
X-555546Y-415795D2*
X-369038D1*
X-559905Y-419605D2*
X-369038D1*
X-561660Y-423415D2*
X-480132D1*
X-562623Y-427225D2*
X-485035D1*
X-563062Y-431035D2*
X-490451D1*
X-563242Y-434845D2*
X-496341D1*
X-563310Y-438655D2*
X-502529D1*
X-563335Y-442465D2*
X-508642D1*
X-563344Y-446275D2*
X-514583D1*
X-563347Y-450085D2*
X-520411D1*
X-563348Y-453895D2*
X-526170D1*
X-563348Y-457705D2*
X-531907D1*
X-563348Y-461515D2*
X-537637D1*
X-563348Y-465325D2*
X-543457D1*
X-563348Y-469135D2*
X-549490D1*
X-563348Y-472945D2*
X-555728D1*
X-445238Y-476755D2*
X-403328D1*
X-450807Y-480565D2*
X-396457D1*
X-529058Y-484375D2*
X-502388D1*
X-455696D2*
X-390433D1*
X-535914Y-488185D2*
X-495487D1*
X-459941D2*
X-385481D1*
X-541819Y-491995D2*
X-489158D1*
X-463653D2*
X-381553D1*
X-546404Y-495805D2*
X-482891D1*
X-467207D2*
X-378522D1*
X-549787Y-499615D2*
X-475828D1*
X-471224D2*
X-376083D1*
X-552387Y-503425D2*
X-373958D1*
X-554578Y-507235D2*
X-372099D1*
X-556463Y-511045D2*
X-370657D1*
X-557914Y-514855D2*
X-369789D1*
X-558800Y-518665D2*
X-369354D1*
X-559370Y-522475D2*
X-369162D1*
X-560049Y-526285D2*
X-433204D1*
X-419317D2*
X-369084D1*
X-561039Y-530095D2*
X-435921D1*
X-417089D2*
X-369054D1*
X-562046Y-533905D2*
X-438110D1*
X-415813D2*
X-369044D1*
X-562721Y-537715D2*
X-510597D1*
X-490366D2*
X-439706D1*
X-415194D2*
X-369040D1*
X-563078Y-541525D2*
X-511541D1*
X-489390D2*
X-440641D1*
X-414926D2*
X-369039D1*
X-563241Y-545335D2*
X-512528D1*
X-488246D2*
X-441124D1*
X-414816D2*
X-369038D1*
X-563308Y-549145D2*
X-513195D1*
X-487148D2*
X-441428D1*
X-414758D2*
X-369038D1*
X-563334Y-552955D2*
X-513550D1*
X-563343Y-556765D2*
X-513718D1*
X-563346Y-560575D2*
X-369038D1*
X-563347Y-564385D2*
X-369038D1*
X-563348Y-568195D2*
X-369038D1*
X-563348Y-572005D2*
X-369038D1*
X-563348Y-575815D2*
X-369038D1*
X-563348Y-579625D2*
X-369038D1*
X-563348Y-583435D2*
X-369038D1*
X-563348Y-587245D2*
X-369038D1*
X-563348Y-591055D2*
X-369038D1*
X-563348Y-594865D2*
X-369038D1*
X-563348Y-598675D2*
X-369038D1*
X-563348Y-602485D2*
X-369038D1*
X-563348Y-606295D2*
X-369038D1*
X-563348Y-610105D2*
X-369038D1*
X-563348Y-613915D2*
X-369038D1*
X-563348Y-617725D2*
X-369038D1*
X-563348Y-655825D2*
X-510008D1*
X-422378D2*
X-369038D1*
X-563348Y-659635D2*
X-510008D1*
X-487148D2*
X-445238D1*
X-422378D2*
X-369038D1*
X-563348Y-663445D2*
X-510008D1*
X-487148D2*
X-445238D1*
X-422378D2*
X-369038D1*
X-563348Y-667255D2*
X-510008D1*
X-487148D2*
X-445238D1*
X-422378D2*
X-369038D1*
X-563348Y-671065D2*
X-510008D1*
X-487148D2*
X-445238D1*
X-422378D2*
X-369038D1*
X-563348Y-674875D2*
X-510008D1*
X-487148D2*
X-445238D1*
X-422378D2*
X-369038D1*
X-563348Y-678685D2*
X-510008D1*
X-487148D2*
X-445238D1*
X-422378D2*
X-369038D1*
X-563348Y-682495D2*
X-509993D1*
X-487148D2*
X-445238D1*
X-422378D2*
X-369038D1*
X-563348Y-686305D2*
X-509859D1*
X-487148D2*
X-445223D1*
X-422378D2*
X-369038D1*
X-563348Y-690115D2*
X-509359D1*
X-487163D2*
X-445089D1*
X-422378D2*
X-369038D1*
X-563348Y-693925D2*
X-508268D1*
X-487341D2*
X-444589D1*
X-422393D2*
X-369038D1*
X-563348Y-697735D2*
X-506367D1*
X-487788D2*
X-443498D1*
X-422571D2*
X-369038D1*
X-563348Y-701545D2*
X-503707D1*
X-490143D2*
X-441597D1*
X-423018D2*
X-369038D1*
X-563333Y-705355D2*
X-497753D1*
X-495809D2*
X-438937D1*
X-425373D2*
X-369038D1*
X-563199Y-709165D2*
X-432983D1*
X-431039D2*
X-369038D1*
X-562714Y-712975D2*
X-369053D1*
X-561801Y-716785D2*
X-369187D1*
X-560809Y-720595D2*
X-369672D1*
X-560011Y-724405D2*
X-370600D1*
X-559157Y-728215D2*
X-371711D1*
X-557949Y-732025D2*
X-372875D1*
X-556405Y-735835D2*
X-374290D1*
X-554653Y-739645D2*
X-376063D1*
X-552665Y-743455D2*
X-378341D1*
X-550140Y-747265D2*
X-381259D1*
X-546545Y-751075D2*
X-384797D1*
X-541478Y-754885D2*
X-389332D1*
X-534751Y-758695D2*
X-395773D1*
X-526560Y-762505D2*
X-404593D1*
X-517628Y-766315D2*
X-414758D1*
X-783723Y-1953640D2*
D14*
X-788522Y-1956140D1*
X-792370Y-1958640D1*
X-795268Y-1961140D1*
X-797394Y-1963640D1*
X-798967Y-1966140D1*
X-800075Y-1968640D1*
X-800793Y-1971140D1*
X-801420Y-1973640D1*
X-802153Y-1976140D1*
X-802848Y-1978640D1*
X-803304Y-1981140D1*
X-803543Y-1983640D1*
X-803652Y-1986140D1*
X-803697Y-1988640D1*
X-803714Y-1991140D1*
X-803720Y-1993640D1*
X-803712Y-1996140D1*
X-803625Y-1998640D1*
X-803307Y-2001140D1*
X-802708Y-2003640D1*
X-802058Y-2006140D1*
X-801534Y-2008640D1*
X-800973Y-2011140D1*
X-800171Y-2013640D1*
X-799070Y-2016140D1*
X-797582Y-2018640D1*
X-795498Y-2021140D1*
X-792526Y-2023640D1*
X-788453Y-2026140D1*
X-783723Y-2028640D1*
X-768723Y-1953640D2*
X-764310Y-1956140D1*
X-760668Y-1958640D1*
X-757940Y-1961140D1*
X-755773Y-1963640D1*
X-753949Y-1966140D1*
X-752617Y-1968640D1*
X-751800Y-1971140D1*
X-751223Y-1973640D1*
X-728723Y-1953640D2*
X-732272Y-1956140D1*
X-735072Y-1958640D1*
X-737236Y-1961140D1*
X-738007Y-1963640D1*
X-738442Y-1966140D1*
X-738723Y-1968640D1*
X-718723Y-1953640D2*
Y-1956140D1*
Y-1958640D1*
Y-1961140D1*
Y-1963640D1*
Y-1966140D1*
Y-1968640D1*
Y-1971140D1*
Y-1973640D1*
Y-1976140D1*
Y-1978640D1*
Y-1981140D1*
Y-1983640D1*
Y-1986140D1*
Y-1988640D1*
Y-1991140D1*
Y-1993640D1*
Y-1996140D1*
Y-1998640D1*
Y-2001140D1*
Y-2003640D1*
Y-2006140D1*
Y-2008640D1*
Y-2011140D1*
Y-2013640D1*
Y-2016140D1*
Y-2018640D1*
Y-2021140D1*
Y-2023640D1*
Y-2026140D1*
Y-2028640D1*
X-776223Y-1961140D2*
X-780722Y-1963640D1*
X-784596Y-1966140D1*
X-787605Y-1968640D1*
X-789815Y-1971140D1*
X-791433Y-1973640D1*
X-792552Y-1976140D1*
X-793191Y-1978640D1*
X-793502Y-1981140D1*
X-793637Y-1983640D1*
X-793692Y-1986140D1*
X-793712Y-1988640D1*
X-793720Y-1991140D1*
X-793722Y-1993640D1*
X-793723Y-1996140D1*
X-793713Y-1998640D1*
X-793626Y-2001140D1*
X-793297Y-2003640D1*
X-792601Y-2006140D1*
X-791534Y-2008640D1*
X-789956Y-2011140D1*
X-787867Y-2013640D1*
X-783129Y-2016140D1*
X-776510Y-2018640D1*
X-768723Y-2021140D1*
X-776223Y-1961140D2*
X-771724Y-1963640D1*
X-767857Y-1966140D1*
X-764904Y-1968640D1*
X-762833Y-1971140D1*
X-761223Y-1973640D1*
X-726223Y-1963640D2*
X-731223Y-1966140D1*
X-736223Y-1968640D1*
X-726223Y-1963640D2*
Y-1966140D1*
Y-1968640D1*
Y-1971140D1*
Y-1973640D1*
Y-1976140D1*
Y-1978640D1*
Y-1981140D1*
Y-1983640D1*
Y-1986140D1*
Y-1988640D1*
Y-1991140D1*
Y-1993640D1*
Y-1996140D1*
Y-1998640D1*
Y-2001140D1*
Y-2003640D1*
Y-2006140D1*
Y-2008640D1*
Y-2011140D1*
Y-2013640D1*
Y-2016140D1*
Y-2018640D1*
Y-2021140D1*
Y-2023640D1*
Y-2026140D1*
Y-2028640D1*
X-761223Y-2008640D2*
X-762704Y-2011140D1*
X-764674Y-2013640D1*
X-769362Y-2016140D1*
X-775954Y-2018640D1*
X-783723Y-2021140D1*
X-751223Y-2008640D2*
X-751705Y-2011140D1*
X-752655Y-2013640D1*
X-754009Y-2016140D1*
X-755602Y-2018640D1*
X-757701Y-2021140D1*
X-760699Y-2023640D1*
X-764526Y-2026140D1*
X-768723Y-2028640D1*
X1155803Y-234500D2*
Y-237000D1*
Y-239500D1*
Y-242000D1*
Y-244500D1*
Y-247000D1*
Y-249500D1*
Y-252000D1*
Y-254500D1*
Y-257000D1*
Y-259500D1*
Y-262000D1*
Y-264500D1*
Y-267000D1*
Y-269500D1*
Y-272000D1*
Y-274500D1*
Y-277000D1*
Y-279500D1*
Y-282000D1*
Y-284500D1*
Y-287000D1*
Y-289500D1*
Y-292000D1*
Y-294500D1*
Y-297000D1*
Y-299500D1*
Y-302000D1*
Y-304500D1*
Y-307000D1*
Y-309500D1*
X1190803Y-234500D2*
X1195217Y-237000D1*
X1198849Y-239500D1*
X1201499Y-242000D1*
X1203435Y-244500D1*
X1204979Y-247000D1*
X1206259Y-249500D1*
X1207229Y-252000D1*
X1207806Y-254500D1*
X1208095Y-257000D1*
X1208222Y-259500D1*
X1208273Y-262000D1*
X1208293Y-264500D1*
X1208300Y-267000D1*
X1208302Y-269500D1*
X1208303Y-272000D1*
Y-274500D1*
Y-277000D1*
Y-279500D1*
Y-282000D1*
X1208294Y-284500D1*
X1208206Y-287000D1*
X1207877Y-289500D1*
X1207191Y-292000D1*
X1206221Y-294500D1*
X1205079Y-297000D1*
X1203692Y-299500D1*
X1201720Y-302000D1*
X1198784Y-304500D1*
X1194985Y-307000D1*
X1190803Y-309500D1*
X1233303Y-234500D2*
X1229754Y-237000D1*
X1226954Y-239500D1*
X1224790Y-242000D1*
X1224020Y-244500D1*
X1223584Y-247000D1*
X1223303Y-249500D1*
X1243303Y-234500D2*
Y-237000D1*
Y-239500D1*
Y-242000D1*
Y-244500D1*
Y-247000D1*
Y-249500D1*
Y-252000D1*
Y-254500D1*
Y-257000D1*
Y-259500D1*
Y-262000D1*
Y-264500D1*
Y-267000D1*
Y-269500D1*
Y-272000D1*
Y-274500D1*
Y-277000D1*
Y-279500D1*
Y-282000D1*
Y-284500D1*
Y-287000D1*
Y-289500D1*
Y-292000D1*
Y-294500D1*
Y-297000D1*
Y-299500D1*
Y-302000D1*
Y-304500D1*
Y-307000D1*
Y-309500D1*
X1165803Y-242000D2*
Y-244500D1*
Y-247000D1*
Y-249500D1*
Y-252000D1*
Y-254500D1*
Y-257000D1*
Y-259500D1*
Y-262000D1*
Y-264500D1*
Y-267000D1*
Y-269500D1*
Y-272000D1*
Y-274500D1*
Y-277000D1*
Y-279500D1*
Y-282000D1*
Y-284500D1*
Y-287000D1*
Y-289500D1*
Y-292000D1*
Y-294500D1*
Y-297000D1*
Y-299500D1*
X1185803Y-302000D1*
X1183303Y-242000D2*
X1187802Y-244500D1*
X1191667Y-247000D1*
X1194588Y-249500D1*
X1196807Y-252000D1*
X1197580Y-254500D1*
X1197997Y-257000D1*
X1198184Y-259500D1*
X1198259Y-262000D1*
X1198288Y-264500D1*
X1198298Y-267000D1*
X1198302Y-269500D1*
X1198303Y-272000D1*
Y-274500D1*
Y-277000D1*
Y-279500D1*
Y-282000D1*
X1198294Y-284500D1*
X1198196Y-287000D1*
X1197770Y-289500D1*
X1196961Y-292000D1*
X1194625Y-294500D1*
X1187777Y-297000D1*
X1176859Y-299500D1*
X1163303Y-302000D1*
X1235803Y-244500D2*
X1230803Y-247000D1*
X1225803Y-249500D1*
X1235803Y-244500D2*
Y-247000D1*
Y-249500D1*
Y-252000D1*
Y-254500D1*
Y-257000D1*
Y-259500D1*
Y-262000D1*
Y-264500D1*
Y-267000D1*
Y-269500D1*
Y-272000D1*
Y-274500D1*
Y-277000D1*
Y-279500D1*
Y-282000D1*
Y-284500D1*
Y-287000D1*
Y-289500D1*
Y-292000D1*
Y-294500D1*
Y-297000D1*
Y-299500D1*
Y-302000D1*
Y-304500D1*
Y-307000D1*
Y-309500D1*
X-163443Y-2387057D2*
X-168242Y-2389557D1*
X-172090Y-2392057D1*
X-174988Y-2394557D1*
X-177114Y-2397057D1*
X-178687Y-2399557D1*
X-179795Y-2402057D1*
X-180513Y-2404557D1*
X-181140Y-2407057D1*
X-181873Y-2409557D1*
X-182568Y-2412057D1*
X-183024Y-2414557D1*
X-183263Y-2417057D1*
X-183372Y-2419557D1*
X-183417Y-2422057D1*
X-183434Y-2424557D1*
X-183440Y-2427057D1*
X-183432Y-2429557D1*
X-183345Y-2432057D1*
X-183027Y-2434557D1*
X-182428Y-2437057D1*
X-181778Y-2439557D1*
X-181254Y-2442057D1*
X-180693Y-2444557D1*
X-179891Y-2447057D1*
X-178780Y-2449557D1*
X-177215Y-2452057D1*
X-174905Y-2454557D1*
X-171699Y-2457057D1*
X-167737Y-2459557D1*
X-163443Y-2462057D1*
X-148443Y-2387057D2*
X-143645Y-2389557D1*
X-139797Y-2392057D1*
X-136899Y-2394557D1*
X-134773Y-2397057D1*
X-133190Y-2399557D1*
X-132003Y-2402057D1*
X-131055Y-2404557D1*
X-130148Y-2407057D1*
X-129373Y-2409557D1*
X-128883Y-2412057D1*
X-128631Y-2414557D1*
X-128517Y-2417057D1*
X-128471Y-2419557D1*
X-128453Y-2422057D1*
X-128447Y-2424557D1*
X-128444Y-2427057D1*
Y-2429557D1*
X-128453Y-2432057D1*
X-128541Y-2434557D1*
X-128860Y-2437057D1*
X-129458Y-2439557D1*
X-130090Y-2442057D1*
X-130428Y-2444557D1*
X-130476Y-2447057D1*
X-129402Y-2449557D1*
X-127854Y-2452057D1*
X-126279Y-2454557D1*
X-125008Y-2457057D1*
X-125293Y-2459557D1*
X-125943Y-2462057D1*
X-103443Y-2387057D2*
X-106992Y-2389557D1*
X-109792Y-2392057D1*
X-111956Y-2394557D1*
X-112727Y-2397057D1*
X-113162Y-2399557D1*
X-113443Y-2402057D1*
X-93443Y-2387057D2*
Y-2389557D1*
Y-2392057D1*
Y-2394557D1*
Y-2397057D1*
Y-2399557D1*
Y-2402057D1*
Y-2404557D1*
Y-2407057D1*
Y-2409557D1*
Y-2412057D1*
Y-2414557D1*
Y-2417057D1*
Y-2419557D1*
Y-2422057D1*
Y-2424557D1*
Y-2427057D1*
Y-2429557D1*
Y-2432057D1*
Y-2434557D1*
Y-2437057D1*
Y-2439557D1*
Y-2442057D1*
Y-2444557D1*
Y-2447057D1*
Y-2449557D1*
Y-2452057D1*
Y-2454557D1*
Y-2457057D1*
Y-2459557D1*
Y-2462057D1*
X-150943Y-2394557D2*
X-157451Y-2397057D1*
X-162787Y-2399557D1*
X-166633Y-2402057D1*
X-169249Y-2404557D1*
X-171043Y-2407057D1*
X-172232Y-2409557D1*
X-172896Y-2412057D1*
X-173217Y-2414557D1*
X-173356Y-2417057D1*
X-173411Y-2419557D1*
X-173432Y-2422057D1*
X-173439Y-2424557D1*
X-173442Y-2427057D1*
X-173443Y-2429557D1*
X-173433Y-2432057D1*
X-173346Y-2434557D1*
X-173017Y-2437057D1*
X-172321Y-2439557D1*
X-171244Y-2442057D1*
X-169578Y-2444557D1*
X-167284Y-2447057D1*
X-161840Y-2449557D1*
X-154455Y-2452057D1*
X-145943Y-2454557D1*
X-155943Y-2394557D2*
X-151435Y-2397057D1*
X-147482Y-2399557D1*
X-144243Y-2402057D1*
X-141753Y-2404557D1*
X-139814Y-2407057D1*
X-139109Y-2409557D1*
X-138727Y-2412057D1*
X-138554Y-2414557D1*
X-138484Y-2417057D1*
X-138458Y-2419557D1*
X-138448Y-2422057D1*
X-138445Y-2424557D1*
X-138444Y-2427057D1*
X-138443Y-2429557D1*
X-138463Y-2432057D1*
X-138653Y-2434557D1*
X-139107Y-2437057D1*
X-141056Y-2439557D1*
X-143443Y-2442057D1*
X-100943Y-2397057D2*
X-105943Y-2399557D1*
X-110943Y-2402057D1*
X-100943Y-2397057D2*
Y-2399557D1*
Y-2402057D1*
Y-2404557D1*
Y-2407057D1*
Y-2409557D1*
Y-2412057D1*
Y-2414557D1*
Y-2417057D1*
Y-2419557D1*
Y-2422057D1*
Y-2424557D1*
Y-2427057D1*
Y-2429557D1*
Y-2432057D1*
Y-2434557D1*
Y-2437057D1*
Y-2439557D1*
Y-2442057D1*
Y-2444557D1*
Y-2447057D1*
Y-2449557D1*
Y-2452057D1*
Y-2454557D1*
Y-2457057D1*
Y-2459557D1*
Y-2462057D1*
X-150943Y-2437057D2*
X-151915Y-2439557D1*
X-151651Y-2442057D1*
X-150081Y-2444557D1*
X-148106Y-2447057D1*
X-145943Y-2449557D1*
X-153287Y-2452057D1*
X-160943Y-2454557D1*
X-148443Y-2437057D2*
X-143600Y-2439557D1*
X-138443Y-2442057D1*
X-133443Y-2457057D2*
X-140943Y-2459557D1*
X-148443Y-2462057D1*
X-133443Y-2457057D2*
X-130943Y-2459557D1*
X-128443Y-2462057D1*
X-1251983Y-243287D2*
Y-245787D1*
Y-248287D1*
Y-250787D1*
Y-253287D1*
Y-255787D1*
Y-258287D1*
Y-260787D1*
Y-263287D1*
Y-265787D1*
Y-268287D1*
Y-270787D1*
Y-273287D1*
Y-275787D1*
Y-278287D1*
Y-280787D1*
Y-283287D1*
Y-285787D1*
Y-288287D1*
Y-290787D1*
Y-293287D1*
Y-295787D1*
Y-298287D1*
Y-300787D1*
Y-303287D1*
Y-305787D1*
Y-308287D1*
Y-310787D1*
Y-313287D1*
Y-315787D1*
Y-318287D1*
X-1214483Y-243287D2*
X-1210839Y-245787D1*
X-1207719Y-248287D1*
X-1205262Y-250787D1*
X-1203528Y-253287D1*
X-1202300Y-255787D1*
X-1201269Y-258287D1*
X-1200452Y-260787D1*
X-1200031Y-263287D1*
X-1200090Y-265787D1*
X-1200583Y-268287D1*
X-1201275Y-270787D1*
X-1202109Y-273287D1*
X-1203359Y-275787D1*
X-1205197Y-278287D1*
X-1207543Y-280787D1*
X-1209978Y-283287D1*
X-1212117Y-285787D1*
X-1212634Y-288287D1*
X-1211946Y-290787D1*
X-1210794Y-293287D1*
X-1209330Y-295787D1*
X-1207857Y-298287D1*
X-1206473Y-300787D1*
X-1205154Y-303287D1*
X-1203877Y-305787D1*
X-1202614Y-308287D1*
X-1201354Y-310787D1*
X-1200035Y-313287D1*
X-1198576Y-315787D1*
X-1196983Y-318287D1*
X-1174483Y-243287D2*
X-1178032Y-245787D1*
X-1180832Y-248287D1*
X-1182996Y-250787D1*
X-1183767Y-253287D1*
X-1184202Y-255787D1*
X-1184483Y-258287D1*
X-1164483Y-243287D2*
Y-245787D1*
Y-248287D1*
Y-250787D1*
Y-253287D1*
Y-255787D1*
Y-258287D1*
Y-260787D1*
Y-263287D1*
Y-265787D1*
Y-268287D1*
Y-270787D1*
Y-273287D1*
Y-275787D1*
Y-278287D1*
Y-280787D1*
Y-283287D1*
Y-285787D1*
Y-288287D1*
Y-290787D1*
Y-293287D1*
Y-295787D1*
Y-298287D1*
Y-300787D1*
Y-303287D1*
Y-305787D1*
Y-308287D1*
Y-310787D1*
Y-313287D1*
Y-315787D1*
Y-318287D1*
X-1241983Y-250787D2*
Y-253287D1*
Y-255787D1*
Y-258287D1*
Y-260787D1*
Y-263287D1*
Y-265787D1*
Y-268287D1*
Y-270787D1*
Y-273287D1*
Y-275787D1*
X-1219483Y-278287D1*
X-1221983Y-250787D2*
X-1217871Y-253287D1*
X-1214626Y-255787D1*
X-1212352Y-258287D1*
X-1210648Y-260787D1*
X-1210145Y-263287D1*
X-1209956Y-265787D1*
X-1210582Y-268287D1*
X-1212258Y-270787D1*
X-1218843Y-273287D1*
X-1230139Y-275787D1*
X-1244483Y-278287D1*
X-1171983Y-253287D2*
X-1176983Y-255787D1*
X-1181983Y-258287D1*
X-1171983Y-253287D2*
Y-255787D1*
Y-258287D1*
Y-260787D1*
Y-263287D1*
Y-265787D1*
Y-268287D1*
Y-270787D1*
Y-273287D1*
Y-275787D1*
Y-278287D1*
Y-280787D1*
Y-283287D1*
Y-285787D1*
Y-288287D1*
Y-290787D1*
Y-293287D1*
Y-295787D1*
Y-298287D1*
Y-300787D1*
Y-303287D1*
Y-305787D1*
Y-308287D1*
Y-310787D1*
Y-313287D1*
Y-315787D1*
Y-318287D1*
X-1241983Y-285787D2*
Y-288287D1*
Y-290787D1*
Y-293287D1*
Y-295787D1*
Y-298287D1*
Y-300787D1*
Y-303287D1*
Y-305787D1*
Y-308287D1*
Y-310787D1*
Y-313287D1*
Y-315787D1*
Y-318287D1*
X-1226983Y-285787D2*
X-1224879Y-288287D1*
X-1223087Y-290787D1*
X-1221563Y-293287D1*
X-1220187Y-295787D1*
X-1218889Y-298287D1*
X-1217618Y-300787D1*
X-1216363Y-303287D1*
X-1215109Y-305787D1*
X-1213860Y-308287D1*
X-1212615Y-310787D1*
X-1211432Y-313287D1*
X-1210391Y-315787D1*
X-1209483Y-318287D1*
X-1257477Y-807443D2*
Y-809943D1*
Y-812443D1*
Y-814943D1*
Y-817443D1*
Y-819943D1*
Y-822443D1*
Y-824943D1*
Y-827443D1*
Y-829943D1*
Y-832443D1*
Y-834943D1*
Y-837443D1*
Y-839943D1*
Y-842443D1*
Y-844943D1*
Y-847443D1*
Y-849943D1*
Y-852443D1*
Y-854943D1*
Y-857443D1*
Y-859943D1*
Y-862443D1*
Y-864943D1*
Y-867443D1*
Y-869943D1*
Y-872443D1*
Y-874943D1*
Y-877443D1*
Y-879943D1*
Y-882443D1*
X-1219977Y-807443D2*
X-1216332Y-809943D1*
X-1213212Y-812443D1*
X-1210755Y-814943D1*
X-1209021Y-817443D1*
X-1207793Y-819943D1*
X-1206762Y-822443D1*
X-1205946Y-824943D1*
X-1205524Y-827443D1*
X-1205584Y-829943D1*
X-1206077Y-832443D1*
X-1206768Y-834943D1*
X-1207602Y-837443D1*
X-1208852Y-839943D1*
X-1210690Y-842443D1*
X-1213037Y-844943D1*
X-1215472Y-847443D1*
X-1217611Y-849943D1*
X-1218128Y-852443D1*
X-1217439Y-854943D1*
X-1216287Y-857443D1*
X-1214824Y-859943D1*
X-1213351Y-862443D1*
X-1211967Y-864943D1*
X-1210648Y-867443D1*
X-1209371Y-869943D1*
X-1208107Y-872443D1*
X-1206847Y-874943D1*
X-1205529Y-877443D1*
X-1204070Y-879943D1*
X-1202477Y-882443D1*
X-1174977Y-807443D2*
X-1178535Y-809943D1*
X-1181423Y-812443D1*
X-1183590Y-814943D1*
X-1185194Y-817443D1*
X-1186315Y-819943D1*
X-1186997Y-822443D1*
X-1187477Y-824943D1*
X-1157477Y-807443D2*
X-1154219Y-809943D1*
X-1151708Y-812443D1*
X-1149821Y-814943D1*
X-1148294Y-817443D1*
X-1147028Y-819943D1*
X-1146148Y-822443D1*
X-1145664Y-824943D1*
X-1146154Y-827443D1*
X-1146798Y-829943D1*
X-1147521Y-832443D1*
X-1148433Y-834943D1*
X-1149580Y-837443D1*
X-1150985Y-839943D1*
X-1152570Y-842443D1*
X-1154175Y-844943D1*
X-1155894Y-847443D1*
X-1157818Y-849943D1*
X-1159747Y-852443D1*
X-1161535Y-854943D1*
X-1163338Y-857443D1*
X-1165297Y-859943D1*
X-1167240Y-862443D1*
X-1169033Y-864943D1*
X-1170847Y-867443D1*
X-1172892Y-869943D1*
X-1175141Y-872443D1*
X-1177477Y-874943D1*
X-1247477Y-814943D2*
Y-817443D1*
Y-819943D1*
Y-822443D1*
Y-824943D1*
Y-827443D1*
Y-829943D1*
Y-832443D1*
Y-834943D1*
Y-837443D1*
Y-839943D1*
X-1224977Y-842443D1*
X-1227477Y-814943D2*
X-1223364Y-817443D1*
X-1220119Y-819943D1*
X-1217846Y-822443D1*
X-1216142Y-824943D1*
X-1215638Y-827443D1*
X-1215450Y-829943D1*
X-1216075Y-832443D1*
X-1217751Y-834943D1*
X-1224337Y-837443D1*
X-1235633Y-839943D1*
X-1249977Y-842443D1*
X-1167477Y-814943D2*
X-1171598Y-817443D1*
X-1174928Y-819943D1*
X-1177572Y-822443D1*
X-1179977Y-824943D1*
X-1167477Y-814943D2*
X-1163073Y-817443D1*
X-1159529Y-819943D1*
X-1156803Y-822443D1*
X-1155732Y-824943D1*
X-1155719Y-827443D1*
X-1156220Y-829943D1*
X-1157108Y-832443D1*
X-1158209Y-834943D1*
X-1159486Y-837443D1*
X-1161030Y-839943D1*
X-1162872Y-842443D1*
X-1164768Y-844943D1*
X-1166543Y-847443D1*
X-1168351Y-849943D1*
X-1170386Y-852443D1*
X-1172559Y-854943D1*
X-1174632Y-857443D1*
X-1176488Y-859943D1*
X-1178320Y-862443D1*
X-1180290Y-864943D1*
X-1182228Y-867443D1*
X-1183925Y-869943D1*
X-1185323Y-872443D1*
X-1186355Y-874943D1*
X-1186964Y-877443D1*
X-1187278Y-879943D1*
X-1187477Y-882443D1*
X-1247477Y-849943D2*
Y-852443D1*
Y-854943D1*
Y-857443D1*
Y-859943D1*
Y-862443D1*
Y-864943D1*
Y-867443D1*
Y-869943D1*
Y-872443D1*
Y-874943D1*
Y-877443D1*
Y-879943D1*
Y-882443D1*
X-1232477Y-849943D2*
X-1230373Y-852443D1*
X-1228580Y-854943D1*
X-1227056Y-857443D1*
X-1225681Y-859943D1*
X-1224382Y-862443D1*
X-1223111Y-864943D1*
X-1221856Y-867443D1*
X-1220602Y-869943D1*
X-1219353Y-872443D1*
X-1218109Y-874943D1*
X-1216925Y-877443D1*
X-1215884Y-879943D1*
X-1214977Y-882443D1*
X-1144977Y-874943D2*
Y-877443D1*
Y-879943D1*
Y-882443D1*
X1143110Y-829390D2*
Y-831890D1*
Y-834390D1*
Y-836890D1*
Y-839390D1*
Y-841890D1*
Y-844390D1*
Y-846890D1*
Y-849390D1*
Y-851890D1*
Y-854390D1*
Y-856890D1*
Y-859390D1*
Y-861890D1*
Y-864390D1*
Y-866890D1*
Y-869390D1*
Y-871890D1*
Y-874390D1*
Y-876890D1*
Y-879390D1*
Y-881890D1*
Y-884390D1*
Y-886890D1*
Y-889390D1*
Y-891890D1*
Y-894390D1*
Y-896890D1*
Y-899390D1*
Y-901890D1*
Y-904390D1*
X1180610Y-829390D2*
X1184254Y-831890D1*
X1187375Y-834390D1*
X1189831Y-836890D1*
X1191565Y-839390D1*
X1192793Y-841890D1*
X1193825Y-844390D1*
X1194641Y-846890D1*
X1195062Y-849390D1*
X1195003Y-851890D1*
X1194510Y-854390D1*
X1193819Y-856890D1*
X1192984Y-859390D1*
X1191734Y-861890D1*
X1189896Y-864390D1*
X1187550Y-866890D1*
X1185115Y-869390D1*
X1182976Y-871890D1*
X1182459Y-874390D1*
X1183148Y-876890D1*
X1184300Y-879390D1*
X1185763Y-881890D1*
X1187236Y-884390D1*
X1188620Y-886890D1*
X1189939Y-889390D1*
X1191216Y-891890D1*
X1192479Y-894390D1*
X1193740Y-896890D1*
X1195058Y-899390D1*
X1196517Y-901890D1*
X1198110Y-904390D1*
X1225610Y-829390D2*
X1222051Y-831890D1*
X1219163Y-834390D1*
X1216997Y-836890D1*
X1215393Y-839390D1*
X1214271Y-841890D1*
X1213590Y-844390D1*
X1213110Y-846890D1*
X1240610Y-829390D2*
X1244254Y-831890D1*
X1247375Y-834390D1*
X1249822Y-836890D1*
X1251742Y-839390D1*
X1252446Y-841890D1*
X1252827Y-844390D1*
X1252989Y-846890D1*
X1252971Y-849390D1*
X1252670Y-851890D1*
X1251973Y-854390D1*
X1250824Y-856890D1*
X1248995Y-859390D1*
X1246297Y-861890D1*
X1243110Y-864390D1*
X1246069Y-866890D1*
X1248605Y-869390D1*
X1250603Y-871890D1*
X1252214Y-874390D1*
X1253535Y-876890D1*
X1254523Y-879390D1*
X1255098Y-881890D1*
X1255302Y-884390D1*
X1255102Y-886890D1*
X1254467Y-889390D1*
X1253507Y-891890D1*
X1252284Y-894390D1*
X1250583Y-896890D1*
X1248027Y-899390D1*
X1244540Y-901890D1*
X1240610Y-904390D1*
X1153110Y-836890D2*
Y-839390D1*
Y-841890D1*
Y-844390D1*
Y-846890D1*
Y-849390D1*
Y-851890D1*
Y-854390D1*
Y-856890D1*
Y-859390D1*
Y-861890D1*
X1175610Y-864390D1*
X1173110Y-836890D2*
X1177223Y-839390D1*
X1180467Y-841890D1*
X1182741Y-844390D1*
X1184445Y-846890D1*
X1184949Y-849390D1*
X1185137Y-851890D1*
X1184511Y-854390D1*
X1182835Y-856890D1*
X1176250Y-859390D1*
X1164954Y-861890D1*
X1150610Y-864390D1*
X1230610Y-836890D2*
X1228110Y-839390D1*
X1225610Y-841890D1*
X1223110Y-844390D1*
X1220610Y-846890D1*
X1233110Y-836890D2*
X1237223Y-839390D1*
X1240467Y-841890D1*
X1242731Y-844390D1*
X1244406Y-846890D1*
X1244843Y-849390D1*
X1244188Y-851890D1*
X1243109Y-854390D1*
X1240298Y-856890D1*
X1236940Y-859390D1*
X1233655Y-861890D1*
X1232026Y-864390D1*
X1231508Y-866890D1*
X1234946Y-869390D1*
X1238609Y-871890D1*
X1241638Y-874390D1*
X1243997Y-876890D1*
X1244832Y-879390D1*
X1245271Y-881890D1*
X1245364Y-884390D1*
X1245203Y-886890D1*
X1243839Y-889390D1*
X1239565Y-891890D1*
X1233217Y-894390D1*
X1225610Y-896890D1*
X1153110Y-871890D2*
Y-874390D1*
Y-876890D1*
Y-879390D1*
Y-881890D1*
Y-884390D1*
Y-886890D1*
Y-889390D1*
Y-891890D1*
Y-894390D1*
Y-896890D1*
Y-899390D1*
Y-901890D1*
Y-904390D1*
X1168110Y-871890D2*
X1170214Y-874390D1*
X1172006Y-876890D1*
X1173531Y-879390D1*
X1174906Y-881890D1*
X1176204Y-884390D1*
X1177475Y-886890D1*
X1178730Y-889390D1*
X1179985Y-891890D1*
X1181234Y-894390D1*
X1182478Y-896890D1*
X1183661Y-899390D1*
X1184703Y-901890D1*
X1185610Y-904390D1*
X1210610Y-886890D2*
X1211570Y-889390D1*
X1212732Y-891890D1*
X1214231Y-894390D1*
X1216227Y-896890D1*
X1218815Y-899390D1*
X1222034Y-901890D1*
X1225610Y-904390D1*
X1220610Y-886890D2*
X1222256Y-889390D1*
X1226603Y-891890D1*
X1232985Y-894390D1*
X1240610Y-896890D1*
X207187Y-1642367D2*
Y-1644867D1*
Y-1647367D1*
Y-1649867D1*
Y-1652367D1*
Y-1654867D1*
Y-1657367D1*
Y-1659867D1*
Y-1662367D1*
Y-1664867D1*
Y-1667367D1*
Y-1669867D1*
Y-1672367D1*
Y-1674867D1*
Y-1677367D1*
Y-1679867D1*
Y-1682367D1*
Y-1684867D1*
Y-1687367D1*
Y-1689867D1*
Y-1692367D1*
Y-1694867D1*
Y-1697367D1*
Y-1699867D1*
Y-1702367D1*
Y-1704867D1*
Y-1707367D1*
Y-1709867D1*
Y-1712367D1*
Y-1714867D1*
Y-1717367D1*
X244687Y-1642367D2*
X248331Y-1644867D1*
X251451Y-1647367D1*
X253908Y-1649867D1*
X255642Y-1652367D1*
X256870Y-1654867D1*
X257901Y-1657367D1*
X258718Y-1659867D1*
X259139Y-1662367D1*
X259080Y-1664867D1*
X258587Y-1667367D1*
X257895Y-1669867D1*
X257061Y-1672367D1*
X255811Y-1674867D1*
X253973Y-1677367D1*
X251627Y-1679867D1*
X249192Y-1682367D1*
X247053Y-1684867D1*
X246536Y-1687367D1*
X247224Y-1689867D1*
X248376Y-1692367D1*
X249840Y-1694867D1*
X251313Y-1697367D1*
X252697Y-1699867D1*
X254016Y-1702367D1*
X255293Y-1704867D1*
X256556Y-1707367D1*
X257816Y-1709867D1*
X259135Y-1712367D1*
X260594Y-1714867D1*
X262187Y-1717367D1*
X302187Y-1642367D2*
X301237Y-1644867D1*
X300163Y-1647367D1*
X299002Y-1649867D1*
X297797Y-1652367D1*
X296642Y-1654867D1*
X295636Y-1657367D1*
X294748Y-1659867D1*
X293780Y-1662367D1*
X292685Y-1664867D1*
X291512Y-1667367D1*
X290291Y-1669867D1*
X289056Y-1672367D1*
X287808Y-1674867D1*
X286562Y-1677367D1*
X285310Y-1679867D1*
X284063Y-1682367D1*
X282811Y-1684867D1*
X281563Y-1687367D1*
X280320Y-1689867D1*
X279160Y-1692367D1*
X278237Y-1694867D1*
X277675Y-1697367D1*
X277392Y-1699867D1*
X277262Y-1702367D1*
X277187Y-1704867D1*
X312187Y-1642367D2*
X311237Y-1644867D1*
X310163Y-1647367D1*
X309002Y-1649867D1*
X307787Y-1652367D1*
X306554Y-1654867D1*
X305308Y-1657367D1*
X304062Y-1659867D1*
X302810Y-1662367D1*
X301563Y-1664867D1*
X300311Y-1667367D1*
X299063Y-1669867D1*
X297820Y-1672367D1*
X296651Y-1674867D1*
X295639Y-1677367D1*
X294749Y-1679867D1*
X293780Y-1682367D1*
X292685Y-1684867D1*
X291504Y-1687367D1*
X290219Y-1689867D1*
X288773Y-1692367D1*
X287187Y-1694867D1*
X307187Y-1697367D1*
X217187Y-1649867D2*
Y-1652367D1*
Y-1654867D1*
Y-1657367D1*
Y-1659867D1*
Y-1662367D1*
Y-1664867D1*
Y-1667367D1*
Y-1669867D1*
Y-1672367D1*
Y-1674867D1*
X239687Y-1677367D1*
X237187Y-1649867D2*
X241299Y-1652367D1*
X244544Y-1654867D1*
X246818Y-1657367D1*
X248522Y-1659867D1*
X249025Y-1662367D1*
X249214Y-1664867D1*
X248588Y-1667367D1*
X246912Y-1669867D1*
X240327Y-1672367D1*
X229031Y-1674867D1*
X214687Y-1677367D1*
X312187Y-1672367D2*
Y-1674867D1*
Y-1677367D1*
Y-1679867D1*
Y-1682367D1*
Y-1684867D1*
Y-1687367D1*
Y-1689867D1*
Y-1692367D1*
Y-1694867D1*
X289687Y-1697367D1*
X319687Y-1672367D2*
Y-1674867D1*
Y-1677367D1*
Y-1679867D1*
Y-1682367D1*
Y-1684867D1*
X319706Y-1687367D1*
X319882Y-1689867D1*
X320292Y-1692367D1*
X321660Y-1694867D1*
X322984Y-1697367D1*
X323867Y-1699867D1*
X324335Y-1702367D1*
X324556Y-1704867D1*
X324687Y-1707367D1*
X319687D1*
Y-1709867D1*
Y-1712367D1*
Y-1714867D1*
Y-1717367D1*
X217187Y-1684867D2*
Y-1687367D1*
Y-1689867D1*
Y-1692367D1*
Y-1694867D1*
Y-1697367D1*
Y-1699867D1*
Y-1702367D1*
Y-1704867D1*
Y-1707367D1*
Y-1709867D1*
Y-1712367D1*
Y-1714867D1*
Y-1717367D1*
X232187Y-1684867D2*
X234291Y-1687367D1*
X236083Y-1689867D1*
X237607Y-1692367D1*
X238983Y-1694867D1*
X240281Y-1697367D1*
X241552Y-1699867D1*
X242807Y-1702367D1*
X244061Y-1704867D1*
X245310Y-1707367D1*
X246555Y-1709867D1*
X247738Y-1712367D1*
X248779Y-1714867D1*
X249687Y-1717367D1*
X312187Y-1704867D2*
Y-1707367D1*
Y-1709867D1*
Y-1712367D1*
Y-1714867D1*
Y-1717367D1*
X206747Y-1884867D2*
Y-1887367D1*
Y-1889867D1*
Y-1892367D1*
Y-1894867D1*
Y-1897367D1*
Y-1899867D1*
Y-1902367D1*
Y-1904867D1*
Y-1907367D1*
Y-1909867D1*
Y-1912367D1*
Y-1914867D1*
Y-1917367D1*
Y-1919867D1*
Y-1922367D1*
Y-1924867D1*
Y-1927367D1*
Y-1929867D1*
Y-1932367D1*
Y-1934867D1*
Y-1937367D1*
Y-1939867D1*
Y-1942367D1*
Y-1944867D1*
Y-1947367D1*
Y-1949867D1*
Y-1952367D1*
Y-1954867D1*
Y-1957367D1*
Y-1959867D1*
X244247Y-1884867D2*
X247891Y-1887367D1*
X251011Y-1889867D1*
X253468Y-1892367D1*
X255202Y-1894867D1*
X256430Y-1897367D1*
X257461Y-1899867D1*
X258278Y-1902367D1*
X258699Y-1904867D1*
X258640Y-1907367D1*
X258147Y-1909867D1*
X257455Y-1912367D1*
X256621Y-1914867D1*
X255371Y-1917367D1*
X253533Y-1919867D1*
X251187Y-1922367D1*
X248752Y-1924867D1*
X246613Y-1927367D1*
X246096Y-1929867D1*
X246784Y-1932367D1*
X247936Y-1934867D1*
X249400Y-1937367D1*
X250873Y-1939867D1*
X252257Y-1942367D1*
X253576Y-1944867D1*
X254853Y-1947367D1*
X256116Y-1949867D1*
X257376Y-1952367D1*
X258695Y-1954867D1*
X260154Y-1957367D1*
X261747Y-1959867D1*
X279247Y-1884867D2*
Y-1887367D1*
Y-1889867D1*
Y-1892367D1*
Y-1894867D1*
Y-1897367D1*
Y-1899867D1*
Y-1902367D1*
Y-1904867D1*
Y-1907367D1*
Y-1909867D1*
Y-1912367D1*
Y-1914867D1*
Y-1917367D1*
Y-1919867D1*
Y-1922367D1*
Y-1924867D1*
X316747Y-1884867D2*
Y-1887367D1*
Y-1889867D1*
Y-1892367D1*
Y-1894867D1*
X289247D1*
Y-1897367D1*
Y-1899867D1*
X289256Y-1902367D1*
X289352Y-1904867D1*
X289738Y-1907367D1*
X290593Y-1909867D1*
X291747Y-1912367D1*
X216747Y-1892367D2*
Y-1894867D1*
Y-1897367D1*
Y-1899867D1*
Y-1902367D1*
Y-1904867D1*
Y-1907367D1*
Y-1909867D1*
Y-1912367D1*
Y-1914867D1*
Y-1917367D1*
X239247Y-1919867D1*
X236747Y-1892367D2*
X240859Y-1894867D1*
X244104Y-1897367D1*
X246378Y-1899867D1*
X248082Y-1902367D1*
X248585Y-1904867D1*
X248774Y-1907367D1*
X248148Y-1909867D1*
X246472Y-1912367D1*
X239887Y-1914867D1*
X228591Y-1917367D1*
X214247Y-1919867D1*
X294247Y-1909867D2*
X291747Y-1912367D1*
X306747Y-1909867D2*
X310305Y-1912367D1*
X313193Y-1914867D1*
X315360Y-1917367D1*
X316964Y-1919867D1*
X318078Y-1922367D1*
X318715Y-1924867D1*
X319025Y-1927367D1*
X319161Y-1929867D1*
X319215Y-1932367D1*
X319236Y-1934867D1*
X319243Y-1937367D1*
X319236Y-1939867D1*
X319149Y-1942367D1*
X318821Y-1944867D1*
X318124Y-1947367D1*
X317057Y-1949867D1*
X315511Y-1952367D1*
X313239Y-1954867D1*
X310201Y-1957367D1*
X306747Y-1959867D1*
X299247Y-1917367D2*
X294706Y-1919867D1*
X290583Y-1922367D1*
X286747Y-1924867D1*
X301747Y-1917367D2*
X304151Y-1919867D1*
X306321Y-1922367D1*
X308124Y-1924867D1*
X309567Y-1927367D1*
X310616Y-1929867D1*
X311218Y-1932367D1*
X311432Y-1934867D1*
X311236Y-1937367D1*
X310593Y-1939867D1*
X309527Y-1942367D1*
X308155Y-1944867D1*
X304844Y-1947367D1*
X300031Y-1949867D1*
X294247Y-1952367D1*
X216747Y-1927367D2*
Y-1929867D1*
Y-1932367D1*
Y-1934867D1*
Y-1937367D1*
Y-1939867D1*
Y-1942367D1*
Y-1944867D1*
Y-1947367D1*
Y-1949867D1*
Y-1952367D1*
Y-1954867D1*
Y-1957367D1*
Y-1959867D1*
X231747Y-1927367D2*
X233851Y-1929867D1*
X235643Y-1932367D1*
X237167Y-1934867D1*
X238543Y-1937367D1*
X239841Y-1939867D1*
X241112Y-1942367D1*
X242367Y-1944867D1*
X243621Y-1947367D1*
X244870Y-1949867D1*
X246115Y-1952367D1*
X247298Y-1954867D1*
X248339Y-1957367D1*
X249247Y-1959867D1*
X279247Y-1942367D2*
X279643Y-1944867D1*
X280360Y-1947367D1*
X281434Y-1949867D1*
X282982Y-1952367D1*
X285254Y-1954867D1*
X288292Y-1957367D1*
X291747Y-1959867D1*
X286747Y-1942367D2*
X288392Y-1944867D1*
X292739Y-1947367D1*
X299122Y-1949867D1*
X306747Y-1952367D1*
X-503983Y-2985493D2*
Y-2987993D1*
Y-2990493D1*
Y-2992993D1*
Y-2995493D1*
Y-2997993D1*
Y-3000493D1*
Y-3002993D1*
Y-3005493D1*
Y-3007993D1*
Y-3010493D1*
Y-3012993D1*
Y-3015493D1*
Y-3017993D1*
Y-3020493D1*
Y-3022993D1*
Y-3025493D1*
Y-3027993D1*
Y-3030493D1*
Y-3032993D1*
Y-3035493D1*
X-503974Y-3037993D1*
X-503886Y-3040493D1*
X-503557Y-3042993D1*
X-502861Y-3045493D1*
X-501804Y-3047993D1*
X-500333Y-3050493D1*
X-498255Y-3052993D1*
X-495285Y-3055493D1*
X-491213Y-3057993D1*
X-486483Y-3060493D1*
X-496483Y-2985493D2*
Y-2987993D1*
Y-2990493D1*
Y-2992993D1*
Y-2995493D1*
Y-2997993D1*
Y-3000493D1*
Y-3002993D1*
Y-3005493D1*
Y-3007993D1*
Y-3010493D1*
Y-3012993D1*
Y-3015493D1*
Y-3017993D1*
Y-3020493D1*
Y-3022993D1*
Y-3025493D1*
Y-3027993D1*
X-496474Y-3030493D1*
X-496386Y-3032993D1*
X-496057Y-3035493D1*
X-495361Y-3037993D1*
X-494284Y-3040493D1*
X-492618Y-3042993D1*
X-490324Y-3045493D1*
X-484880Y-3047993D1*
X-477495Y-3050493D1*
X-468983Y-3052993D1*
X-461483Y-2985493D2*
Y-2987993D1*
Y-2990493D1*
Y-2992993D1*
Y-2995493D1*
Y-2997993D1*
Y-3000493D1*
Y-3002993D1*
Y-3005493D1*
Y-3007993D1*
Y-3010493D1*
Y-3012993D1*
Y-3015493D1*
Y-3017993D1*
Y-3020493D1*
Y-3022993D1*
Y-3025493D1*
Y-3027993D1*
Y-3030493D1*
X-461493Y-3032993D1*
X-461581Y-3035493D1*
X-461909Y-3037993D1*
X-462625Y-3040493D1*
X-463623Y-3042993D1*
X-465718Y-3045493D1*
X-470878Y-3047993D1*
X-478090Y-3050493D1*
X-486483Y-3052993D1*
X-451483Y-2985493D2*
Y-2987993D1*
Y-2990493D1*
Y-2992993D1*
Y-2995493D1*
Y-2997993D1*
Y-3000493D1*
Y-3002993D1*
Y-3005493D1*
Y-3007993D1*
Y-3010493D1*
Y-3012993D1*
Y-3015493D1*
Y-3017993D1*
Y-3020493D1*
Y-3022993D1*
Y-3025493D1*
Y-3027993D1*
Y-3030493D1*
X-451493Y-3032993D1*
X-451581Y-3035493D1*
X-451900Y-3037993D1*
X-452508Y-3040493D1*
X-453247Y-3042993D1*
X-454099Y-3045493D1*
X-455346Y-3047993D1*
X-457118Y-3050493D1*
X-459349Y-3052993D1*
X-462076Y-3055493D1*
X-465364Y-3057993D1*
X-468983Y-3060493D1*
X-421483Y-2985493D2*
X-425042Y-2987993D1*
X-427930Y-2990493D1*
X-430096Y-2992993D1*
X-431701Y-2995493D1*
X-432822Y-2997993D1*
X-433504Y-3000493D1*
X-433983Y-3002993D1*
X-403983Y-2985493D2*
X-400725Y-2987993D1*
X-398215Y-2990493D1*
X-396327Y-2992993D1*
X-394801Y-2995493D1*
X-393535Y-2997993D1*
X-392655Y-3000493D1*
X-392171Y-3002993D1*
X-392660Y-3005493D1*
X-393304Y-3007993D1*
X-394028Y-3010493D1*
X-394939Y-3012993D1*
X-396087Y-3015493D1*
X-397491Y-3017993D1*
X-399077Y-3020493D1*
X-400682Y-3022993D1*
X-402401Y-3025493D1*
X-404324Y-3027993D1*
X-406254Y-3030493D1*
X-408042Y-3032993D1*
X-409845Y-3035493D1*
X-411803Y-3037993D1*
X-413747Y-3040493D1*
X-415540Y-3042993D1*
X-417354Y-3045493D1*
X-419399Y-3047993D1*
X-421648Y-3050493D1*
X-423983Y-3052993D1*
X-413983Y-2992993D2*
X-418104Y-2995493D1*
X-421435Y-2997993D1*
X-424079Y-3000493D1*
X-426483Y-3002993D1*
X-413983Y-2992993D2*
X-409580Y-2995493D1*
X-406036Y-2997993D1*
X-403310Y-3000493D1*
X-402239Y-3002993D1*
X-402226Y-3005493D1*
X-402727Y-3007993D1*
X-403615Y-3010493D1*
X-404716Y-3012993D1*
X-405993Y-3015493D1*
X-407536Y-3017993D1*
X-409379Y-3020493D1*
X-411275Y-3022993D1*
X-413049Y-3025493D1*
X-414857Y-3027993D1*
X-416892Y-3030493D1*
X-419065Y-3032993D1*
X-421138Y-3035493D1*
X-422995Y-3037993D1*
X-424827Y-3040493D1*
X-426797Y-3042993D1*
X-428735Y-3045493D1*
X-430431Y-3047993D1*
X-431830Y-3050493D1*
X-432862Y-3052993D1*
X-433470Y-3055493D1*
X-433785Y-3057993D1*
X-433983Y-3060493D1*
X-391483Y-3052993D2*
Y-3055493D1*
Y-3057993D1*
Y-3060493D1*
X-232700Y-1317320D2*
D12*
X-241475Y-1321130D1*
X-249081Y-1324940D1*
X-255500Y-1328750D1*
X-260666Y-1332560D1*
X-264580Y-1336370D1*
X-267777Y-1340180D1*
X-270637Y-1343990D1*
X-273118Y-1347800D1*
X-275202Y-1351610D1*
X-276880Y-1355420D1*
X-278276Y-1359230D1*
X-279641Y-1363040D1*
X-280817Y-1366850D1*
X-281561Y-1370660D1*
X-281945Y-1374470D1*
X-282118Y-1378280D1*
X-282188Y-1382090D1*
X-282215Y-1385900D1*
X-282225Y-1389710D1*
X-282228Y-1393520D1*
X-282229Y-1397330D1*
X-282230Y-1401140D1*
Y-1404950D1*
Y-1408760D1*
Y-1412570D1*
Y-1416380D1*
Y-1420190D1*
Y-1424000D1*
Y-1427810D1*
Y-1431620D1*
Y-1435430D1*
Y-1439240D1*
Y-1443050D1*
Y-1446860D1*
Y-1450670D1*
Y-1454480D1*
Y-1458290D1*
Y-1462100D1*
Y-1465910D1*
Y-1469720D1*
Y-1473530D1*
Y-1477340D1*
Y-1481150D1*
Y-1484960D1*
Y-1488770D1*
X-202220Y-1317320D2*
X-194760Y-1321130D1*
X-187777Y-1324940D1*
X-181705Y-1328750D1*
X-176605Y-1332560D1*
X-172143Y-1336370D1*
X-167930Y-1340180D1*
X-172329Y-1343990D1*
X-177098Y-1347800D1*
X-182029Y-1351610D1*
X-186994Y-1355420D1*
X-192104Y-1359230D1*
X-197216Y-1363040D1*
X-202220Y-1366850D1*
X315940Y-1317320D2*
X306721Y-1321130D1*
X298659Y-1324940D1*
X292167Y-1328750D1*
X287326Y-1332560D1*
X283841Y-1336370D1*
X281202Y-1340180D1*
X278983Y-1343990D1*
X276959Y-1347800D1*
X275020Y-1351610D1*
X273236Y-1355420D1*
X271823Y-1359230D1*
X270966Y-1363040D1*
X270534Y-1366850D1*
X270343Y-1370660D1*
X270266Y-1374470D1*
X270236Y-1378280D1*
X270226Y-1382090D1*
X270222Y-1385900D1*
X270221Y-1389710D1*
X270220Y-1393520D1*
Y-1397330D1*
Y-1401140D1*
Y-1404950D1*
Y-1408760D1*
Y-1412570D1*
Y-1416380D1*
Y-1420190D1*
Y-1424000D1*
Y-1427810D1*
Y-1431620D1*
Y-1435430D1*
Y-1439240D1*
Y-1443050D1*
Y-1446860D1*
Y-1450670D1*
Y-1454480D1*
Y-1458290D1*
Y-1462100D1*
Y-1465910D1*
Y-1469720D1*
Y-1473530D1*
Y-1477340D1*
Y-1481150D1*
Y-1484960D1*
Y-1488770D1*
X354040Y-1317320D2*
X360911Y-1321130D1*
X366949Y-1324940D1*
X372021Y-1328750D1*
X376315Y-1332560D1*
X379893Y-1336370D1*
X382748Y-1340180D1*
X384987Y-1343990D1*
X386614Y-1347800D1*
X387686Y-1351610D1*
X388633Y-1355420D1*
X389748Y-1359230D1*
X390806Y-1363040D1*
X391501Y-1366850D1*
X391866Y-1370660D1*
X392031Y-1374470D1*
X392099Y-1378280D1*
X392126Y-1382090D1*
X392135Y-1385900D1*
X392138Y-1389710D1*
X392139Y-1393520D1*
X392140Y-1397330D1*
Y-1401140D1*
Y-1404950D1*
Y-1408760D1*
Y-1412570D1*
Y-1416380D1*
Y-1420190D1*
Y-1424000D1*
Y-1427810D1*
Y-1431620D1*
Y-1435430D1*
Y-1439240D1*
Y-1443050D1*
Y-1446860D1*
Y-1450670D1*
Y-1454480D1*
Y-1458290D1*
Y-1462100D1*
Y-1465910D1*
Y-1469720D1*
Y-1473530D1*
Y-1477340D1*
Y-1481150D1*
Y-1484960D1*
Y-1488770D1*
X586450Y-1317320D2*
X575458Y-1321130D1*
X566152Y-1324940D1*
X558487Y-1328750D1*
X551987Y-1332560D1*
X546395Y-1336370D1*
X541710Y-1340180D1*
X537899Y-1343990D1*
X534805Y-1347800D1*
X532021Y-1351610D1*
X529345Y-1355420D1*
X526923Y-1359230D1*
X524748Y-1363040D1*
X522729Y-1366850D1*
X520909Y-1370660D1*
X519467Y-1374470D1*
X518470Y-1378280D1*
X517551Y-1382090D1*
X516447Y-1385900D1*
X515392Y-1389710D1*
X514698Y-1393520D1*
X514334Y-1397330D1*
X514169Y-1401140D1*
X514101Y-1404950D1*
X514074Y-1408760D1*
X514080Y-1412570D1*
X514210Y-1416380D1*
X514695Y-1420190D1*
X515622Y-1424000D1*
X516733Y-1427810D1*
X517898Y-1431620D1*
X519297Y-1435430D1*
X520936Y-1439240D1*
X522714Y-1443050D1*
X524570Y-1446860D1*
X526467Y-1450670D1*
X528502Y-1454480D1*
X530902Y-1458290D1*
X533855Y-1462100D1*
X537249Y-1465910D1*
X541017Y-1469720D1*
X545384Y-1473530D1*
X550726Y-1477340D1*
X557194Y-1481150D1*
X564776Y-1484960D1*
X573420Y-1488770D1*
X582640Y-1492580D1*
X624550Y-1317320D2*
X633914Y-1321130D1*
X642479Y-1324940D1*
X650019Y-1328750D1*
X656337Y-1332560D1*
X661518Y-1336370D1*
X665854Y-1340180D1*
X669460Y-1343990D1*
X672454Y-1347800D1*
X675195Y-1351610D1*
X677855Y-1355420D1*
X680255Y-1359230D1*
X682309Y-1363040D1*
X683975Y-1366850D1*
X685368Y-1370660D1*
X686732Y-1374470D1*
X687907Y-1378280D1*
X688654Y-1382090D1*
X689059Y-1385900D1*
X689320Y-1389710D1*
X780760Y-1317320D2*
X769768Y-1321130D1*
X760462Y-1324940D1*
X752797Y-1328750D1*
X746297Y-1332560D1*
X740705Y-1336370D1*
X736020Y-1340180D1*
X732209Y-1343990D1*
X729115Y-1347800D1*
X726331Y-1351610D1*
X723655Y-1355420D1*
X721233Y-1359230D1*
X719058Y-1363040D1*
X717039Y-1366850D1*
X715204Y-1370660D1*
X713643Y-1374470D1*
X712294Y-1378280D1*
X710948Y-1382090D1*
X709780Y-1385900D1*
X709037Y-1389710D1*
X708655Y-1393520D1*
X708482Y-1397330D1*
X708412Y-1401140D1*
X708385Y-1404950D1*
X708390Y-1408760D1*
X708521Y-1412570D1*
X709005Y-1416380D1*
X709917Y-1420190D1*
X710909Y-1424000D1*
X711707Y-1427810D1*
X712561Y-1431620D1*
X713769Y-1435430D1*
X715313Y-1439240D1*
X717065Y-1443050D1*
X719024Y-1446860D1*
X721266Y-1450670D1*
X723725Y-1454480D1*
X726189Y-1458290D1*
X728845Y-1462100D1*
X732046Y-1465910D1*
X735974Y-1469720D1*
X740673Y-1473530D1*
X746039Y-1477340D1*
X752178Y-1481150D1*
X759441Y-1484960D1*
X767877Y-1488770D1*
X776950Y-1492580D1*
X815050Y-1317320D2*
X826027Y-1321130D1*
X835199Y-1324940D1*
X842379Y-1328750D1*
X847966Y-1332560D1*
X852596Y-1336370D1*
X856750Y-1340180D1*
X860679Y-1343990D1*
X864405Y-1347800D1*
X867732Y-1351610D1*
X870501Y-1355420D1*
X872836Y-1359230D1*
X874936Y-1363040D1*
X876915Y-1366850D1*
X878838Y-1370660D1*
X880617Y-1374470D1*
X882028Y-1378280D1*
X882900Y-1382090D1*
X883465Y-1385900D1*
X884141Y-1389710D1*
X885131Y-1393520D1*
X886138Y-1397330D1*
X886798Y-1401140D1*
X887021Y-1404950D1*
X886698Y-1408760D1*
X885853Y-1412570D1*
X884902Y-1416380D1*
X884232Y-1420190D1*
X883748Y-1424000D1*
X883102Y-1427810D1*
X882108Y-1431620D1*
X880957Y-1435430D1*
X879663Y-1439240D1*
X877894Y-1443050D1*
X875693Y-1446860D1*
X873350Y-1450670D1*
X870760Y-1454480D1*
X867712Y-1458290D1*
X864292Y-1462100D1*
X860656Y-1465910D1*
X856903Y-1469720D1*
X852971Y-1473530D1*
X848507Y-1477340D1*
X842864Y-1481150D1*
X835357Y-1484960D1*
X825784Y-1488770D1*
X815050Y-1492580D1*
X944590Y-1317320D2*
X937263Y-1321130D1*
X931264Y-1324940D1*
X926361Y-1328750D1*
X922209Y-1332560D1*
X918820Y-1336370D1*
X916347Y-1340180D1*
X914548Y-1343990D1*
X913005Y-1347800D1*
X911756Y-1351610D1*
X910984Y-1355420D1*
X910590Y-1359230D1*
X910414Y-1363040D1*
X910342Y-1366850D1*
X910315Y-1370660D1*
X910305Y-1374470D1*
X910302Y-1378280D1*
X910301Y-1382090D1*
X910300Y-1385900D1*
Y-1389710D1*
Y-1393520D1*
Y-1397330D1*
Y-1401140D1*
Y-1404950D1*
Y-1408760D1*
Y-1412570D1*
Y-1416380D1*
Y-1420190D1*
Y-1424000D1*
Y-1427810D1*
Y-1431620D1*
Y-1435430D1*
Y-1439240D1*
Y-1443050D1*
Y-1446860D1*
Y-1450670D1*
Y-1454480D1*
Y-1458290D1*
Y-1462100D1*
Y-1465910D1*
Y-1469720D1*
Y-1473530D1*
Y-1477340D1*
Y-1481150D1*
Y-1484960D1*
Y-1488770D1*
X971260Y-1317320D2*
X978116Y-1321130D1*
X984021Y-1324940D1*
X988618Y-1328750D1*
X992104Y-1332560D1*
X995057Y-1336370D1*
X997930Y-1340180D1*
X1028410Y-1317320D2*
X1021539Y-1321130D1*
X1015486Y-1324940D1*
X1010255Y-1328750D1*
X1005236Y-1332560D1*
X999846Y-1336370D1*
X994120Y-1340180D1*
X1055080Y-1317320D2*
X1062407Y-1321130D1*
X1068391Y-1324940D1*
X1073175Y-1328750D1*
X1076975Y-1332560D1*
X1079923Y-1336370D1*
X1082212Y-1340180D1*
X1083972Y-1343990D1*
X1085399Y-1347800D1*
X1086775Y-1351610D1*
X1087955Y-1355420D1*
X1088701Y-1359230D1*
X1089085Y-1363040D1*
X1089257Y-1366850D1*
X1089328Y-1370660D1*
X1089355Y-1374470D1*
X1089365Y-1378280D1*
X1089368Y-1382090D1*
X1089369Y-1385900D1*
X1089370Y-1389710D1*
Y-1393520D1*
Y-1397330D1*
Y-1401140D1*
Y-1404950D1*
Y-1408760D1*
Y-1412570D1*
Y-1416380D1*
Y-1420190D1*
Y-1424000D1*
Y-1427810D1*
Y-1431620D1*
Y-1435430D1*
Y-1439240D1*
Y-1443050D1*
Y-1446860D1*
Y-1450670D1*
Y-1454480D1*
Y-1458290D1*
Y-1462100D1*
Y-1465910D1*
Y-1469720D1*
Y-1473530D1*
Y-1477340D1*
Y-1481150D1*
Y-1484960D1*
Y-1488770D1*
X-1135670Y-1321130D2*
Y-1324940D1*
Y-1328750D1*
Y-1332560D1*
Y-1336370D1*
Y-1340180D1*
Y-1343990D1*
Y-1347800D1*
Y-1351610D1*
Y-1355420D1*
Y-1359230D1*
Y-1363040D1*
Y-1366850D1*
Y-1370660D1*
Y-1374470D1*
Y-1378280D1*
Y-1382090D1*
Y-1385900D1*
Y-1389710D1*
Y-1393520D1*
Y-1397330D1*
Y-1401140D1*
Y-1404950D1*
Y-1408760D1*
Y-1412570D1*
Y-1416380D1*
Y-1420190D1*
Y-1424000D1*
Y-1427810D1*
Y-1431620D1*
Y-1435430D1*
Y-1439240D1*
Y-1443050D1*
X-1135655Y-1446860D1*
X-1135521Y-1450670D1*
X-1135036Y-1454480D1*
X-1134108Y-1458290D1*
X-1132983Y-1462100D1*
X-1131699Y-1465910D1*
X-1129932Y-1469720D1*
X-1127718Y-1473530D1*
X-1125226Y-1477340D1*
X-1122003Y-1481150D1*
X-1117424Y-1484960D1*
X-1111588Y-1488770D1*
X-1105190Y-1492580D1*
X-1089950Y-1321130D2*
Y-1324940D1*
Y-1328750D1*
Y-1332560D1*
Y-1336370D1*
Y-1340180D1*
Y-1343990D1*
Y-1347800D1*
Y-1351610D1*
Y-1355420D1*
Y-1359230D1*
Y-1363040D1*
Y-1366850D1*
Y-1370660D1*
Y-1374470D1*
Y-1378280D1*
Y-1382090D1*
Y-1385900D1*
Y-1389710D1*
Y-1393520D1*
Y-1397330D1*
Y-1401140D1*
Y-1404950D1*
Y-1408760D1*
Y-1412570D1*
Y-1416380D1*
X-1089935Y-1420190D1*
X-1089801Y-1424000D1*
X-1089316Y-1427810D1*
X-1088373Y-1431620D1*
X-1087106Y-1435430D1*
X-1085261Y-1439240D1*
X-1082283Y-1443050D1*
X-1078520Y-1446860D1*
X-1070900Y-1321130D2*
Y-1324940D1*
Y-1328750D1*
Y-1332560D1*
Y-1336370D1*
Y-1340180D1*
Y-1343990D1*
Y-1347800D1*
Y-1351610D1*
Y-1355420D1*
Y-1359230D1*
Y-1363040D1*
Y-1366850D1*
Y-1370660D1*
Y-1374470D1*
Y-1378280D1*
Y-1382090D1*
Y-1385900D1*
Y-1389710D1*
Y-1393520D1*
Y-1397330D1*
Y-1401140D1*
Y-1404950D1*
Y-1408760D1*
Y-1412570D1*
Y-1416380D1*
Y-1420190D1*
Y-1424000D1*
X-1070915Y-1427810D1*
X-1071093Y-1431620D1*
X-1071540Y-1435430D1*
X-1073895Y-1439240D1*
X-1079561Y-1443050D1*
X-1086140Y-1446860D1*
X-1021370Y-1321130D2*
Y-1324940D1*
Y-1328750D1*
Y-1332560D1*
Y-1336370D1*
Y-1340180D1*
Y-1343990D1*
Y-1347800D1*
Y-1351610D1*
Y-1355420D1*
Y-1359230D1*
Y-1363040D1*
Y-1366850D1*
Y-1370660D1*
Y-1374470D1*
Y-1378280D1*
Y-1382090D1*
Y-1385900D1*
Y-1389710D1*
Y-1393520D1*
Y-1397330D1*
Y-1401140D1*
Y-1404950D1*
Y-1408760D1*
Y-1412570D1*
Y-1416380D1*
Y-1420190D1*
Y-1424000D1*
Y-1427810D1*
X-1021340Y-1431620D1*
X-1021050Y-1435430D1*
X-1020358Y-1439240D1*
X-1017389Y-1443050D1*
X-1013750Y-1446860D1*
X-1006130Y-1321130D2*
Y-1324940D1*
Y-1328750D1*
Y-1332560D1*
Y-1336370D1*
Y-1340180D1*
Y-1343990D1*
Y-1347800D1*
Y-1351610D1*
Y-1355420D1*
Y-1359230D1*
Y-1363040D1*
Y-1366850D1*
Y-1370660D1*
Y-1374470D1*
Y-1378280D1*
Y-1382090D1*
Y-1385900D1*
Y-1389710D1*
Y-1393520D1*
Y-1397330D1*
Y-1401140D1*
Y-1404950D1*
Y-1408760D1*
Y-1412570D1*
Y-1416380D1*
Y-1420190D1*
Y-1424000D1*
X-1006145Y-1427810D1*
X-1006323Y-1431620D1*
X-1006770Y-1435430D1*
X-1009125Y-1439240D1*
X-1014791Y-1443050D1*
X-1021370Y-1446860D1*
X-956600Y-1321130D2*
Y-1324940D1*
Y-1328750D1*
Y-1332560D1*
Y-1336370D1*
Y-1340180D1*
Y-1343990D1*
Y-1347800D1*
Y-1351610D1*
Y-1355420D1*
Y-1359230D1*
Y-1363040D1*
Y-1366850D1*
Y-1370660D1*
Y-1374470D1*
Y-1378280D1*
Y-1382090D1*
Y-1385900D1*
Y-1389710D1*
Y-1393520D1*
Y-1397330D1*
Y-1401140D1*
Y-1404950D1*
Y-1408760D1*
Y-1412570D1*
Y-1416380D1*
Y-1420190D1*
Y-1424000D1*
Y-1427810D1*
Y-1431620D1*
Y-1435430D1*
Y-1439240D1*
X-956615Y-1443050D1*
X-956749Y-1446860D1*
X-957234Y-1450670D1*
X-958162Y-1454480D1*
X-959273Y-1458290D1*
X-960437Y-1462100D1*
X-961852Y-1465910D1*
X-963625Y-1469720D1*
X-965918Y-1473530D1*
X-968970Y-1477340D1*
X-972962Y-1481150D1*
X-978107Y-1484960D1*
X-984271Y-1488770D1*
X-990890Y-1492580D1*
X-926120Y-1321130D2*
Y-1324940D1*
Y-1328750D1*
Y-1332560D1*
Y-1336370D1*
Y-1340180D1*
Y-1343990D1*
Y-1347800D1*
Y-1351610D1*
Y-1355420D1*
Y-1359230D1*
Y-1363040D1*
Y-1366850D1*
Y-1370660D1*
Y-1374470D1*
Y-1378280D1*
Y-1382090D1*
Y-1385900D1*
Y-1389710D1*
Y-1393520D1*
Y-1397330D1*
Y-1401140D1*
Y-1404950D1*
Y-1408760D1*
Y-1412570D1*
Y-1416380D1*
Y-1420190D1*
Y-1424000D1*
Y-1427810D1*
Y-1431620D1*
Y-1435430D1*
Y-1439240D1*
Y-1443050D1*
X-926105Y-1446860D1*
X-925971Y-1450670D1*
X-925486Y-1454480D1*
X-924558Y-1458290D1*
X-923433Y-1462100D1*
X-922149Y-1465910D1*
X-920382Y-1469720D1*
X-918168Y-1473530D1*
X-915676Y-1477340D1*
X-912453Y-1481150D1*
X-907874Y-1484960D1*
X-902038Y-1488770D1*
X-895640Y-1492580D1*
X-880400Y-1321130D2*
Y-1324940D1*
Y-1328750D1*
Y-1332560D1*
Y-1336370D1*
Y-1340180D1*
Y-1343990D1*
Y-1347800D1*
Y-1351610D1*
Y-1355420D1*
Y-1359230D1*
Y-1363040D1*
Y-1366850D1*
Y-1370660D1*
Y-1374470D1*
Y-1378280D1*
Y-1382090D1*
Y-1385900D1*
Y-1389710D1*
Y-1393520D1*
Y-1397330D1*
Y-1401140D1*
Y-1404950D1*
Y-1408760D1*
Y-1412570D1*
Y-1416380D1*
X-880385Y-1420190D1*
X-880251Y-1424000D1*
X-879766Y-1427810D1*
X-878823Y-1431620D1*
X-877556Y-1435430D1*
X-875711Y-1439240D1*
X-872733Y-1443050D1*
X-868970Y-1446860D1*
X-861350Y-1321130D2*
Y-1324940D1*
Y-1328750D1*
Y-1332560D1*
Y-1336370D1*
Y-1340180D1*
Y-1343990D1*
Y-1347800D1*
Y-1351610D1*
Y-1355420D1*
Y-1359230D1*
Y-1363040D1*
Y-1366850D1*
Y-1370660D1*
Y-1374470D1*
Y-1378280D1*
Y-1382090D1*
Y-1385900D1*
Y-1389710D1*
Y-1393520D1*
Y-1397330D1*
Y-1401140D1*
Y-1404950D1*
Y-1408760D1*
Y-1412570D1*
Y-1416380D1*
Y-1420190D1*
Y-1424000D1*
X-861365Y-1427810D1*
X-861543Y-1431620D1*
X-861990Y-1435430D1*
X-864345Y-1439240D1*
X-870011Y-1443050D1*
X-876590Y-1446860D1*
X-811820Y-1321130D2*
Y-1324940D1*
Y-1328750D1*
Y-1332560D1*
Y-1336370D1*
Y-1340180D1*
Y-1343990D1*
Y-1347800D1*
Y-1351610D1*
Y-1355420D1*
Y-1359230D1*
Y-1363040D1*
Y-1366850D1*
Y-1370660D1*
Y-1374470D1*
Y-1378280D1*
Y-1382090D1*
Y-1385900D1*
Y-1389710D1*
Y-1393520D1*
Y-1397330D1*
Y-1401140D1*
Y-1404950D1*
Y-1408760D1*
Y-1412570D1*
Y-1416380D1*
Y-1420190D1*
Y-1424000D1*
Y-1427810D1*
X-811790Y-1431620D1*
X-811500Y-1435430D1*
X-810808Y-1439240D1*
X-807839Y-1443050D1*
X-804200Y-1446860D1*
X-796580Y-1321130D2*
Y-1324940D1*
Y-1328750D1*
Y-1332560D1*
Y-1336370D1*
Y-1340180D1*
Y-1343990D1*
Y-1347800D1*
Y-1351610D1*
Y-1355420D1*
Y-1359230D1*
Y-1363040D1*
Y-1366850D1*
Y-1370660D1*
Y-1374470D1*
Y-1378280D1*
Y-1382090D1*
Y-1385900D1*
Y-1389710D1*
Y-1393520D1*
Y-1397330D1*
Y-1401140D1*
Y-1404950D1*
Y-1408760D1*
Y-1412570D1*
Y-1416380D1*
Y-1420190D1*
Y-1424000D1*
X-796595Y-1427810D1*
X-796773Y-1431620D1*
X-797220Y-1435430D1*
X-799575Y-1439240D1*
X-805241Y-1443050D1*
X-811820Y-1446860D1*
X-747050Y-1321130D2*
Y-1324940D1*
Y-1328750D1*
Y-1332560D1*
Y-1336370D1*
Y-1340180D1*
Y-1343990D1*
Y-1347800D1*
Y-1351610D1*
Y-1355420D1*
Y-1359230D1*
Y-1363040D1*
Y-1366850D1*
Y-1370660D1*
Y-1374470D1*
Y-1378280D1*
Y-1382090D1*
Y-1385900D1*
Y-1389710D1*
Y-1393520D1*
Y-1397330D1*
Y-1401140D1*
Y-1404950D1*
Y-1408760D1*
Y-1412570D1*
Y-1416380D1*
Y-1420190D1*
Y-1424000D1*
Y-1427810D1*
Y-1431620D1*
Y-1435430D1*
Y-1439240D1*
X-747065Y-1443050D1*
X-747199Y-1446860D1*
X-747684Y-1450670D1*
X-748612Y-1454480D1*
X-749723Y-1458290D1*
X-750887Y-1462100D1*
X-752302Y-1465910D1*
X-754075Y-1469720D1*
X-756368Y-1473530D1*
X-759420Y-1477340D1*
X-763412Y-1481150D1*
X-768557Y-1484960D1*
X-774721Y-1488770D1*
X-781340Y-1492580D1*
X-716570Y-1321130D2*
Y-1324940D1*
Y-1328750D1*
Y-1332560D1*
Y-1336370D1*
Y-1340180D1*
Y-1343990D1*
Y-1347800D1*
Y-1351610D1*
Y-1355420D1*
Y-1359230D1*
Y-1363040D1*
Y-1366850D1*
Y-1370660D1*
Y-1374470D1*
Y-1378280D1*
Y-1382090D1*
Y-1385900D1*
Y-1389710D1*
Y-1393520D1*
Y-1397330D1*
Y-1401140D1*
Y-1404950D1*
Y-1408760D1*
Y-1412570D1*
Y-1416380D1*
Y-1420190D1*
Y-1424000D1*
Y-1427810D1*
Y-1431620D1*
Y-1435430D1*
Y-1439240D1*
Y-1443050D1*
X-716555Y-1446860D1*
X-716421Y-1450670D1*
X-715936Y-1454480D1*
X-715008Y-1458290D1*
X-713883Y-1462100D1*
X-712599Y-1465910D1*
X-710832Y-1469720D1*
X-708618Y-1473530D1*
X-706126Y-1477340D1*
X-702903Y-1481150D1*
X-698324Y-1484960D1*
X-692488Y-1488770D1*
X-686090Y-1492580D1*
X-670850Y-1321130D2*
Y-1324940D1*
Y-1328750D1*
Y-1332560D1*
Y-1336370D1*
Y-1340180D1*
Y-1343990D1*
Y-1347800D1*
Y-1351610D1*
Y-1355420D1*
Y-1359230D1*
Y-1363040D1*
Y-1366850D1*
Y-1370660D1*
Y-1374470D1*
Y-1378280D1*
Y-1382090D1*
Y-1385900D1*
Y-1389710D1*
Y-1393520D1*
Y-1397330D1*
Y-1401140D1*
Y-1404950D1*
Y-1408760D1*
Y-1412570D1*
Y-1416380D1*
X-670835Y-1420190D1*
X-670701Y-1424000D1*
X-670216Y-1427810D1*
X-669273Y-1431620D1*
X-668006Y-1435430D1*
X-666161Y-1439240D1*
X-663183Y-1443050D1*
X-659420Y-1446860D1*
X-651800Y-1321130D2*
Y-1324940D1*
Y-1328750D1*
Y-1332560D1*
Y-1336370D1*
Y-1340180D1*
Y-1343990D1*
Y-1347800D1*
Y-1351610D1*
Y-1355420D1*
Y-1359230D1*
Y-1363040D1*
Y-1366850D1*
Y-1370660D1*
Y-1374470D1*
Y-1378280D1*
Y-1382090D1*
Y-1385900D1*
Y-1389710D1*
Y-1393520D1*
Y-1397330D1*
Y-1401140D1*
Y-1404950D1*
Y-1408760D1*
Y-1412570D1*
Y-1416380D1*
Y-1420190D1*
Y-1424000D1*
X-651815Y-1427810D1*
X-651993Y-1431620D1*
X-652440Y-1435430D1*
X-654795Y-1439240D1*
X-660461Y-1443050D1*
X-667040Y-1446860D1*
X-602270Y-1321130D2*
Y-1324940D1*
Y-1328750D1*
Y-1332560D1*
Y-1336370D1*
Y-1340180D1*
Y-1343990D1*
Y-1347800D1*
Y-1351610D1*
Y-1355420D1*
Y-1359230D1*
Y-1363040D1*
Y-1366850D1*
Y-1370660D1*
Y-1374470D1*
Y-1378280D1*
Y-1382090D1*
Y-1385900D1*
Y-1389710D1*
Y-1393520D1*
Y-1397330D1*
Y-1401140D1*
Y-1404950D1*
Y-1408760D1*
Y-1412570D1*
Y-1416380D1*
Y-1420190D1*
Y-1424000D1*
Y-1427810D1*
X-602240Y-1431620D1*
X-601950Y-1435430D1*
X-601258Y-1439240D1*
X-598289Y-1443050D1*
X-594650Y-1446860D1*
X-587030Y-1321130D2*
Y-1324940D1*
Y-1328750D1*
Y-1332560D1*
Y-1336370D1*
Y-1340180D1*
Y-1343990D1*
Y-1347800D1*
Y-1351610D1*
Y-1355420D1*
Y-1359230D1*
Y-1363040D1*
Y-1366850D1*
Y-1370660D1*
Y-1374470D1*
Y-1378280D1*
Y-1382090D1*
Y-1385900D1*
Y-1389710D1*
Y-1393520D1*
Y-1397330D1*
Y-1401140D1*
Y-1404950D1*
Y-1408760D1*
Y-1412570D1*
Y-1416380D1*
Y-1420190D1*
Y-1424000D1*
X-587045Y-1427810D1*
X-587223Y-1431620D1*
X-587670Y-1435430D1*
X-590025Y-1439240D1*
X-595691Y-1443050D1*
X-602270Y-1446860D1*
X-537500Y-1321130D2*
Y-1324940D1*
Y-1328750D1*
Y-1332560D1*
Y-1336370D1*
Y-1340180D1*
Y-1343990D1*
Y-1347800D1*
Y-1351610D1*
Y-1355420D1*
Y-1359230D1*
Y-1363040D1*
Y-1366850D1*
Y-1370660D1*
Y-1374470D1*
Y-1378280D1*
Y-1382090D1*
Y-1385900D1*
Y-1389710D1*
Y-1393520D1*
Y-1397330D1*
Y-1401140D1*
Y-1404950D1*
Y-1408760D1*
Y-1412570D1*
Y-1416380D1*
Y-1420190D1*
Y-1424000D1*
Y-1427810D1*
Y-1431620D1*
Y-1435430D1*
Y-1439240D1*
X-537515Y-1443050D1*
X-537649Y-1446860D1*
X-538134Y-1450670D1*
X-539062Y-1454480D1*
X-540173Y-1458290D1*
X-541337Y-1462100D1*
X-542752Y-1465910D1*
X-544525Y-1469720D1*
X-546818Y-1473530D1*
X-549870Y-1477340D1*
X-553862Y-1481150D1*
X-559007Y-1484960D1*
X-565171Y-1488770D1*
X-571790Y-1492580D1*
X-373670Y-1321130D2*
X-381441Y-1324940D1*
X-387896Y-1328750D1*
X-392872Y-1332560D1*
X-396729Y-1336370D1*
X-399927Y-1340180D1*
X-402560Y-1343990D1*
X-404691Y-1347800D1*
X-406258Y-1351610D1*
X-407178Y-1355420D1*
X-407633Y-1359230D1*
X-407832Y-1363040D1*
X-407913Y-1366850D1*
X-407943Y-1370660D1*
X-407954Y-1374470D1*
X-407958Y-1378280D1*
X-407959Y-1382090D1*
X-407960Y-1385900D1*
Y-1389710D1*
Y-1393520D1*
Y-1397330D1*
Y-1401140D1*
Y-1404950D1*
Y-1408760D1*
Y-1412570D1*
Y-1416380D1*
Y-1420190D1*
Y-1424000D1*
Y-1427810D1*
Y-1431620D1*
Y-1435430D1*
Y-1439240D1*
X-407945Y-1443050D1*
X-407811Y-1446860D1*
X-407326Y-1450670D1*
X-406398Y-1454480D1*
X-405273Y-1458290D1*
X-403974Y-1462100D1*
X-402073Y-1465910D1*
X-399373Y-1469720D1*
X-395954Y-1473530D1*
X-391609Y-1477340D1*
X-385774Y-1481150D1*
X-378263Y-1484960D1*
X-369860Y-1488770D1*
X-312710Y-1321130D2*
Y-1324940D1*
Y-1328750D1*
Y-1332560D1*
Y-1336370D1*
Y-1340180D1*
Y-1343990D1*
Y-1347800D1*
Y-1351610D1*
Y-1355420D1*
Y-1359230D1*
Y-1363040D1*
X-333344Y-1366850D1*
X-348899Y-1370660D1*
X-354578Y-1374470D1*
X-357269Y-1378280D1*
X-338002Y-1382090D1*
X-316520Y-1385900D1*
Y-1389710D1*
Y-1393520D1*
Y-1397330D1*
Y-1401140D1*
Y-1404950D1*
Y-1408760D1*
Y-1412570D1*
Y-1416380D1*
Y-1420190D1*
X-337169Y-1424000D1*
X-352769Y-1427810D1*
X-358590Y-1431620D1*
X-361354Y-1435430D1*
X-359768Y-1439240D1*
X-357399Y-1443050D1*
X-354620Y-1446860D1*
X-122210Y-1321130D2*
X-129981Y-1324940D1*
X-136436Y-1328750D1*
X-141412Y-1332560D1*
X-145269Y-1336370D1*
X-148467Y-1340180D1*
X-151100Y-1343990D1*
X-153231Y-1347800D1*
X-154798Y-1351610D1*
X-155718Y-1355420D1*
X-156173Y-1359230D1*
X-156372Y-1363040D1*
X-156453Y-1366850D1*
X-156483Y-1370660D1*
X-156494Y-1374470D1*
X-156498Y-1378280D1*
X-156499Y-1382090D1*
X-156500Y-1385900D1*
Y-1389710D1*
Y-1393520D1*
Y-1397330D1*
Y-1401140D1*
Y-1404950D1*
Y-1408760D1*
Y-1412570D1*
Y-1416380D1*
Y-1420190D1*
Y-1424000D1*
Y-1427810D1*
Y-1431620D1*
Y-1435430D1*
Y-1439240D1*
X-156485Y-1443050D1*
X-156351Y-1446860D1*
X-155866Y-1450670D1*
X-154938Y-1454480D1*
X-153813Y-1458290D1*
X-152514Y-1462100D1*
X-150613Y-1465910D1*
X-147913Y-1469720D1*
X-144494Y-1473530D1*
X-140149Y-1477340D1*
X-134314Y-1481150D1*
X-126803Y-1484960D1*
X-118400Y-1488770D1*
X-61250Y-1321130D2*
Y-1324940D1*
Y-1328750D1*
Y-1332560D1*
Y-1336370D1*
Y-1340180D1*
Y-1343990D1*
Y-1347800D1*
Y-1351610D1*
Y-1355420D1*
Y-1359230D1*
Y-1363040D1*
X-81884Y-1366850D1*
X-97439Y-1370660D1*
X-103118Y-1374470D1*
X-105809Y-1378280D1*
X-86542Y-1382090D1*
X-65060Y-1385900D1*
Y-1389710D1*
Y-1393520D1*
Y-1397330D1*
Y-1401140D1*
Y-1404950D1*
Y-1408760D1*
Y-1412570D1*
Y-1416380D1*
Y-1420190D1*
X-85709Y-1424000D1*
X-101309Y-1427810D1*
X-107130Y-1431620D1*
X-109894Y-1435430D1*
X-108308Y-1439240D1*
X-105939Y-1443050D1*
X-103160Y-1446860D1*
X-26960Y-1321130D2*
Y-1324940D1*
Y-1328750D1*
Y-1332560D1*
Y-1336370D1*
Y-1340180D1*
Y-1343990D1*
Y-1347800D1*
Y-1351610D1*
Y-1355420D1*
Y-1359230D1*
Y-1363040D1*
Y-1366850D1*
Y-1370660D1*
Y-1374470D1*
Y-1378280D1*
Y-1382090D1*
Y-1385900D1*
Y-1389710D1*
Y-1393520D1*
Y-1397330D1*
Y-1401140D1*
Y-1404950D1*
Y-1408760D1*
Y-1412570D1*
Y-1416380D1*
Y-1420190D1*
Y-1424000D1*
Y-1427810D1*
Y-1431620D1*
Y-1435430D1*
Y-1439240D1*
Y-1443050D1*
Y-1446860D1*
Y-1450670D1*
Y-1454480D1*
Y-1458290D1*
Y-1462100D1*
Y-1465910D1*
Y-1469720D1*
Y-1473530D1*
Y-1477340D1*
Y-1481150D1*
Y-1484960D1*
Y-1488770D1*
X22570Y-1321130D2*
Y-1324940D1*
Y-1328750D1*
Y-1332560D1*
Y-1336370D1*
Y-1340180D1*
Y-1343990D1*
Y-1347800D1*
Y-1351610D1*
Y-1355420D1*
Y-1359230D1*
Y-1363040D1*
Y-1366850D1*
Y-1370660D1*
Y-1374470D1*
X22585Y-1378280D1*
X22730Y-1382090D1*
X23319Y-1385900D1*
X24621Y-1389710D1*
X26380Y-1393520D1*
X68290Y-1321130D2*
X65928Y-1324940D1*
X63755Y-1328750D1*
X61714Y-1332560D1*
X59740Y-1336370D1*
X57690Y-1340180D1*
X55413Y-1343990D1*
X52956Y-1347800D1*
X50622Y-1351610D1*
X48465Y-1355420D1*
X46325Y-1359230D1*
X44008Y-1363040D1*
X41535Y-1366850D1*
X39195Y-1370660D1*
X37051Y-1374470D1*
X35029Y-1378280D1*
X33067Y-1382090D1*
X31041Y-1385900D1*
X28811Y-1389710D1*
X26380Y-1393520D1*
X117820Y-1321130D2*
X115458Y-1324940D1*
X113270Y-1328750D1*
X111110Y-1332560D1*
X108784Y-1336370D1*
X106308Y-1340180D1*
X103966Y-1343990D1*
X101822Y-1347800D1*
X99799Y-1351610D1*
X97834Y-1355420D1*
X95788Y-1359230D1*
X93512Y-1363040D1*
X91056Y-1366850D1*
X88722Y-1370660D1*
X86565Y-1374470D1*
X84425Y-1378280D1*
X82108Y-1382090D1*
X79623Y-1385900D1*
X77182Y-1389710D1*
X74702Y-1393520D1*
X72100Y-1397330D1*
X74462Y-1401140D1*
X76635Y-1404950D1*
X78676Y-1408760D1*
X80635Y-1412570D1*
X82566Y-1416380D1*
X84476Y-1420190D1*
X86387Y-1424000D1*
X88290Y-1427810D1*
X90199Y-1431620D1*
X92101Y-1435430D1*
X94009Y-1439240D1*
X95911Y-1443050D1*
X97819Y-1446860D1*
X99721Y-1450670D1*
X101629Y-1454480D1*
X103531Y-1458290D1*
X105439Y-1462100D1*
X107341Y-1465910D1*
X109249Y-1469720D1*
X111151Y-1473530D1*
X113047Y-1477340D1*
X114850Y-1481150D1*
X116437Y-1484960D1*
X117820Y-1488770D1*
X125440Y-1321130D2*
Y-1324940D1*
Y-1328750D1*
Y-1332560D1*
Y-1336370D1*
Y-1340180D1*
Y-1343990D1*
Y-1347800D1*
Y-1351610D1*
Y-1355420D1*
Y-1359230D1*
Y-1363040D1*
Y-1366850D1*
X163540D1*
Y-1370660D1*
Y-1374470D1*
Y-1378280D1*
Y-1382090D1*
Y-1385900D1*
Y-1389710D1*
Y-1393520D1*
Y-1397330D1*
Y-1401140D1*
Y-1404950D1*
Y-1408760D1*
Y-1412570D1*
Y-1416380D1*
Y-1420190D1*
Y-1424000D1*
Y-1427810D1*
Y-1431620D1*
Y-1435430D1*
Y-1439240D1*
Y-1443050D1*
Y-1446860D1*
Y-1450670D1*
Y-1454480D1*
Y-1458290D1*
Y-1462100D1*
Y-1465910D1*
Y-1469720D1*
Y-1473530D1*
Y-1477340D1*
Y-1481150D1*
Y-1484960D1*
Y-1488770D1*
X251170Y-1321130D2*
Y-1324940D1*
Y-1328750D1*
Y-1332560D1*
Y-1336370D1*
Y-1340180D1*
Y-1343990D1*
Y-1347800D1*
Y-1351610D1*
Y-1355420D1*
Y-1359230D1*
Y-1363040D1*
Y-1366850D1*
X213070D1*
Y-1370660D1*
Y-1374470D1*
Y-1378280D1*
Y-1382090D1*
Y-1385900D1*
Y-1389710D1*
Y-1393520D1*
Y-1397330D1*
Y-1401140D1*
Y-1404950D1*
Y-1408760D1*
Y-1412570D1*
Y-1416380D1*
Y-1420190D1*
Y-1424000D1*
Y-1427810D1*
Y-1431620D1*
Y-1435430D1*
Y-1439240D1*
Y-1443050D1*
Y-1446860D1*
Y-1450670D1*
Y-1454480D1*
Y-1458290D1*
Y-1462100D1*
Y-1465910D1*
Y-1469720D1*
Y-1473530D1*
Y-1477340D1*
Y-1481150D1*
Y-1484960D1*
Y-1488770D1*
X-225080Y-1359230D2*
X-228141Y-1363040D1*
X-230369Y-1366850D1*
X-231645Y-1370660D1*
X-232264Y-1374470D1*
X-232532Y-1378280D1*
X-232638Y-1382090D1*
X-232678Y-1385900D1*
X-232693Y-1389710D1*
X-232698Y-1393520D1*
X-232699Y-1397330D1*
X-232700Y-1401140D1*
X-217460D1*
Y-1404950D1*
Y-1408760D1*
Y-1412570D1*
Y-1416380D1*
Y-1420190D1*
Y-1424000D1*
Y-1427810D1*
Y-1431620D1*
Y-1435430D1*
Y-1439240D1*
Y-1443050D1*
Y-1446860D1*
X-232700D1*
Y-1450670D1*
Y-1454480D1*
Y-1458290D1*
Y-1462100D1*
Y-1465910D1*
Y-1469720D1*
Y-1473530D1*
Y-1477340D1*
Y-1481150D1*
Y-1484960D1*
Y-1488770D1*
X-217460Y-1359230D2*
X-213650Y-1363040D1*
X-209840Y-1366850D1*
X327370Y-1363040D2*
X324294Y-1366850D1*
X321932Y-1370660D1*
X320170Y-1374470D1*
X318639Y-1378280D1*
X317394Y-1382090D1*
X316623Y-1385900D1*
X316230Y-1389710D1*
X316054Y-1393520D1*
X315982Y-1397330D1*
X315954Y-1401140D1*
X315940Y-1404950D1*
X331180D1*
Y-1408760D1*
Y-1412570D1*
Y-1416380D1*
Y-1420190D1*
Y-1424000D1*
Y-1427810D1*
Y-1431620D1*
Y-1435430D1*
Y-1439240D1*
Y-1443050D1*
Y-1446860D1*
Y-1450670D1*
X315940D1*
Y-1454480D1*
Y-1458290D1*
Y-1462100D1*
Y-1465910D1*
Y-1469720D1*
Y-1473530D1*
Y-1477340D1*
Y-1481150D1*
Y-1484960D1*
Y-1488770D1*
X334990Y-1363040D2*
X338051Y-1366850D1*
X340279Y-1370660D1*
X341555Y-1374470D1*
X342174Y-1378280D1*
X342442Y-1382090D1*
X342548Y-1385900D1*
X342588Y-1389710D1*
X342603Y-1393520D1*
X342608Y-1397330D1*
X342609Y-1401140D1*
X342610Y-1404950D1*
Y-1408760D1*
Y-1412570D1*
Y-1416380D1*
Y-1420190D1*
Y-1424000D1*
Y-1427810D1*
Y-1431620D1*
Y-1435430D1*
Y-1439240D1*
Y-1443050D1*
Y-1446860D1*
Y-1450670D1*
Y-1454480D1*
Y-1458290D1*
Y-1462100D1*
Y-1465910D1*
Y-1469720D1*
Y-1473530D1*
Y-1477340D1*
Y-1481150D1*
Y-1484960D1*
Y-1488770D1*
X597880Y-1363040D2*
X590435Y-1366850D1*
X583586Y-1370660D1*
X578014Y-1374470D1*
X573964Y-1378280D1*
X571010Y-1382090D1*
X568657Y-1385900D1*
X566705Y-1389710D1*
X565228Y-1393520D1*
X564348Y-1397330D1*
X563908Y-1401140D1*
X563729Y-1404950D1*
X563785Y-1408760D1*
X564256Y-1412570D1*
X565291Y-1416380D1*
X566765Y-1420190D1*
X568489Y-1424000D1*
X570483Y-1427810D1*
X573243Y-1431620D1*
X577002Y-1435430D1*
X587968Y-1439240D1*
X604514Y-1443050D1*
X624550Y-1446860D1*
X609310Y-1363040D2*
X616181Y-1366850D1*
X622205Y-1370660D1*
X627157Y-1374470D1*
X631097Y-1378280D1*
X634230Y-1382090D1*
X637016Y-1385900D1*
X639790Y-1389710D1*
X792190Y-1363040D2*
X784875Y-1366850D1*
X778381Y-1370660D1*
X773236Y-1374470D1*
X769251Y-1378280D1*
X765984Y-1382090D1*
X763321Y-1385900D1*
X761177Y-1389710D1*
X759605Y-1393520D1*
X758683Y-1397330D1*
X758228Y-1401140D1*
X758043Y-1404950D1*
X758096Y-1408760D1*
X758566Y-1412570D1*
X759616Y-1416380D1*
X761224Y-1420190D1*
X763434Y-1424000D1*
X766325Y-1427810D1*
X769913Y-1431620D1*
X775026Y-1435430D1*
X783821Y-1439240D1*
X797851Y-1443050D1*
X815050Y-1446860D1*
X803620Y-1363040D2*
X810491Y-1366850D1*
X816529Y-1370660D1*
X821601Y-1374470D1*
X825881Y-1378280D1*
X829339Y-1382090D1*
X831842Y-1385900D1*
X833654Y-1389710D1*
X835203Y-1393520D1*
X836453Y-1397330D1*
X837211Y-1401140D1*
X837471Y-1404950D1*
X837161Y-1408760D1*
X836306Y-1412570D1*
X835207Y-1416380D1*
X833919Y-1420190D1*
X832022Y-1424000D1*
X829323Y-1427810D1*
X825830Y-1431620D1*
X820759Y-1435430D1*
X811980Y-1439240D1*
X797956Y-1443050D1*
X780760Y-1446860D1*
X959830Y-1363040D2*
X959685Y-1366850D1*
X959197Y-1370660D1*
X958283Y-1374470D1*
X957306Y-1378280D1*
X956642Y-1382090D1*
X956288Y-1385900D1*
X956127Y-1389710D1*
X956060Y-1393520D1*
X956034Y-1397330D1*
X956025Y-1401140D1*
X956022Y-1404950D1*
X956021Y-1408760D1*
X956020Y-1412570D1*
Y-1416380D1*
Y-1420190D1*
Y-1424000D1*
Y-1427810D1*
Y-1431620D1*
Y-1435430D1*
Y-1439240D1*
Y-1443050D1*
Y-1446860D1*
Y-1450670D1*
Y-1454480D1*
Y-1458290D1*
Y-1462100D1*
Y-1465910D1*
Y-1469720D1*
Y-1473530D1*
Y-1477340D1*
Y-1481150D1*
Y-1484960D1*
Y-1488770D1*
X967450Y-1363040D2*
X970511Y-1366850D1*
X972739Y-1370660D1*
X974015Y-1374470D1*
X974634Y-1378280D1*
X974902Y-1382090D1*
X975008Y-1385900D1*
X975048Y-1389710D1*
X975063Y-1393520D1*
X975068Y-1397330D1*
X975069Y-1401140D1*
X975070Y-1404950D1*
Y-1408760D1*
Y-1412570D1*
Y-1416380D1*
Y-1420190D1*
Y-1424000D1*
Y-1427810D1*
Y-1431620D1*
Y-1435430D1*
Y-1439240D1*
Y-1443050D1*
Y-1446860D1*
Y-1450670D1*
Y-1454480D1*
Y-1458290D1*
Y-1462100D1*
Y-1465910D1*
Y-1469720D1*
Y-1473530D1*
Y-1477340D1*
Y-1481150D1*
Y-1484960D1*
Y-1488770D1*
X1024600Y-1363040D2*
Y-1366850D1*
Y-1370660D1*
Y-1374470D1*
Y-1378280D1*
Y-1382090D1*
Y-1385900D1*
Y-1389710D1*
Y-1393520D1*
Y-1397330D1*
Y-1401140D1*
Y-1404950D1*
Y-1408760D1*
Y-1412570D1*
Y-1416380D1*
Y-1420190D1*
Y-1424000D1*
Y-1427810D1*
Y-1431620D1*
Y-1435430D1*
Y-1439240D1*
Y-1443050D1*
Y-1446860D1*
Y-1450670D1*
Y-1454480D1*
Y-1458290D1*
Y-1462100D1*
Y-1465910D1*
Y-1469720D1*
Y-1473530D1*
Y-1477340D1*
Y-1481150D1*
Y-1484960D1*
Y-1488770D1*
X1039840Y-1363040D2*
Y-1366850D1*
Y-1370660D1*
Y-1374470D1*
Y-1378280D1*
Y-1382090D1*
Y-1385900D1*
Y-1389710D1*
Y-1393520D1*
Y-1397330D1*
Y-1401140D1*
Y-1404950D1*
Y-1408760D1*
Y-1412570D1*
Y-1416380D1*
Y-1420190D1*
Y-1424000D1*
Y-1427810D1*
Y-1431620D1*
Y-1435430D1*
Y-1439240D1*
Y-1443050D1*
Y-1446860D1*
Y-1450670D1*
Y-1454480D1*
Y-1458290D1*
Y-1462100D1*
Y-1465910D1*
Y-1469720D1*
Y-1473530D1*
Y-1477340D1*
Y-1481150D1*
Y-1484960D1*
Y-1488770D1*
X22570Y-1401140D2*
Y-1404950D1*
Y-1408760D1*
Y-1412570D1*
Y-1416380D1*
Y-1420190D1*
Y-1424000D1*
Y-1427810D1*
Y-1431620D1*
Y-1435430D1*
Y-1439240D1*
Y-1443050D1*
Y-1446860D1*
Y-1450670D1*
Y-1454480D1*
Y-1458290D1*
Y-1462100D1*
Y-1465910D1*
Y-1469720D1*
Y-1473530D1*
Y-1477340D1*
Y-1481150D1*
Y-1484960D1*
Y-1488770D1*
X30190Y-1401140D2*
X30779Y-1404950D1*
X31738Y-1408760D1*
X32859Y-1412570D1*
X34026Y-1416380D1*
X35427Y-1420190D1*
X37051Y-1424000D1*
X38710Y-1427810D1*
X40200Y-1431620D1*
X41536Y-1435430D1*
X43006Y-1439240D1*
X44656Y-1443050D1*
X46325Y-1446860D1*
X47818Y-1450670D1*
X49155Y-1454480D1*
X50625Y-1458290D1*
X52276Y-1462100D1*
X53945Y-1465910D1*
X55438Y-1469720D1*
X56775Y-1473530D1*
X58257Y-1477340D1*
X60021Y-1481150D1*
X62125Y-1484960D1*
X64480Y-1488770D1*
X639790Y-1408760D2*
X639645Y-1412570D1*
X639142Y-1416380D1*
X638080Y-1420190D1*
X636468Y-1424000D1*
X634242Y-1427810D1*
X631127Y-1431620D1*
X627256Y-1435430D1*
X617844Y-1439240D1*
X603682Y-1443050D1*
X586450Y-1446860D1*
X693130Y-1408760D2*
X691828Y-1412570D1*
X690679Y-1416380D1*
X689822Y-1420190D1*
X688964Y-1424000D1*
X687868Y-1427810D1*
X686688Y-1431620D1*
X685497Y-1435430D1*
X684088Y-1439240D1*
X682446Y-1443050D1*
X680652Y-1446860D1*
X678676Y-1450670D1*
X676427Y-1454480D1*
X673966Y-1458290D1*
X671487Y-1462100D1*
X668712Y-1465910D1*
X665143Y-1469720D1*
X660655Y-1473530D1*
X655391Y-1477340D1*
X649295Y-1481150D1*
X642049Y-1484960D1*
X633620Y-1488770D1*
X624550Y-1492580D1*
X-484160Y-1435430D2*
X-487955Y-1439240D1*
X-491616Y-1443050D1*
X-494807Y-1446860D1*
X-497204Y-1450670D1*
X-498976Y-1454480D1*
X-500495Y-1458290D1*
X-501606Y-1462100D1*
X-502211Y-1465910D1*
X-501308Y-1469720D1*
X-499944Y-1473530D1*
X-498259Y-1477340D1*
X-496174Y-1481150D1*
X-493231Y-1484960D1*
X-489053Y-1488770D1*
X-484160Y-1492580D1*
X-465110Y-1435430D2*
X-459686Y-1439240D1*
X-455285Y-1443050D1*
X-451984Y-1446860D1*
X-449539Y-1450670D1*
X-447841Y-1454480D1*
X-446871Y-1458290D1*
X-446397Y-1462100D1*
X-446206Y-1465910D1*
X-446272Y-1469720D1*
X-446875Y-1473530D1*
X-448426Y-1477340D1*
X-451091Y-1481150D1*
X-454865Y-1484960D1*
X-459699Y-1488770D1*
X-465110Y-1492580D1*
X445480Y-1435430D2*
X441685Y-1439240D1*
X438024Y-1443050D1*
X434833Y-1446860D1*
X432436Y-1450670D1*
X430664Y-1454480D1*
X429145Y-1458290D1*
X428034Y-1462100D1*
X427429Y-1465910D1*
X428332Y-1469720D1*
X429696Y-1473530D1*
X431381Y-1477340D1*
X433466Y-1481150D1*
X436409Y-1484960D1*
X440587Y-1488770D1*
X445480Y-1492580D1*
X464530Y-1435430D2*
X469954Y-1439240D1*
X474355Y-1443050D1*
X477656Y-1446860D1*
X480101Y-1450670D1*
X481799Y-1454480D1*
X482769Y-1458290D1*
X483243Y-1462100D1*
X483434Y-1465910D1*
X483368Y-1469720D1*
X482765Y-1473530D1*
X481214Y-1477340D1*
X478549Y-1481150D1*
X474775Y-1484960D1*
X469941Y-1488770D1*
X464530Y-1492580D1*
X-312710Y-1446860D2*
Y-1450670D1*
Y-1454480D1*
Y-1458290D1*
Y-1462100D1*
Y-1465910D1*
Y-1469720D1*
Y-1473530D1*
Y-1477340D1*
Y-1481150D1*
Y-1484960D1*
Y-1488770D1*
X-61250Y-1446860D2*
Y-1450670D1*
Y-1454480D1*
Y-1458290D1*
Y-1462100D1*
Y-1465910D1*
Y-1469720D1*
Y-1473530D1*
Y-1477340D1*
Y-1481150D1*
Y-1484960D1*
Y-1488770D1*
X-1051850Y-1469720D2*
X-1052614Y-1473530D1*
X-1053893Y-1477340D1*
X-1057399Y-1481150D1*
X-1062207Y-1484960D1*
X-1068197Y-1488770D1*
X-1074710Y-1492580D1*
X-1048040Y-1469720D2*
X-1044230Y-1473530D1*
X-1040390Y-1477340D1*
X-1036290Y-1481150D1*
X-1031302Y-1484960D1*
X-1024887Y-1488770D1*
X-1017560Y-1492580D1*
X-842300Y-1469720D2*
X-843064Y-1473530D1*
X-844343Y-1477340D1*
X-847849Y-1481150D1*
X-852657Y-1484960D1*
X-858647Y-1488770D1*
X-865160Y-1492580D1*
X-838490Y-1469720D2*
X-834680Y-1473530D1*
X-830840Y-1477340D1*
X-826740Y-1481150D1*
X-821752Y-1484960D1*
X-815337Y-1488770D1*
X-808010Y-1492580D1*
X-632750Y-1469720D2*
X-633514Y-1473530D1*
X-634793Y-1477340D1*
X-638299Y-1481150D1*
X-643107Y-1484960D1*
X-649097Y-1488770D1*
X-655610Y-1492580D1*
X-628940Y-1469720D2*
X-625130Y-1473530D1*
X-621290Y-1477340D1*
X-617190Y-1481150D1*
X-612202Y-1484960D1*
X-605787Y-1488770D1*
X-598460Y-1492580D1*
X30794Y776344D2*
X25196Y772534D1*
X20001Y768724D1*
X14459Y764914D1*
X7789Y761104D1*
X314Y757294D1*
X61274Y776344D2*
X66828Y772534D1*
X71598Y768724D1*
X75461Y764914D1*
X78456Y761104D1*
X80754Y757294D1*
X82390Y753484D1*
X83337Y749674D1*
X83802Y745864D1*
X84005Y742054D1*
X84086Y738244D1*
X84117Y734434D1*
X84128Y730624D1*
X84132Y726814D1*
X84134Y723004D1*
X-37786Y768724D2*
X-43210Y764914D1*
X-47611Y761104D1*
X-50912Y757294D1*
X-53371Y753484D1*
X-55203Y749674D1*
X-56660Y745864D1*
X-58046Y742054D1*
X-59229Y738244D1*
X-59976Y734434D1*
X-60361Y730624D1*
X-60533Y726814D1*
X-60604Y723004D1*
X-60631Y719194D1*
X-60641Y715384D1*
X-60644Y711574D1*
X-60645Y707764D1*
X-60646Y703954D1*
Y700144D1*
Y696334D1*
Y692524D1*
Y688714D1*
Y684904D1*
Y681094D1*
Y677284D1*
Y673474D1*
X-7306Y768724D2*
X-2095Y764914D1*
X4389Y761104D1*
X11744Y757294D1*
X38414Y742054D2*
X35353Y738244D1*
X33124Y734434D1*
X31844Y730624D1*
X31196Y726814D1*
X30794Y723004D1*
X46034Y742054D2*
Y738244D1*
Y734434D1*
Y730624D1*
Y726814D1*
Y723004D1*
X-14926Y734434D2*
X-17972Y730624D1*
X-20503Y726814D1*
X-21228Y723004D1*
X-19914Y719194D1*
X-17655Y715384D1*
X-14926Y711574D1*
X-3496Y734434D2*
Y730624D1*
Y726814D1*
Y723004D1*
X84134Y711574D2*
Y707764D1*
Y703954D1*
Y700144D1*
Y696334D1*
Y692524D1*
Y688714D1*
Y684904D1*
Y681094D1*
Y677284D1*
Y673474D1*
X-60646Y612514D2*
Y608704D1*
Y604894D1*
Y601084D1*
Y597274D1*
Y593464D1*
Y589654D1*
Y585844D1*
Y582034D1*
Y578224D1*
Y574414D1*
X84134Y612514D2*
Y608704D1*
Y604894D1*
Y601084D1*
Y597274D1*
Y593464D1*
Y589654D1*
Y585844D1*
Y582034D1*
Y578224D1*
Y574414D1*
X-60646Y521074D2*
X-61948Y517264D1*
X-63082Y513454D1*
X-63790Y509644D1*
X-64029Y505834D1*
X-63712Y502024D1*
X-62853Y498214D1*
X-61769Y494404D1*
X-60613Y490594D1*
X-59202Y486784D1*
X-57430Y482974D1*
X-55153Y479164D1*
X-52235Y475354D1*
X-48712Y471544D1*
X-44322Y467734D1*
X-38470Y463924D1*
X-30952Y460114D1*
X-22546Y456304D1*
Y521074D2*
X-23725Y517264D1*
X-24302Y513454D1*
X-18695Y509644D1*
X-10159Y505834D1*
X314Y502024D1*
X23174Y517264D2*
X14473Y513454D1*
X4532Y509644D1*
X-8102Y505834D1*
X-22546Y502024D1*
X53654Y517264D2*
X60525Y513454D1*
X66563Y509644D1*
X71635Y505834D1*
X75929Y502024D1*
X79507Y498214D1*
X82362Y494404D1*
X84601Y490594D1*
X86213Y486784D1*
X87151Y482974D1*
X87613Y479164D1*
X87815Y475354D1*
X87897Y471544D1*
X87927Y467734D1*
X87923Y463924D1*
X87782Y460114D1*
X87195Y456304D1*
X85893Y452494D1*
X84134Y448684D1*
X34604Y471544D2*
X26828Y467734D1*
X18616Y463924D1*
X9693Y460114D1*
X314Y456304D1*
X42224Y471544D2*
X45285Y467734D1*
X47499Y463924D1*
X48987Y460114D1*
X48750Y456304D1*
X47658Y452494D1*
X46034Y448684D1*
X-60646Y429634D2*
Y425824D1*
Y422014D1*
Y418204D1*
Y414394D1*
Y410584D1*
Y406774D1*
Y402964D1*
Y399154D1*
Y395344D1*
Y391534D1*
Y387724D1*
Y383914D1*
X-60631Y380104D1*
X-60467Y376294D1*
X-60066Y372484D1*
X-58138Y368674D1*
X-53446Y364864D1*
X-47112Y361054D1*
X-39305Y357244D1*
X-30590Y353434D1*
X-21523Y349624D1*
X-12493Y345814D1*
X-3581Y342004D1*
X5366Y338194D1*
X14158Y334384D1*
X22578Y330574D1*
X30794Y326764D1*
X84134Y429634D2*
Y425824D1*
Y422014D1*
Y418204D1*
Y414394D1*
Y410584D1*
Y406774D1*
Y402964D1*
Y399154D1*
Y395344D1*
Y391534D1*
X-30166D2*
X-22691Y387724D1*
X-15545Y383914D1*
X-8693Y380104D1*
X-1471Y376294D1*
X6729Y372484D1*
X15554Y368674D1*
X11744Y376294D2*
X9958Y372484D1*
X7934Y368674D1*
X38414Y376294D2*
Y372484D1*
Y368674D1*
Y364864D1*
Y361054D1*
Y357244D1*
Y353434D1*
Y349624D1*
Y345814D1*
Y342004D1*
Y338194D1*
Y334384D1*
Y330574D1*
Y326764D1*
X-26356Y300094D2*
X-33227Y296284D1*
X-39265Y292474D1*
X-44337Y288664D1*
X-48631Y284854D1*
X-52209Y281044D1*
X-55064Y277234D1*
X-57317Y273424D1*
X-59064Y269614D1*
X-60488Y265804D1*
X-61862Y261994D1*
X-63041Y258184D1*
X-63772Y254374D1*
X-64022Y250564D1*
X-63709Y246754D1*
X-62867Y242944D1*
X-61902Y239134D1*
X-61099Y235324D1*
X-60115Y231514D1*
X-58407Y227704D1*
X-55817Y223894D1*
X-52588Y220084D1*
X-48889Y216274D1*
X-44549Y212464D1*
X-39244Y208654D1*
X-33012Y204844D1*
X-26356Y201034D1*
X53654Y300094D2*
X60525Y296284D1*
X66563Y292474D1*
X71635Y288664D1*
X75929Y284854D1*
X79507Y281044D1*
X82362Y277234D1*
X84601Y273424D1*
X86213Y269614D1*
X87151Y265804D1*
X87613Y261994D1*
X87815Y258184D1*
X87897Y254374D1*
X87927Y250564D1*
X87938Y246754D1*
X87927Y242944D1*
X87795Y239134D1*
X87295Y235324D1*
X86233Y231514D1*
X84622Y227704D1*
X82411Y223894D1*
X79519Y220084D1*
X76020Y216274D1*
X71778Y212464D1*
X66516Y208654D1*
X60301Y204844D1*
X53654Y201034D1*
X-22546Y261994D2*
X-23246Y258184D1*
X-24583Y254374D1*
X-26356Y250564D1*
X-24583Y246754D1*
X-23406Y242944D1*
X-22546Y239134D1*
X49844Y261994D2*
Y258184D1*
Y254374D1*
Y250564D1*
Y246754D1*
Y242944D1*
Y239134D1*
X-33976Y174364D2*
X-40847Y170554D1*
X-46871Y166744D1*
X-51808Y162934D1*
X-55617Y159124D1*
X-58282Y155314D1*
X-60160Y151504D1*
X-61734Y147694D1*
X-62994Y143884D1*
X-63755Y140074D1*
X-64016Y136264D1*
X-63707Y132454D1*
X-62852Y128644D1*
X-61768Y124834D1*
X-60613Y121024D1*
X-59187Y117214D1*
X-57282Y113404D1*
X-54516Y109594D1*
X-50671Y105784D1*
X-46201Y101974D1*
X-41596Y98164D1*
X-47020Y94354D1*
X-51421Y90544D1*
X-54737Y86734D1*
X-57315Y82924D1*
X-59499Y79114D1*
X-61382Y75304D1*
X-62833Y71494D1*
X-63689Y67684D1*
X-63991Y63874D1*
X-63698Y60064D1*
X-62848Y56254D1*
X-61752Y52444D1*
X-60479Y48634D1*
X-58702Y44824D1*
X-56369Y41014D1*
X-53512Y37204D1*
X-49718Y33394D1*
X-44509Y29584D1*
X-37783Y25774D1*
X-30166Y21964D1*
X84134Y174364D2*
Y170554D1*
Y166744D1*
Y162934D1*
Y159124D1*
Y155314D1*
Y151504D1*
Y147694D1*
Y143884D1*
Y140074D1*
Y136264D1*
Y132454D1*
X-30166D2*
X-26356Y128644D1*
X-22546Y124834D1*
X-18736Y121024D1*
X-14926Y117214D1*
X84134D2*
Y113404D1*
Y109594D1*
Y105784D1*
Y101974D1*
Y98164D1*
Y94354D1*
Y90544D1*
Y86734D1*
Y82924D1*
Y79114D1*
X-18736D2*
X-22546Y75304D1*
X-26356Y71494D1*
X-22546Y67684D1*
X-18736Y63874D1*
X84134D2*
Y60064D1*
Y56254D1*
Y52444D1*
Y48634D1*
Y44824D1*
Y41014D1*
Y37204D1*
Y33394D1*
Y29584D1*
Y25774D1*
Y21964D1*
X-60646Y-896D2*
Y-4706D1*
Y-8516D1*
Y-12326D1*
Y-16136D1*
Y-19946D1*
Y-23756D1*
Y-27566D1*
Y-31376D1*
Y-35186D1*
Y-38996D1*
Y-42806D1*
Y-46616D1*
X-60631Y-50426D1*
X-60467Y-54236D1*
X-60066Y-58046D1*
X-58138Y-61856D1*
X-53446Y-65666D1*
X-47112Y-69476D1*
X-39305Y-73286D1*
X-30590Y-77096D1*
X-21523Y-80906D1*
X-12493Y-84716D1*
X-3581Y-88526D1*
X5366Y-92336D1*
X14158Y-96146D1*
X22578Y-99956D1*
X30794Y-103766D1*
X84134Y-896D2*
Y-4706D1*
Y-8516D1*
Y-12326D1*
Y-16136D1*
Y-19946D1*
Y-23756D1*
Y-27566D1*
Y-31376D1*
Y-35186D1*
Y-38996D1*
X-30166D2*
X-22691Y-42806D1*
X-15545Y-46616D1*
X-8693Y-50426D1*
X-1471Y-54236D1*
X6729Y-58046D1*
X15554Y-61856D1*
X11744Y-54236D2*
X9958Y-58046D1*
X7934Y-61856D1*
X38414Y-54236D2*
Y-58046D1*
Y-61856D1*
Y-65666D1*
Y-69476D1*
Y-73286D1*
Y-77096D1*
Y-80906D1*
Y-84716D1*
Y-88526D1*
Y-92336D1*
Y-96146D1*
Y-99956D1*
Y-103766D1*
X30794Y-122816D2*
X22179Y-126626D1*
X15195Y-130436D1*
X10190Y-134246D1*
X6502Y-138056D1*
X5269Y-141866D1*
X4608Y-145676D1*
X4312Y-149486D1*
X4193Y-153296D1*
X4148Y-157106D1*
X4132Y-160916D1*
X4127Y-164726D1*
X4125Y-168536D1*
X4124Y-172346D1*
Y-176156D1*
X49844Y-122816D2*
X57745Y-126626D1*
X64554Y-130436D1*
X69973Y-134246D1*
X74014Y-138056D1*
X77266Y-141866D1*
X80148Y-145676D1*
X82638Y-149486D1*
X84710Y-153296D1*
X86254Y-157106D1*
X87166Y-160916D1*
X87618Y-164726D1*
X87817Y-168536D1*
X87897Y-172346D1*
X87927Y-176156D1*
X87938Y-179966D1*
X87927Y-183776D1*
X87795Y-187586D1*
X87309Y-191396D1*
X86382Y-195206D1*
X85257Y-199016D1*
X83973Y-202826D1*
X82206Y-206636D1*
X80007Y-210446D1*
X77664Y-214256D1*
X75074Y-218066D1*
X72011Y-221876D1*
X68442Y-225686D1*
X64172Y-229496D1*
X58887Y-233306D1*
X52584Y-237116D1*
X45626Y-240926D1*
X38414Y-244736D1*
X-60646Y-153296D2*
X-61235Y-157106D1*
X-62179Y-160916D1*
X-63166Y-164726D1*
X-63833Y-168536D1*
X-64172Y-172346D1*
X-64200Y-176156D1*
X-63782Y-179966D1*
X-62895Y-183776D1*
X-61912Y-187586D1*
X-61117Y-191396D1*
X-60265Y-195206D1*
X-59057Y-199016D1*
X-57513Y-202826D1*
X-55761Y-206636D1*
X-53788Y-210446D1*
X-51411Y-214256D1*
X-48466Y-218066D1*
X-45090Y-221876D1*
X-41458Y-225686D1*
X-37562Y-229496D1*
X-33003Y-233306D1*
X-27081Y-237116D1*
X-19536Y-240926D1*
X-11116Y-244736D1*
X-18736Y-153296D2*
X-20640Y-157106D1*
X-22208Y-160916D1*
X-23541Y-164726D1*
X-24608Y-168536D1*
X-24197Y-172346D1*
X-23415Y-176156D1*
X-22410Y-179966D1*
X-21048Y-183776D1*
X-19138Y-187586D1*
X-16694Y-191396D1*
X-10533Y-195206D1*
X-643Y-199016D1*
X13798Y-202826D1*
X30794Y-206636D1*
X42224Y-157106D2*
X39163Y-160916D1*
X36934Y-164726D1*
X35654Y-168536D1*
X35006Y-172346D1*
X34604Y-176156D1*
X42224Y-157106D2*
X45285Y-160916D1*
X47513Y-164726D1*
X48789Y-168536D1*
X49393Y-172346D1*
X49512Y-176156D1*
X48984Y-179966D1*
X47477Y-183776D1*
X44938Y-187586D1*
X41398Y-191396D1*
X36010Y-195206D1*
X26886Y-199016D1*
X13034Y-202826D1*
X-3496Y-206636D1*
X-22546Y-267596D2*
X-31176Y-271406D1*
X-38308Y-275216D1*
X-43933Y-279026D1*
X-48474Y-282836D1*
X-52150Y-286646D1*
X-55043Y-290456D1*
X-57310Y-294266D1*
X-59062Y-298076D1*
X-60487Y-301886D1*
X-61862Y-305696D1*
X-63041Y-309506D1*
X-63772Y-313316D1*
X-64022Y-317126D1*
X-63709Y-320936D1*
X-62852Y-324746D1*
X-61769Y-328556D1*
X-60613Y-332366D1*
X-59202Y-336176D1*
X-57430Y-339986D1*
X-55153Y-343796D1*
X-52250Y-347606D1*
X-48861Y-351416D1*
X-44959Y-355226D1*
X-40052Y-359036D1*
X-33668Y-362846D1*
X-26356Y-366656D1*
X-3496Y-267596D2*
X5883Y-271406D1*
X14612Y-275216D1*
X22931Y-279026D1*
X31385Y-282836D1*
X40410Y-286646D1*
X49844Y-290456D1*
X46034Y-267596D2*
Y-271406D1*
X46019Y-275216D1*
X45874Y-279026D1*
X45285Y-282836D1*
X43983Y-286646D1*
X42224Y-290456D1*
X84134Y-267596D2*
Y-271406D1*
Y-275216D1*
Y-279026D1*
Y-282836D1*
Y-286646D1*
Y-290456D1*
Y-294266D1*
Y-298076D1*
Y-301886D1*
Y-305696D1*
Y-309506D1*
Y-313316D1*
Y-317126D1*
Y-320936D1*
Y-324746D1*
Y-328556D1*
Y-332366D1*
Y-336176D1*
Y-339986D1*
Y-343796D1*
Y-347606D1*
Y-351416D1*
Y-355226D1*
X-18736Y-309506D2*
X-21637Y-313316D1*
X-23852Y-317126D1*
X-24287Y-320936D1*
X-19389Y-324746D1*
X-12194Y-328556D1*
X-3496Y-332366D1*
X-11116Y-309506D2*
X-3496Y-313316D1*
X4124Y-317126D1*
X11744Y-320936D1*
X19364Y-324746D1*
X26984Y-328556D1*
X34604Y-332366D1*
X42224Y-336176D1*
X49844Y-339986D1*
X57464Y-343796D1*
X65084Y-347606D1*
X72704Y-351416D1*
X80324Y-355226D1*
X-3496Y-328556D2*
X-7306Y-332366D1*
X4124Y-328556D2*
X9985Y-332366D1*
X16507Y-336176D1*
X23545Y-339986D1*
X30794Y-343796D1*
X28272Y-347606D1*
X25447Y-351416D1*
X21726Y-355226D1*
X16756Y-359036D1*
X10685Y-362846D1*
X4124Y-366656D1*
X7934Y-381896D2*
Y-385706D1*
Y-389516D1*
Y-393326D1*
Y-397136D1*
Y-400946D1*
Y-404756D1*
Y-408566D1*
Y-412376D1*
Y-416186D1*
Y-419996D1*
Y-423806D1*
Y-427616D1*
X34604Y-381896D2*
Y-385706D1*
Y-389516D1*
Y-393326D1*
Y-397136D1*
Y-400946D1*
Y-404756D1*
Y-408566D1*
Y-412376D1*
Y-416186D1*
Y-419996D1*
Y-423806D1*
Y-427616D1*
X26984Y-454286D2*
X19657Y-458096D1*
X13613Y-461906D1*
X8261Y-465716D1*
X2192Y-469526D1*
X-5730Y-473336D1*
X-14926Y-477146D1*
X49844Y-454286D2*
X58474Y-458096D1*
X65592Y-461906D1*
X71097Y-465716D1*
X75271Y-469526D1*
X78402Y-473336D1*
X80879Y-477146D1*
X83017Y-480956D1*
X84881Y-484766D1*
X86324Y-488576D1*
X87193Y-492386D1*
X87628Y-496196D1*
X87820Y-500006D1*
X87898Y-503816D1*
X87928Y-507626D1*
X87938Y-511436D1*
X87927Y-515246D1*
X87783Y-519056D1*
X87195Y-522866D1*
X85893Y-526676D1*
X84134Y-530486D1*
X-60646Y-458096D2*
Y-461906D1*
Y-465716D1*
Y-469526D1*
Y-473336D1*
Y-477146D1*
Y-480956D1*
Y-484766D1*
Y-488576D1*
Y-492386D1*
Y-496196D1*
Y-500006D1*
Y-503816D1*
Y-507626D1*
Y-511436D1*
Y-515246D1*
Y-519056D1*
Y-522866D1*
Y-526676D1*
Y-530486D1*
X-53026Y-458096D2*
X-43443Y-461906D1*
X-33657Y-465716D1*
X-22181Y-469526D1*
X-7962Y-473336D1*
X7934Y-477146D1*
X23174Y-496196D2*
X19509Y-500006D1*
X16202Y-503816D1*
X13454Y-507626D1*
X11255Y-511436D1*
X9646Y-515246D1*
X8645Y-519056D1*
X7934Y-522866D1*
X38414Y-496196D2*
X42064Y-500006D1*
X45237Y-503816D1*
X47499Y-507626D1*
X48785Y-511436D1*
X49392Y-515246D1*
X49516Y-519056D1*
X49034Y-522866D1*
X47772Y-526676D1*
X46034Y-530486D1*
X-22546Y-515246D2*
Y-519056D1*
Y-522866D1*
Y-526676D1*
Y-530486D1*
X-18736Y-515246D2*
X-7306Y-519056D1*
X4124Y-522866D1*
X-60646Y-572396D2*
Y-576206D1*
Y-580016D1*
Y-583826D1*
Y-587636D1*
Y-591446D1*
Y-595256D1*
Y-599066D1*
Y-602876D1*
Y-606686D1*
Y-610496D1*
Y-614306D1*
Y-618116D1*
Y-621926D1*
Y-625736D1*
Y-629546D1*
Y-633356D1*
Y-637166D1*
Y-640976D1*
Y-644786D1*
Y-648596D1*
Y-652406D1*
Y-656216D1*
Y-660026D1*
Y-663836D1*
Y-667646D1*
X-49216Y-572396D2*
X-35438Y-576206D1*
X-21955Y-580016D1*
X-8851Y-583826D1*
X3993Y-587636D1*
X16923Y-591446D1*
X30029Y-595256D1*
X43206Y-599066D1*
X56036Y-602876D1*
X67312Y-606686D1*
X76769Y-610496D1*
X81160Y-614306D1*
X82746Y-618116D1*
X83565Y-621926D1*
X83918Y-625736D1*
X84057Y-629546D1*
X84107Y-633356D1*
X84125Y-637166D1*
X84131Y-640976D1*
X84133Y-644786D1*
X84134Y-648596D1*
Y-652406D1*
X-22546Y-621926D2*
Y-625736D1*
Y-629546D1*
Y-633356D1*
Y-637166D1*
Y-640976D1*
Y-644786D1*
Y-648596D1*
Y-652406D1*
Y-656216D1*
Y-660026D1*
Y-663836D1*
Y-667646D1*
X-18736Y-621926D2*
X-7306Y-625736D1*
X4139Y-629546D1*
X15703Y-633356D1*
X27618Y-637166D1*
X39962Y-640976D1*
X52378Y-644786D1*
X64530Y-648596D1*
X76514Y-652406D1*
X-60646Y-694316D2*
Y-698126D1*
Y-701936D1*
Y-705746D1*
Y-709556D1*
Y-713366D1*
Y-717176D1*
Y-720986D1*
Y-724796D1*
X-60631Y-728606D1*
X-60497Y-732416D1*
X-60012Y-736226D1*
X-59084Y-740036D1*
X-57973Y-743846D1*
X-56809Y-747656D1*
X-55394Y-751466D1*
X-53606Y-755276D1*
X-51179Y-759086D1*
X-47643Y-762896D1*
X-42751Y-766706D1*
X-36710Y-770516D1*
X-30166Y-774326D1*
X-22546Y-694316D2*
Y-698126D1*
Y-701936D1*
Y-705746D1*
X-22531Y-709556D1*
X-22397Y-713366D1*
X-21867Y-717176D1*
X-20901Y-720986D1*
X-17861Y-724796D1*
X-13160Y-728606D1*
X-7306Y-732416D1*
X-3496Y-694316D2*
Y-698126D1*
Y-701936D1*
Y-705746D1*
Y-709556D1*
Y-713366D1*
X-3541Y-717176D1*
X-3976Y-720986D1*
X-5014Y-724796D1*
X-9468Y-728606D1*
X-14926Y-732416D1*
X26984Y-694316D2*
Y-698126D1*
Y-701936D1*
Y-705746D1*
Y-709556D1*
X26999Y-713366D1*
X27133Y-717176D1*
X27648Y-720986D1*
X28852Y-724796D1*
X31016Y-728606D1*
X34343Y-732416D1*
X38414Y-736226D1*
X46034Y-694316D2*
Y-698126D1*
Y-701936D1*
Y-705746D1*
Y-709556D1*
Y-713366D1*
X46019Y-717176D1*
X45841Y-720986D1*
X45394Y-724796D1*
X43039Y-728606D1*
X37373Y-732416D1*
X30794Y-736226D1*
X84134Y-694316D2*
Y-698126D1*
Y-701936D1*
Y-705746D1*
Y-709556D1*
Y-713366D1*
Y-717176D1*
Y-720986D1*
Y-724796D1*
Y-728606D1*
Y-732416D1*
X84119Y-736226D1*
X83985Y-740036D1*
X83485Y-743846D1*
X82423Y-747656D1*
X80812Y-751466D1*
X78601Y-755276D1*
X75694Y-759086D1*
X72054Y-762896D1*
X67268Y-766706D1*
X60937Y-770516D1*
X53654Y-774326D1*
X187968Y1150311D2*
D13*
Y1146977D1*
Y1143644D1*
Y1140311D1*
Y1136977D1*
Y1133644D1*
Y1130311D1*
Y1126977D1*
Y1123644D1*
Y1120311D1*
Y1116977D1*
Y1113644D1*
Y1110311D1*
Y1106977D1*
Y1103644D1*
Y1100311D1*
Y1096977D1*
Y1093644D1*
Y1090311D1*
Y1086977D1*
Y1083644D1*
Y1080311D1*
Y1076977D1*
Y1073644D1*
Y1070311D1*
Y1066977D1*
Y1063644D1*
Y1060311D1*
Y1056977D1*
X214635Y1150311D2*
Y1146977D1*
Y1143644D1*
Y1140311D1*
Y1136977D1*
Y1133644D1*
Y1130311D1*
Y1126977D1*
Y1123644D1*
Y1120311D1*
Y1116977D1*
Y1113644D1*
Y1110311D1*
Y1106977D1*
Y1103644D1*
Y1100311D1*
Y1096977D1*
Y1093644D1*
Y1090311D1*
Y1086977D1*
Y1083644D1*
Y1080311D1*
Y1076977D1*
Y1073644D1*
Y1070311D1*
Y1066977D1*
Y1063644D1*
Y1060311D1*
Y1056977D1*
X261301Y1150311D2*
X255303Y1146977D1*
X250137Y1143644D1*
X246125Y1140311D1*
X243179Y1136977D1*
X241021Y1133644D1*
X239529Y1130311D1*
X238678Y1126977D1*
X238263Y1123644D1*
X238083Y1120311D1*
X238010Y1116977D1*
X237983Y1113644D1*
X237973Y1110311D1*
X237970Y1106977D1*
X237969Y1103644D1*
X237968Y1100311D1*
Y1096977D1*
Y1093644D1*
Y1090311D1*
Y1086977D1*
Y1083644D1*
Y1080311D1*
Y1076977D1*
Y1073644D1*
Y1070311D1*
Y1066977D1*
Y1063644D1*
Y1060311D1*
Y1056977D1*
X284635Y1150311D2*
X289507Y1146977D1*
X293784Y1143644D1*
X297472Y1140311D1*
X300478Y1136977D1*
X302662Y1133644D1*
X304245Y1130311D1*
X305600Y1126977D1*
X306680Y1123644D1*
X307239Y1120311D1*
X307159Y1116977D1*
X306502Y1113644D1*
X305580Y1110311D1*
X304467Y1106977D1*
X302800Y1103644D1*
X300327Y1100311D1*
X296966Y1096977D1*
X292714Y1093644D1*
X287968Y1090311D1*
X307968Y1150311D2*
X310773Y1146977D1*
X313163Y1143644D1*
X315195Y1140311D1*
X317029Y1136977D1*
X318760Y1133644D1*
X320455Y1130311D1*
X322129Y1126977D1*
X323801Y1123644D1*
X325466Y1120311D1*
X327136Y1116977D1*
X328810Y1113644D1*
X330566Y1110311D1*
X332511Y1106977D1*
X334635Y1103644D1*
X332568Y1100311D1*
X330667Y1096977D1*
X328882Y1093644D1*
X327154Y1090311D1*
X325361Y1086977D1*
X323369Y1083644D1*
X321219Y1080311D1*
X319177Y1076977D1*
X317303Y1073644D1*
X315534Y1070311D1*
X313818Y1066977D1*
X312046Y1063644D1*
X310095Y1060311D1*
X307968Y1056977D1*
X337968Y1150311D2*
X339234Y1146977D1*
X340667Y1143644D1*
X342225Y1140311D1*
X343931Y1136977D1*
X345855Y1133644D1*
X347968Y1130311D1*
X357968Y1150311D2*
X356815Y1146977D1*
X355680Y1143644D1*
X354367Y1140311D1*
X352628Y1136977D1*
X348870Y1133644D1*
X344635Y1130311D1*
X381301Y1150311D2*
X381174Y1146977D1*
X380734Y1143644D1*
X379818Y1140311D1*
X378525Y1136977D1*
X377015Y1133644D1*
X375310Y1130311D1*
X373351Y1126977D1*
X371213Y1123644D1*
X369175Y1120311D1*
X367303Y1116977D1*
X365560Y1113644D1*
X364089Y1110311D1*
X362940Y1106977D1*
X363355Y1103644D1*
X364332Y1100311D1*
X365677Y1096977D1*
X367214Y1093644D1*
X368828Y1090311D1*
X370479Y1086977D1*
X372137Y1083644D1*
X373804Y1080311D1*
X375467Y1076977D1*
X377123Y1073644D1*
X378670Y1070311D1*
X379901Y1066977D1*
X380653Y1063644D1*
X381049Y1060311D1*
X381301Y1056977D1*
X264635Y1126977D2*
Y1123644D1*
Y1120311D1*
Y1116977D1*
Y1113644D1*
Y1110311D1*
Y1106977D1*
Y1103644D1*
Y1100311D1*
Y1096977D1*
Y1093644D1*
Y1090311D1*
Y1086977D1*
Y1083644D1*
Y1080311D1*
Y1076977D1*
Y1073644D1*
Y1070311D1*
Y1066977D1*
Y1063644D1*
Y1060311D1*
Y1056977D1*
X274635Y1126977D2*
X277968Y1123644D1*
X281301Y1120311D1*
X277484Y1116977D1*
X274116Y1113644D1*
X272687Y1110311D1*
X271899Y1106977D1*
X271538Y1103644D1*
X271389Y1100311D1*
X271333Y1096977D1*
X271312Y1093644D1*
X271301Y1090311D1*
X341301Y1076977D2*
X341174Y1073644D1*
X340734Y1070311D1*
X339808Y1066977D1*
X338429Y1063644D1*
X336658Y1060311D1*
X334635Y1056977D1*
X351301Y1076977D2*
X351829Y1073644D1*
X352773Y1070311D1*
X354064Y1066977D1*
X355476Y1063644D1*
X356796Y1060311D1*
X357968Y1056977D1*
X201540Y-105345D2*
X193296Y-108678D1*
X185291Y-112012D1*
X176593Y-115345D1*
X166285Y-118678D1*
X154873Y-122012D1*
X204873Y-105345D2*
Y-108678D1*
Y-112012D1*
Y-115345D1*
Y-118678D1*
X204834Y-122012D1*
X204444Y-125345D1*
X203506Y-128678D1*
X199027Y-132012D1*
X192642Y-135345D1*
X184532Y-138678D1*
X174031Y-142012D1*
X160391Y-145345D1*
X144873Y-148678D1*
X138207Y-112012D2*
Y-115345D1*
Y-118678D1*
Y-122012D1*
X138233Y-125345D1*
X138493Y-128678D1*
X139118Y-132012D1*
X142241Y-135345D1*
X147255Y-138678D1*
X154915Y-142012D1*
X165659Y-145345D1*
X178207Y-148678D1*
X144873Y-112012D2*
X153378Y-115345D1*
X163554Y-118678D1*
X174873Y-122012D1*
X111540Y-152012D2*
Y-155345D1*
Y-158678D1*
Y-162012D1*
Y-165345D1*
Y-168678D1*
Y-172012D1*
Y-175345D1*
X204873Y-152012D2*
Y-155345D1*
Y-158678D1*
Y-162012D1*
Y-165345D1*
Y-168678D1*
Y-172012D1*
Y-175345D1*
X138207Y-185345D2*
X138220Y-188678D1*
X138337Y-192012D1*
X138775Y-195345D1*
X139690Y-198678D1*
X140983Y-202012D1*
X142506Y-205345D1*
X144368Y-208678D1*
X147125Y-212012D1*
X151554Y-215345D1*
X157759Y-218678D1*
X164873Y-222012D1*
X161540Y-185345D2*
X163656Y-188678D1*
X171989Y-192012D1*
X186410Y-195345D1*
X204873Y-198678D1*
Y-202012D1*
Y-205345D1*
Y-208678D1*
Y-212012D1*
Y-215345D1*
Y-218678D1*
Y-222012D1*
X158207Y-235345D2*
X154249Y-238678D1*
X150763Y-242012D1*
X147791Y-245345D1*
X145257Y-248678D1*
X143322Y-252012D1*
X141854Y-255345D1*
X140547Y-258678D1*
X139471Y-262012D1*
X138815Y-265345D1*
X138590Y-268678D1*
X138861Y-272012D1*
X139610Y-275345D1*
X140558Y-278678D1*
X141569Y-282012D1*
X142803Y-285345D1*
X144366Y-288678D1*
X146489Y-292012D1*
X149583Y-295345D1*
X153863Y-298678D1*
X159148Y-302012D1*
X164873Y-305345D1*
X174873Y-235345D2*
Y-238678D1*
Y-242012D1*
Y-245345D1*
Y-248678D1*
Y-252012D1*
Y-255345D1*
Y-258678D1*
X174821Y-262012D1*
X174665Y-265345D1*
X173103Y-268678D1*
X167907Y-272012D1*
X161540Y-275345D1*
X198207Y-248678D2*
X194886Y-252012D1*
X191683Y-255345D1*
X188905Y-258678D1*
X186912Y-262012D1*
X185643Y-265345D1*
X184388Y-268678D1*
X182664Y-272012D1*
X177490Y-275345D1*
X170154Y-278678D1*
X161540Y-282012D1*
X201540Y-248678D2*
X202680Y-252012D1*
X203672Y-255345D1*
X204304Y-258678D1*
X204630Y-262012D1*
X204777Y-265345D1*
X204838Y-268678D1*
X204848Y-272012D1*
X204739Y-275345D1*
X204304Y-278678D1*
X203376Y-282012D1*
X201967Y-285345D1*
X200032Y-288678D1*
X197502Y-292012D1*
X194445Y-295345D1*
X190773Y-298678D1*
X186373Y-302012D1*
X181540Y-305345D1*
X161540Y-258678D2*
X158989Y-262012D1*
X157012Y-265345D1*
X156957Y-268678D1*
X158439Y-272012D1*
X163026Y-275345D1*
X169930Y-278678D1*
X178207Y-282012D1*
X164873Y-258678D2*
X164925Y-262012D1*
X165082Y-265345D1*
X166644Y-268678D1*
X171839Y-272012D1*
X178207Y-275345D1*
Y-312012D2*
X171522Y-315345D1*
X165232Y-318678D1*
X158600Y-322012D1*
X151540Y-325345D1*
X184873Y-312012D2*
X190758Y-315345D1*
X195600Y-318678D1*
X199121Y-322012D1*
X201586Y-325345D1*
X203219Y-328678D1*
X204128Y-332012D1*
X204566Y-335345D1*
X204755Y-338678D1*
X204830Y-342012D1*
X204859Y-345345D1*
X204873Y-348678D1*
X178207Y-352012D1*
X124873Y-318678D2*
X121680Y-322012D1*
X118891Y-325345D1*
X116795Y-328678D1*
X115245Y-332012D1*
X113902Y-335345D1*
X112813Y-338678D1*
X112138Y-342012D1*
X111794Y-345345D1*
X111640Y-348678D1*
X111577Y-352012D1*
X111553Y-355345D1*
X111545Y-358678D1*
X111542Y-362012D1*
X111540Y-365345D1*
Y-368678D1*
Y-372012D1*
Y-375345D1*
Y-378678D1*
Y-382012D1*
X144873Y-318678D2*
X154665Y-322012D1*
X164873Y-325345D1*
X178207Y-335345D2*
X175528Y-338678D1*
X173566Y-342012D1*
X172374Y-345345D1*
X171540Y-348678D1*
X144873Y-352012D1*
X181540Y-335345D2*
Y-338678D1*
Y-342012D1*
Y-345345D1*
Y-348678D1*
X141540Y-342012D2*
X138861Y-345345D1*
X136900Y-348678D1*
X135707Y-352012D1*
X134873Y-355345D1*
X148207Y-342012D2*
Y-345345D1*
Y-348678D1*
X174873Y-352012D1*
X204873Y-355345D2*
Y-358678D1*
Y-362012D1*
Y-365345D1*
Y-368678D1*
Y-372012D1*
Y-375345D1*
Y-378678D1*
Y-382012D1*
X138207Y-442012D2*
Y-445345D1*
Y-448678D1*
Y-452012D1*
Y-455345D1*
Y-458678D1*
Y-462012D1*
Y-465345D1*
X214873Y-442012D2*
X219745Y-445345D1*
X224023Y-448678D1*
X227711Y-452012D1*
X230704Y-455345D1*
X232771Y-458678D1*
X233929Y-462012D1*
X234485Y-465345D1*
X234724Y-468678D1*
X234819Y-472012D1*
X234854Y-475345D1*
X234867Y-478678D1*
X234871Y-482012D1*
X234873Y-485345D1*
Y-488678D1*
Y-492012D1*
X181540Y-465345D2*
Y-468678D1*
Y-472012D1*
Y-475345D1*
Y-478678D1*
X198207Y-465345D2*
X200885Y-468678D1*
X202834Y-472012D1*
X203951Y-475345D1*
X204479Y-478678D1*
X204596Y-482012D1*
X204251Y-485345D1*
X203345Y-488678D1*
X201821Y-492012D1*
X199385Y-495345D1*
X195789Y-498678D1*
X191540Y-502012D1*
X208207Y-465345D2*
X211400Y-468678D1*
X214176Y-472012D1*
X216155Y-475345D1*
X217280Y-478678D1*
X217824Y-482012D1*
X218060Y-485345D1*
X218156Y-488678D1*
X218207Y-492012D1*
X138207Y-478678D2*
Y-482012D1*
Y-485345D1*
Y-488678D1*
Y-492012D1*
Y-495345D1*
Y-498678D1*
Y-502012D1*
X161540Y-515345D2*
X156668Y-518678D1*
X152390Y-522012D1*
X148703Y-525345D1*
X145697Y-528678D1*
X143512Y-532012D1*
X141929Y-535345D1*
X140575Y-538678D1*
X139481Y-542012D1*
X138805Y-545345D1*
X138460Y-548678D1*
X138300Y-552012D1*
X138207Y-555345D1*
X168207Y-558678D1*
X184873Y-515345D2*
X189732Y-518678D1*
X193906Y-522012D1*
X197286Y-525345D1*
X199905Y-528678D1*
X201916Y-532012D1*
X203348Y-535345D1*
X204176Y-538678D1*
X204582Y-542012D1*
X204760Y-545345D1*
X204832Y-548678D1*
X204859Y-552012D1*
X204855Y-555345D1*
X204741Y-558678D1*
X204305Y-562012D1*
X203377Y-565345D1*
X201954Y-568678D1*
X199889Y-572012D1*
X196818Y-575345D1*
X192546Y-578678D1*
X187264Y-582012D1*
X181540Y-585345D1*
X164873Y-538678D2*
X164371Y-542012D1*
X163671Y-545345D1*
X163021Y-548678D1*
X163747Y-552012D1*
X164873Y-555345D1*
X138207Y-558678D1*
X174873Y-538678D2*
X177552Y-542012D1*
X179488Y-545345D1*
X180790Y-548678D1*
X180828Y-552012D1*
X179446Y-555345D1*
X177341Y-558678D1*
X174873Y-562012D1*
X111540D2*
Y-565345D1*
Y-568678D1*
Y-572012D1*
Y-575345D1*
Y-578678D1*
Y-582012D1*
Y-585345D1*
X-563348Y-38605D2*
D12*
Y-42415D1*
Y-46225D1*
Y-50035D1*
Y-53845D1*
Y-57655D1*
Y-61465D1*
Y-65275D1*
Y-69085D1*
Y-72895D1*
Y-76705D1*
Y-80515D1*
Y-84325D1*
X-563333Y-88135D1*
X-563199Y-91945D1*
X-562714Y-95755D1*
X-561801Y-99565D1*
X-560809Y-103375D1*
X-560011Y-107185D1*
X-559157Y-110995D1*
X-557949Y-114805D1*
X-556405Y-118615D1*
X-554653Y-122425D1*
X-552665Y-126235D1*
X-550140Y-130045D1*
X-546545Y-133855D1*
X-541478Y-137665D1*
X-534751Y-141475D1*
X-526560Y-145285D1*
X-517628Y-149095D1*
X-510008Y-38605D2*
Y-42415D1*
Y-46225D1*
Y-50035D1*
Y-53845D1*
Y-57655D1*
Y-61465D1*
X-509993Y-65275D1*
X-509859Y-69085D1*
X-509359Y-72895D1*
X-508268Y-76705D1*
X-506367Y-80515D1*
X-503707Y-84325D1*
X-497753Y-88135D1*
X-490958Y-91945D1*
X-422378Y-38605D2*
Y-42415D1*
Y-46225D1*
Y-50035D1*
Y-53845D1*
Y-57655D1*
Y-61465D1*
Y-65275D1*
Y-69085D1*
Y-72895D1*
X-422393Y-76705D1*
X-422571Y-80515D1*
X-423018Y-84325D1*
X-425373Y-88135D1*
X-431039Y-91945D1*
X-437618Y-95755D1*
X-369038Y-38605D2*
Y-42415D1*
Y-46225D1*
Y-50035D1*
Y-53845D1*
Y-57655D1*
Y-61465D1*
Y-65275D1*
Y-69085D1*
Y-72895D1*
Y-76705D1*
Y-80515D1*
Y-84325D1*
Y-88135D1*
Y-91945D1*
X-369053Y-95755D1*
X-369187Y-99565D1*
X-369672Y-103375D1*
X-370600Y-107185D1*
X-371711Y-110995D1*
X-372875Y-114805D1*
X-374290Y-118615D1*
X-376063Y-122425D1*
X-378341Y-126235D1*
X-381259Y-130045D1*
X-384797Y-133855D1*
X-389332Y-137665D1*
X-395773Y-141475D1*
X-404593Y-145285D1*
X-414758Y-149095D1*
X-487148Y-42415D2*
Y-46225D1*
Y-50035D1*
Y-53845D1*
Y-57655D1*
Y-61465D1*
Y-65275D1*
Y-69085D1*
X-487163Y-72895D1*
X-487341Y-76705D1*
X-487788Y-80515D1*
X-490143Y-84325D1*
X-495809Y-88135D1*
X-502388Y-91945D1*
X-445238Y-42415D2*
Y-46225D1*
Y-50035D1*
Y-53845D1*
Y-57655D1*
Y-61465D1*
Y-65275D1*
X-445223Y-69085D1*
X-445089Y-72895D1*
X-444589Y-76705D1*
X-443498Y-80515D1*
X-441597Y-84325D1*
X-438937Y-88135D1*
X-432983Y-91945D1*
X-426188Y-95755D1*
X-563348Y-168145D2*
Y-171955D1*
Y-175765D1*
Y-179575D1*
Y-183385D1*
Y-187195D1*
Y-191005D1*
Y-194815D1*
Y-198625D1*
Y-202435D1*
Y-206245D1*
Y-210055D1*
Y-213865D1*
Y-217675D1*
Y-221485D1*
Y-225295D1*
Y-229105D1*
Y-232915D1*
Y-236725D1*
Y-240535D1*
Y-244345D1*
Y-248155D1*
Y-251965D1*
Y-255775D1*
Y-259585D1*
Y-263395D1*
Y-267205D1*
Y-271015D1*
Y-274825D1*
Y-278635D1*
Y-282445D1*
Y-286255D1*
Y-290065D1*
Y-293875D1*
Y-297685D1*
Y-301495D1*
Y-305305D1*
Y-309115D1*
Y-312925D1*
Y-316735D1*
Y-320545D1*
Y-324355D1*
Y-328165D1*
Y-331975D1*
Y-335785D1*
Y-339595D1*
Y-343405D1*
Y-347215D1*
Y-351025D1*
X-563318Y-354835D1*
X-563035Y-358645D1*
X-562366Y-362455D1*
X-559424Y-366265D1*
X-555335Y-370075D1*
X-550414Y-373885D1*
X-545037Y-377695D1*
X-539448Y-381505D1*
X-533681Y-385315D1*
X-527666Y-389125D1*
X-521438Y-392935D1*
X-526710Y-396745D1*
X-532277Y-400555D1*
X-538223Y-404365D1*
X-544414Y-408175D1*
X-550371Y-411985D1*
X-555546Y-415795D1*
X-559905Y-419605D1*
X-561660Y-423415D1*
X-562623Y-427225D1*
X-563062Y-431035D1*
X-563242Y-434845D1*
X-563310Y-438655D1*
X-563335Y-442465D1*
X-563344Y-446275D1*
X-563347Y-450085D1*
X-563348Y-453895D1*
Y-457705D1*
Y-461515D1*
Y-465325D1*
Y-469135D1*
Y-472945D1*
X-510008Y-168145D2*
Y-171955D1*
Y-175765D1*
Y-179575D1*
Y-183385D1*
Y-187195D1*
Y-191005D1*
Y-194815D1*
Y-198625D1*
Y-202435D1*
Y-206245D1*
Y-210055D1*
Y-213865D1*
X-369038D2*
Y-217675D1*
Y-221485D1*
Y-225295D1*
Y-229105D1*
Y-232915D1*
Y-236725D1*
Y-240535D1*
Y-244345D1*
Y-248155D1*
Y-251965D1*
Y-255775D1*
Y-259585D1*
Y-263395D1*
Y-267205D1*
Y-271015D1*
X-510008D2*
Y-274825D1*
Y-278635D1*
Y-282445D1*
Y-286255D1*
Y-290065D1*
Y-293875D1*
Y-297685D1*
Y-301495D1*
Y-305305D1*
Y-309115D1*
Y-312925D1*
X-551918Y-316735D1*
X-545746Y-320545D1*
X-539748Y-324355D1*
X-533778Y-328165D1*
X-527642Y-331975D1*
X-521356Y-335785D1*
X-515204Y-339595D1*
X-509250Y-343405D1*
X-503417Y-347215D1*
X-497642Y-351025D1*
X-491772Y-354835D1*
X-485563Y-358645D1*
X-478861Y-362455D1*
X-471908Y-366265D1*
X-369038D2*
Y-370075D1*
Y-373885D1*
Y-377695D1*
Y-381505D1*
Y-385315D1*
Y-389125D1*
Y-392935D1*
Y-396745D1*
Y-400555D1*
Y-404365D1*
Y-408175D1*
Y-411985D1*
Y-415795D1*
Y-419605D1*
X-475718D2*
X-480132Y-423415D1*
X-485035Y-427225D1*
X-490451Y-431035D1*
X-496341Y-434845D1*
X-502529Y-438655D1*
X-508642Y-442465D1*
X-514583Y-446275D1*
X-520411Y-450085D1*
X-526170Y-453895D1*
X-531907Y-457705D1*
X-537637Y-461515D1*
X-543457Y-465325D1*
X-549490Y-469135D1*
X-555728Y-472945D1*
X-445238Y-476755D2*
X-450807Y-480565D1*
X-455696Y-484375D1*
X-459941Y-488185D1*
X-463653Y-491995D1*
X-467207Y-495805D1*
X-471224Y-499615D1*
X-475718Y-503425D1*
X-403328Y-476755D2*
X-396457Y-480565D1*
X-390433Y-484375D1*
X-385481Y-488185D1*
X-381553Y-491995D1*
X-378522Y-495805D1*
X-376083Y-499615D1*
X-373958Y-503425D1*
X-372099Y-507235D1*
X-370657Y-511045D1*
X-369789Y-514855D1*
X-369354Y-518665D1*
X-369162Y-522475D1*
X-369084Y-526285D1*
X-369054Y-530095D1*
X-369044Y-533905D1*
X-369040Y-537715D1*
X-369039Y-541525D1*
X-369038Y-545335D1*
Y-549145D1*
X-529058Y-484375D2*
X-535914Y-488185D1*
X-541819Y-491995D1*
X-546404Y-495805D1*
X-549787Y-499615D1*
X-552387Y-503425D1*
X-554578Y-507235D1*
X-556463Y-511045D1*
X-557914Y-514855D1*
X-558800Y-518665D1*
X-559370Y-522475D1*
X-560049Y-526285D1*
X-561039Y-530095D1*
X-562046Y-533905D1*
X-562721Y-537715D1*
X-563078Y-541525D1*
X-563241Y-545335D1*
X-563308Y-549145D1*
X-563334Y-552955D1*
X-563343Y-556765D1*
X-563346Y-560575D1*
X-563347Y-564385D1*
X-563348Y-568195D1*
Y-572005D1*
Y-575815D1*
Y-579625D1*
Y-583435D1*
Y-587245D1*
Y-591055D1*
Y-594865D1*
Y-598675D1*
Y-602485D1*
Y-606295D1*
Y-610105D1*
Y-613915D1*
Y-617725D1*
X-502388Y-484375D2*
X-495487Y-488185D1*
X-489158Y-491995D1*
X-482891Y-495805D1*
X-475828Y-499615D1*
X-468098Y-503425D1*
X-429998Y-522475D2*
X-433204Y-526285D1*
X-435921Y-530095D1*
X-438110Y-533905D1*
X-439706Y-537715D1*
X-440641Y-541525D1*
X-441124Y-545335D1*
X-441428Y-549145D1*
X-422378Y-522475D2*
X-419317Y-526285D1*
X-417089Y-530095D1*
X-415813Y-533905D1*
X-415194Y-537715D1*
X-414926Y-541525D1*
X-414816Y-545335D1*
X-414758Y-549145D1*
X-510008Y-533905D2*
X-510597Y-537715D1*
X-511541Y-541525D1*
X-512528Y-545335D1*
X-513195Y-549145D1*
X-513550Y-552955D1*
X-513718Y-556765D1*
X-513818Y-560575D1*
X-490958Y-533905D2*
X-490366Y-537715D1*
X-489390Y-541525D1*
X-488246Y-545335D1*
X-487148Y-549145D1*
X-369038Y-560575D2*
Y-564385D1*
Y-568195D1*
Y-572005D1*
Y-575815D1*
Y-579625D1*
Y-583435D1*
Y-587245D1*
Y-591055D1*
Y-594865D1*
Y-598675D1*
Y-602485D1*
Y-606295D1*
Y-610105D1*
Y-613915D1*
Y-617725D1*
X-563348Y-655825D2*
Y-659635D1*
Y-663445D1*
Y-667255D1*
Y-671065D1*
Y-674875D1*
Y-678685D1*
Y-682495D1*
Y-686305D1*
Y-690115D1*
Y-693925D1*
Y-697735D1*
Y-701545D1*
X-563333Y-705355D1*
X-563199Y-709165D1*
X-562714Y-712975D1*
X-561801Y-716785D1*
X-560809Y-720595D1*
X-560011Y-724405D1*
X-559157Y-728215D1*
X-557949Y-732025D1*
X-556405Y-735835D1*
X-554653Y-739645D1*
X-552665Y-743455D1*
X-550140Y-747265D1*
X-546545Y-751075D1*
X-541478Y-754885D1*
X-534751Y-758695D1*
X-526560Y-762505D1*
X-517628Y-766315D1*
X-510008Y-655825D2*
Y-659635D1*
Y-663445D1*
Y-667255D1*
Y-671065D1*
Y-674875D1*
Y-678685D1*
X-509993Y-682495D1*
X-509859Y-686305D1*
X-509359Y-690115D1*
X-508268Y-693925D1*
X-506367Y-697735D1*
X-503707Y-701545D1*
X-497753Y-705355D1*
X-490958Y-709165D1*
X-422378Y-655825D2*
Y-659635D1*
Y-663445D1*
Y-667255D1*
Y-671065D1*
Y-674875D1*
Y-678685D1*
Y-682495D1*
Y-686305D1*
Y-690115D1*
X-422393Y-693925D1*
X-422571Y-697735D1*
X-423018Y-701545D1*
X-425373Y-705355D1*
X-431039Y-709165D1*
X-437618Y-712975D1*
X-369038Y-655825D2*
Y-659635D1*
Y-663445D1*
Y-667255D1*
Y-671065D1*
Y-674875D1*
Y-678685D1*
Y-682495D1*
Y-686305D1*
Y-690115D1*
Y-693925D1*
Y-697735D1*
Y-701545D1*
Y-705355D1*
Y-709165D1*
X-369053Y-712975D1*
X-369187Y-716785D1*
X-369672Y-720595D1*
X-370600Y-724405D1*
X-371711Y-728215D1*
X-372875Y-732025D1*
X-374290Y-735835D1*
X-376063Y-739645D1*
X-378341Y-743455D1*
X-381259Y-747265D1*
X-384797Y-751075D1*
X-389332Y-754885D1*
X-395773Y-758695D1*
X-404593Y-762505D1*
X-414758Y-766315D1*
X-487148Y-659635D2*
Y-663445D1*
Y-667255D1*
Y-671065D1*
Y-674875D1*
Y-678685D1*
Y-682495D1*
Y-686305D1*
X-487163Y-690115D1*
X-487341Y-693925D1*
X-487788Y-697735D1*
X-490143Y-701545D1*
X-495809Y-705355D1*
X-502388Y-709165D1*
X-445238Y-659635D2*
Y-663445D1*
Y-667255D1*
Y-671065D1*
Y-674875D1*
Y-678685D1*
Y-682495D1*
X-445223Y-686305D1*
X-445089Y-690115D1*
X-444589Y-693925D1*
X-443498Y-697735D1*
X-441597Y-701545D1*
X-438937Y-705355D1*
X-432983Y-709165D1*
X-426188Y-712975D1*
X771025Y-3146875D2*
D52*
Y-3212491D1*
X738259Y-3179725D2*
X803875D1*
X749499Y-2978887D2*
X791614D1*
X562696Y-2764438D2*
X555452Y-2757110D1*
X544502Y-2753488D1*
X529930D1*
X518980Y-2757110D1*
X511652Y-2764438D1*
Y-2771682D1*
X515359Y-2779010D1*
X518980Y-2782632D1*
X526224Y-2786254D1*
X548124Y-2793582D1*
X555452Y-2797204D1*
X559074Y-2800910D1*
X562696Y-2808154D1*
Y-2819104D1*
X555452Y-2826348D1*
X544502Y-2830054D1*
X529930D1*
X518980Y-2826348D1*
X511652Y-2819104D1*
X586226Y-2753488D2*
X604504Y-2830054D1*
X622698Y-2753488D1*
X640891Y-2830054D1*
X659169Y-2753488D1*
X682699D2*
Y-2830054D1*
X708221D1*
X719171Y-2826348D1*
X726499Y-2819104D1*
X730121Y-2811776D1*
X733743Y-2800910D1*
Y-2782632D1*
X730121Y-2771682D1*
X726499Y-2764438D1*
X719171Y-2757110D1*
X708221Y-2753488D1*
X682699D1*
X757272D2*
Y-2830054D1*
X802702Y-2753488D2*
X795373Y-2757110D1*
X788130Y-2764438D1*
X784423Y-2771682D1*
X780802Y-2782632D1*
Y-2800910D1*
X784423Y-2811776D1*
X788130Y-2819104D1*
X795373Y-2826348D1*
X802702Y-2830054D1*
X817273D1*
X824517Y-2826348D1*
X831845Y-2819104D1*
X835467Y-2811776D1*
X839089Y-2800910D1*
Y-2782632D1*
X835467Y-2771682D1*
X831845Y-2764438D1*
X824517Y-2757110D1*
X817273Y-2753488D1*
X802702D1*
X461780Y-2573698D2*
X454536Y-2566370D1*
X443586Y-2562748D1*
X429014D1*
X418064Y-2566370D1*
X410736Y-2573698D1*
Y-2580942D1*
X414442Y-2588270D1*
X418064Y-2591892D1*
X425308Y-2595514D1*
X447208Y-2602842D1*
X454536Y-2606464D1*
X458158Y-2610170D1*
X461780Y-2617414D1*
Y-2628364D1*
X454536Y-2635608D1*
X443586Y-2639314D1*
X429014D1*
X418064Y-2635608D1*
X410736Y-2628364D1*
X485309Y-2562748D2*
X503587Y-2639314D1*
X521781Y-2562748D1*
X539975Y-2639314D1*
X558253Y-2562748D1*
X581782D2*
Y-2639314D1*
X607304D1*
X618254Y-2635608D1*
X625582Y-2628364D1*
X629204Y-2621036D1*
X632826Y-2610170D1*
Y-2591892D1*
X629204Y-2580942D1*
X625582Y-2573698D1*
X618254Y-2566370D1*
X607304Y-2562748D1*
X581782D1*
X711021Y-2580942D2*
X707399Y-2573698D1*
X700071Y-2566370D1*
X692827Y-2562748D1*
X678255D1*
X670927Y-2566370D1*
X663684Y-2573698D1*
X659977Y-2580942D1*
X656355Y-2591892D1*
Y-2610170D1*
X659977Y-2621036D1*
X663684Y-2628364D1*
X670927Y-2635608D1*
X678255Y-2639314D1*
X692827D1*
X700071Y-2635608D1*
X707399Y-2628364D1*
X711021Y-2621036D1*
X734551Y-2562748D2*
Y-2639314D1*
X778266D1*
X801796Y-2562748D2*
Y-2639314D1*
X852840Y-2562748D2*
X801796Y-2613792D1*
X819990Y-2595514D2*
X852840Y-2639314D1*
X778504Y-2314992D2*
Y-2391557D1*
X752982Y-2314992D2*
X804026D1*
X827556D2*
X878599Y-2391557D1*
Y-2314992D2*
X827556Y-2391557D1*
X802899Y-2172820D2*
X835665D1*
X846615Y-2169114D1*
X850321Y-2165492D1*
X853943Y-2158248D1*
Y-2150920D1*
X850321Y-2143676D1*
X846615Y-2139970D1*
X835665Y-2136348D1*
X802899D1*
Y-2212914D1*
X828421Y-2172820D2*
X853943Y-2212914D1*
X877472Y-2136348D2*
X928516Y-2212914D1*
Y-2136348D2*
X877472Y-2212914D1*
M02*
