G04 DipTrace 3.2.0.1*
G04 Верхняямаркировка.gbr*
%MOMM*%
G04 #@! TF.FileFunction,Legend,Top*
G04 #@! TF.Part,Single*
%ADD10C,0.25*%
%ADD12C,0.0762*%
%ADD13C,0.06667*%
%ADD14C,0.05*%
%ADD19C,0.2*%
%ADD22O,0.39127X0.39172*%
%ADD52C,0.11765*%
%FSLAX35Y35*%
G04*
G71*
G90*
G75*
G01*
G04 TopSilk*
%LPD*%
X-617420Y-1846857D2*
D10*
Y-2166537D1*
X-917580Y-1846857D2*
Y-2166537D1*
X1017053Y-513950D2*
Y-384050D1*
D22*
X173180Y-2132999D3*
X149810Y-2260360D2*
D10*
X-150177D1*
Y-2310360D1*
X149810D1*
Y-2260360D1*
X-874944Y1815000D2*
X874944D1*
Y-1054982D1*
X-874944D1*
Y1815000D1*
X-472948Y1293185D2*
Y1719800D1*
X-219912D1*
Y1552903D1*
X9016D1*
Y1718015D1*
X254996D1*
Y1554985D1*
X460012D1*
Y1718015D1*
X717948Y1718907D1*
Y1532970D1*
X716968Y1486857D1*
X674044Y1483882D2*
X760088Y1484775D1*
X-471968Y1720990D2*
X-643076Y1719800D1*
G36*
X-656012D2*
X-607992D1*
Y1263137D1*
X-656012D1*
Y1719800D1*
G37*
X92904Y1286045D2*
D10*
X471968D1*
Y920120D1*
X92904D1*
Y1286045D1*
X141904Y1102041D2*
X142245Y1111888D1*
X143267Y1121687D1*
X144964Y1131391D1*
X147329Y1140951D1*
X150350Y1150322D1*
X154011Y1159458D1*
X158296Y1168314D1*
X163184Y1176847D1*
X168650Y1185015D1*
X174668Y1192780D1*
X181208Y1200102D1*
X188240Y1206946D1*
X195728Y1213280D1*
X203636Y1219071D1*
X211925Y1224293D1*
X220556Y1228918D1*
X229485Y1232926D1*
X238671Y1236296D1*
X248067Y1239012D1*
X257628Y1241060D1*
X267308Y1242432D1*
X277059Y1243119D1*
X286833D1*
X296584Y1242432D1*
X306264Y1241060D1*
X315825Y1239012D1*
X325221Y1236296D1*
X334407Y1232926D1*
X343336Y1228918D1*
X351967Y1224293D1*
X360256Y1219071D1*
X368164Y1213280D1*
X375652Y1206946D1*
X382684Y1200102D1*
X389224Y1192780D1*
X395242Y1185015D1*
X400708Y1176847D1*
X405596Y1168314D1*
X409881Y1159458D1*
X413542Y1150322D1*
X416563Y1140951D1*
X418928Y1131391D1*
X420625Y1121687D1*
X421647Y1111888D1*
X421988Y1102041D1*
X421647Y1092194D1*
X420625Y1082395D1*
X418928Y1072692D1*
X416563Y1063131D1*
X413542Y1053760D1*
X409881Y1044625D1*
X405596Y1035769D1*
X400708Y1027236D1*
X395242Y1019067D1*
X389224Y1011303D1*
X382684Y1003981D1*
X375652Y997136D1*
X368164Y990803D1*
X360256Y985011D1*
X351967Y979790D1*
X343336Y975164D1*
X334407Y971157D1*
X325221Y967787D1*
X315825Y965071D1*
X306264Y963022D1*
X296584Y961651D1*
X286833Y960963D1*
X277059D1*
X267308Y961651D1*
X257628Y963022D1*
X248067Y965071D1*
X238671Y967787D1*
X229485Y971157D1*
X220556Y975164D1*
X211925Y979790D1*
X203636Y985011D1*
X195728Y990803D1*
X188240Y997136D1*
X181208Y1003981D1*
X174668Y1011303D1*
X168650Y1019067D1*
X163184Y1027236D1*
X158296Y1035769D1*
X154011Y1044625D1*
X150350Y1053760D1*
X147329Y1063131D1*
X144964Y1072692D1*
X143267Y1082395D1*
X142245Y1092194D1*
X141904Y1102041D1*
X-1382270Y-588740D2*
D19*
X-1018467D1*
Y-781563D1*
X-1382270D1*
Y-588740D1*
X-1382000Y-353643D2*
X-1030657D1*
Y-545080D1*
X-1382000D1*
Y-353643D1*
X1020360Y-588443D2*
X1384163D1*
Y-781267D1*
X1020360D1*
Y-588443D1*
X1027617Y-352677D2*
X1378960D1*
Y-544113D1*
X1027617D1*
Y-352677D1*
X-178147Y-1595177D2*
X173197D1*
Y-1786613D1*
X-178147D1*
Y-1595177D1*
X-174520Y-1827317D2*
X176823D1*
Y-2018753D1*
X-174520D1*
Y-1827317D1*
X-783723Y-1953640D2*
D14*
X-768723D1*
X-728723D2*
X-718723D1*
X-788522Y-1956140D2*
X-764310D1*
X-732272D2*
X-718723D1*
X-792370Y-1958640D2*
X-760668D1*
X-735072D2*
X-718723D1*
X-795268Y-1961140D2*
X-757940D1*
X-737236D2*
X-718723D1*
X-797394Y-1963640D2*
X-780722D1*
X-771724D2*
X-755773D1*
X-738007D2*
X-718723D1*
X-798967Y-1966140D2*
X-784596D1*
X-767857D2*
X-753949D1*
X-738442D2*
X-731223D1*
X-726223D2*
X-718723D1*
X-800075Y-1968640D2*
X-787605D1*
X-764904D2*
X-752617D1*
X-738723D2*
X-736223D1*
X-726223D2*
X-718723D1*
X-800793Y-1971140D2*
X-789815D1*
X-762833D2*
X-751800D1*
X-726223D2*
X-718723D1*
X-801420Y-1973640D2*
X-791433D1*
X-761223D2*
X-751223D1*
X-726223D2*
X-718723D1*
X-802153Y-1976140D2*
X-792552D1*
X-726223D2*
X-718723D1*
X-802848Y-1978640D2*
X-793191D1*
X-726223D2*
X-718723D1*
X-803304Y-1981140D2*
X-793502D1*
X-726223D2*
X-718723D1*
X-803543Y-1983640D2*
X-793637D1*
X-726223D2*
X-718723D1*
X-803652Y-1986140D2*
X-793692D1*
X-726223D2*
X-718723D1*
X-803697Y-1988640D2*
X-793712D1*
X-726223D2*
X-718723D1*
X-803714Y-1991140D2*
X-793720D1*
X-726223D2*
X-718723D1*
X-803720Y-1993640D2*
X-793722D1*
X-726223D2*
X-718723D1*
X-803712Y-1996140D2*
X-793723D1*
X-726223D2*
X-718723D1*
X-803625Y-1998640D2*
X-793713D1*
X-726223D2*
X-718723D1*
X-803307Y-2001140D2*
X-793626D1*
X-726223D2*
X-718723D1*
X-802708Y-2003640D2*
X-793297D1*
X-726223D2*
X-718723D1*
X-802058Y-2006140D2*
X-792601D1*
X-726223D2*
X-718723D1*
X-801534Y-2008640D2*
X-791534D1*
X-761223D2*
X-751223D1*
X-726223D2*
X-718723D1*
X-800973Y-2011140D2*
X-789956D1*
X-762704D2*
X-751705D1*
X-726223D2*
X-718723D1*
X-800171Y-2013640D2*
X-787867D1*
X-764674D2*
X-752655D1*
X-726223D2*
X-718723D1*
X-799070Y-2016140D2*
X-783129D1*
X-769362D2*
X-754009D1*
X-726223D2*
X-718723D1*
X-797582Y-2018640D2*
X-776510D1*
X-775954D2*
X-755602D1*
X-726223D2*
X-718723D1*
X-795498Y-2021140D2*
X-757701D1*
X-726223D2*
X-718723D1*
X-792526Y-2023640D2*
X-760699D1*
X-726223D2*
X-718723D1*
X-788453Y-2026140D2*
X-764526D1*
X-726223D2*
X-718723D1*
X-783723Y-2028640D2*
X-768723D1*
X-726223D2*
X-718723D1*
X1155803Y-234500D2*
X1190803D1*
X1233303D2*
X1243303D1*
X1155803Y-237000D2*
X1195217D1*
X1229754D2*
X1243303D1*
X1155803Y-239500D2*
X1198849D1*
X1226954D2*
X1243303D1*
X1155803Y-242000D2*
X1201499D1*
X1224790D2*
X1243303D1*
X1155803Y-244500D2*
X1165803D1*
X1187802D2*
X1203435D1*
X1224020D2*
X1243303D1*
X1155803Y-247000D2*
X1165803D1*
X1191667D2*
X1204979D1*
X1223584D2*
X1230803D1*
X1235803D2*
X1243303D1*
X1155803Y-249500D2*
X1165803D1*
X1194588D2*
X1206259D1*
X1223303D2*
X1225803D1*
X1235803D2*
X1243303D1*
X1155803Y-252000D2*
X1165803D1*
X1196807D2*
X1207229D1*
X1235803D2*
X1243303D1*
X1155803Y-254500D2*
X1165803D1*
X1197580D2*
X1207806D1*
X1235803D2*
X1243303D1*
X1155803Y-257000D2*
X1165803D1*
X1197997D2*
X1208095D1*
X1235803D2*
X1243303D1*
X1155803Y-259500D2*
X1165803D1*
X1198184D2*
X1208222D1*
X1235803D2*
X1243303D1*
X1155803Y-262000D2*
X1165803D1*
X1198259D2*
X1208273D1*
X1235803D2*
X1243303D1*
X1155803Y-264500D2*
X1165803D1*
X1198288D2*
X1208293D1*
X1235803D2*
X1243303D1*
X1155803Y-267000D2*
X1165803D1*
X1198298D2*
X1208300D1*
X1235803D2*
X1243303D1*
X1155803Y-269500D2*
X1165803D1*
X1198302D2*
X1208302D1*
X1235803D2*
X1243303D1*
X1155803Y-272000D2*
X1165803D1*
X1198303D2*
X1208303D1*
X1235803D2*
X1243303D1*
X1155803Y-274500D2*
X1165803D1*
X1198303D2*
X1208303D1*
X1235803D2*
X1243303D1*
X1155803Y-277000D2*
X1165803D1*
X1198303D2*
X1208303D1*
X1235803D2*
X1243303D1*
X1155803Y-279500D2*
X1165803D1*
X1198303D2*
X1208303D1*
X1235803D2*
X1243303D1*
X1155803Y-282000D2*
X1165803D1*
X1198303D2*
X1208303D1*
X1235803D2*
X1243303D1*
X1155803Y-284500D2*
X1165803D1*
X1198294D2*
X1208294D1*
X1235803D2*
X1243303D1*
X1155803Y-287000D2*
X1165803D1*
X1198196D2*
X1208206D1*
X1235803D2*
X1243303D1*
X1155803Y-289500D2*
X1165803D1*
X1197770D2*
X1207877D1*
X1235803D2*
X1243303D1*
X1155803Y-292000D2*
X1165803D1*
X1196961D2*
X1207191D1*
X1235803D2*
X1243303D1*
X1155803Y-294500D2*
X1165803D1*
X1194625D2*
X1206221D1*
X1235803D2*
X1243303D1*
X1155803Y-297000D2*
X1165803D1*
X1187777D2*
X1205079D1*
X1235803D2*
X1243303D1*
X1155803Y-299500D2*
X1165803D1*
X1176859D2*
X1203692D1*
X1235803D2*
X1243303D1*
X1155803Y-302000D2*
X1201720D1*
X1235803D2*
X1243303D1*
X1155803Y-304500D2*
X1198784D1*
X1235803D2*
X1243303D1*
X1155803Y-307000D2*
X1194985D1*
X1235803D2*
X1243303D1*
X1155803Y-309500D2*
X1190803D1*
X1235803D2*
X1243303D1*
X-1246983Y-243287D2*
X-1236983D1*
X-1179483D2*
X-1169483D1*
X-1246983Y-245787D2*
X-1236983D1*
X-1183032D2*
X-1169483D1*
X-1246983Y-248287D2*
X-1236983D1*
X-1185832D2*
X-1169483D1*
X-1246983Y-250787D2*
X-1236983D1*
X-1187996D2*
X-1169483D1*
X-1246983Y-253287D2*
X-1236983D1*
X-1188767D2*
X-1169483D1*
X-1246983Y-255787D2*
X-1236983D1*
X-1189202D2*
X-1181983D1*
X-1176983D2*
X-1169483D1*
X-1246983Y-258287D2*
X-1236983D1*
X-1189483D2*
X-1186983D1*
X-1176983D2*
X-1169483D1*
X-1246983Y-260787D2*
X-1236983D1*
X-1176983D2*
X-1169483D1*
X-1246983Y-263287D2*
X-1236983D1*
X-1176983D2*
X-1169483D1*
X-1246983Y-265787D2*
X-1236983D1*
X-1176983D2*
X-1169483D1*
X-1246983Y-268287D2*
X-1236983D1*
X-1176983D2*
X-1169483D1*
X-1246983Y-270787D2*
X-1236983D1*
X-1176983D2*
X-1169483D1*
X-1246983Y-273287D2*
X-1236983D1*
X-1176983D2*
X-1169483D1*
X-1246983Y-275787D2*
X-1236983D1*
X-1176983D2*
X-1169483D1*
X-1246983Y-278287D2*
X-1236983D1*
X-1176983D2*
X-1169483D1*
X-1246983Y-280787D2*
X-1236983D1*
X-1176983D2*
X-1169483D1*
X-1246983Y-283287D2*
X-1236983D1*
X-1176983D2*
X-1169483D1*
X-1246983Y-285787D2*
X-1236983D1*
X-1176983D2*
X-1169483D1*
X-1246983Y-288287D2*
X-1236983D1*
X-1176983D2*
X-1169483D1*
X-1246983Y-290787D2*
X-1236983D1*
X-1176983D2*
X-1169483D1*
X-1246983Y-293287D2*
X-1236983D1*
X-1176983D2*
X-1169483D1*
X-1246983Y-295787D2*
X-1236983D1*
X-1176983D2*
X-1169483D1*
X-1246983Y-298287D2*
X-1236983D1*
X-1176983D2*
X-1169483D1*
X-1246983Y-300787D2*
X-1236983D1*
X-1176983D2*
X-1169483D1*
X-1246983Y-303287D2*
X-1236983D1*
X-1176983D2*
X-1169483D1*
X-1246983Y-305787D2*
X-1236983D1*
X-1176983D2*
X-1169483D1*
X-1246983Y-308287D2*
X-1236983D1*
X-1176983D2*
X-1169483D1*
X-1246983Y-310787D2*
X-1199483D1*
X-1176983D2*
X-1169483D1*
X-1246983Y-313287D2*
X-1199483D1*
X-1176983D2*
X-1169483D1*
X-1246983Y-315787D2*
X-1199483D1*
X-1176983D2*
X-1169483D1*
X-1246983Y-318287D2*
X-1199483D1*
X-1176983D2*
X-1169483D1*
X-1252477Y-807443D2*
X-1242477D1*
X-1179977D2*
X-1162477D1*
X-1252477Y-809943D2*
X-1242477D1*
X-1183535D2*
X-1159219D1*
X-1252477Y-812443D2*
X-1242477D1*
X-1186423D2*
X-1156708D1*
X-1252477Y-814943D2*
X-1242477D1*
X-1188590D2*
X-1154821D1*
X-1252477Y-817443D2*
X-1242477D1*
X-1190194D2*
X-1176598D1*
X-1168073D2*
X-1153294D1*
X-1252477Y-819943D2*
X-1242477D1*
X-1191315D2*
X-1179928D1*
X-1164529D2*
X-1152028D1*
X-1252477Y-822443D2*
X-1242477D1*
X-1191997D2*
X-1182572D1*
X-1161803D2*
X-1151148D1*
X-1252477Y-824943D2*
X-1242477D1*
X-1192477D2*
X-1184977D1*
X-1160732D2*
X-1150664D1*
X-1252477Y-827443D2*
X-1242477D1*
X-1160719D2*
X-1151154D1*
X-1252477Y-829943D2*
X-1242477D1*
X-1161220D2*
X-1151798D1*
X-1252477Y-832443D2*
X-1242477D1*
X-1162108D2*
X-1152521D1*
X-1252477Y-834943D2*
X-1242477D1*
X-1163209D2*
X-1153433D1*
X-1252477Y-837443D2*
X-1242477D1*
X-1164486D2*
X-1154580D1*
X-1252477Y-839943D2*
X-1242477D1*
X-1166030D2*
X-1155985D1*
X-1252477Y-842443D2*
X-1242477D1*
X-1167872D2*
X-1157570D1*
X-1252477Y-844943D2*
X-1242477D1*
X-1169768D2*
X-1159175D1*
X-1252477Y-847443D2*
X-1242477D1*
X-1171543D2*
X-1160894D1*
X-1252477Y-849943D2*
X-1242477D1*
X-1173351D2*
X-1162818D1*
X-1252477Y-852443D2*
X-1242477D1*
X-1175386D2*
X-1164747D1*
X-1252477Y-854943D2*
X-1242477D1*
X-1177559D2*
X-1166535D1*
X-1252477Y-857443D2*
X-1242477D1*
X-1179632D2*
X-1168338D1*
X-1252477Y-859943D2*
X-1242477D1*
X-1181488D2*
X-1170297D1*
X-1252477Y-862443D2*
X-1242477D1*
X-1183320D2*
X-1172240D1*
X-1252477Y-864943D2*
X-1242477D1*
X-1185290D2*
X-1174033D1*
X-1252477Y-867443D2*
X-1242477D1*
X-1187228D2*
X-1175847D1*
X-1252477Y-869943D2*
X-1242477D1*
X-1188925D2*
X-1177892D1*
X-1252477Y-872443D2*
X-1242477D1*
X-1190323D2*
X-1180141D1*
X-1252477Y-874943D2*
X-1204977D1*
X-1191355D2*
X-1149977D1*
X-1252477Y-877443D2*
X-1204977D1*
X-1191964D2*
X-1149977D1*
X-1252477Y-879943D2*
X-1204977D1*
X-1192278D2*
X-1149977D1*
X-1252477Y-882443D2*
X-1204977D1*
X-1192477D2*
X-1149977D1*
X-163443Y-2387057D2*
X-148443D1*
X-103443D2*
X-93443D1*
X-168242Y-2389557D2*
X-143645D1*
X-106992D2*
X-93443D1*
X-172090Y-2392057D2*
X-139797D1*
X-109792D2*
X-93443D1*
X-174988Y-2394557D2*
X-136899D1*
X-111956D2*
X-93443D1*
X-177114Y-2397057D2*
X-157451D1*
X-151435D2*
X-134773D1*
X-112727D2*
X-93443D1*
X-178687Y-2399557D2*
X-162787D1*
X-147482D2*
X-133190D1*
X-113162D2*
X-105943D1*
X-100943D2*
X-93443D1*
X-179795Y-2402057D2*
X-166633D1*
X-144243D2*
X-132003D1*
X-113443D2*
X-110943D1*
X-100943D2*
X-93443D1*
X-180513Y-2404557D2*
X-169249D1*
X-141753D2*
X-131055D1*
X-100943D2*
X-93443D1*
X-181140Y-2407057D2*
X-171043D1*
X-139814D2*
X-130148D1*
X-100943D2*
X-93443D1*
X-181873Y-2409557D2*
X-172232D1*
X-139109D2*
X-129373D1*
X-100943D2*
X-93443D1*
X-182568Y-2412057D2*
X-172896D1*
X-138727D2*
X-128883D1*
X-100943D2*
X-93443D1*
X-183024Y-2414557D2*
X-173217D1*
X-138554D2*
X-128631D1*
X-100943D2*
X-93443D1*
X-183263Y-2417057D2*
X-173356D1*
X-138484D2*
X-128517D1*
X-100943D2*
X-93443D1*
X-183372Y-2419557D2*
X-173411D1*
X-138458D2*
X-128471D1*
X-100943D2*
X-93443D1*
X-183417Y-2422057D2*
X-173432D1*
X-138448D2*
X-128453D1*
X-100943D2*
X-93443D1*
X-183434Y-2424557D2*
X-173439D1*
X-138445D2*
X-128447D1*
X-100943D2*
X-93443D1*
X-183440Y-2427057D2*
X-173442D1*
X-138444D2*
X-128444D1*
X-100943D2*
X-93443D1*
X-183432Y-2429557D2*
X-173443D1*
X-138443D2*
X-128444D1*
X-100943D2*
X-93443D1*
X-183345Y-2432057D2*
X-173433D1*
X-138463D2*
X-128453D1*
X-100943D2*
X-93443D1*
X-183027Y-2434557D2*
X-173346D1*
X-138653D2*
X-128541D1*
X-100943D2*
X-93443D1*
X-182428Y-2437057D2*
X-173017D1*
X-150943D2*
X-148443D1*
X-139107D2*
X-128860D1*
X-100943D2*
X-93443D1*
X-181778Y-2439557D2*
X-172321D1*
X-151915D2*
X-143600D1*
X-141056D2*
X-129458D1*
X-100943D2*
X-93443D1*
X-181254Y-2442057D2*
X-171244D1*
X-151651D2*
X-130090D1*
X-100943D2*
X-93443D1*
X-180693Y-2444557D2*
X-169578D1*
X-150081D2*
X-130428D1*
X-100943D2*
X-93443D1*
X-179891Y-2447057D2*
X-167284D1*
X-148106D2*
X-130476D1*
X-100943D2*
X-93443D1*
X-178780Y-2449557D2*
X-161840D1*
X-145943D2*
X-129402D1*
X-100943D2*
X-93443D1*
X-177215Y-2452057D2*
X-154455D1*
X-153287D2*
X-127854D1*
X-100943D2*
X-93443D1*
X-174905Y-2454557D2*
X-126279D1*
X-100943D2*
X-93443D1*
X-171699Y-2457057D2*
X-125008D1*
X-100943D2*
X-93443D1*
X-167737Y-2459557D2*
X-140943D1*
X-130943D2*
X-125293D1*
X-100943D2*
X-93443D1*
X-163443Y-2462057D2*
X-148443D1*
X-128443D2*
X-125943D1*
X-100943D2*
X-93443D1*
X1153110Y-829390D2*
X1190610D1*
X1230610D2*
X1240610D1*
X1153110Y-831890D2*
X1194254D1*
X1227061D2*
X1240610D1*
X1153110Y-834390D2*
X1197375D1*
X1224261D2*
X1240610D1*
X1153110Y-836890D2*
X1199831D1*
X1222097D2*
X1240610D1*
X1153110Y-839390D2*
X1163110D1*
X1187223D2*
X1201565D1*
X1221326D2*
X1240610D1*
X1153110Y-841890D2*
X1163110D1*
X1190467D2*
X1202793D1*
X1220891D2*
X1228110D1*
X1233110D2*
X1240610D1*
X1153110Y-844390D2*
X1163110D1*
X1192741D2*
X1203825D1*
X1220610D2*
X1223110D1*
X1233110D2*
X1240610D1*
X1153110Y-846890D2*
X1163110D1*
X1194445D2*
X1204641D1*
X1233110D2*
X1240610D1*
X1153110Y-849390D2*
X1163110D1*
X1194949D2*
X1205062D1*
X1233110D2*
X1240610D1*
X1153110Y-851890D2*
X1163110D1*
X1195137D2*
X1205003D1*
X1233110D2*
X1240610D1*
X1153110Y-854390D2*
X1163110D1*
X1194511D2*
X1204510D1*
X1233110D2*
X1240610D1*
X1153110Y-856890D2*
X1163110D1*
X1192835D2*
X1203819D1*
X1233110D2*
X1240610D1*
X1153110Y-859390D2*
X1163110D1*
X1186250D2*
X1202984D1*
X1233110D2*
X1240610D1*
X1153110Y-861890D2*
X1163110D1*
X1174954D2*
X1201734D1*
X1233110D2*
X1240610D1*
X1153110Y-864390D2*
X1199896D1*
X1233110D2*
X1240610D1*
X1153110Y-866890D2*
X1197550D1*
X1233110D2*
X1240610D1*
X1153110Y-869390D2*
X1195115D1*
X1233110D2*
X1240610D1*
X1153110Y-871890D2*
X1192976D1*
X1233110D2*
X1240610D1*
X1153110Y-874390D2*
X1163110D1*
X1180214D2*
X1192459D1*
X1233110D2*
X1240610D1*
X1153110Y-876890D2*
X1163110D1*
X1182006D2*
X1193148D1*
X1233110D2*
X1240610D1*
X1153110Y-879390D2*
X1163110D1*
X1183531D2*
X1194300D1*
X1233110D2*
X1240610D1*
X1153110Y-881890D2*
X1163110D1*
X1184906D2*
X1195763D1*
X1233110D2*
X1240610D1*
X1153110Y-884390D2*
X1163110D1*
X1186204D2*
X1197236D1*
X1233110D2*
X1240610D1*
X1153110Y-886890D2*
X1163110D1*
X1187475D2*
X1198620D1*
X1233110D2*
X1240610D1*
X1153110Y-889390D2*
X1163110D1*
X1188730D2*
X1199939D1*
X1233110D2*
X1240610D1*
X1153110Y-891890D2*
X1163110D1*
X1189985D2*
X1201216D1*
X1233110D2*
X1240610D1*
X1153110Y-894390D2*
X1163110D1*
X1191234D2*
X1202479D1*
X1233110D2*
X1240610D1*
X1153110Y-896890D2*
X1163110D1*
X1192478D2*
X1203740D1*
X1233110D2*
X1240610D1*
X1153110Y-899390D2*
X1163110D1*
X1193661D2*
X1205058D1*
X1233110D2*
X1240610D1*
X1153110Y-901890D2*
X1163110D1*
X1194703D2*
X1206517D1*
X1233110D2*
X1240610D1*
X1153110Y-904390D2*
X1163110D1*
X1195610D2*
X1208110D1*
X1233110D2*
X1240610D1*
X209687Y-1642367D2*
X247187D1*
X292187D2*
X309687D1*
X209687Y-1644867D2*
X250831D1*
X288628D2*
X312945D1*
X209687Y-1647367D2*
X253951D1*
X285740D2*
X315455D1*
X209687Y-1649867D2*
X256408D1*
X283574D2*
X317343D1*
X209687Y-1652367D2*
X219687D1*
X243799D2*
X258142D1*
X281969D2*
X295566D1*
X304090D2*
X318869D1*
X209687Y-1654867D2*
X219687D1*
X247044D2*
X259370D1*
X280848D2*
X292235D1*
X307634D2*
X320135D1*
X209687Y-1657367D2*
X219687D1*
X249318D2*
X260401D1*
X280166D2*
X289591D1*
X310360D2*
X321015D1*
X209687Y-1659867D2*
X219687D1*
X251022D2*
X261218D1*
X279687D2*
X287187D1*
X311431D2*
X321499D1*
X209687Y-1662367D2*
X219687D1*
X251525D2*
X261639D1*
X311444D2*
X321010D1*
X209687Y-1664867D2*
X219687D1*
X251714D2*
X261580D1*
X310943D2*
X320366D1*
X209687Y-1667367D2*
X219687D1*
X251088D2*
X261087D1*
X310055D2*
X319642D1*
X209687Y-1669867D2*
X219687D1*
X249412D2*
X260395D1*
X308954D2*
X318731D1*
X209687Y-1672367D2*
X219687D1*
X242827D2*
X259561D1*
X307677D2*
X317583D1*
X209687Y-1674867D2*
X219687D1*
X231531D2*
X258311D1*
X306134D2*
X316179D1*
X209687Y-1677367D2*
X256473D1*
X304291D2*
X314593D1*
X209687Y-1679867D2*
X254127D1*
X302395D2*
X312988D1*
X209687Y-1682367D2*
X251692D1*
X300621D2*
X311269D1*
X209687Y-1684867D2*
X249553D1*
X298813D2*
X309346D1*
X209687Y-1687367D2*
X219687D1*
X236791D2*
X249036D1*
X296778D2*
X307416D1*
X209687Y-1689867D2*
X219687D1*
X238583D2*
X249724D1*
X294605D2*
X305628D1*
X209687Y-1692367D2*
X219687D1*
X240107D2*
X250876D1*
X292532D2*
X303825D1*
X209687Y-1694867D2*
X219687D1*
X241483D2*
X252340D1*
X290675D2*
X301867D1*
X209687Y-1697367D2*
X219687D1*
X242781D2*
X253813D1*
X288843D2*
X299923D1*
X209687Y-1699867D2*
X219687D1*
X244052D2*
X255197D1*
X286873D2*
X298130D1*
X209687Y-1702367D2*
X219687D1*
X245307D2*
X256516D1*
X284935D2*
X296316D1*
X209687Y-1704867D2*
X219687D1*
X246561D2*
X257793D1*
X283239D2*
X294271D1*
X209687Y-1707367D2*
X219687D1*
X247810D2*
X259056D1*
X281840D2*
X292022D1*
X209687Y-1709867D2*
X219687D1*
X249055D2*
X260316D1*
X280808D2*
X322187D1*
X209687Y-1712367D2*
X219687D1*
X250238D2*
X261635D1*
X280200D2*
X322187D1*
X209687Y-1714867D2*
X219687D1*
X251279D2*
X263094D1*
X279885D2*
X322187D1*
X209687Y-1717367D2*
X219687D1*
X252187D2*
X264687D1*
X279687D2*
X322187D1*
X207997Y-1884867D2*
X245497D1*
X290497D2*
X305497D1*
X207997Y-1887367D2*
X249141D1*
X286938D2*
X309141D1*
X207997Y-1889867D2*
X252261D1*
X284050D2*
X312261D1*
X207997Y-1892367D2*
X254718D1*
X281884D2*
X314708D1*
X207997Y-1894867D2*
X217997D1*
X242109D2*
X256452D1*
X280279D2*
X292997D1*
X302109D2*
X316629D1*
X207997Y-1897367D2*
X217997D1*
X245354D2*
X257680D1*
X279158D2*
X290497D1*
X305354D2*
X317332D1*
X207997Y-1899867D2*
X217997D1*
X247628D2*
X258711D1*
X278476D2*
X287997D1*
X307618D2*
X317714D1*
X207997Y-1902367D2*
X217997D1*
X249332D2*
X259528D1*
X277997D2*
X285497D1*
X309292D2*
X317876D1*
X207997Y-1904867D2*
X217997D1*
X249835D2*
X259949D1*
X309730D2*
X317858D1*
X207997Y-1907367D2*
X217997D1*
X250024D2*
X259890D1*
X309074D2*
X317556D1*
X207997Y-1909867D2*
X217997D1*
X249398D2*
X259397D1*
X307995D2*
X316860D1*
X207997Y-1912367D2*
X217997D1*
X247722D2*
X258705D1*
X305185D2*
X315711D1*
X207997Y-1914867D2*
X217997D1*
X241137D2*
X257871D1*
X301827D2*
X313882D1*
X207997Y-1917367D2*
X217997D1*
X229841D2*
X256621D1*
X298541D2*
X311184D1*
X207997Y-1919867D2*
X254783D1*
X296912D2*
X307997D1*
X207997Y-1922367D2*
X252437D1*
X296395D2*
X310955D1*
X207997Y-1924867D2*
X250002D1*
X299833D2*
X313492D1*
X207997Y-1927367D2*
X247863D1*
X303496D2*
X315490D1*
X207997Y-1929867D2*
X217997D1*
X235101D2*
X247346D1*
X306525D2*
X317100D1*
X207997Y-1932367D2*
X217997D1*
X236893D2*
X248034D1*
X308884D2*
X318421D1*
X207997Y-1934867D2*
X217997D1*
X238417D2*
X249186D1*
X309719D2*
X319409D1*
X207997Y-1937367D2*
X217997D1*
X239793D2*
X250650D1*
X310157D2*
X319985D1*
X207997Y-1939867D2*
X217997D1*
X241091D2*
X252123D1*
X310251D2*
X320189D1*
X207997Y-1942367D2*
X217997D1*
X242362D2*
X253507D1*
X275497D2*
X285497D1*
X310090D2*
X319988D1*
X207997Y-1944867D2*
X217997D1*
X243617D2*
X254826D1*
X276456D2*
X287142D1*
X308726D2*
X319354D1*
X207997Y-1947367D2*
X217997D1*
X244871D2*
X256103D1*
X277618D2*
X291489D1*
X304451D2*
X318394D1*
X207997Y-1949867D2*
X217997D1*
X246120D2*
X257366D1*
X279118D2*
X297872D1*
X298103D2*
X317171D1*
X207997Y-1952367D2*
X217997D1*
X247365D2*
X258626D1*
X281114D2*
X315469D1*
X207997Y-1954867D2*
X217997D1*
X248548D2*
X259945D1*
X283702D2*
X312914D1*
X207997Y-1957367D2*
X217997D1*
X249589D2*
X261404D1*
X286921D2*
X309426D1*
X207997Y-1959867D2*
X217997D1*
X250497D2*
X262997D1*
X290497D2*
X305497D1*
X-503983Y-2985493D2*
X-496483D1*
X-461483D2*
X-451483D1*
X-421483D2*
X-403983D1*
X-503983Y-2987993D2*
X-496483D1*
X-461483D2*
X-451483D1*
X-425042D2*
X-400725D1*
X-503983Y-2990493D2*
X-496483D1*
X-461483D2*
X-451483D1*
X-427930D2*
X-398215D1*
X-503983Y-2992993D2*
X-496483D1*
X-461483D2*
X-451483D1*
X-430096D2*
X-396327D1*
X-503983Y-2995493D2*
X-496483D1*
X-461483D2*
X-451483D1*
X-431701D2*
X-418104D1*
X-409580D2*
X-394801D1*
X-503983Y-2997993D2*
X-496483D1*
X-461483D2*
X-451483D1*
X-432822D2*
X-421435D1*
X-406036D2*
X-393535D1*
X-503983Y-3000493D2*
X-496483D1*
X-461483D2*
X-451483D1*
X-433504D2*
X-424079D1*
X-403310D2*
X-392655D1*
X-503983Y-3002993D2*
X-496483D1*
X-461483D2*
X-451483D1*
X-433983D2*
X-426483D1*
X-402239D2*
X-392171D1*
X-503983Y-3005493D2*
X-496483D1*
X-461483D2*
X-451483D1*
X-402226D2*
X-392660D1*
X-503983Y-3007993D2*
X-496483D1*
X-461483D2*
X-451483D1*
X-402727D2*
X-393304D1*
X-503983Y-3010493D2*
X-496483D1*
X-461483D2*
X-451483D1*
X-403615D2*
X-394028D1*
X-503983Y-3012993D2*
X-496483D1*
X-461483D2*
X-451483D1*
X-404716D2*
X-394939D1*
X-503983Y-3015493D2*
X-496483D1*
X-461483D2*
X-451483D1*
X-405993D2*
X-396087D1*
X-503983Y-3017993D2*
X-496483D1*
X-461483D2*
X-451483D1*
X-407536D2*
X-397491D1*
X-503983Y-3020493D2*
X-496483D1*
X-461483D2*
X-451483D1*
X-409379D2*
X-399077D1*
X-503983Y-3022993D2*
X-496483D1*
X-461483D2*
X-451483D1*
X-411275D2*
X-400682D1*
X-503983Y-3025493D2*
X-496483D1*
X-461483D2*
X-451483D1*
X-413049D2*
X-402401D1*
X-503983Y-3027993D2*
X-496483D1*
X-461483D2*
X-451483D1*
X-414857D2*
X-404324D1*
X-503983Y-3030493D2*
X-496474D1*
X-461483D2*
X-451483D1*
X-416892D2*
X-406254D1*
X-503983Y-3032993D2*
X-496386D1*
X-461493D2*
X-451493D1*
X-419065D2*
X-408042D1*
X-503983Y-3035493D2*
X-496057D1*
X-461581D2*
X-451581D1*
X-421138D2*
X-409845D1*
X-503974Y-3037993D2*
X-495361D1*
X-461909D2*
X-451900D1*
X-422995D2*
X-411803D1*
X-503886Y-3040493D2*
X-494284D1*
X-462625D2*
X-452508D1*
X-424827D2*
X-413747D1*
X-503557Y-3042993D2*
X-492618D1*
X-463623D2*
X-453247D1*
X-426797D2*
X-415540D1*
X-502861Y-3045493D2*
X-490324D1*
X-465718D2*
X-454099D1*
X-428735D2*
X-417354D1*
X-501804Y-3047993D2*
X-484880D1*
X-470878D2*
X-455346D1*
X-430431D2*
X-419399D1*
X-500333Y-3050493D2*
X-477495D1*
X-478090D2*
X-457118D1*
X-431830D2*
X-421648D1*
X-498255Y-3052993D2*
X-459349D1*
X-432862D2*
X-391483D1*
X-495285Y-3055493D2*
X-462076D1*
X-433470D2*
X-391483D1*
X-491213Y-3057993D2*
X-465364D1*
X-433785D2*
X-391483D1*
X-486483Y-3060493D2*
X-468983D1*
X-433983D2*
X-391483D1*
X-331305Y-1305890D2*
D12*
X-304635D1*
X133515D2*
X167805D1*
X335445D2*
X369735D1*
X689775D2*
X724065D1*
X861225D2*
X891705D1*
X1002195D2*
X1025055D1*
X1074585D2*
X1097445D1*
X-1100925Y-1309700D2*
X-1059015D1*
X-1043775D2*
X-1001865D1*
X-986625D2*
X-948525D1*
X-921855D2*
X-879945D1*
X-864705D2*
X-822795D1*
X-807555D2*
X-769455D1*
X-742785D2*
X-700875D1*
X-685635D2*
X-643725D1*
X-628485D2*
X-590385D1*
X-449415D2*
X-396075D1*
X-338632D2*
X-297764D1*
X-236055D2*
X-182715D1*
X-156045D2*
X-114135D1*
X-72225D2*
X80175D1*
X126644D2*
X174661D1*
X224955D2*
X266865D1*
X328574D2*
X376591D1*
X430695D2*
X499275D1*
X681000D2*
X733284D1*
X851278D2*
X900924D1*
X995469D2*
X1030653D1*
X1067844D2*
X1104171D1*
X-1100925Y-1313510D2*
X-1059015D1*
X-1043775D2*
X-1001865D1*
X-986625D2*
X-948525D1*
X-921855D2*
X-879945D1*
X-864705D2*
X-822795D1*
X-807555D2*
X-769455D1*
X-742785D2*
X-700875D1*
X-685635D2*
X-643725D1*
X-628485D2*
X-590385D1*
X-456271D2*
X-396075D1*
X-344631D2*
X-291726D1*
X-242911D2*
X-182715D1*
X-156045D2*
X-114135D1*
X-75431D2*
X-33521D1*
X-26505D2*
X80175D1*
X120606D2*
X180566D1*
X224955D2*
X266865D1*
X322536D2*
X382496D1*
X430695D2*
X507760D1*
X673379D2*
X741361D1*
X842877D2*
X909001D1*
X989919D2*
X1035848D1*
X1062152D2*
X1109706D1*
X-1100925Y-1317320D2*
X-1059015D1*
X-1043775D2*
X-1001865D1*
X-986625D2*
X-948525D1*
X-921855D2*
X-879945D1*
X-864705D2*
X-822795D1*
X-807555D2*
X-769455D1*
X-742785D2*
X-700875D1*
X-685635D2*
X-643725D1*
X-628485D2*
X-590385D1*
X-462176D2*
X-396075D1*
X-349548D2*
X-286640D1*
X-248816D2*
X-182715D1*
X-156045D2*
X-114135D1*
X-78163D2*
X-36253D1*
X-26505D2*
X80175D1*
X115534D2*
X185151D1*
X224955D2*
X266865D1*
X317464D2*
X387081D1*
X430695D2*
X514389D1*
X666826D2*
X747987D1*
X836030D2*
X915627D1*
X985761D2*
X1041390D1*
X1057418D2*
X1113745D1*
X-1100925Y-1321130D2*
X-1059015D1*
X-1043775D2*
X-1001865D1*
X-986625D2*
X-948525D1*
X-921855D2*
X-879945D1*
X-864705D2*
X-822795D1*
X-807555D2*
X-769455D1*
X-742785D2*
X-700875D1*
X-685635D2*
X-643725D1*
X-628485D2*
X-590385D1*
X-466761D2*
X-396075D1*
X-353835D2*
X-282210D1*
X-253401D2*
X-182715D1*
X-156045D2*
X-114135D1*
X-80486D2*
X-38576D1*
X-26505D2*
X80175D1*
X111240D2*
X188533D1*
X224955D2*
X266865D1*
X313170D2*
X390463D1*
X430695D2*
X518982D1*
X661190D2*
X753329D1*
X830085D2*
X920969D1*
X982458D2*
X1048060D1*
X1052792D2*
X1116696D1*
X-1100925Y-1324940D2*
X-1059015D1*
X-1043775D2*
X-1001865D1*
X-986625D2*
X-948525D1*
X-921855D2*
X-879945D1*
X-864705D2*
X-822795D1*
X-807555D2*
X-769455D1*
X-742785D2*
X-700875D1*
X-685635D2*
X-643725D1*
X-628485D2*
X-590385D1*
X-470129D2*
X-396075D1*
X-357710D2*
X-278122D1*
X-256769D2*
X-182715D1*
X-156045D2*
X-114135D1*
X-82582D2*
X-40672D1*
X-26505D2*
X80175D1*
X107662D2*
X191134D1*
X224955D2*
X266865D1*
X309592D2*
X393064D1*
X430695D2*
X522179D1*
X656482D2*
X757845D1*
X824896D2*
X925500D1*
X979679D2*
X1119048D1*
X-1100925Y-1328750D2*
X-1059015D1*
X-1043775D2*
X-1001865D1*
X-986625D2*
X-948525D1*
X-921855D2*
X-879945D1*
X-864705D2*
X-822795D1*
X-807555D2*
X-769455D1*
X-742785D2*
X-700875D1*
X-685635D2*
X-643725D1*
X-628485D2*
X-590385D1*
X-472595D2*
X-396075D1*
X-361095D2*
X-274155D1*
X-259235D2*
X-182715D1*
X-156045D2*
X-114135D1*
X-84561D2*
X-42666D1*
X-26505D2*
X80175D1*
X104807D2*
X193325D1*
X224955D2*
X266865D1*
X306737D2*
X395255D1*
X430695D2*
X524630D1*
X652660D2*
X761827D1*
X820694D2*
X929601D1*
X977648D2*
X1121000D1*
X-1100925Y-1332560D2*
X-1059015D1*
X-1043775D2*
X-1001865D1*
X-986625D2*
X-948525D1*
X-921855D2*
X-879945D1*
X-864705D2*
X-822795D1*
X-807555D2*
X-769455D1*
X-742785D2*
X-700875D1*
X-685635D2*
X-643725D1*
X-628485D2*
X-590385D1*
X-474315D2*
X-396075D1*
X-363870D2*
X-279869D1*
X-260955D2*
X-182715D1*
X-156045D2*
X-114135D1*
X-86498D2*
X-44722D1*
X-26505D2*
X80175D1*
X102568D2*
X195210D1*
X224955D2*
X266865D1*
X304498D2*
X397140D1*
X430695D2*
X526619D1*
X649562D2*
X765257D1*
X817378D2*
X933397D1*
X976350D2*
X1122477D1*
X-1100925Y-1336370D2*
X-1059015D1*
X-1043775D2*
X-1001865D1*
X-986625D2*
X-948525D1*
X-921855D2*
X-879945D1*
X-864705D2*
X-822795D1*
X-807555D2*
X-769455D1*
X-742785D2*
X-700875D1*
X-685635D2*
X-643725D1*
X-628485D2*
X-590385D1*
X-475422D2*
X-396075D1*
X-366079D2*
X-285261D1*
X-262062D2*
X-182715D1*
X-156045D2*
X-114135D1*
X-88425D2*
X-47001D1*
X-26505D2*
X80175D1*
X100941D2*
X196661D1*
X224955D2*
X266865D1*
X302871D2*
X398591D1*
X430695D2*
X528110D1*
X646777D2*
X768065D1*
X814489D2*
X936752D1*
X975295D2*
X1123357D1*
X-1100925Y-1340180D2*
X-1059015D1*
X-1043775D2*
X-1001865D1*
X-986625D2*
X-948525D1*
X-921855D2*
X-879945D1*
X-864705D2*
X-822795D1*
X-807555D2*
X-769455D1*
X-742785D2*
X-700875D1*
X-685635D2*
X-643725D1*
X-628485D2*
X-590385D1*
X-476382D2*
X-396075D1*
X-367680D2*
X-290539D1*
X-263022D2*
X-182715D1*
X-156045D2*
X-114135D1*
X-90456D2*
X-49459D1*
X-26505D2*
X80175D1*
X99869D2*
X197532D1*
X224955D2*
X266865D1*
X301799D2*
X399462D1*
X430695D2*
X528980D1*
X644100D2*
X770414D1*
X811767D2*
X939531D1*
X974135D2*
X1123797D1*
X-1100925Y-1343990D2*
X-1059015D1*
X-1043775D2*
X-1001865D1*
X-986625D2*
X-948525D1*
X-921855D2*
X-879945D1*
X-864705D2*
X-822795D1*
X-807555D2*
X-769455D1*
X-742785D2*
X-700875D1*
X-685635D2*
X-643725D1*
X-628485D2*
X-590385D1*
X-477501D2*
X-396075D1*
X-368629D2*
X-295582D1*
X-264141D2*
X-182715D1*
X-156045D2*
X-114135D1*
X-92726D2*
X-51793D1*
X-26505D2*
X80175D1*
X98921D2*
X197968D1*
X224955D2*
X266865D1*
X300851D2*
X399898D1*
X430695D2*
X529287D1*
X641693D2*
X772518D1*
X809343D2*
X941869D1*
X973059D2*
X1123991D1*
X-1100925Y-1347800D2*
X-1059015D1*
X-1043775D2*
X-1001865D1*
X-986625D2*
X-948525D1*
X-921855D2*
X-879945D1*
X-864705D2*
X-822795D1*
X-807555D2*
X-769455D1*
X-742785D2*
X-700875D1*
X-685635D2*
X-643725D1*
X-628485D2*
X-590385D1*
X-478561D2*
X-396075D1*
X-369224D2*
X-326746D1*
X-312255D2*
X-300216D1*
X-265201D2*
X-182715D1*
X-156045D2*
X-114135D1*
X-95180D2*
X-53935D1*
X-26505D2*
X80175D1*
X97807D2*
X141884D1*
X156964D2*
X198161D1*
X224955D2*
X266865D1*
X299737D2*
X343814D1*
X358894D2*
X400091D1*
X430695D2*
X528996D1*
X639637D2*
X693141D1*
X719361D2*
X774500D1*
X807280D2*
X865784D1*
X887146D2*
X943955D1*
X972357D2*
X1018184D1*
X1028865D2*
X1070775D1*
X1081456D2*
X1124069D1*
X-1100925Y-1351610D2*
X-1059015D1*
X-1043775D2*
X-1001865D1*
X-986625D2*
X-948525D1*
X-921855D2*
X-879945D1*
X-864705D2*
X-822795D1*
X-807555D2*
X-769455D1*
X-742785D2*
X-700875D1*
X-685635D2*
X-643725D1*
X-628485D2*
X-590385D1*
X-479256D2*
X-415139D1*
X-369911D2*
X-328974D1*
X-308445D2*
X-304635D1*
X-265896D2*
X-201779D1*
X-156045D2*
X-114135D1*
X-97513D2*
X-55957D1*
X7785D2*
X45885D1*
X96749D2*
X139656D1*
X157908D2*
X198239D1*
X224955D2*
X266865D1*
X298679D2*
X341586D1*
X359838D2*
X400169D1*
X430695D2*
X472605D1*
X491655D2*
X528147D1*
X637970D2*
X688890D1*
X724896D2*
X776423D1*
X805611D2*
X859760D1*
X893170D2*
X945801D1*
X971990D2*
X1015956D1*
X1028865D2*
X1070775D1*
X1083684D2*
X1124099D1*
X-1100925Y-1355420D2*
X-1059015D1*
X-1043775D2*
X-1001865D1*
X-986625D2*
X-948525D1*
X-921855D2*
X-879945D1*
X-864705D2*
X-822795D1*
X-807555D2*
X-769455D1*
X-742785D2*
X-700875D1*
X-685635D2*
X-643725D1*
X-628485D2*
X-590385D1*
X-479621D2*
X-428212D1*
X-370905D2*
X-330250D1*
X-266261D2*
X-214852D1*
X-156045D2*
X-114135D1*
X-99655D2*
X-57907D1*
X7785D2*
X45885D1*
X96053D2*
X138380D1*
X158895D2*
X198269D1*
X224955D2*
X266865D1*
X297983D2*
X340310D1*
X360825D2*
X400199D1*
X430695D2*
X472605D1*
X495465D2*
X527051D1*
X636577D2*
X685141D1*
X728935D2*
X778202D1*
X804217D2*
X854808D1*
X898107D2*
X947253D1*
X971824D2*
X1014680D1*
X1028865D2*
X1070775D1*
X1084960D2*
X1124109D1*
X-1100925Y-1359230D2*
X-1059015D1*
X-1043775D2*
X-1001865D1*
X-986625D2*
X-948525D1*
X-921855D2*
X-879945D1*
X-864705D2*
X-822795D1*
X-807555D2*
X-769455D1*
X-742785D2*
X-700875D1*
X-685635D2*
X-643725D1*
X-628485D2*
X-590385D1*
X-479786D2*
X-437985D1*
X-371912D2*
X-330869D1*
X-266426D2*
X-224625D1*
X-156045D2*
X-114120D1*
X-101677D2*
X-59833D1*
X7785D2*
X45885D1*
X95689D2*
X137761D1*
X159562D2*
X198279D1*
X224955D2*
X266865D1*
X297619D2*
X339691D1*
X361492D2*
X400209D1*
X430695D2*
X472605D1*
X493692D2*
X525763D1*
X635213D2*
X682141D1*
X731898D2*
X779613D1*
X802853D2*
X850880D1*
X901916D2*
X948254D1*
X971756D2*
X1014061D1*
X1028865D2*
X1070775D1*
X1085579D2*
X1124113D1*
X-1100925Y-1363040D2*
X-1059015D1*
X-1043775D2*
X-1001865D1*
X-986625D2*
X-948525D1*
X-921855D2*
X-879945D1*
X-864705D2*
X-822795D1*
X-807555D2*
X-769455D1*
X-742785D2*
X-700875D1*
X-685635D2*
X-643725D1*
X-628485D2*
X-590385D1*
X-479854D2*
X-419888D1*
X-372588D2*
X-331137D1*
X-266494D2*
X-206528D1*
X-156045D2*
X-113975D1*
X-103639D2*
X-61742D1*
X7785D2*
X45885D1*
X95524D2*
X137493D1*
X159916D2*
X198283D1*
X224955D2*
X266865D1*
X297454D2*
X339423D1*
X361846D2*
X400213D1*
X430695D2*
X472605D1*
X492515D2*
X523881D1*
X634038D2*
X679703D1*
X734364D2*
X780473D1*
X801678D2*
X847864D1*
X904581D2*
X949174D1*
X971729D2*
X1013793D1*
X1028865D2*
X1070775D1*
X1085847D2*
X1124114D1*
X-1100925Y-1366850D2*
X-1059015D1*
X-1043775D2*
X-1001865D1*
X-986625D2*
X-948525D1*
X-921855D2*
X-879945D1*
X-864705D2*
X-822795D1*
X-807555D2*
X-769455D1*
X-742785D2*
X-700875D1*
X-685635D2*
X-643725D1*
X-628485D2*
X-590385D1*
X-479881D2*
X-399885D1*
X-372945D2*
X-331243D1*
X-266521D2*
X-186525D1*
X-156045D2*
X-113386D1*
X-105664D2*
X-63638D1*
X7785D2*
X45885D1*
X95456D2*
X137387D1*
X160078D2*
X198284D1*
X224955D2*
X266865D1*
X297386D2*
X339317D1*
X362008D2*
X400214D1*
X430695D2*
X472605D1*
X480225D2*
X521376D1*
X633294D2*
X677695D1*
X736777D2*
X780926D1*
X800934D2*
X845558D1*
X906459D2*
X950278D1*
X971720D2*
X1013687D1*
X1028865D2*
X1070775D1*
X1085953D2*
X1124115D1*
X-1100925Y-1370660D2*
X-1059015D1*
X-1043775D2*
X-1001865D1*
X-986625D2*
X-948525D1*
X-921855D2*
X-879945D1*
X-864705D2*
X-822795D1*
X-807555D2*
X-769455D1*
X-742785D2*
X-700875D1*
X-685635D2*
X-643725D1*
X-628485D2*
X-590385D1*
X-479890D2*
X-399885D1*
X-373108D2*
X-331283D1*
X-266530D2*
X-186525D1*
X-156045D2*
X-112084D1*
X-107894D2*
X-65392D1*
X7785D2*
X45885D1*
X95429D2*
X137347D1*
X160145D2*
X198285D1*
X224955D2*
X266865D1*
X297359D2*
X339277D1*
X362075D2*
X400215D1*
X430695D2*
X472605D1*
X480225D2*
X518814D1*
X632910D2*
X676191D1*
X739305D2*
X781215D1*
X800550D2*
X843920D1*
X908033D2*
X951333D1*
X971717D2*
X1013647D1*
X1028865D2*
X1070775D1*
X1085993D2*
X1124115D1*
X-1100925Y-1374470D2*
X-1059015D1*
X-1043775D2*
X-1001865D1*
X-986625D2*
X-948525D1*
X-921855D2*
X-879945D1*
X-864705D2*
X-822795D1*
X-807555D2*
X-769455D1*
X-742785D2*
X-700875D1*
X-685635D2*
X-643725D1*
X-628485D2*
X-590385D1*
X-479893D2*
X-399885D1*
X-373175D2*
X-331298D1*
X-266533D2*
X-186525D1*
X-156045D2*
X-66666D1*
X7785D2*
X45885D1*
X95420D2*
X137332D1*
X160171D2*
X198285D1*
X224955D2*
X266865D1*
X297350D2*
X339262D1*
X362101D2*
X400215D1*
X430695D2*
X472605D1*
X480225D2*
X516493D1*
X632737D2*
X675300D1*
X800377D2*
X842973D1*
X909293D2*
X952027D1*
X971716D2*
X1013632D1*
X1028865D2*
X1070775D1*
X1086008D2*
X1124115D1*
X-1100925Y-1378280D2*
X-1059015D1*
X-1043775D2*
X-1001865D1*
X-986625D2*
X-948525D1*
X-921855D2*
X-879945D1*
X-864705D2*
X-822795D1*
X-807555D2*
X-769455D1*
X-742785D2*
X-700875D1*
X-685635D2*
X-643725D1*
X-628485D2*
X-590385D1*
X-479894D2*
X-399885D1*
X-373201D2*
X-316065D1*
X-266534D2*
X-186525D1*
X-156045D2*
X-67373D1*
X7785D2*
X45885D1*
X95417D2*
X137327D1*
X160180D2*
X198285D1*
X224955D2*
X266865D1*
X297347D2*
X339257D1*
X362110D2*
X400215D1*
X430695D2*
X472605D1*
X480225D2*
X518856D1*
X632667D2*
X674856D1*
X800307D2*
X842507D1*
X910054D2*
X952391D1*
X971715D2*
X1013627D1*
X1028865D2*
X1070775D1*
X1086013D2*
X1124115D1*
X-1100925Y-1382090D2*
X-1059015D1*
X-1043775D2*
X-1001865D1*
X-986625D2*
X-948525D1*
X-921855D2*
X-879945D1*
X-864705D2*
X-822795D1*
X-807555D2*
X-769455D1*
X-742785D2*
X-700875D1*
X-685635D2*
X-643725D1*
X-628485D2*
X-590385D1*
X-479895D2*
X-399885D1*
X-373210D2*
X-316065D1*
X-266535D2*
X-186525D1*
X-156045D2*
X-114135D1*
X-106370D2*
X-66493D1*
X7785D2*
X45885D1*
X95416D2*
X148755D1*
X160183D2*
X198285D1*
X224955D2*
X266865D1*
X297346D2*
X350685D1*
X362113D2*
X400215D1*
X430695D2*
X472605D1*
X480225D2*
X522010D1*
X632640D2*
X674660D1*
X800280D2*
X842319D1*
X910315D2*
X952556D1*
X971715D2*
X1013626D1*
X1028865D2*
X1070775D1*
X1086014D2*
X1124115D1*
X-1100925Y-1385900D2*
X-1059015D1*
X-1043775D2*
X-1001865D1*
X-986625D2*
X-948525D1*
X-921855D2*
X-879945D1*
X-864705D2*
X-822795D1*
X-807555D2*
X-769455D1*
X-742785D2*
X-700875D1*
X-685635D2*
X-643725D1*
X-628485D2*
X-590385D1*
X-479895D2*
X-399885D1*
X-373213D2*
X-316065D1*
X-266535D2*
X-186525D1*
X-156045D2*
X-114135D1*
X-105867D2*
X-65141D1*
X7785D2*
X45885D1*
X95415D2*
X148755D1*
X160184D2*
X198285D1*
X224955D2*
X266865D1*
X297345D2*
X350685D1*
X362114D2*
X400215D1*
X430695D2*
X472605D1*
X480225D2*
X525223D1*
X632630D2*
X674596D1*
X739305D2*
X773595D1*
X800270D2*
X842371D1*
X910006D2*
X952609D1*
X971715D2*
X1013625D1*
X1028865D2*
X1070775D1*
X1086015D2*
X1124115D1*
X-1100925Y-1389710D2*
X-1059015D1*
X-1043775D2*
X-1001865D1*
X-986625D2*
X-948525D1*
X-921855D2*
X-879945D1*
X-864705D2*
X-822795D1*
X-807555D2*
X-769455D1*
X-742785D2*
X-700875D1*
X-685635D2*
X-643725D1*
X-628485D2*
X-590385D1*
X-479895D2*
X-399885D1*
X-373215D2*
X-316065D1*
X-266535D2*
X-186525D1*
X-156045D2*
X-114135D1*
X-104820D2*
X-63491D1*
X7785D2*
X45885D1*
X95415D2*
X148755D1*
X160185D2*
X198285D1*
X224955D2*
X266865D1*
X297345D2*
X350685D1*
X362115D2*
X400215D1*
X430695D2*
X472605D1*
X480225D2*
X528004D1*
X632642D2*
X674715D1*
X739160D2*
X777098D1*
X800282D2*
X842841D1*
X909151D2*
X952502D1*
X971715D2*
X1013625D1*
X1028865D2*
X1070775D1*
X1086015D2*
X1124115D1*
X-1100925Y-1393520D2*
X-1059015D1*
X-1043775D2*
X-1001865D1*
X-986625D2*
X-948525D1*
X-921855D2*
X-879945D1*
X-864705D2*
X-822795D1*
X-807555D2*
X-769455D1*
X-742785D2*
X-700875D1*
X-685635D2*
X-643725D1*
X-628485D2*
X-590385D1*
X-479895D2*
X-399885D1*
X-373215D2*
X-316065D1*
X-266535D2*
X-186525D1*
X-156045D2*
X-114135D1*
X-103342D2*
X-61686D1*
X7785D2*
X45885D1*
X95415D2*
X148755D1*
X160185D2*
X198285D1*
X224955D2*
X266865D1*
X297345D2*
X350685D1*
X362115D2*
X400215D1*
X430695D2*
X472605D1*
X480225D2*
X530364D1*
X632774D2*
X675324D1*
X738657D2*
X779658D1*
X800414D2*
X843891D1*
X908052D2*
X952026D1*
X971715D2*
X1013625D1*
X1028865D2*
X1070775D1*
X1086015D2*
X1124115D1*
X-1100925Y-1397330D2*
X-1059015D1*
X-1043775D2*
X-1001865D1*
X-986640D2*
X-948525D1*
X-921855D2*
X-879945D1*
X-864705D2*
X-822795D1*
X-807570D2*
X-769455D1*
X-742785D2*
X-700875D1*
X-685635D2*
X-643725D1*
X-628500D2*
X-590385D1*
X-479895D2*
X-399885D1*
X-373215D2*
X-316065D1*
X-266535D2*
X-186525D1*
X-156045D2*
X-114135D1*
X-101631D2*
X-59823D1*
X7785D2*
X45885D1*
X95415D2*
X148755D1*
X160185D2*
X198285D1*
X224955D2*
X266895D1*
X297345D2*
X350685D1*
X362115D2*
X400215D1*
X430695D2*
X472605D1*
X480225D2*
X532464D1*
X633260D2*
X676733D1*
X737595D2*
X779900D1*
X800900D2*
X845499D1*
X906763D2*
X951102D1*
X971715D2*
X1013625D1*
X1028865D2*
X1070775D1*
X1086015D2*
X1124115D1*
X-1100925Y-1401140D2*
X-1059015D1*
X-1043790D2*
X-1001865D1*
X-986774D2*
X-948525D1*
X-921855D2*
X-879945D1*
X-864720D2*
X-822795D1*
X-807704D2*
X-769455D1*
X-742785D2*
X-700875D1*
X-685650D2*
X-643725D1*
X-628634D2*
X-590385D1*
X-479895D2*
X-437985D1*
X-373215D2*
X-316065D1*
X-266535D2*
X-224625D1*
X-156045D2*
X-114135D1*
X-99815D2*
X-57929D1*
X7785D2*
X45885D1*
X95415D2*
X148755D1*
X160185D2*
X198285D1*
X224955D2*
X267207D1*
X297345D2*
X350685D1*
X362115D2*
X400215D1*
X430695D2*
X472605D1*
X480225D2*
X534317D1*
X634187D2*
X678785D1*
X735968D2*
X779369D1*
X801827D2*
X847724D1*
X904852D2*
X949992D1*
X971715D2*
X1013625D1*
X1028865D2*
X1070775D1*
X1086015D2*
X1124115D1*
X-1100925Y-1404950D2*
X-1058985D1*
X-1043969D2*
X-1001835D1*
X-987289D2*
X-948525D1*
X-921855D2*
X-879915D1*
X-864899D2*
X-822765D1*
X-808219D2*
X-769455D1*
X-742785D2*
X-700845D1*
X-685829D2*
X-643695D1*
X-629149D2*
X-590385D1*
X-479880D2*
X-437985D1*
X-373215D2*
X-316065D1*
X-266520D2*
X-224625D1*
X-156045D2*
X-114135D1*
X-98062D2*
X-56032D1*
X7785D2*
X45885D1*
X95415D2*
X148755D1*
X160185D2*
X198285D1*
X224970D2*
X267966D1*
X297345D2*
X350685D1*
X362115D2*
X400215D1*
X430695D2*
X472605D1*
X499275D2*
X535757D1*
X635298D2*
X681298D1*
X733519D2*
X778434D1*
X802938D2*
X850824D1*
X901944D2*
X948827D1*
X971715D2*
X1013625D1*
X1028865D2*
X1070775D1*
X1086015D2*
X1124115D1*
X-1100910Y-1408760D2*
X-1058695D1*
X-1044415D2*
X-1001545D1*
X-988493D2*
X-948525D1*
X-921840D2*
X-879625D1*
X-865345D2*
X-822475D1*
X-809423D2*
X-769455D1*
X-742770D2*
X-700555D1*
X-686275D2*
X-643405D1*
X-630353D2*
X-590385D1*
X-479746D2*
X-437985D1*
X-373215D2*
X-316065D1*
X-266386D2*
X-224625D1*
X-156045D2*
X-114135D1*
X-96531D2*
X-54125D1*
X7785D2*
X45885D1*
X95415D2*
X148755D1*
X160185D2*
X198285D1*
X225104D2*
X271708D1*
X297345D2*
X350685D1*
X362115D2*
X400215D1*
X430695D2*
X472605D1*
X499275D2*
X536609D1*
X636462D2*
X684324D1*
X730201D2*
X777338D1*
X804102D2*
X855532D1*
X898236D2*
X947428D1*
X971715D2*
X1013625D1*
X1028865D2*
X1070775D1*
X1086015D2*
X1124115D1*
X-1100776Y-1412570D2*
X-1058003D1*
X-1046770D2*
X-1000853D1*
X-990657D2*
X-948525D1*
X-921706D2*
X-878933D1*
X-867700D2*
X-821783D1*
X-811587D2*
X-769455D1*
X-742636D2*
X-699863D1*
X-688630D2*
X-642713D1*
X-632517D2*
X-590385D1*
X-540855D2*
X-525615D1*
X-479261D2*
X-437985D1*
X-373215D2*
X-316065D1*
X-265901D2*
X-224625D1*
X-156045D2*
X-114135D1*
X-95179D2*
X-52224D1*
X7785D2*
X45885D1*
X95415D2*
X148755D1*
X160185D2*
X198285D1*
X225589D2*
X276515D1*
X297345D2*
X350685D1*
X362115D2*
X400215D1*
X430695D2*
X472605D1*
X499275D2*
X536910D1*
X575475D2*
X590715D1*
X637862D2*
X693208D1*
X720988D2*
X775964D1*
X805517D2*
X863618D1*
X889513D2*
X945789D1*
X971715D2*
X1013625D1*
X1028865D2*
X1070775D1*
X1086015D2*
X1124115D1*
X-1100291Y-1416380D2*
X-1055034D1*
X-1052436D2*
X-997884D1*
X-993984D2*
X-948525D1*
X-921221D2*
X-875964D1*
X-873366D2*
X-818814D1*
X-814914D2*
X-769455D1*
X-742151D2*
X-696894D1*
X-694296D2*
X-639744D1*
X-635844D2*
X-590385D1*
X-546264D2*
X-520650D1*
X-478348D2*
X-396075D1*
X-373215D2*
X-316065D1*
X-264988D2*
X-182715D1*
X-156045D2*
X-114135D1*
X-93703D2*
X-50316D1*
X7785D2*
X45885D1*
X95415D2*
X148755D1*
X160185D2*
X198285D1*
X226517D2*
X280803D1*
X297345D2*
X350685D1*
X362115D2*
X400215D1*
X430695D2*
X472605D1*
X480225D2*
X536617D1*
X570066D2*
X595680D1*
X639501D2*
X707051D1*
X706937D2*
X774334D1*
X807275D2*
X876293D1*
X876685D2*
X943996D1*
X971715D2*
X1013625D1*
X1028865D2*
X1070775D1*
X1086015D2*
X1124115D1*
X-1099378Y-1420190D2*
X-948540D1*
X-920308D2*
X-769470D1*
X-741238D2*
X-590400D1*
X-550531D2*
X-516839D1*
X-477356D2*
X-396075D1*
X-373215D2*
X-331305D1*
X-263996D2*
X-182715D1*
X-156045D2*
X-114135D1*
X-92050D2*
X-48414D1*
X7785D2*
X45885D1*
X95415D2*
X148755D1*
X160185D2*
X198285D1*
X227628D2*
X284018D1*
X297345D2*
X350685D1*
X362115D2*
X400215D1*
X430695D2*
X472605D1*
X480225D2*
X535767D1*
X565799D2*
X599491D1*
X641294D2*
X772545D1*
X809419D2*
X942006D1*
X971715D2*
X1013625D1*
X1028865D2*
X1070775D1*
X1086015D2*
X1124115D1*
X-1098386Y-1424000D2*
X-948674D1*
X-919316D2*
X-769604D1*
X-740246D2*
X-590534D1*
X-553829D2*
X-514096D1*
X-476558D2*
X-396075D1*
X-373215D2*
X-331305D1*
X-263198D2*
X-182715D1*
X-156045D2*
X-114135D1*
X-90381D2*
X-46506D1*
X7785D2*
X45885D1*
X95415D2*
X137325D1*
X160185D2*
X198285D1*
X228792D2*
X285022D1*
X297345D2*
X339255D1*
X362115D2*
X400215D1*
X430695D2*
X472605D1*
X480225D2*
X534686D1*
X562501D2*
X602234D1*
X643284D2*
X770555D1*
X811837D2*
X939624D1*
X971715D2*
X1013625D1*
X1028865D2*
X1070775D1*
X1086015D2*
X1124115D1*
X-1097588Y-1427810D2*
X-949174D1*
X-918518D2*
X-770104D1*
X-739448D2*
X-591034D1*
X-554999D2*
X-512255D1*
X-475704D2*
X-396075D1*
X-373215D2*
X-331305D1*
X-262344D2*
X-182715D1*
X-156045D2*
X-114135D1*
X-88887D2*
X-44604D1*
X7785D2*
X45885D1*
X95415D2*
X137325D1*
X160185D2*
X198285D1*
X230207D2*
X285546D1*
X297345D2*
X339255D1*
X362115D2*
X400215D1*
X430695D2*
X472605D1*
X480225D2*
X533532D1*
X561331D2*
X604075D1*
X645666D2*
X768173D1*
X814283D2*
X936676D1*
X971715D2*
X1013625D1*
X1028865D2*
X1070775D1*
X1086015D2*
X1124115D1*
X-1096734Y-1431620D2*
X-950236D1*
X-917664D2*
X-771166D1*
X-738594D2*
X-592096D1*
X-555630D2*
X-511238D1*
X-474481D2*
X-396075D1*
X-373215D2*
X-331305D1*
X-261121D2*
X-182715D1*
X-156045D2*
X-114135D1*
X-87550D2*
X-42696D1*
X7785D2*
X45885D1*
X95415D2*
X137325D1*
X160185D2*
X198285D1*
X231980D2*
X285774D1*
X297345D2*
X339255D1*
X362115D2*
X400215D1*
X430695D2*
X472605D1*
X480225D2*
X532121D1*
X560700D2*
X605092D1*
X648614D2*
X765226D1*
X816933D2*
X933300D1*
X971715D2*
X1013625D1*
X1028865D2*
X1070775D1*
X1086015D2*
X1124115D1*
X-1095511Y-1435430D2*
X-951847D1*
X-916441D2*
X-772777D1*
X-737371D2*
X-593707D1*
X-555899D2*
X-510874D1*
X-472788D2*
X-396075D1*
X-373215D2*
X-331305D1*
X-259428D2*
X-182715D1*
X-156045D2*
X-114135D1*
X-86080D2*
X-40794D1*
X7785D2*
X45885D1*
X95415D2*
X137325D1*
X160185D2*
X198285D1*
X234273D2*
X285864D1*
X297345D2*
X339255D1*
X362115D2*
X400215D1*
X430695D2*
X472605D1*
X480225D2*
X530334D1*
X560431D2*
X605456D1*
X652005D2*
X761850D1*
X820132D2*
X929667D1*
X971715D2*
X1013625D1*
X1028865D2*
X1070775D1*
X1086015D2*
X1124115D1*
X-1093833Y-1439240D2*
X-954058D1*
X-914763D2*
X-774988D1*
X-735693D2*
X-595918D1*
X-555865D2*
X-511160D1*
X-470388D2*
X-396075D1*
X-373215D2*
X-331305D1*
X-257028D2*
X-182715D1*
X-156045D2*
X-114135D1*
X-84414D2*
X-38886D1*
X7785D2*
X45885D1*
X95415D2*
X137325D1*
X160185D2*
X198285D1*
X237325D2*
X285897D1*
X297345D2*
X339255D1*
X362115D2*
X400215D1*
X430695D2*
X472605D1*
X480225D2*
X527908D1*
X560465D2*
X605170D1*
X655772D2*
X758217D1*
X824059D2*
X925786D1*
X971715D2*
X1013625D1*
X1028865D2*
X1070775D1*
X1086015D2*
X1124115D1*
X-1091581Y-1443050D2*
X-1028550D1*
X-1020885D2*
X-956950D1*
X-912511D2*
X-849480D1*
X-841815D2*
X-777880D1*
X-733441D2*
X-670410D1*
X-662745D2*
X-598810D1*
X-555273D2*
X-512150D1*
X-466723D2*
X-396075D1*
X-373215D2*
X-331305D1*
X-253363D2*
X-182715D1*
X-156045D2*
X-114135D1*
X-82614D2*
X-36972D1*
X7785D2*
X45885D1*
X95415D2*
X137325D1*
X160185D2*
X198285D1*
X241317D2*
X285909D1*
X297345D2*
X339255D1*
X362115D2*
X400215D1*
X430695D2*
X472605D1*
X480225D2*
X524372D1*
X561057D2*
X604180D1*
X660154D2*
X754306D1*
X828773D2*
X921356D1*
X971715D2*
X1013625D1*
X1028865D2*
X1070775D1*
X1086015D2*
X1124115D1*
X-1088550Y-1446860D2*
X-1032505D1*
X-1016785D2*
X-960445D1*
X-909480D2*
X-853435D1*
X-837715D2*
X-781375D1*
X-730410D2*
X-674365D1*
X-658645D2*
X-602305D1*
X-553742D2*
X-513874D1*
X-461248D2*
X-396075D1*
X-373215D2*
X-331305D1*
X-247888D2*
X-182715D1*
X-156045D2*
X-114135D1*
X-80656D2*
X-34965D1*
X7785D2*
X45885D1*
X95415D2*
X137325D1*
X160185D2*
X198285D1*
X246462D2*
X285913D1*
X297345D2*
X339255D1*
X362115D2*
X400215D1*
X430695D2*
X472605D1*
X480225D2*
X519480D1*
X562588D2*
X602456D1*
X665626D2*
X749602D1*
X834268D2*
X915865D1*
X971715D2*
X1013625D1*
X1028865D2*
X1070775D1*
X1086015D2*
X1124115D1*
X-1084609Y-1450670D2*
X-1036904D1*
X-1011797D2*
X-964642D1*
X-905539D2*
X-857834D1*
X-832727D2*
X-785572D1*
X-726469D2*
X-678764D1*
X-653657D2*
X-606502D1*
X-551228D2*
X-516652D1*
X-453907D2*
X-396075D1*
X-373215D2*
X-331305D1*
X-240547D2*
X-182715D1*
X-156045D2*
X-114135D1*
X-78452D2*
X-32742D1*
X7785D2*
X45885D1*
X95415D2*
X137325D1*
X160185D2*
X198285D1*
X252626D2*
X285914D1*
X297345D2*
X339255D1*
X362115D2*
X400215D1*
X430695D2*
X472605D1*
X480225D2*
X513439D1*
X565102D2*
X599678D1*
X672534D2*
X743091D1*
X840840D2*
X908950D1*
X971715D2*
X1013625D1*
X1028865D2*
X1070775D1*
X1086015D2*
X1124115D1*
X-1079704Y-1454480D2*
X-1042016D1*
X-1005382D2*
X-969671D1*
X-900634D2*
X-862946D1*
X-826312D2*
X-790601D1*
X-721564D2*
X-683876D1*
X-647242D2*
X-611531D1*
X-548071D2*
X-520760D1*
X-445605D2*
X-396075D1*
X-373215D2*
X-331305D1*
X-232245D2*
X-182715D1*
X-156045D2*
X-114135D1*
X-76035D2*
X-30315D1*
X7785D2*
X45885D1*
X95415D2*
X137325D1*
X160185D2*
X198285D1*
X259245D2*
X285915D1*
X297345D2*
X339255D1*
X362115D2*
X400215D1*
X430695D2*
X472605D1*
X480225D2*
X506895D1*
X568259D2*
X595570D1*
X680801D2*
X734244D1*
X848753D2*
X900680D1*
X971715D2*
X1013625D1*
X1028865D2*
X1070775D1*
X1086015D2*
X1124115D1*
X-1074255Y-1458290D2*
X-1047585D1*
X-998055D2*
X-975195D1*
X-895185D2*
X-868515D1*
X-818985D2*
X-796125D1*
X-716115D2*
X-689445D1*
X-639915D2*
X-617055D1*
X-544665D2*
X-525615D1*
X571665D2*
X590715D1*
X689775D2*
X724065D1*
X857415D2*
X891705D1*
X30794Y776344D2*
X61274D1*
X25196Y772534D2*
X66828D1*
X-37786Y768724D2*
X-7306D1*
X20001D2*
X71598D1*
X-43210Y764914D2*
X-2095D1*
X14459D2*
X75461D1*
X-47611Y761104D2*
X4389D1*
X7789D2*
X78456D1*
X-50912Y757294D2*
X80754D1*
X-53371Y753484D2*
X82390D1*
X-55203Y749674D2*
X83337D1*
X-56660Y745864D2*
X83802D1*
X-58046Y742054D2*
X84005D1*
X-59229Y738244D2*
X35353D1*
X46034D2*
X84086D1*
X-59976Y734434D2*
X33124D1*
X46034D2*
X84117D1*
X-60361Y730624D2*
X-17972D1*
X-3496D2*
X31844D1*
X46034D2*
X84128D1*
X-60533Y726814D2*
X-20503D1*
X-3496D2*
X31196D1*
X46034D2*
X84132D1*
X-60604Y723004D2*
X-21228D1*
X-3496D2*
X30794D1*
X46034D2*
X84134D1*
X-60631Y719194D2*
X-19914D1*
X-60641Y715384D2*
X-17655D1*
X-60644Y711574D2*
X84134D1*
X-60645Y707764D2*
X84134D1*
X-60646Y703954D2*
X84134D1*
X-60646Y700144D2*
X84134D1*
X-60646Y696334D2*
X84134D1*
X-60646Y692524D2*
X84134D1*
X-60646Y688714D2*
X84134D1*
X-60646Y684904D2*
X84134D1*
X-60646Y681094D2*
X84134D1*
X-60646Y677284D2*
X84134D1*
X-60646Y673474D2*
X84134D1*
X-60646Y612514D2*
X84134D1*
X-60646Y608704D2*
X84134D1*
X-60646Y604894D2*
X84134D1*
X-60646Y601084D2*
X84134D1*
X-60646Y597274D2*
X84134D1*
X-60646Y593464D2*
X84134D1*
X-60646Y589654D2*
X84134D1*
X-60646Y585844D2*
X84134D1*
X-60646Y582034D2*
X84134D1*
X-60646Y578224D2*
X84134D1*
X-60646Y574414D2*
X84134D1*
X-60646Y521074D2*
X-22546D1*
X-61948Y517264D2*
X-23725D1*
X23174D2*
X53654D1*
X-63082Y513454D2*
X-24302D1*
X14473D2*
X60525D1*
X-63790Y509644D2*
X-18695D1*
X4532D2*
X66563D1*
X-64029Y505834D2*
X-10159D1*
X-8102D2*
X71635D1*
X-63712Y502024D2*
X75929D1*
X-62853Y498214D2*
X79507D1*
X-61769Y494404D2*
X82362D1*
X-60613Y490594D2*
X84601D1*
X-59202Y486784D2*
X86213D1*
X-57430Y482974D2*
X87151D1*
X-55153Y479164D2*
X87613D1*
X-52235Y475354D2*
X87815D1*
X-48712Y471544D2*
X87897D1*
X-44322Y467734D2*
X26828D1*
X45285D2*
X87927D1*
X-38470Y463924D2*
X18616D1*
X47499D2*
X87923D1*
X-30952Y460114D2*
X9693D1*
X48987D2*
X87782D1*
X-22546Y456304D2*
X314D1*
X48750D2*
X87195D1*
X47658Y452494D2*
X85893D1*
X46034Y448684D2*
X84134D1*
X-60646Y429634D2*
X84134D1*
X-60646Y425824D2*
X84134D1*
X-60646Y422014D2*
X84134D1*
X-60646Y418204D2*
X84134D1*
X-60646Y414394D2*
X84134D1*
X-60646Y410584D2*
X84134D1*
X-60646Y406774D2*
X84134D1*
X-60646Y402964D2*
X84134D1*
X-60646Y399154D2*
X84134D1*
X-60646Y395344D2*
X84134D1*
X-60646Y391534D2*
X84134D1*
X-60646Y387724D2*
X-22691D1*
X-60646Y383914D2*
X-15545D1*
X-60631Y380104D2*
X-8693D1*
X-60467Y376294D2*
X-1471D1*
X11744D2*
X38414D1*
X-60066Y372484D2*
X6729D1*
X9958D2*
X38414D1*
X-58138Y368674D2*
X38414D1*
X-53446Y364864D2*
X38414D1*
X-47112Y361054D2*
X38414D1*
X-39305Y357244D2*
X38414D1*
X-30590Y353434D2*
X38414D1*
X-21523Y349624D2*
X38414D1*
X-12493Y345814D2*
X38414D1*
X-3581Y342004D2*
X38414D1*
X5366Y338194D2*
X38414D1*
X14158Y334384D2*
X38414D1*
X22578Y330574D2*
X38414D1*
X30794Y326764D2*
X38414D1*
X-26356Y300094D2*
X53654D1*
X-33227Y296284D2*
X60525D1*
X-39265Y292474D2*
X66563D1*
X-44337Y288664D2*
X71635D1*
X-48631Y284854D2*
X75929D1*
X-52209Y281044D2*
X79507D1*
X-55064Y277234D2*
X82362D1*
X-57317Y273424D2*
X84601D1*
X-59064Y269614D2*
X86213D1*
X-60488Y265804D2*
X87151D1*
X-61862Y261994D2*
X87613D1*
X-63041Y258184D2*
X-23246D1*
X49844D2*
X87815D1*
X-63772Y254374D2*
X-24583D1*
X49844D2*
X87897D1*
X-64022Y250564D2*
X-26356D1*
X49844D2*
X87927D1*
X-63709Y246754D2*
X-24583D1*
X49844D2*
X87938D1*
X-62867Y242944D2*
X-23406D1*
X49844D2*
X87927D1*
X-61902Y239134D2*
X87795D1*
X-61099Y235324D2*
X87295D1*
X-60115Y231514D2*
X86233D1*
X-58407Y227704D2*
X84622D1*
X-55817Y223894D2*
X82411D1*
X-52588Y220084D2*
X79519D1*
X-48889Y216274D2*
X76020D1*
X-44549Y212464D2*
X71778D1*
X-39244Y208654D2*
X66516D1*
X-33012Y204844D2*
X60301D1*
X-26356Y201034D2*
X53654D1*
X-33976Y174364D2*
X84134D1*
X-40847Y170554D2*
X84134D1*
X-46871Y166744D2*
X84134D1*
X-51808Y162934D2*
X84134D1*
X-55617Y159124D2*
X84134D1*
X-58282Y155314D2*
X84134D1*
X-60160Y151504D2*
X84134D1*
X-61734Y147694D2*
X84134D1*
X-62994Y143884D2*
X84134D1*
X-63755Y140074D2*
X84134D1*
X-64016Y136264D2*
X84134D1*
X-63707Y132454D2*
X84134D1*
X-62852Y128644D2*
X-26356D1*
X-61768Y124834D2*
X-22546D1*
X-60613Y121024D2*
X-18736D1*
X-59187Y117214D2*
X84134D1*
X-57282Y113404D2*
X84134D1*
X-54516Y109594D2*
X84134D1*
X-50671Y105784D2*
X84134D1*
X-46201Y101974D2*
X84134D1*
X-41596Y98164D2*
X84134D1*
X-47020Y94354D2*
X84134D1*
X-51421Y90544D2*
X84134D1*
X-54737Y86734D2*
X84134D1*
X-57315Y82924D2*
X84134D1*
X-59499Y79114D2*
X84134D1*
X-61382Y75304D2*
X-22546D1*
X-62833Y71494D2*
X-26356D1*
X-63689Y67684D2*
X-22546D1*
X-63991Y63874D2*
X84134D1*
X-63698Y60064D2*
X84134D1*
X-62848Y56254D2*
X84134D1*
X-61752Y52444D2*
X84134D1*
X-60479Y48634D2*
X84134D1*
X-58702Y44824D2*
X84134D1*
X-56369Y41014D2*
X84134D1*
X-53512Y37204D2*
X84134D1*
X-49718Y33394D2*
X84134D1*
X-44509Y29584D2*
X84134D1*
X-37783Y25774D2*
X84134D1*
X-30166Y21964D2*
X84134D1*
X-60646Y-896D2*
X84134D1*
X-60646Y-4706D2*
X84134D1*
X-60646Y-8516D2*
X84134D1*
X-60646Y-12326D2*
X84134D1*
X-60646Y-16136D2*
X84134D1*
X-60646Y-19946D2*
X84134D1*
X-60646Y-23756D2*
X84134D1*
X-60646Y-27566D2*
X84134D1*
X-60646Y-31376D2*
X84134D1*
X-60646Y-35186D2*
X84134D1*
X-60646Y-38996D2*
X84134D1*
X-60646Y-42806D2*
X-22691D1*
X-60646Y-46616D2*
X-15545D1*
X-60631Y-50426D2*
X-8693D1*
X-60467Y-54236D2*
X-1471D1*
X11744D2*
X38414D1*
X-60066Y-58046D2*
X6729D1*
X9958D2*
X38414D1*
X-58138Y-61856D2*
X38414D1*
X-53446Y-65666D2*
X38414D1*
X-47112Y-69476D2*
X38414D1*
X-39305Y-73286D2*
X38414D1*
X-30590Y-77096D2*
X38414D1*
X-21523Y-80906D2*
X38414D1*
X-12493Y-84716D2*
X38414D1*
X-3581Y-88526D2*
X38414D1*
X5366Y-92336D2*
X38414D1*
X14158Y-96146D2*
X38414D1*
X22578Y-99956D2*
X38414D1*
X30794Y-103766D2*
X38414D1*
X30794Y-122816D2*
X49844D1*
X22179Y-126626D2*
X57745D1*
X15195Y-130436D2*
X64554D1*
X10190Y-134246D2*
X69973D1*
X6502Y-138056D2*
X74014D1*
X5269Y-141866D2*
X77266D1*
X4608Y-145676D2*
X80148D1*
X4312Y-149486D2*
X82638D1*
X-60646Y-153296D2*
X-18736D1*
X4193D2*
X84710D1*
X-61235Y-157106D2*
X-20640D1*
X4148D2*
X86254D1*
X-62179Y-160916D2*
X-22208D1*
X4132D2*
X39163D1*
X45285D2*
X87166D1*
X-63166Y-164726D2*
X-23541D1*
X4127D2*
X36934D1*
X47513D2*
X87618D1*
X-63833Y-168536D2*
X-24608D1*
X4125D2*
X35654D1*
X48789D2*
X87817D1*
X-64172Y-172346D2*
X-24197D1*
X4124D2*
X35006D1*
X49393D2*
X87897D1*
X-64200Y-176156D2*
X-23415D1*
X4124D2*
X34604D1*
X49512D2*
X87927D1*
X-63782Y-179966D2*
X-22410D1*
X48984D2*
X87938D1*
X-62895Y-183776D2*
X-21048D1*
X47477D2*
X87927D1*
X-61912Y-187586D2*
X-19138D1*
X44938D2*
X87795D1*
X-61117Y-191396D2*
X-16694D1*
X41398D2*
X87309D1*
X-60265Y-195206D2*
X-10533D1*
X36010D2*
X86382D1*
X-59057Y-199016D2*
X-643D1*
X26886D2*
X85257D1*
X-57513Y-202826D2*
X13798D1*
X13034D2*
X83973D1*
X-55761Y-206636D2*
X82206D1*
X-53788Y-210446D2*
X80007D1*
X-51411Y-214256D2*
X77664D1*
X-48466Y-218066D2*
X75074D1*
X-45090Y-221876D2*
X72011D1*
X-41458Y-225686D2*
X68442D1*
X-37562Y-229496D2*
X64172D1*
X-33003Y-233306D2*
X58887D1*
X-27081Y-237116D2*
X52584D1*
X-19536Y-240926D2*
X45626D1*
X-11116Y-244736D2*
X38414D1*
X-22546Y-267596D2*
X-3496D1*
X46034D2*
X84134D1*
X-31176Y-271406D2*
X5883D1*
X46034D2*
X84134D1*
X-38308Y-275216D2*
X14612D1*
X46019D2*
X84134D1*
X-43933Y-279026D2*
X22931D1*
X45874D2*
X84134D1*
X-48474Y-282836D2*
X31385D1*
X45285D2*
X84134D1*
X-52150Y-286646D2*
X40410D1*
X43983D2*
X84134D1*
X-55043Y-290456D2*
X84134D1*
X-57310Y-294266D2*
X84134D1*
X-59062Y-298076D2*
X84134D1*
X-60487Y-301886D2*
X84134D1*
X-61862Y-305696D2*
X84134D1*
X-63041Y-309506D2*
X84134D1*
X-63772Y-313316D2*
X-21637D1*
X-3496D2*
X84134D1*
X-64022Y-317126D2*
X-23852D1*
X4124D2*
X84134D1*
X-63709Y-320936D2*
X-24287D1*
X11744D2*
X84134D1*
X-62852Y-324746D2*
X-19389D1*
X19364D2*
X84134D1*
X-61769Y-328556D2*
X-12194D1*
X-3496D2*
X4124D1*
X26984D2*
X84134D1*
X-60613Y-332366D2*
X9985D1*
X34604D2*
X84134D1*
X-59202Y-336176D2*
X16507D1*
X42224D2*
X84134D1*
X-57430Y-339986D2*
X23545D1*
X49844D2*
X84134D1*
X-55153Y-343796D2*
X30794D1*
X57464D2*
X84134D1*
X-52250Y-347606D2*
X28272D1*
X65084D2*
X84134D1*
X-48861Y-351416D2*
X25447D1*
X72704D2*
X84134D1*
X-44959Y-355226D2*
X21726D1*
X80324D2*
X84134D1*
X-40052Y-359036D2*
X16756D1*
X-33668Y-362846D2*
X10685D1*
X-26356Y-366656D2*
X4124D1*
X7934Y-381896D2*
X34604D1*
X7934Y-385706D2*
X34604D1*
X7934Y-389516D2*
X34604D1*
X7934Y-393326D2*
X34604D1*
X7934Y-397136D2*
X34604D1*
X7934Y-400946D2*
X34604D1*
X7934Y-404756D2*
X34604D1*
X7934Y-408566D2*
X34604D1*
X7934Y-412376D2*
X34604D1*
X7934Y-416186D2*
X34604D1*
X7934Y-419996D2*
X34604D1*
X7934Y-423806D2*
X34604D1*
X7934Y-427616D2*
X34604D1*
X26984Y-454286D2*
X49844D1*
X-60646Y-458096D2*
X-53026D1*
X19657D2*
X58474D1*
X-60646Y-461906D2*
X-43443D1*
X13613D2*
X65592D1*
X-60646Y-465716D2*
X-33657D1*
X8261D2*
X71097D1*
X-60646Y-469526D2*
X-22181D1*
X2192D2*
X75271D1*
X-60646Y-473336D2*
X-7962D1*
X-5730D2*
X78402D1*
X-60646Y-477146D2*
X80879D1*
X-60646Y-480956D2*
X83017D1*
X-60646Y-484766D2*
X84881D1*
X-60646Y-488576D2*
X86324D1*
X-60646Y-492386D2*
X87193D1*
X-60646Y-496196D2*
X87628D1*
X-60646Y-500006D2*
X19509D1*
X42064D2*
X87820D1*
X-60646Y-503816D2*
X16202D1*
X45237D2*
X87898D1*
X-60646Y-507626D2*
X13454D1*
X47499D2*
X87928D1*
X-60646Y-511436D2*
X11255D1*
X48785D2*
X87938D1*
X-60646Y-515246D2*
X9646D1*
X49392D2*
X87927D1*
X-60646Y-519056D2*
X-22546D1*
X-7306D2*
X8645D1*
X49516D2*
X87783D1*
X-60646Y-522866D2*
X-22546D1*
X4124D2*
X7934D1*
X49034D2*
X87195D1*
X-60646Y-526676D2*
X-22546D1*
X47772D2*
X85893D1*
X-60646Y-530486D2*
X-22546D1*
X46034D2*
X84134D1*
X-60646Y-572396D2*
X-49216D1*
X-60646Y-576206D2*
X-35438D1*
X-60646Y-580016D2*
X-21955D1*
X-60646Y-583826D2*
X-8851D1*
X-60646Y-587636D2*
X3993D1*
X-60646Y-591446D2*
X16923D1*
X-60646Y-595256D2*
X30029D1*
X-60646Y-599066D2*
X43206D1*
X-60646Y-602876D2*
X56036D1*
X-60646Y-606686D2*
X67312D1*
X-60646Y-610496D2*
X76769D1*
X-60646Y-614306D2*
X81160D1*
X-60646Y-618116D2*
X82746D1*
X-60646Y-621926D2*
X83565D1*
X-60646Y-625736D2*
X-22546D1*
X-7306D2*
X83918D1*
X-60646Y-629546D2*
X-22546D1*
X4139D2*
X84057D1*
X-60646Y-633356D2*
X-22546D1*
X15703D2*
X84107D1*
X-60646Y-637166D2*
X-22546D1*
X27618D2*
X84125D1*
X-60646Y-640976D2*
X-22546D1*
X39962D2*
X84131D1*
X-60646Y-644786D2*
X-22546D1*
X52378D2*
X84133D1*
X-60646Y-648596D2*
X-22546D1*
X64530D2*
X84134D1*
X-60646Y-652406D2*
X-22546D1*
X76514D2*
X84134D1*
X-60646Y-656216D2*
X-22546D1*
X-60646Y-660026D2*
X-22546D1*
X-60646Y-663836D2*
X-22546D1*
X-60646Y-667646D2*
X-22546D1*
X-60646Y-694316D2*
X-22546D1*
X-3496D2*
X26984D1*
X46034D2*
X84134D1*
X-60646Y-698126D2*
X-22546D1*
X-3496D2*
X26984D1*
X46034D2*
X84134D1*
X-60646Y-701936D2*
X-22546D1*
X-3496D2*
X26984D1*
X46034D2*
X84134D1*
X-60646Y-705746D2*
X-22546D1*
X-3496D2*
X26984D1*
X46034D2*
X84134D1*
X-60646Y-709556D2*
X-22531D1*
X-3496D2*
X26984D1*
X46034D2*
X84134D1*
X-60646Y-713366D2*
X-22397D1*
X-3496D2*
X26999D1*
X46034D2*
X84134D1*
X-60646Y-717176D2*
X-21867D1*
X-3541D2*
X27133D1*
X46019D2*
X84134D1*
X-60646Y-720986D2*
X-20901D1*
X-3976D2*
X27648D1*
X45841D2*
X84134D1*
X-60646Y-724796D2*
X-17861D1*
X-5014D2*
X28852D1*
X45394D2*
X84134D1*
X-60631Y-728606D2*
X-13160D1*
X-9468D2*
X31016D1*
X43039D2*
X84134D1*
X-60497Y-732416D2*
X34343D1*
X37373D2*
X84134D1*
X-60012Y-736226D2*
X84119D1*
X-59084Y-740036D2*
X83985D1*
X-57973Y-743846D2*
X83485D1*
X-56809Y-747656D2*
X82423D1*
X-55394Y-751466D2*
X80812D1*
X-53606Y-755276D2*
X78601D1*
X-51179Y-759086D2*
X75694D1*
X-47643Y-762896D2*
X72054D1*
X-42751Y-766706D2*
X67268D1*
X-36710Y-770516D2*
X60937D1*
X-30166Y-774326D2*
X53654D1*
X187968Y1150311D2*
D13*
X214635D1*
X261301D2*
X284635D1*
X307968D2*
X337968D1*
X357968D2*
X381301D1*
X187968Y1146977D2*
X214635D1*
X255303D2*
X289507D1*
X310773D2*
X339234D1*
X356815D2*
X381174D1*
X187968Y1143644D2*
X214635D1*
X250137D2*
X293784D1*
X313163D2*
X340667D1*
X355680D2*
X380734D1*
X187968Y1140311D2*
X214635D1*
X246125D2*
X297472D1*
X315195D2*
X342225D1*
X354367D2*
X379818D1*
X187968Y1136977D2*
X214635D1*
X243179D2*
X300478D1*
X317029D2*
X343931D1*
X352628D2*
X378525D1*
X187968Y1133644D2*
X214635D1*
X241021D2*
X302662D1*
X318760D2*
X345855D1*
X348870D2*
X377015D1*
X187968Y1130311D2*
X214635D1*
X239529D2*
X304245D1*
X320455D2*
X375310D1*
X187968Y1126977D2*
X214635D1*
X238678D2*
X305600D1*
X322129D2*
X373351D1*
X187968Y1123644D2*
X214635D1*
X238263D2*
X264635D1*
X277968D2*
X306680D1*
X323801D2*
X371213D1*
X187968Y1120311D2*
X214635D1*
X238083D2*
X264635D1*
X281301D2*
X307239D1*
X325466D2*
X369175D1*
X187968Y1116977D2*
X214635D1*
X238010D2*
X264635D1*
X277484D2*
X307159D1*
X327136D2*
X367303D1*
X187968Y1113644D2*
X214635D1*
X237983D2*
X264635D1*
X274116D2*
X306502D1*
X328810D2*
X365560D1*
X187968Y1110311D2*
X214635D1*
X237973D2*
X264635D1*
X272687D2*
X305580D1*
X330566D2*
X364089D1*
X187968Y1106977D2*
X214635D1*
X237970D2*
X264635D1*
X271899D2*
X304467D1*
X332511D2*
X362940D1*
X187968Y1103644D2*
X214635D1*
X237969D2*
X264635D1*
X271538D2*
X302800D1*
X334635D2*
X363355D1*
X187968Y1100311D2*
X214635D1*
X237968D2*
X264635D1*
X271389D2*
X300327D1*
X332568D2*
X364332D1*
X187968Y1096977D2*
X214635D1*
X237968D2*
X264635D1*
X271333D2*
X296966D1*
X330667D2*
X365677D1*
X187968Y1093644D2*
X214635D1*
X237968D2*
X264635D1*
X271312D2*
X292714D1*
X328882D2*
X367214D1*
X187968Y1090311D2*
X214635D1*
X237968D2*
X264635D1*
X271301D2*
X287968D1*
X327154D2*
X368828D1*
X187968Y1086977D2*
X214635D1*
X237968D2*
X264635D1*
X325361D2*
X370479D1*
X187968Y1083644D2*
X214635D1*
X237968D2*
X264635D1*
X323369D2*
X372137D1*
X187968Y1080311D2*
X214635D1*
X237968D2*
X264635D1*
X321219D2*
X373804D1*
X187968Y1076977D2*
X214635D1*
X237968D2*
X264635D1*
X319177D2*
X375467D1*
X187968Y1073644D2*
X214635D1*
X237968D2*
X264635D1*
X317303D2*
X341174D1*
X351829D2*
X377123D1*
X187968Y1070311D2*
X214635D1*
X237968D2*
X264635D1*
X315534D2*
X340734D1*
X352773D2*
X378670D1*
X187968Y1066977D2*
X214635D1*
X237968D2*
X264635D1*
X313818D2*
X339808D1*
X354064D2*
X379901D1*
X187968Y1063644D2*
X214635D1*
X237968D2*
X264635D1*
X312046D2*
X338429D1*
X355476D2*
X380653D1*
X187968Y1060311D2*
X214635D1*
X237968D2*
X264635D1*
X310095D2*
X336658D1*
X356796D2*
X381049D1*
X187968Y1056977D2*
X214635D1*
X237968D2*
X264635D1*
X307968D2*
X334635D1*
X357968D2*
X381301D1*
X201540Y-105345D2*
X204873D1*
X193296Y-108678D2*
X204873D1*
X138207Y-112012D2*
X144873D1*
X185291D2*
X204873D1*
X138207Y-115345D2*
X153378D1*
X176593D2*
X204873D1*
X138207Y-118678D2*
X163554D1*
X166285D2*
X204873D1*
X138207Y-122012D2*
X204834D1*
X138233Y-125345D2*
X204444D1*
X138493Y-128678D2*
X203506D1*
X139118Y-132012D2*
X199027D1*
X142241Y-135345D2*
X192642D1*
X147255Y-138678D2*
X184532D1*
X154915Y-142012D2*
X174031D1*
X165659Y-145345D2*
X160391D1*
X111540Y-152012D2*
X204873D1*
X111540Y-155345D2*
X204873D1*
X111540Y-158678D2*
X204873D1*
X111540Y-162012D2*
X204873D1*
X111540Y-165345D2*
X204873D1*
X111540Y-168678D2*
X204873D1*
X111540Y-172012D2*
X204873D1*
X111540Y-175345D2*
X204873D1*
X138207Y-185345D2*
X161540D1*
X138220Y-188678D2*
X163656D1*
X138337Y-192012D2*
X171989D1*
X138775Y-195345D2*
X186410D1*
X139690Y-198678D2*
X204873D1*
X140983Y-202012D2*
X204873D1*
X142506Y-205345D2*
X204873D1*
X144368Y-208678D2*
X204873D1*
X147125Y-212012D2*
X204873D1*
X151554Y-215345D2*
X204873D1*
X157759Y-218678D2*
X204873D1*
X164873Y-222012D2*
X204873D1*
X158207Y-235345D2*
X174873D1*
X154249Y-238678D2*
X174873D1*
X150763Y-242012D2*
X174873D1*
X147791Y-245345D2*
X174873D1*
X145257Y-248678D2*
X174873D1*
X198207D2*
X201540D1*
X143322Y-252012D2*
X174873D1*
X194886D2*
X202680D1*
X141854Y-255345D2*
X174873D1*
X191683D2*
X203672D1*
X140547Y-258678D2*
X174873D1*
X188905D2*
X204304D1*
X139471Y-262012D2*
X158989D1*
X164925D2*
X174821D1*
X186912D2*
X204630D1*
X138815Y-265345D2*
X157012D1*
X165082D2*
X174665D1*
X185643D2*
X204777D1*
X138590Y-268678D2*
X156957D1*
X166644D2*
X173103D1*
X184388D2*
X204838D1*
X138861Y-272012D2*
X158439D1*
X171839D2*
X167907D1*
X182664D2*
X204848D1*
X139610Y-275345D2*
X163026D1*
X177490D2*
X204739D1*
X140558Y-278678D2*
X169930D1*
X170154D2*
X204304D1*
X141569Y-282012D2*
X203376D1*
X142803Y-285345D2*
X201967D1*
X144366Y-288678D2*
X200032D1*
X146489Y-292012D2*
X197502D1*
X149583Y-295345D2*
X194445D1*
X153863Y-298678D2*
X190773D1*
X159148Y-302012D2*
X186373D1*
X164873Y-305345D2*
X181540D1*
X178207Y-312012D2*
X184873D1*
X171522Y-315345D2*
X190758D1*
X124873Y-318678D2*
X144873D1*
X165232D2*
X195600D1*
X121680Y-322012D2*
X154665D1*
X158600D2*
X199121D1*
X118891Y-325345D2*
X201586D1*
X116795Y-328678D2*
X203219D1*
X115245Y-332012D2*
X204128D1*
X113902Y-335345D2*
X204566D1*
X112813Y-338678D2*
X175528D1*
X181540D2*
X204755D1*
X112138Y-342012D2*
X173566D1*
X181540D2*
X204830D1*
X111794Y-345345D2*
X138861D1*
X148207D2*
X172374D1*
X181540D2*
X204859D1*
X111640Y-348678D2*
X136900D1*
X148207D2*
X171540D1*
X181540D2*
X204873D1*
X111577Y-352012D2*
X135707D1*
X111553Y-355345D2*
X204873D1*
X111545Y-358678D2*
X204873D1*
X111542Y-362012D2*
X204873D1*
X111540Y-365345D2*
X204873D1*
X111540Y-368678D2*
X204873D1*
X111540Y-372012D2*
X204873D1*
X111540Y-375345D2*
X204873D1*
X111540Y-378678D2*
X204873D1*
X111540Y-382012D2*
X204873D1*
X138207Y-442012D2*
X214873D1*
X138207Y-445345D2*
X219745D1*
X138207Y-448678D2*
X224023D1*
X138207Y-452012D2*
X227711D1*
X138207Y-455345D2*
X230704D1*
X138207Y-458678D2*
X232771D1*
X138207Y-462012D2*
X233929D1*
X138207Y-465345D2*
X234485D1*
X181540Y-468678D2*
X200885D1*
X211400D2*
X234724D1*
X181540Y-472012D2*
X202834D1*
X214176D2*
X234819D1*
X181540Y-475345D2*
X203951D1*
X216155D2*
X234854D1*
X138207Y-478678D2*
X204479D1*
X217280D2*
X234867D1*
X138207Y-482012D2*
X204596D1*
X217824D2*
X234871D1*
X138207Y-485345D2*
X204251D1*
X218060D2*
X234873D1*
X138207Y-488678D2*
X203345D1*
X218156D2*
X234873D1*
X138207Y-492012D2*
X201821D1*
X218207D2*
X234873D1*
X138207Y-495345D2*
X199385D1*
X138207Y-498678D2*
X195789D1*
X138207Y-502012D2*
X191540D1*
X161540Y-515345D2*
X184873D1*
X156668Y-518678D2*
X189732D1*
X152390Y-522012D2*
X193906D1*
X148703Y-525345D2*
X197286D1*
X145697Y-528678D2*
X199905D1*
X143512Y-532012D2*
X201916D1*
X141929Y-535345D2*
X203348D1*
X140575Y-538678D2*
X204176D1*
X139481Y-542012D2*
X164371D1*
X177552D2*
X204582D1*
X138805Y-545345D2*
X163671D1*
X179488D2*
X204760D1*
X138460Y-548678D2*
X163021D1*
X180790D2*
X204832D1*
X138300Y-552012D2*
X163747D1*
X180828D2*
X204859D1*
X138207Y-555345D2*
X164873D1*
X179446D2*
X204855D1*
X177341Y-558678D2*
X204741D1*
X111540Y-562012D2*
X204305D1*
X111540Y-565345D2*
X203377D1*
X111540Y-568678D2*
X201954D1*
X111540Y-572012D2*
X199889D1*
X111540Y-575345D2*
X196818D1*
X111540Y-578678D2*
X192546D1*
X111540Y-582012D2*
X187264D1*
X111540Y-585345D2*
X181540D1*
X-563348Y-38605D2*
D12*
X-510008D1*
X-422378D2*
X-369038D1*
X-563348Y-42415D2*
X-510008D1*
X-487148D2*
X-445238D1*
X-422378D2*
X-369038D1*
X-563348Y-46225D2*
X-510008D1*
X-487148D2*
X-445238D1*
X-422378D2*
X-369038D1*
X-563348Y-50035D2*
X-510008D1*
X-487148D2*
X-445238D1*
X-422378D2*
X-369038D1*
X-563348Y-53845D2*
X-510008D1*
X-487148D2*
X-445238D1*
X-422378D2*
X-369038D1*
X-563348Y-57655D2*
X-510008D1*
X-487148D2*
X-445238D1*
X-422378D2*
X-369038D1*
X-563348Y-61465D2*
X-510008D1*
X-487148D2*
X-445238D1*
X-422378D2*
X-369038D1*
X-563348Y-65275D2*
X-509993D1*
X-487148D2*
X-445238D1*
X-422378D2*
X-369038D1*
X-563348Y-69085D2*
X-509859D1*
X-487148D2*
X-445223D1*
X-422378D2*
X-369038D1*
X-563348Y-72895D2*
X-509359D1*
X-487163D2*
X-445089D1*
X-422378D2*
X-369038D1*
X-563348Y-76705D2*
X-508268D1*
X-487341D2*
X-444589D1*
X-422393D2*
X-369038D1*
X-563348Y-80515D2*
X-506367D1*
X-487788D2*
X-443498D1*
X-422571D2*
X-369038D1*
X-563348Y-84325D2*
X-503707D1*
X-490143D2*
X-441597D1*
X-423018D2*
X-369038D1*
X-563333Y-88135D2*
X-497753D1*
X-495809D2*
X-438937D1*
X-425373D2*
X-369038D1*
X-563199Y-91945D2*
X-432983D1*
X-431039D2*
X-369038D1*
X-562714Y-95755D2*
X-369053D1*
X-561801Y-99565D2*
X-369187D1*
X-560809Y-103375D2*
X-369672D1*
X-560011Y-107185D2*
X-370600D1*
X-559157Y-110995D2*
X-371711D1*
X-557949Y-114805D2*
X-372875D1*
X-556405Y-118615D2*
X-374290D1*
X-554653Y-122425D2*
X-376063D1*
X-552665Y-126235D2*
X-378341D1*
X-550140Y-130045D2*
X-381259D1*
X-546545Y-133855D2*
X-384797D1*
X-541478Y-137665D2*
X-389332D1*
X-534751Y-141475D2*
X-395773D1*
X-526560Y-145285D2*
X-404593D1*
X-517628Y-149095D2*
X-414758D1*
X-563348Y-168145D2*
X-510008D1*
X-563348Y-171955D2*
X-510008D1*
X-563348Y-175765D2*
X-510008D1*
X-563348Y-179575D2*
X-510008D1*
X-563348Y-183385D2*
X-510008D1*
X-563348Y-187195D2*
X-510008D1*
X-563348Y-191005D2*
X-510008D1*
X-563348Y-194815D2*
X-510008D1*
X-563348Y-198625D2*
X-510008D1*
X-563348Y-202435D2*
X-510008D1*
X-563348Y-206245D2*
X-510008D1*
X-563348Y-210055D2*
X-510008D1*
X-563348Y-213865D2*
X-369038D1*
X-563348Y-217675D2*
X-369038D1*
X-563348Y-221485D2*
X-369038D1*
X-563348Y-225295D2*
X-369038D1*
X-563348Y-229105D2*
X-369038D1*
X-563348Y-232915D2*
X-369038D1*
X-563348Y-236725D2*
X-369038D1*
X-563348Y-240535D2*
X-369038D1*
X-563348Y-244345D2*
X-369038D1*
X-563348Y-248155D2*
X-369038D1*
X-563348Y-251965D2*
X-369038D1*
X-563348Y-255775D2*
X-369038D1*
X-563348Y-259585D2*
X-369038D1*
X-563348Y-263395D2*
X-369038D1*
X-563348Y-267205D2*
X-369038D1*
X-563348Y-271015D2*
X-369038D1*
X-563348Y-274825D2*
X-510008D1*
X-563348Y-278635D2*
X-510008D1*
X-563348Y-282445D2*
X-510008D1*
X-563348Y-286255D2*
X-510008D1*
X-563348Y-290065D2*
X-510008D1*
X-563348Y-293875D2*
X-510008D1*
X-563348Y-297685D2*
X-510008D1*
X-563348Y-301495D2*
X-510008D1*
X-563348Y-305305D2*
X-510008D1*
X-563348Y-309115D2*
X-510008D1*
X-563348Y-312925D2*
X-510008D1*
X-563348Y-316735D2*
X-551918D1*
X-563348Y-320545D2*
X-545746D1*
X-563348Y-324355D2*
X-539748D1*
X-563348Y-328165D2*
X-533778D1*
X-563348Y-331975D2*
X-527642D1*
X-563348Y-335785D2*
X-521356D1*
X-563348Y-339595D2*
X-515204D1*
X-563348Y-343405D2*
X-509250D1*
X-563348Y-347215D2*
X-503417D1*
X-563348Y-351025D2*
X-497642D1*
X-563318Y-354835D2*
X-491772D1*
X-563035Y-358645D2*
X-485563D1*
X-562366Y-362455D2*
X-478861D1*
X-559424Y-366265D2*
X-369038D1*
X-555335Y-370075D2*
X-369038D1*
X-550414Y-373885D2*
X-369038D1*
X-545037Y-377695D2*
X-369038D1*
X-539448Y-381505D2*
X-369038D1*
X-533681Y-385315D2*
X-369038D1*
X-527666Y-389125D2*
X-369038D1*
X-521438Y-392935D2*
X-369038D1*
X-526710Y-396745D2*
X-369038D1*
X-532277Y-400555D2*
X-369038D1*
X-538223Y-404365D2*
X-369038D1*
X-544414Y-408175D2*
X-369038D1*
X-550371Y-411985D2*
X-369038D1*
X-555546Y-415795D2*
X-369038D1*
X-559905Y-419605D2*
X-369038D1*
X-561660Y-423415D2*
X-480132D1*
X-562623Y-427225D2*
X-485035D1*
X-563062Y-431035D2*
X-490451D1*
X-563242Y-434845D2*
X-496341D1*
X-563310Y-438655D2*
X-502529D1*
X-563335Y-442465D2*
X-508642D1*
X-563344Y-446275D2*
X-514583D1*
X-563347Y-450085D2*
X-520411D1*
X-563348Y-453895D2*
X-526170D1*
X-563348Y-457705D2*
X-531907D1*
X-563348Y-461515D2*
X-537637D1*
X-563348Y-465325D2*
X-543457D1*
X-563348Y-469135D2*
X-549490D1*
X-563348Y-472945D2*
X-555728D1*
X-445238Y-476755D2*
X-403328D1*
X-450807Y-480565D2*
X-396457D1*
X-529058Y-484375D2*
X-502388D1*
X-455696D2*
X-390433D1*
X-535914Y-488185D2*
X-495487D1*
X-459941D2*
X-385481D1*
X-541819Y-491995D2*
X-489158D1*
X-463653D2*
X-381553D1*
X-546404Y-495805D2*
X-482891D1*
X-467207D2*
X-378522D1*
X-549787Y-499615D2*
X-475828D1*
X-471224D2*
X-376083D1*
X-552387Y-503425D2*
X-373958D1*
X-554578Y-507235D2*
X-372099D1*
X-556463Y-511045D2*
X-370657D1*
X-557914Y-514855D2*
X-369789D1*
X-558800Y-518665D2*
X-369354D1*
X-559370Y-522475D2*
X-369162D1*
X-560049Y-526285D2*
X-433204D1*
X-419317D2*
X-369084D1*
X-561039Y-530095D2*
X-435921D1*
X-417089D2*
X-369054D1*
X-562046Y-533905D2*
X-438110D1*
X-415813D2*
X-369044D1*
X-562721Y-537715D2*
X-510597D1*
X-490366D2*
X-439706D1*
X-415194D2*
X-369040D1*
X-563078Y-541525D2*
X-511541D1*
X-489390D2*
X-440641D1*
X-414926D2*
X-369039D1*
X-563241Y-545335D2*
X-512528D1*
X-488246D2*
X-441124D1*
X-414816D2*
X-369038D1*
X-563308Y-549145D2*
X-513195D1*
X-487148D2*
X-441428D1*
X-414758D2*
X-369038D1*
X-563334Y-552955D2*
X-513550D1*
X-563343Y-556765D2*
X-513718D1*
X-563346Y-560575D2*
X-369038D1*
X-563347Y-564385D2*
X-369038D1*
X-563348Y-568195D2*
X-369038D1*
X-563348Y-572005D2*
X-369038D1*
X-563348Y-575815D2*
X-369038D1*
X-563348Y-579625D2*
X-369038D1*
X-563348Y-583435D2*
X-369038D1*
X-563348Y-587245D2*
X-369038D1*
X-563348Y-591055D2*
X-369038D1*
X-563348Y-594865D2*
X-369038D1*
X-563348Y-598675D2*
X-369038D1*
X-563348Y-602485D2*
X-369038D1*
X-563348Y-606295D2*
X-369038D1*
X-563348Y-610105D2*
X-369038D1*
X-563348Y-613915D2*
X-369038D1*
X-563348Y-617725D2*
X-369038D1*
X-563348Y-655825D2*
X-510008D1*
X-422378D2*
X-369038D1*
X-563348Y-659635D2*
X-510008D1*
X-487148D2*
X-445238D1*
X-422378D2*
X-369038D1*
X-563348Y-663445D2*
X-510008D1*
X-487148D2*
X-445238D1*
X-422378D2*
X-369038D1*
X-563348Y-667255D2*
X-510008D1*
X-487148D2*
X-445238D1*
X-422378D2*
X-369038D1*
X-563348Y-671065D2*
X-510008D1*
X-487148D2*
X-445238D1*
X-422378D2*
X-369038D1*
X-563348Y-674875D2*
X-510008D1*
X-487148D2*
X-445238D1*
X-422378D2*
X-369038D1*
X-563348Y-678685D2*
X-510008D1*
X-487148D2*
X-445238D1*
X-422378D2*
X-369038D1*
X-563348Y-682495D2*
X-509993D1*
X-487148D2*
X-445238D1*
X-422378D2*
X-369038D1*
X-563348Y-686305D2*
X-509859D1*
X-487148D2*
X-445223D1*
X-422378D2*
X-369038D1*
X-563348Y-690115D2*
X-509359D1*
X-487163D2*
X-445089D1*
X-422378D2*
X-369038D1*
X-563348Y-693925D2*
X-508268D1*
X-487341D2*
X-444589D1*
X-422393D2*
X-369038D1*
X-563348Y-697735D2*
X-506367D1*
X-487788D2*
X-443498D1*
X-422571D2*
X-369038D1*
X-563348Y-701545D2*
X-503707D1*
X-490143D2*
X-441597D1*
X-423018D2*
X-369038D1*
X-563333Y-705355D2*
X-497753D1*
X-495809D2*
X-438937D1*
X-425373D2*
X-369038D1*
X-563199Y-709165D2*
X-432983D1*
X-431039D2*
X-369038D1*
X-562714Y-712975D2*
X-369053D1*
X-561801Y-716785D2*
X-369187D1*
X-560809Y-720595D2*
X-369672D1*
X-560011Y-724405D2*
X-370600D1*
X-559157Y-728215D2*
X-371711D1*
X-557949Y-732025D2*
X-372875D1*
X-556405Y-735835D2*
X-374290D1*
X-554653Y-739645D2*
X-376063D1*
X-552665Y-743455D2*
X-378341D1*
X-550140Y-747265D2*
X-381259D1*
X-546545Y-751075D2*
X-384797D1*
X-541478Y-754885D2*
X-389332D1*
X-534751Y-758695D2*
X-395773D1*
X-526560Y-762505D2*
X-404593D1*
X-517628Y-766315D2*
X-414758D1*
X-783723Y-1953640D2*
D14*
X-788522Y-1956140D1*
X-792370Y-1958640D1*
X-795268Y-1961140D1*
X-797394Y-1963640D1*
X-798967Y-1966140D1*
X-800075Y-1968640D1*
X-800793Y-1971140D1*
X-801420Y-1973640D1*
X-802153Y-1976140D1*
X-802848Y-1978640D1*
X-803304Y-1981140D1*
X-803543Y-1983640D1*
X-803652Y-1986140D1*
X-803697Y-1988640D1*
X-803714Y-1991140D1*
X-803720Y-1993640D1*
X-803712Y-1996140D1*
X-803625Y-1998640D1*
X-803307Y-2001140D1*
X-802708Y-2003640D1*
X-802058Y-2006140D1*
X-801534Y-2008640D1*
X-800973Y-2011140D1*
X-800171Y-2013640D1*
X-799070Y-2016140D1*
X-797582Y-2018640D1*
X-795498Y-2021140D1*
X-792526Y-2023640D1*
X-788453Y-2026140D1*
X-783723Y-2028640D1*
X-768723Y-1953640D2*
X-764310Y-1956140D1*
X-760668Y-1958640D1*
X-757940Y-1961140D1*
X-755773Y-1963640D1*
X-753949Y-1966140D1*
X-752617Y-1968640D1*
X-751800Y-1971140D1*
X-751223Y-1973640D1*
X-728723Y-1953640D2*
X-732272Y-1956140D1*
X-735072Y-1958640D1*
X-737236Y-1961140D1*
X-738007Y-1963640D1*
X-738442Y-1966140D1*
X-738723Y-1968640D1*
X-718723Y-1953640D2*
Y-1956140D1*
Y-1958640D1*
Y-1961140D1*
Y-1963640D1*
Y-1966140D1*
Y-1968640D1*
Y-1971140D1*
Y-1973640D1*
Y-1976140D1*
Y-1978640D1*
Y-1981140D1*
Y-1983640D1*
Y-1986140D1*
Y-1988640D1*
Y-1991140D1*
Y-1993640D1*
Y-1996140D1*
Y-1998640D1*
Y-2001140D1*
Y-2003640D1*
Y-2006140D1*
Y-2008640D1*
Y-2011140D1*
Y-2013640D1*
Y-2016140D1*
Y-2018640D1*
Y-2021140D1*
Y-2023640D1*
Y-2026140D1*
Y-2028640D1*
X-776223Y-1961140D2*
X-780722Y-1963640D1*
X-784596Y-1966140D1*
X-787605Y-1968640D1*
X-789815Y-1971140D1*
X-791433Y-1973640D1*
X-792552Y-1976140D1*
X-793191Y-1978640D1*
X-793502Y-1981140D1*
X-793637Y-1983640D1*
X-793692Y-1986140D1*
X-793712Y-1988640D1*
X-793720Y-1991140D1*
X-793722Y-1993640D1*
X-793723Y-1996140D1*
X-793713Y-1998640D1*
X-793626Y-2001140D1*
X-793297Y-2003640D1*
X-792601Y-2006140D1*
X-791534Y-2008640D1*
X-789956Y-2011140D1*
X-787867Y-2013640D1*
X-783129Y-2016140D1*
X-776510Y-2018640D1*
X-768723Y-2021140D1*
X-776223Y-1961140D2*
X-771724Y-1963640D1*
X-767857Y-1966140D1*
X-764904Y-1968640D1*
X-762833Y-1971140D1*
X-761223Y-1973640D1*
X-726223Y-1963640D2*
X-731223Y-1966140D1*
X-736223Y-1968640D1*
X-726223Y-1963640D2*
Y-1966140D1*
Y-1968640D1*
Y-1971140D1*
Y-1973640D1*
Y-1976140D1*
Y-1978640D1*
Y-1981140D1*
Y-1983640D1*
Y-1986140D1*
Y-1988640D1*
Y-1991140D1*
Y-1993640D1*
Y-1996140D1*
Y-1998640D1*
Y-2001140D1*
Y-2003640D1*
Y-2006140D1*
Y-2008640D1*
Y-2011140D1*
Y-2013640D1*
Y-2016140D1*
Y-2018640D1*
Y-2021140D1*
Y-2023640D1*
Y-2026140D1*
Y-2028640D1*
X-761223Y-2008640D2*
X-762704Y-2011140D1*
X-764674Y-2013640D1*
X-769362Y-2016140D1*
X-775954Y-2018640D1*
X-783723Y-2021140D1*
X-751223Y-2008640D2*
X-751705Y-2011140D1*
X-752655Y-2013640D1*
X-754009Y-2016140D1*
X-755602Y-2018640D1*
X-757701Y-2021140D1*
X-760699Y-2023640D1*
X-764526Y-2026140D1*
X-768723Y-2028640D1*
X1155803Y-234500D2*
Y-237000D1*
Y-239500D1*
Y-242000D1*
Y-244500D1*
Y-247000D1*
Y-249500D1*
Y-252000D1*
Y-254500D1*
Y-257000D1*
Y-259500D1*
Y-262000D1*
Y-264500D1*
Y-267000D1*
Y-269500D1*
Y-272000D1*
Y-274500D1*
Y-277000D1*
Y-279500D1*
Y-282000D1*
Y-284500D1*
Y-287000D1*
Y-289500D1*
Y-292000D1*
Y-294500D1*
Y-297000D1*
Y-299500D1*
Y-302000D1*
Y-304500D1*
Y-307000D1*
Y-309500D1*
X1190803Y-234500D2*
X1195217Y-237000D1*
X1198849Y-239500D1*
X1201499Y-242000D1*
X1203435Y-244500D1*
X1204979Y-247000D1*
X1206259Y-249500D1*
X1207229Y-252000D1*
X1207806Y-254500D1*
X1208095Y-257000D1*
X1208222Y-259500D1*
X1208273Y-262000D1*
X1208293Y-264500D1*
X1208300Y-267000D1*
X1208302Y-269500D1*
X1208303Y-272000D1*
Y-274500D1*
Y-277000D1*
Y-279500D1*
Y-282000D1*
X1208294Y-284500D1*
X1208206Y-287000D1*
X1207877Y-289500D1*
X1207191Y-292000D1*
X1206221Y-294500D1*
X1205079Y-297000D1*
X1203692Y-299500D1*
X1201720Y-302000D1*
X1198784Y-304500D1*
X1194985Y-307000D1*
X1190803Y-309500D1*
X1233303Y-234500D2*
X1229754Y-237000D1*
X1226954Y-239500D1*
X1224790Y-242000D1*
X1224020Y-244500D1*
X1223584Y-247000D1*
X1223303Y-249500D1*
X1243303Y-234500D2*
Y-237000D1*
Y-239500D1*
Y-242000D1*
Y-244500D1*
Y-247000D1*
Y-249500D1*
Y-252000D1*
Y-254500D1*
Y-257000D1*
Y-259500D1*
Y-262000D1*
Y-264500D1*
Y-267000D1*
Y-269500D1*
Y-272000D1*
Y-274500D1*
Y-277000D1*
Y-279500D1*
Y-282000D1*
Y-284500D1*
Y-287000D1*
Y-289500D1*
Y-292000D1*
Y-294500D1*
Y-297000D1*
Y-299500D1*
Y-302000D1*
Y-304500D1*
Y-307000D1*
Y-309500D1*
X1165803Y-242000D2*
Y-244500D1*
Y-247000D1*
Y-249500D1*
Y-252000D1*
Y-254500D1*
Y-257000D1*
Y-259500D1*
Y-262000D1*
Y-264500D1*
Y-267000D1*
Y-269500D1*
Y-272000D1*
Y-274500D1*
Y-277000D1*
Y-279500D1*
Y-282000D1*
Y-284500D1*
Y-287000D1*
Y-289500D1*
Y-292000D1*
Y-294500D1*
Y-297000D1*
Y-299500D1*
X1185803Y-302000D1*
X1183303Y-242000D2*
X1187802Y-244500D1*
X1191667Y-247000D1*
X1194588Y-249500D1*
X1196807Y-252000D1*
X1197580Y-254500D1*
X1197997Y-257000D1*
X1198184Y-259500D1*
X1198259Y-262000D1*
X1198288Y-264500D1*
X1198298Y-267000D1*
X1198302Y-269500D1*
X1198303Y-272000D1*
Y-274500D1*
Y-277000D1*
Y-279500D1*
Y-282000D1*
X1198294Y-284500D1*
X1198196Y-287000D1*
X1197770Y-289500D1*
X1196961Y-292000D1*
X1194625Y-294500D1*
X1187777Y-297000D1*
X1176859Y-299500D1*
X1163303Y-302000D1*
X1235803Y-244500D2*
X1230803Y-247000D1*
X1225803Y-249500D1*
X1235803Y-244500D2*
Y-247000D1*
Y-249500D1*
Y-252000D1*
Y-254500D1*
Y-257000D1*
Y-259500D1*
Y-262000D1*
Y-264500D1*
Y-267000D1*
Y-269500D1*
Y-272000D1*
Y-274500D1*
Y-277000D1*
Y-279500D1*
Y-282000D1*
Y-284500D1*
Y-287000D1*
Y-289500D1*
Y-292000D1*
Y-294500D1*
Y-297000D1*
Y-299500D1*
Y-302000D1*
Y-304500D1*
Y-307000D1*
Y-309500D1*
X-1246983Y-243287D2*
Y-245787D1*
Y-248287D1*
Y-250787D1*
Y-253287D1*
Y-255787D1*
Y-258287D1*
Y-260787D1*
Y-263287D1*
Y-265787D1*
Y-268287D1*
Y-270787D1*
Y-273287D1*
Y-275787D1*
Y-278287D1*
Y-280787D1*
Y-283287D1*
Y-285787D1*
Y-288287D1*
Y-290787D1*
Y-293287D1*
Y-295787D1*
Y-298287D1*
Y-300787D1*
Y-303287D1*
Y-305787D1*
Y-308287D1*
Y-310787D1*
Y-313287D1*
Y-315787D1*
Y-318287D1*
X-1236983Y-243287D2*
Y-245787D1*
Y-248287D1*
Y-250787D1*
Y-253287D1*
Y-255787D1*
Y-258287D1*
Y-260787D1*
Y-263287D1*
Y-265787D1*
Y-268287D1*
Y-270787D1*
Y-273287D1*
Y-275787D1*
Y-278287D1*
Y-280787D1*
Y-283287D1*
Y-285787D1*
Y-288287D1*
Y-290787D1*
Y-293287D1*
Y-295787D1*
Y-298287D1*
Y-300787D1*
Y-303287D1*
Y-305787D1*
Y-308287D1*
Y-310787D1*
X-1179483Y-243287D2*
X-1183032Y-245787D1*
X-1185832Y-248287D1*
X-1187996Y-250787D1*
X-1188767Y-253287D1*
X-1189202Y-255787D1*
X-1189483Y-258287D1*
X-1169483Y-243287D2*
Y-245787D1*
Y-248287D1*
Y-250787D1*
Y-253287D1*
Y-255787D1*
Y-258287D1*
Y-260787D1*
Y-263287D1*
Y-265787D1*
Y-268287D1*
Y-270787D1*
Y-273287D1*
Y-275787D1*
Y-278287D1*
Y-280787D1*
Y-283287D1*
Y-285787D1*
Y-288287D1*
Y-290787D1*
Y-293287D1*
Y-295787D1*
Y-298287D1*
Y-300787D1*
Y-303287D1*
Y-305787D1*
Y-308287D1*
Y-310787D1*
Y-313287D1*
Y-315787D1*
Y-318287D1*
X-1176983Y-253287D2*
X-1181983Y-255787D1*
X-1186983Y-258287D1*
X-1176983Y-253287D2*
Y-255787D1*
Y-258287D1*
Y-260787D1*
Y-263287D1*
Y-265787D1*
Y-268287D1*
Y-270787D1*
Y-273287D1*
Y-275787D1*
Y-278287D1*
Y-280787D1*
Y-283287D1*
Y-285787D1*
Y-288287D1*
Y-290787D1*
Y-293287D1*
Y-295787D1*
Y-298287D1*
Y-300787D1*
Y-303287D1*
Y-305787D1*
Y-308287D1*
Y-310787D1*
Y-313287D1*
Y-315787D1*
Y-318287D1*
X-1199483Y-310787D2*
Y-313287D1*
Y-315787D1*
Y-318287D1*
X-1252477Y-807443D2*
Y-809943D1*
Y-812443D1*
Y-814943D1*
Y-817443D1*
Y-819943D1*
Y-822443D1*
Y-824943D1*
Y-827443D1*
Y-829943D1*
Y-832443D1*
Y-834943D1*
Y-837443D1*
Y-839943D1*
Y-842443D1*
Y-844943D1*
Y-847443D1*
Y-849943D1*
Y-852443D1*
Y-854943D1*
Y-857443D1*
Y-859943D1*
Y-862443D1*
Y-864943D1*
Y-867443D1*
Y-869943D1*
Y-872443D1*
Y-874943D1*
Y-877443D1*
Y-879943D1*
Y-882443D1*
X-1242477Y-807443D2*
Y-809943D1*
Y-812443D1*
Y-814943D1*
Y-817443D1*
Y-819943D1*
Y-822443D1*
Y-824943D1*
Y-827443D1*
Y-829943D1*
Y-832443D1*
Y-834943D1*
Y-837443D1*
Y-839943D1*
Y-842443D1*
Y-844943D1*
Y-847443D1*
Y-849943D1*
Y-852443D1*
Y-854943D1*
Y-857443D1*
Y-859943D1*
Y-862443D1*
Y-864943D1*
Y-867443D1*
Y-869943D1*
Y-872443D1*
Y-874943D1*
X-1179977Y-807443D2*
X-1183535Y-809943D1*
X-1186423Y-812443D1*
X-1188590Y-814943D1*
X-1190194Y-817443D1*
X-1191315Y-819943D1*
X-1191997Y-822443D1*
X-1192477Y-824943D1*
X-1162477Y-807443D2*
X-1159219Y-809943D1*
X-1156708Y-812443D1*
X-1154821Y-814943D1*
X-1153294Y-817443D1*
X-1152028Y-819943D1*
X-1151148Y-822443D1*
X-1150664Y-824943D1*
X-1151154Y-827443D1*
X-1151798Y-829943D1*
X-1152521Y-832443D1*
X-1153433Y-834943D1*
X-1154580Y-837443D1*
X-1155985Y-839943D1*
X-1157570Y-842443D1*
X-1159175Y-844943D1*
X-1160894Y-847443D1*
X-1162818Y-849943D1*
X-1164747Y-852443D1*
X-1166535Y-854943D1*
X-1168338Y-857443D1*
X-1170297Y-859943D1*
X-1172240Y-862443D1*
X-1174033Y-864943D1*
X-1175847Y-867443D1*
X-1177892Y-869943D1*
X-1180141Y-872443D1*
X-1182477Y-874943D1*
X-1172477Y-814943D2*
X-1176598Y-817443D1*
X-1179928Y-819943D1*
X-1182572Y-822443D1*
X-1184977Y-824943D1*
X-1172477Y-814943D2*
X-1168073Y-817443D1*
X-1164529Y-819943D1*
X-1161803Y-822443D1*
X-1160732Y-824943D1*
X-1160719Y-827443D1*
X-1161220Y-829943D1*
X-1162108Y-832443D1*
X-1163209Y-834943D1*
X-1164486Y-837443D1*
X-1166030Y-839943D1*
X-1167872Y-842443D1*
X-1169768Y-844943D1*
X-1171543Y-847443D1*
X-1173351Y-849943D1*
X-1175386Y-852443D1*
X-1177559Y-854943D1*
X-1179632Y-857443D1*
X-1181488Y-859943D1*
X-1183320Y-862443D1*
X-1185290Y-864943D1*
X-1187228Y-867443D1*
X-1188925Y-869943D1*
X-1190323Y-872443D1*
X-1191355Y-874943D1*
X-1191964Y-877443D1*
X-1192278Y-879943D1*
X-1192477Y-882443D1*
X-1204977Y-874943D2*
Y-877443D1*
Y-879943D1*
Y-882443D1*
X-1149977Y-874943D2*
Y-877443D1*
Y-879943D1*
Y-882443D1*
X-163443Y-2387057D2*
X-168242Y-2389557D1*
X-172090Y-2392057D1*
X-174988Y-2394557D1*
X-177114Y-2397057D1*
X-178687Y-2399557D1*
X-179795Y-2402057D1*
X-180513Y-2404557D1*
X-181140Y-2407057D1*
X-181873Y-2409557D1*
X-182568Y-2412057D1*
X-183024Y-2414557D1*
X-183263Y-2417057D1*
X-183372Y-2419557D1*
X-183417Y-2422057D1*
X-183434Y-2424557D1*
X-183440Y-2427057D1*
X-183432Y-2429557D1*
X-183345Y-2432057D1*
X-183027Y-2434557D1*
X-182428Y-2437057D1*
X-181778Y-2439557D1*
X-181254Y-2442057D1*
X-180693Y-2444557D1*
X-179891Y-2447057D1*
X-178780Y-2449557D1*
X-177215Y-2452057D1*
X-174905Y-2454557D1*
X-171699Y-2457057D1*
X-167737Y-2459557D1*
X-163443Y-2462057D1*
X-148443Y-2387057D2*
X-143645Y-2389557D1*
X-139797Y-2392057D1*
X-136899Y-2394557D1*
X-134773Y-2397057D1*
X-133190Y-2399557D1*
X-132003Y-2402057D1*
X-131055Y-2404557D1*
X-130148Y-2407057D1*
X-129373Y-2409557D1*
X-128883Y-2412057D1*
X-128631Y-2414557D1*
X-128517Y-2417057D1*
X-128471Y-2419557D1*
X-128453Y-2422057D1*
X-128447Y-2424557D1*
X-128444Y-2427057D1*
Y-2429557D1*
X-128453Y-2432057D1*
X-128541Y-2434557D1*
X-128860Y-2437057D1*
X-129458Y-2439557D1*
X-130090Y-2442057D1*
X-130428Y-2444557D1*
X-130476Y-2447057D1*
X-129402Y-2449557D1*
X-127854Y-2452057D1*
X-126279Y-2454557D1*
X-125008Y-2457057D1*
X-125293Y-2459557D1*
X-125943Y-2462057D1*
X-103443Y-2387057D2*
X-106992Y-2389557D1*
X-109792Y-2392057D1*
X-111956Y-2394557D1*
X-112727Y-2397057D1*
X-113162Y-2399557D1*
X-113443Y-2402057D1*
X-93443Y-2387057D2*
Y-2389557D1*
Y-2392057D1*
Y-2394557D1*
Y-2397057D1*
Y-2399557D1*
Y-2402057D1*
Y-2404557D1*
Y-2407057D1*
Y-2409557D1*
Y-2412057D1*
Y-2414557D1*
Y-2417057D1*
Y-2419557D1*
Y-2422057D1*
Y-2424557D1*
Y-2427057D1*
Y-2429557D1*
Y-2432057D1*
Y-2434557D1*
Y-2437057D1*
Y-2439557D1*
Y-2442057D1*
Y-2444557D1*
Y-2447057D1*
Y-2449557D1*
Y-2452057D1*
Y-2454557D1*
Y-2457057D1*
Y-2459557D1*
Y-2462057D1*
X-150943Y-2394557D2*
X-157451Y-2397057D1*
X-162787Y-2399557D1*
X-166633Y-2402057D1*
X-169249Y-2404557D1*
X-171043Y-2407057D1*
X-172232Y-2409557D1*
X-172896Y-2412057D1*
X-173217Y-2414557D1*
X-173356Y-2417057D1*
X-173411Y-2419557D1*
X-173432Y-2422057D1*
X-173439Y-2424557D1*
X-173442Y-2427057D1*
X-173443Y-2429557D1*
X-173433Y-2432057D1*
X-173346Y-2434557D1*
X-173017Y-2437057D1*
X-172321Y-2439557D1*
X-171244Y-2442057D1*
X-169578Y-2444557D1*
X-167284Y-2447057D1*
X-161840Y-2449557D1*
X-154455Y-2452057D1*
X-145943Y-2454557D1*
X-155943Y-2394557D2*
X-151435Y-2397057D1*
X-147482Y-2399557D1*
X-144243Y-2402057D1*
X-141753Y-2404557D1*
X-139814Y-2407057D1*
X-139109Y-2409557D1*
X-138727Y-2412057D1*
X-138554Y-2414557D1*
X-138484Y-2417057D1*
X-138458Y-2419557D1*
X-138448Y-2422057D1*
X-138445Y-2424557D1*
X-138444Y-2427057D1*
X-138443Y-2429557D1*
X-138463Y-2432057D1*
X-138653Y-2434557D1*
X-139107Y-2437057D1*
X-141056Y-2439557D1*
X-143443Y-2442057D1*
X-100943Y-2397057D2*
X-105943Y-2399557D1*
X-110943Y-2402057D1*
X-100943Y-2397057D2*
Y-2399557D1*
Y-2402057D1*
Y-2404557D1*
Y-2407057D1*
Y-2409557D1*
Y-2412057D1*
Y-2414557D1*
Y-2417057D1*
Y-2419557D1*
Y-2422057D1*
Y-2424557D1*
Y-2427057D1*
Y-2429557D1*
Y-2432057D1*
Y-2434557D1*
Y-2437057D1*
Y-2439557D1*
Y-2442057D1*
Y-2444557D1*
Y-2447057D1*
Y-2449557D1*
Y-2452057D1*
Y-2454557D1*
Y-2457057D1*
Y-2459557D1*
Y-2462057D1*
X-150943Y-2437057D2*
X-151915Y-2439557D1*
X-151651Y-2442057D1*
X-150081Y-2444557D1*
X-148106Y-2447057D1*
X-145943Y-2449557D1*
X-153287Y-2452057D1*
X-160943Y-2454557D1*
X-148443Y-2437057D2*
X-143600Y-2439557D1*
X-138443Y-2442057D1*
X-133443Y-2457057D2*
X-140943Y-2459557D1*
X-148443Y-2462057D1*
X-133443Y-2457057D2*
X-130943Y-2459557D1*
X-128443Y-2462057D1*
X1153110Y-829390D2*
Y-831890D1*
Y-834390D1*
Y-836890D1*
Y-839390D1*
Y-841890D1*
Y-844390D1*
Y-846890D1*
Y-849390D1*
Y-851890D1*
Y-854390D1*
Y-856890D1*
Y-859390D1*
Y-861890D1*
Y-864390D1*
Y-866890D1*
Y-869390D1*
Y-871890D1*
Y-874390D1*
Y-876890D1*
Y-879390D1*
Y-881890D1*
Y-884390D1*
Y-886890D1*
Y-889390D1*
Y-891890D1*
Y-894390D1*
Y-896890D1*
Y-899390D1*
Y-901890D1*
Y-904390D1*
X1190610Y-829390D2*
X1194254Y-831890D1*
X1197375Y-834390D1*
X1199831Y-836890D1*
X1201565Y-839390D1*
X1202793Y-841890D1*
X1203825Y-844390D1*
X1204641Y-846890D1*
X1205062Y-849390D1*
X1205003Y-851890D1*
X1204510Y-854390D1*
X1203819Y-856890D1*
X1202984Y-859390D1*
X1201734Y-861890D1*
X1199896Y-864390D1*
X1197550Y-866890D1*
X1195115Y-869390D1*
X1192976Y-871890D1*
X1192459Y-874390D1*
X1193148Y-876890D1*
X1194300Y-879390D1*
X1195763Y-881890D1*
X1197236Y-884390D1*
X1198620Y-886890D1*
X1199939Y-889390D1*
X1201216Y-891890D1*
X1202479Y-894390D1*
X1203740Y-896890D1*
X1205058Y-899390D1*
X1206517Y-901890D1*
X1208110Y-904390D1*
X1230610Y-829390D2*
X1227061Y-831890D1*
X1224261Y-834390D1*
X1222097Y-836890D1*
X1221326Y-839390D1*
X1220891Y-841890D1*
X1220610Y-844390D1*
X1240610Y-829390D2*
Y-831890D1*
Y-834390D1*
Y-836890D1*
Y-839390D1*
Y-841890D1*
Y-844390D1*
Y-846890D1*
Y-849390D1*
Y-851890D1*
Y-854390D1*
Y-856890D1*
Y-859390D1*
Y-861890D1*
Y-864390D1*
Y-866890D1*
Y-869390D1*
Y-871890D1*
Y-874390D1*
Y-876890D1*
Y-879390D1*
Y-881890D1*
Y-884390D1*
Y-886890D1*
Y-889390D1*
Y-891890D1*
Y-894390D1*
Y-896890D1*
Y-899390D1*
Y-901890D1*
Y-904390D1*
X1163110Y-836890D2*
Y-839390D1*
Y-841890D1*
Y-844390D1*
Y-846890D1*
Y-849390D1*
Y-851890D1*
Y-854390D1*
Y-856890D1*
Y-859390D1*
Y-861890D1*
X1185610Y-864390D1*
X1183110Y-836890D2*
X1187223Y-839390D1*
X1190467Y-841890D1*
X1192741Y-844390D1*
X1194445Y-846890D1*
X1194949Y-849390D1*
X1195137Y-851890D1*
X1194511Y-854390D1*
X1192835Y-856890D1*
X1186250Y-859390D1*
X1174954Y-861890D1*
X1160610Y-864390D1*
X1233110Y-839390D2*
X1228110Y-841890D1*
X1223110Y-844390D1*
X1233110Y-839390D2*
Y-841890D1*
Y-844390D1*
Y-846890D1*
Y-849390D1*
Y-851890D1*
Y-854390D1*
Y-856890D1*
Y-859390D1*
Y-861890D1*
Y-864390D1*
Y-866890D1*
Y-869390D1*
Y-871890D1*
Y-874390D1*
Y-876890D1*
Y-879390D1*
Y-881890D1*
Y-884390D1*
Y-886890D1*
Y-889390D1*
Y-891890D1*
Y-894390D1*
Y-896890D1*
Y-899390D1*
Y-901890D1*
Y-904390D1*
X1163110Y-871890D2*
Y-874390D1*
Y-876890D1*
Y-879390D1*
Y-881890D1*
Y-884390D1*
Y-886890D1*
Y-889390D1*
Y-891890D1*
Y-894390D1*
Y-896890D1*
Y-899390D1*
Y-901890D1*
Y-904390D1*
X1178110Y-871890D2*
X1180214Y-874390D1*
X1182006Y-876890D1*
X1183531Y-879390D1*
X1184906Y-881890D1*
X1186204Y-884390D1*
X1187475Y-886890D1*
X1188730Y-889390D1*
X1189985Y-891890D1*
X1191234Y-894390D1*
X1192478Y-896890D1*
X1193661Y-899390D1*
X1194703Y-901890D1*
X1195610Y-904390D1*
X209687Y-1642367D2*
Y-1644867D1*
Y-1647367D1*
Y-1649867D1*
Y-1652367D1*
Y-1654867D1*
Y-1657367D1*
Y-1659867D1*
Y-1662367D1*
Y-1664867D1*
Y-1667367D1*
Y-1669867D1*
Y-1672367D1*
Y-1674867D1*
Y-1677367D1*
Y-1679867D1*
Y-1682367D1*
Y-1684867D1*
Y-1687367D1*
Y-1689867D1*
Y-1692367D1*
Y-1694867D1*
Y-1697367D1*
Y-1699867D1*
Y-1702367D1*
Y-1704867D1*
Y-1707367D1*
Y-1709867D1*
Y-1712367D1*
Y-1714867D1*
Y-1717367D1*
X247187Y-1642367D2*
X250831Y-1644867D1*
X253951Y-1647367D1*
X256408Y-1649867D1*
X258142Y-1652367D1*
X259370Y-1654867D1*
X260401Y-1657367D1*
X261218Y-1659867D1*
X261639Y-1662367D1*
X261580Y-1664867D1*
X261087Y-1667367D1*
X260395Y-1669867D1*
X259561Y-1672367D1*
X258311Y-1674867D1*
X256473Y-1677367D1*
X254127Y-1679867D1*
X251692Y-1682367D1*
X249553Y-1684867D1*
X249036Y-1687367D1*
X249724Y-1689867D1*
X250876Y-1692367D1*
X252340Y-1694867D1*
X253813Y-1697367D1*
X255197Y-1699867D1*
X256516Y-1702367D1*
X257793Y-1704867D1*
X259056Y-1707367D1*
X260316Y-1709867D1*
X261635Y-1712367D1*
X263094Y-1714867D1*
X264687Y-1717367D1*
X292187Y-1642367D2*
X288628Y-1644867D1*
X285740Y-1647367D1*
X283574Y-1649867D1*
X281969Y-1652367D1*
X280848Y-1654867D1*
X280166Y-1657367D1*
X279687Y-1659867D1*
X309687Y-1642367D2*
X312945Y-1644867D1*
X315455Y-1647367D1*
X317343Y-1649867D1*
X318869Y-1652367D1*
X320135Y-1654867D1*
X321015Y-1657367D1*
X321499Y-1659867D1*
X321010Y-1662367D1*
X320366Y-1664867D1*
X319642Y-1667367D1*
X318731Y-1669867D1*
X317583Y-1672367D1*
X316179Y-1674867D1*
X314593Y-1677367D1*
X312988Y-1679867D1*
X311269Y-1682367D1*
X309346Y-1684867D1*
X307416Y-1687367D1*
X305628Y-1689867D1*
X303825Y-1692367D1*
X301867Y-1694867D1*
X299923Y-1697367D1*
X298130Y-1699867D1*
X296316Y-1702367D1*
X294271Y-1704867D1*
X292022Y-1707367D1*
X289687Y-1709867D1*
X219687Y-1649867D2*
Y-1652367D1*
Y-1654867D1*
Y-1657367D1*
Y-1659867D1*
Y-1662367D1*
Y-1664867D1*
Y-1667367D1*
Y-1669867D1*
Y-1672367D1*
Y-1674867D1*
X242187Y-1677367D1*
X239687Y-1649867D2*
X243799Y-1652367D1*
X247044Y-1654867D1*
X249318Y-1657367D1*
X251022Y-1659867D1*
X251525Y-1662367D1*
X251714Y-1664867D1*
X251088Y-1667367D1*
X249412Y-1669867D1*
X242827Y-1672367D1*
X231531Y-1674867D1*
X217187Y-1677367D1*
X299687Y-1649867D2*
X295566Y-1652367D1*
X292235Y-1654867D1*
X289591Y-1657367D1*
X287187Y-1659867D1*
X299687Y-1649867D2*
X304090Y-1652367D1*
X307634Y-1654867D1*
X310360Y-1657367D1*
X311431Y-1659867D1*
X311444Y-1662367D1*
X310943Y-1664867D1*
X310055Y-1667367D1*
X308954Y-1669867D1*
X307677Y-1672367D1*
X306134Y-1674867D1*
X304291Y-1677367D1*
X302395Y-1679867D1*
X300621Y-1682367D1*
X298813Y-1684867D1*
X296778Y-1687367D1*
X294605Y-1689867D1*
X292532Y-1692367D1*
X290675Y-1694867D1*
X288843Y-1697367D1*
X286873Y-1699867D1*
X284935Y-1702367D1*
X283239Y-1704867D1*
X281840Y-1707367D1*
X280808Y-1709867D1*
X280200Y-1712367D1*
X279885Y-1714867D1*
X279687Y-1717367D1*
X219687Y-1684867D2*
Y-1687367D1*
Y-1689867D1*
Y-1692367D1*
Y-1694867D1*
Y-1697367D1*
Y-1699867D1*
Y-1702367D1*
Y-1704867D1*
Y-1707367D1*
Y-1709867D1*
Y-1712367D1*
Y-1714867D1*
Y-1717367D1*
X234687Y-1684867D2*
X236791Y-1687367D1*
X238583Y-1689867D1*
X240107Y-1692367D1*
X241483Y-1694867D1*
X242781Y-1697367D1*
X244052Y-1699867D1*
X245307Y-1702367D1*
X246561Y-1704867D1*
X247810Y-1707367D1*
X249055Y-1709867D1*
X250238Y-1712367D1*
X251279Y-1714867D1*
X252187Y-1717367D1*
X322187Y-1709867D2*
Y-1712367D1*
Y-1714867D1*
Y-1717367D1*
X207997Y-1884867D2*
Y-1887367D1*
Y-1889867D1*
Y-1892367D1*
Y-1894867D1*
Y-1897367D1*
Y-1899867D1*
Y-1902367D1*
Y-1904867D1*
Y-1907367D1*
Y-1909867D1*
Y-1912367D1*
Y-1914867D1*
Y-1917367D1*
Y-1919867D1*
Y-1922367D1*
Y-1924867D1*
Y-1927367D1*
Y-1929867D1*
Y-1932367D1*
Y-1934867D1*
Y-1937367D1*
Y-1939867D1*
Y-1942367D1*
Y-1944867D1*
Y-1947367D1*
Y-1949867D1*
Y-1952367D1*
Y-1954867D1*
Y-1957367D1*
Y-1959867D1*
X245497Y-1884867D2*
X249141Y-1887367D1*
X252261Y-1889867D1*
X254718Y-1892367D1*
X256452Y-1894867D1*
X257680Y-1897367D1*
X258711Y-1899867D1*
X259528Y-1902367D1*
X259949Y-1904867D1*
X259890Y-1907367D1*
X259397Y-1909867D1*
X258705Y-1912367D1*
X257871Y-1914867D1*
X256621Y-1917367D1*
X254783Y-1919867D1*
X252437Y-1922367D1*
X250002Y-1924867D1*
X247863Y-1927367D1*
X247346Y-1929867D1*
X248034Y-1932367D1*
X249186Y-1934867D1*
X250650Y-1937367D1*
X252123Y-1939867D1*
X253507Y-1942367D1*
X254826Y-1944867D1*
X256103Y-1947367D1*
X257366Y-1949867D1*
X258626Y-1952367D1*
X259945Y-1954867D1*
X261404Y-1957367D1*
X262997Y-1959867D1*
X290497Y-1884867D2*
X286938Y-1887367D1*
X284050Y-1889867D1*
X281884Y-1892367D1*
X280279Y-1894867D1*
X279158Y-1897367D1*
X278476Y-1899867D1*
X277997Y-1902367D1*
X305497Y-1884867D2*
X309141Y-1887367D1*
X312261Y-1889867D1*
X314708Y-1892367D1*
X316629Y-1894867D1*
X317332Y-1897367D1*
X317714Y-1899867D1*
X317876Y-1902367D1*
X317858Y-1904867D1*
X317556Y-1907367D1*
X316860Y-1909867D1*
X315711Y-1912367D1*
X313882Y-1914867D1*
X311184Y-1917367D1*
X307997Y-1919867D1*
X310955Y-1922367D1*
X313492Y-1924867D1*
X315490Y-1927367D1*
X317100Y-1929867D1*
X318421Y-1932367D1*
X319409Y-1934867D1*
X319985Y-1937367D1*
X320189Y-1939867D1*
X319988Y-1942367D1*
X319354Y-1944867D1*
X318394Y-1947367D1*
X317171Y-1949867D1*
X315469Y-1952367D1*
X312914Y-1954867D1*
X309426Y-1957367D1*
X305497Y-1959867D1*
X217997Y-1892367D2*
Y-1894867D1*
Y-1897367D1*
Y-1899867D1*
Y-1902367D1*
Y-1904867D1*
Y-1907367D1*
Y-1909867D1*
Y-1912367D1*
Y-1914867D1*
Y-1917367D1*
X240497Y-1919867D1*
X237997Y-1892367D2*
X242109Y-1894867D1*
X245354Y-1897367D1*
X247628Y-1899867D1*
X249332Y-1902367D1*
X249835Y-1904867D1*
X250024Y-1907367D1*
X249398Y-1909867D1*
X247722Y-1912367D1*
X241137Y-1914867D1*
X229841Y-1917367D1*
X215497Y-1919867D1*
X295497Y-1892367D2*
X292997Y-1894867D1*
X290497Y-1897367D1*
X287997Y-1899867D1*
X285497Y-1902367D1*
X297997Y-1892367D2*
X302109Y-1894867D1*
X305354Y-1897367D1*
X307618Y-1899867D1*
X309292Y-1902367D1*
X309730Y-1904867D1*
X309074Y-1907367D1*
X307995Y-1909867D1*
X305185Y-1912367D1*
X301827Y-1914867D1*
X298541Y-1917367D1*
X296912Y-1919867D1*
X296395Y-1922367D1*
X299833Y-1924867D1*
X303496Y-1927367D1*
X306525Y-1929867D1*
X308884Y-1932367D1*
X309719Y-1934867D1*
X310157Y-1937367D1*
X310251Y-1939867D1*
X310090Y-1942367D1*
X308726Y-1944867D1*
X304451Y-1947367D1*
X298103Y-1949867D1*
X290497Y-1952367D1*
X217997Y-1927367D2*
Y-1929867D1*
Y-1932367D1*
Y-1934867D1*
Y-1937367D1*
Y-1939867D1*
Y-1942367D1*
Y-1944867D1*
Y-1947367D1*
Y-1949867D1*
Y-1952367D1*
Y-1954867D1*
Y-1957367D1*
Y-1959867D1*
X232997Y-1927367D2*
X235101Y-1929867D1*
X236893Y-1932367D1*
X238417Y-1934867D1*
X239793Y-1937367D1*
X241091Y-1939867D1*
X242362Y-1942367D1*
X243617Y-1944867D1*
X244871Y-1947367D1*
X246120Y-1949867D1*
X247365Y-1952367D1*
X248548Y-1954867D1*
X249589Y-1957367D1*
X250497Y-1959867D1*
X275497Y-1942367D2*
X276456Y-1944867D1*
X277618Y-1947367D1*
X279118Y-1949867D1*
X281114Y-1952367D1*
X283702Y-1954867D1*
X286921Y-1957367D1*
X290497Y-1959867D1*
X285497Y-1942367D2*
X287142Y-1944867D1*
X291489Y-1947367D1*
X297872Y-1949867D1*
X305497Y-1952367D1*
X-503983Y-2985493D2*
Y-2987993D1*
Y-2990493D1*
Y-2992993D1*
Y-2995493D1*
Y-2997993D1*
Y-3000493D1*
Y-3002993D1*
Y-3005493D1*
Y-3007993D1*
Y-3010493D1*
Y-3012993D1*
Y-3015493D1*
Y-3017993D1*
Y-3020493D1*
Y-3022993D1*
Y-3025493D1*
Y-3027993D1*
Y-3030493D1*
Y-3032993D1*
Y-3035493D1*
X-503974Y-3037993D1*
X-503886Y-3040493D1*
X-503557Y-3042993D1*
X-502861Y-3045493D1*
X-501804Y-3047993D1*
X-500333Y-3050493D1*
X-498255Y-3052993D1*
X-495285Y-3055493D1*
X-491213Y-3057993D1*
X-486483Y-3060493D1*
X-496483Y-2985493D2*
Y-2987993D1*
Y-2990493D1*
Y-2992993D1*
Y-2995493D1*
Y-2997993D1*
Y-3000493D1*
Y-3002993D1*
Y-3005493D1*
Y-3007993D1*
Y-3010493D1*
Y-3012993D1*
Y-3015493D1*
Y-3017993D1*
Y-3020493D1*
Y-3022993D1*
Y-3025493D1*
Y-3027993D1*
X-496474Y-3030493D1*
X-496386Y-3032993D1*
X-496057Y-3035493D1*
X-495361Y-3037993D1*
X-494284Y-3040493D1*
X-492618Y-3042993D1*
X-490324Y-3045493D1*
X-484880Y-3047993D1*
X-477495Y-3050493D1*
X-468983Y-3052993D1*
X-461483Y-2985493D2*
Y-2987993D1*
Y-2990493D1*
Y-2992993D1*
Y-2995493D1*
Y-2997993D1*
Y-3000493D1*
Y-3002993D1*
Y-3005493D1*
Y-3007993D1*
Y-3010493D1*
Y-3012993D1*
Y-3015493D1*
Y-3017993D1*
Y-3020493D1*
Y-3022993D1*
Y-3025493D1*
Y-3027993D1*
Y-3030493D1*
X-461493Y-3032993D1*
X-461581Y-3035493D1*
X-461909Y-3037993D1*
X-462625Y-3040493D1*
X-463623Y-3042993D1*
X-465718Y-3045493D1*
X-470878Y-3047993D1*
X-478090Y-3050493D1*
X-486483Y-3052993D1*
X-451483Y-2985493D2*
Y-2987993D1*
Y-2990493D1*
Y-2992993D1*
Y-2995493D1*
Y-2997993D1*
Y-3000493D1*
Y-3002993D1*
Y-3005493D1*
Y-3007993D1*
Y-3010493D1*
Y-3012993D1*
Y-3015493D1*
Y-3017993D1*
Y-3020493D1*
Y-3022993D1*
Y-3025493D1*
Y-3027993D1*
Y-3030493D1*
X-451493Y-3032993D1*
X-451581Y-3035493D1*
X-451900Y-3037993D1*
X-452508Y-3040493D1*
X-453247Y-3042993D1*
X-454099Y-3045493D1*
X-455346Y-3047993D1*
X-457118Y-3050493D1*
X-459349Y-3052993D1*
X-462076Y-3055493D1*
X-465364Y-3057993D1*
X-468983Y-3060493D1*
X-421483Y-2985493D2*
X-425042Y-2987993D1*
X-427930Y-2990493D1*
X-430096Y-2992993D1*
X-431701Y-2995493D1*
X-432822Y-2997993D1*
X-433504Y-3000493D1*
X-433983Y-3002993D1*
X-403983Y-2985493D2*
X-400725Y-2987993D1*
X-398215Y-2990493D1*
X-396327Y-2992993D1*
X-394801Y-2995493D1*
X-393535Y-2997993D1*
X-392655Y-3000493D1*
X-392171Y-3002993D1*
X-392660Y-3005493D1*
X-393304Y-3007993D1*
X-394028Y-3010493D1*
X-394939Y-3012993D1*
X-396087Y-3015493D1*
X-397491Y-3017993D1*
X-399077Y-3020493D1*
X-400682Y-3022993D1*
X-402401Y-3025493D1*
X-404324Y-3027993D1*
X-406254Y-3030493D1*
X-408042Y-3032993D1*
X-409845Y-3035493D1*
X-411803Y-3037993D1*
X-413747Y-3040493D1*
X-415540Y-3042993D1*
X-417354Y-3045493D1*
X-419399Y-3047993D1*
X-421648Y-3050493D1*
X-423983Y-3052993D1*
X-413983Y-2992993D2*
X-418104Y-2995493D1*
X-421435Y-2997993D1*
X-424079Y-3000493D1*
X-426483Y-3002993D1*
X-413983Y-2992993D2*
X-409580Y-2995493D1*
X-406036Y-2997993D1*
X-403310Y-3000493D1*
X-402239Y-3002993D1*
X-402226Y-3005493D1*
X-402727Y-3007993D1*
X-403615Y-3010493D1*
X-404716Y-3012993D1*
X-405993Y-3015493D1*
X-407536Y-3017993D1*
X-409379Y-3020493D1*
X-411275Y-3022993D1*
X-413049Y-3025493D1*
X-414857Y-3027993D1*
X-416892Y-3030493D1*
X-419065Y-3032993D1*
X-421138Y-3035493D1*
X-422995Y-3037993D1*
X-424827Y-3040493D1*
X-426797Y-3042993D1*
X-428735Y-3045493D1*
X-430431Y-3047993D1*
X-431830Y-3050493D1*
X-432862Y-3052993D1*
X-433470Y-3055493D1*
X-433785Y-3057993D1*
X-433983Y-3060493D1*
X-391483Y-3052993D2*
Y-3055493D1*
Y-3057993D1*
Y-3060493D1*
X-331305Y-1305890D2*
D12*
X-338632Y-1309700D1*
X-344631Y-1313510D1*
X-349548Y-1317320D1*
X-353835Y-1321130D1*
X-357710Y-1324940D1*
X-361095Y-1328750D1*
X-363870Y-1332560D1*
X-366079Y-1336370D1*
X-367680Y-1340180D1*
X-368629Y-1343990D1*
X-369224Y-1347800D1*
X-369911Y-1351610D1*
X-370905Y-1355420D1*
X-371912Y-1359230D1*
X-372588Y-1363040D1*
X-372945Y-1366850D1*
X-373108Y-1370660D1*
X-373175Y-1374470D1*
X-373201Y-1378280D1*
X-373210Y-1382090D1*
X-373213Y-1385900D1*
X-373215Y-1389710D1*
Y-1393520D1*
Y-1397330D1*
Y-1401140D1*
Y-1404950D1*
Y-1408760D1*
Y-1412570D1*
Y-1416380D1*
Y-1420190D1*
Y-1424000D1*
Y-1427810D1*
Y-1431620D1*
Y-1435430D1*
Y-1439240D1*
Y-1443050D1*
Y-1446860D1*
Y-1450670D1*
Y-1454480D1*
X-304635Y-1305890D2*
X-297764Y-1309700D1*
X-291726Y-1313510D1*
X-286640Y-1317320D1*
X-282210Y-1321130D1*
X-278122Y-1324940D1*
X-274155Y-1328750D1*
X-279869Y-1332560D1*
X-285261Y-1336370D1*
X-290539Y-1340180D1*
X-295582Y-1343990D1*
X-300216Y-1347800D1*
X-304635Y-1351610D1*
X133515Y-1305890D2*
X126644Y-1309700D1*
X120606Y-1313510D1*
X115534Y-1317320D1*
X111240Y-1321130D1*
X107662Y-1324940D1*
X104807Y-1328750D1*
X102568Y-1332560D1*
X100941Y-1336370D1*
X99869Y-1340180D1*
X98921Y-1343990D1*
X97807Y-1347800D1*
X96749Y-1351610D1*
X96053Y-1355420D1*
X95689Y-1359230D1*
X95524Y-1363040D1*
X95456Y-1366850D1*
X95429Y-1370660D1*
X95420Y-1374470D1*
X95417Y-1378280D1*
X95416Y-1382090D1*
X95415Y-1385900D1*
Y-1389710D1*
Y-1393520D1*
Y-1397330D1*
Y-1401140D1*
Y-1404950D1*
Y-1408760D1*
Y-1412570D1*
Y-1416380D1*
Y-1420190D1*
Y-1424000D1*
Y-1427810D1*
Y-1431620D1*
Y-1435430D1*
Y-1439240D1*
Y-1443050D1*
Y-1446860D1*
Y-1450670D1*
Y-1454480D1*
X167805Y-1305890D2*
X174661Y-1309700D1*
X180566Y-1313510D1*
X185151Y-1317320D1*
X188533Y-1321130D1*
X191134Y-1324940D1*
X193325Y-1328750D1*
X195210Y-1332560D1*
X196661Y-1336370D1*
X197532Y-1340180D1*
X197968Y-1343990D1*
X198161Y-1347800D1*
X198239Y-1351610D1*
X198269Y-1355420D1*
X198279Y-1359230D1*
X198283Y-1363040D1*
X198284Y-1366850D1*
X198285Y-1370660D1*
Y-1374470D1*
Y-1378280D1*
Y-1382090D1*
Y-1385900D1*
Y-1389710D1*
Y-1393520D1*
Y-1397330D1*
Y-1401140D1*
Y-1404950D1*
Y-1408760D1*
Y-1412570D1*
Y-1416380D1*
Y-1420190D1*
Y-1424000D1*
Y-1427810D1*
Y-1431620D1*
Y-1435430D1*
Y-1439240D1*
Y-1443050D1*
Y-1446860D1*
Y-1450670D1*
Y-1454480D1*
X335445Y-1305890D2*
X328574Y-1309700D1*
X322536Y-1313510D1*
X317464Y-1317320D1*
X313170Y-1321130D1*
X309592Y-1324940D1*
X306737Y-1328750D1*
X304498Y-1332560D1*
X302871Y-1336370D1*
X301799Y-1340180D1*
X300851Y-1343990D1*
X299737Y-1347800D1*
X298679Y-1351610D1*
X297983Y-1355420D1*
X297619Y-1359230D1*
X297454Y-1363040D1*
X297386Y-1366850D1*
X297359Y-1370660D1*
X297350Y-1374470D1*
X297347Y-1378280D1*
X297346Y-1382090D1*
X297345Y-1385900D1*
Y-1389710D1*
Y-1393520D1*
Y-1397330D1*
Y-1401140D1*
Y-1404950D1*
Y-1408760D1*
Y-1412570D1*
Y-1416380D1*
Y-1420190D1*
Y-1424000D1*
Y-1427810D1*
Y-1431620D1*
Y-1435430D1*
Y-1439240D1*
Y-1443050D1*
Y-1446860D1*
Y-1450670D1*
Y-1454480D1*
X369735Y-1305890D2*
X376591Y-1309700D1*
X382496Y-1313510D1*
X387081Y-1317320D1*
X390463Y-1321130D1*
X393064Y-1324940D1*
X395255Y-1328750D1*
X397140Y-1332560D1*
X398591Y-1336370D1*
X399462Y-1340180D1*
X399898Y-1343990D1*
X400091Y-1347800D1*
X400169Y-1351610D1*
X400199Y-1355420D1*
X400209Y-1359230D1*
X400213Y-1363040D1*
X400214Y-1366850D1*
X400215Y-1370660D1*
Y-1374470D1*
Y-1378280D1*
Y-1382090D1*
Y-1385900D1*
Y-1389710D1*
Y-1393520D1*
Y-1397330D1*
Y-1401140D1*
Y-1404950D1*
Y-1408760D1*
Y-1412570D1*
Y-1416380D1*
Y-1420190D1*
Y-1424000D1*
Y-1427810D1*
Y-1431620D1*
Y-1435430D1*
Y-1439240D1*
Y-1443050D1*
Y-1446860D1*
Y-1450670D1*
Y-1454480D1*
X689775Y-1305890D2*
X681000Y-1309700D1*
X673379Y-1313510D1*
X666826Y-1317320D1*
X661190Y-1321130D1*
X656482Y-1324940D1*
X652660Y-1328750D1*
X649562Y-1332560D1*
X646777Y-1336370D1*
X644100Y-1340180D1*
X641693Y-1343990D1*
X639637Y-1347800D1*
X637970Y-1351610D1*
X636577Y-1355420D1*
X635213Y-1359230D1*
X634038Y-1363040D1*
X633294Y-1366850D1*
X632910Y-1370660D1*
X632737Y-1374470D1*
X632667Y-1378280D1*
X632640Y-1382090D1*
X632630Y-1385900D1*
X632642Y-1389710D1*
X632774Y-1393520D1*
X633260Y-1397330D1*
X634187Y-1401140D1*
X635298Y-1404950D1*
X636462Y-1408760D1*
X637862Y-1412570D1*
X639501Y-1416380D1*
X641294Y-1420190D1*
X643284Y-1424000D1*
X645666Y-1427810D1*
X648614Y-1431620D1*
X652005Y-1435430D1*
X655772Y-1439240D1*
X660154Y-1443050D1*
X665626Y-1446860D1*
X672534Y-1450670D1*
X680801Y-1454480D1*
X689775Y-1458290D1*
X724065Y-1305890D2*
X733284Y-1309700D1*
X741361Y-1313510D1*
X747987Y-1317320D1*
X753329Y-1321130D1*
X757845Y-1324940D1*
X761827Y-1328750D1*
X765257Y-1332560D1*
X768065Y-1336370D1*
X770414Y-1340180D1*
X772518Y-1343990D1*
X774500Y-1347800D1*
X776423Y-1351610D1*
X778202Y-1355420D1*
X779613Y-1359230D1*
X780473Y-1363040D1*
X780926Y-1366850D1*
X781215Y-1370660D1*
X861225Y-1305890D2*
X851278Y-1309700D1*
X842877Y-1313510D1*
X836030Y-1317320D1*
X830085Y-1321130D1*
X824896Y-1324940D1*
X820694Y-1328750D1*
X817378Y-1332560D1*
X814489Y-1336370D1*
X811767Y-1340180D1*
X809343Y-1343990D1*
X807280Y-1347800D1*
X805611Y-1351610D1*
X804217Y-1355420D1*
X802853Y-1359230D1*
X801678Y-1363040D1*
X800934Y-1366850D1*
X800550Y-1370660D1*
X800377Y-1374470D1*
X800307Y-1378280D1*
X800280Y-1382090D1*
X800270Y-1385900D1*
X800282Y-1389710D1*
X800414Y-1393520D1*
X800900Y-1397330D1*
X801827Y-1401140D1*
X802938Y-1404950D1*
X804102Y-1408760D1*
X805517Y-1412570D1*
X807275Y-1416380D1*
X809419Y-1420190D1*
X811837Y-1424000D1*
X814283Y-1427810D1*
X816933Y-1431620D1*
X820132Y-1435430D1*
X824059Y-1439240D1*
X828773Y-1443050D1*
X834268Y-1446860D1*
X840840Y-1450670D1*
X848753Y-1454480D1*
X857415Y-1458290D1*
X891705Y-1305890D2*
X900924Y-1309700D1*
X909001Y-1313510D1*
X915627Y-1317320D1*
X920969Y-1321130D1*
X925500Y-1324940D1*
X929601Y-1328750D1*
X933397Y-1332560D1*
X936752Y-1336370D1*
X939531Y-1340180D1*
X941869Y-1343990D1*
X943955Y-1347800D1*
X945801Y-1351610D1*
X947253Y-1355420D1*
X948254Y-1359230D1*
X949174Y-1363040D1*
X950278Y-1366850D1*
X951333Y-1370660D1*
X952027Y-1374470D1*
X952391Y-1378280D1*
X952556Y-1382090D1*
X952609Y-1385900D1*
X952502Y-1389710D1*
X952026Y-1393520D1*
X951102Y-1397330D1*
X949992Y-1401140D1*
X948827Y-1404950D1*
X947428Y-1408760D1*
X945789Y-1412570D1*
X943996Y-1416380D1*
X942006Y-1420190D1*
X939624Y-1424000D1*
X936676Y-1427810D1*
X933300Y-1431620D1*
X929667Y-1435430D1*
X925786Y-1439240D1*
X921356Y-1443050D1*
X915865Y-1446860D1*
X908950Y-1450670D1*
X900680Y-1454480D1*
X891705Y-1458290D1*
X1002195Y-1305890D2*
X995469Y-1309700D1*
X989919Y-1313510D1*
X985761Y-1317320D1*
X982458Y-1321130D1*
X979679Y-1324940D1*
X977648Y-1328750D1*
X976350Y-1332560D1*
X975295Y-1336370D1*
X974135Y-1340180D1*
X973059Y-1343990D1*
X972357Y-1347800D1*
X971990Y-1351610D1*
X971824Y-1355420D1*
X971756Y-1359230D1*
X971729Y-1363040D1*
X971720Y-1366850D1*
X971717Y-1370660D1*
X971716Y-1374470D1*
X971715Y-1378280D1*
Y-1382090D1*
Y-1385900D1*
Y-1389710D1*
Y-1393520D1*
Y-1397330D1*
Y-1401140D1*
Y-1404950D1*
Y-1408760D1*
Y-1412570D1*
Y-1416380D1*
Y-1420190D1*
Y-1424000D1*
Y-1427810D1*
Y-1431620D1*
Y-1435430D1*
Y-1439240D1*
Y-1443050D1*
Y-1446860D1*
Y-1450670D1*
Y-1454480D1*
X1025055Y-1305890D2*
X1030653Y-1309700D1*
X1035848Y-1313510D1*
X1041390Y-1317320D1*
X1048060Y-1321130D1*
X1055535Y-1324940D1*
X1074585Y-1305890D2*
X1067844Y-1309700D1*
X1062152Y-1313510D1*
X1057418Y-1317320D1*
X1052792Y-1321130D1*
X1047915Y-1324940D1*
X1097445Y-1305890D2*
X1104171Y-1309700D1*
X1109706Y-1313510D1*
X1113745Y-1317320D1*
X1116696Y-1321130D1*
X1119048Y-1324940D1*
X1121000Y-1328750D1*
X1122477Y-1332560D1*
X1123357Y-1336370D1*
X1123797Y-1340180D1*
X1123991Y-1343990D1*
X1124069Y-1347800D1*
X1124099Y-1351610D1*
X1124109Y-1355420D1*
X1124113Y-1359230D1*
X1124114Y-1363040D1*
X1124115Y-1366850D1*
Y-1370660D1*
Y-1374470D1*
Y-1378280D1*
Y-1382090D1*
Y-1385900D1*
Y-1389710D1*
Y-1393520D1*
Y-1397330D1*
Y-1401140D1*
Y-1404950D1*
Y-1408760D1*
Y-1412570D1*
Y-1416380D1*
Y-1420190D1*
Y-1424000D1*
Y-1427810D1*
Y-1431620D1*
Y-1435430D1*
Y-1439240D1*
Y-1443050D1*
Y-1446860D1*
Y-1450670D1*
Y-1454480D1*
X-1100925Y-1309700D2*
Y-1313510D1*
Y-1317320D1*
Y-1321130D1*
Y-1324940D1*
Y-1328750D1*
Y-1332560D1*
Y-1336370D1*
Y-1340180D1*
Y-1343990D1*
Y-1347800D1*
Y-1351610D1*
Y-1355420D1*
Y-1359230D1*
Y-1363040D1*
Y-1366850D1*
Y-1370660D1*
Y-1374470D1*
Y-1378280D1*
Y-1382090D1*
Y-1385900D1*
Y-1389710D1*
Y-1393520D1*
Y-1397330D1*
Y-1401140D1*
Y-1404950D1*
X-1100910Y-1408760D1*
X-1100776Y-1412570D1*
X-1100291Y-1416380D1*
X-1099378Y-1420190D1*
X-1098386Y-1424000D1*
X-1097588Y-1427810D1*
X-1096734Y-1431620D1*
X-1095511Y-1435430D1*
X-1093833Y-1439240D1*
X-1091581Y-1443050D1*
X-1088550Y-1446860D1*
X-1084609Y-1450670D1*
X-1079704Y-1454480D1*
X-1074255Y-1458290D1*
X-1059015Y-1309700D2*
Y-1313510D1*
Y-1317320D1*
Y-1321130D1*
Y-1324940D1*
Y-1328750D1*
Y-1332560D1*
Y-1336370D1*
Y-1340180D1*
Y-1343990D1*
Y-1347800D1*
Y-1351610D1*
Y-1355420D1*
Y-1359230D1*
Y-1363040D1*
Y-1366850D1*
Y-1370660D1*
Y-1374470D1*
Y-1378280D1*
Y-1382090D1*
Y-1385900D1*
Y-1389710D1*
Y-1393520D1*
Y-1397330D1*
Y-1401140D1*
X-1058985Y-1404950D1*
X-1058695Y-1408760D1*
X-1058003Y-1412570D1*
X-1055034Y-1416380D1*
X-1051395Y-1420190D1*
X-1043775Y-1309700D2*
Y-1313510D1*
Y-1317320D1*
Y-1321130D1*
Y-1324940D1*
Y-1328750D1*
Y-1332560D1*
Y-1336370D1*
Y-1340180D1*
Y-1343990D1*
Y-1347800D1*
Y-1351610D1*
Y-1355420D1*
Y-1359230D1*
Y-1363040D1*
Y-1366850D1*
Y-1370660D1*
Y-1374470D1*
Y-1378280D1*
Y-1382090D1*
Y-1385900D1*
Y-1389710D1*
Y-1393520D1*
Y-1397330D1*
X-1043790Y-1401140D1*
X-1043969Y-1404950D1*
X-1044415Y-1408760D1*
X-1046770Y-1412570D1*
X-1052436Y-1416380D1*
X-1059015Y-1420190D1*
X-1001865Y-1309700D2*
Y-1313510D1*
Y-1317320D1*
Y-1321130D1*
Y-1324940D1*
Y-1328750D1*
Y-1332560D1*
Y-1336370D1*
Y-1340180D1*
Y-1343990D1*
Y-1347800D1*
Y-1351610D1*
Y-1355420D1*
Y-1359230D1*
Y-1363040D1*
Y-1366850D1*
Y-1370660D1*
Y-1374470D1*
Y-1378280D1*
Y-1382090D1*
Y-1385900D1*
Y-1389710D1*
Y-1393520D1*
Y-1397330D1*
Y-1401140D1*
X-1001835Y-1404950D1*
X-1001545Y-1408760D1*
X-1000853Y-1412570D1*
X-997884Y-1416380D1*
X-994245Y-1420190D1*
X-986625Y-1309700D2*
Y-1313510D1*
Y-1317320D1*
Y-1321130D1*
Y-1324940D1*
Y-1328750D1*
Y-1332560D1*
Y-1336370D1*
Y-1340180D1*
Y-1343990D1*
Y-1347800D1*
Y-1351610D1*
Y-1355420D1*
Y-1359230D1*
Y-1363040D1*
Y-1366850D1*
Y-1370660D1*
Y-1374470D1*
Y-1378280D1*
Y-1382090D1*
Y-1385900D1*
Y-1389710D1*
Y-1393520D1*
X-986640Y-1397330D1*
X-986774Y-1401140D1*
X-987289Y-1404950D1*
X-988493Y-1408760D1*
X-990657Y-1412570D1*
X-993984Y-1416380D1*
X-998055Y-1420190D1*
X-948525Y-1309700D2*
Y-1313510D1*
Y-1317320D1*
Y-1321130D1*
Y-1324940D1*
Y-1328750D1*
Y-1332560D1*
Y-1336370D1*
Y-1340180D1*
Y-1343990D1*
Y-1347800D1*
Y-1351610D1*
Y-1355420D1*
Y-1359230D1*
Y-1363040D1*
Y-1366850D1*
Y-1370660D1*
Y-1374470D1*
Y-1378280D1*
Y-1382090D1*
Y-1385900D1*
Y-1389710D1*
Y-1393520D1*
Y-1397330D1*
Y-1401140D1*
Y-1404950D1*
Y-1408760D1*
Y-1412570D1*
Y-1416380D1*
X-948540Y-1420190D1*
X-948674Y-1424000D1*
X-949174Y-1427810D1*
X-950236Y-1431620D1*
X-951847Y-1435430D1*
X-954058Y-1439240D1*
X-956950Y-1443050D1*
X-960445Y-1446860D1*
X-964642Y-1450670D1*
X-969671Y-1454480D1*
X-975195Y-1458290D1*
X-921855Y-1309700D2*
Y-1313510D1*
Y-1317320D1*
Y-1321130D1*
Y-1324940D1*
Y-1328750D1*
Y-1332560D1*
Y-1336370D1*
Y-1340180D1*
Y-1343990D1*
Y-1347800D1*
Y-1351610D1*
Y-1355420D1*
Y-1359230D1*
Y-1363040D1*
Y-1366850D1*
Y-1370660D1*
Y-1374470D1*
Y-1378280D1*
Y-1382090D1*
Y-1385900D1*
Y-1389710D1*
Y-1393520D1*
Y-1397330D1*
Y-1401140D1*
Y-1404950D1*
X-921840Y-1408760D1*
X-921706Y-1412570D1*
X-921221Y-1416380D1*
X-920308Y-1420190D1*
X-919316Y-1424000D1*
X-918518Y-1427810D1*
X-917664Y-1431620D1*
X-916441Y-1435430D1*
X-914763Y-1439240D1*
X-912511Y-1443050D1*
X-909480Y-1446860D1*
X-905539Y-1450670D1*
X-900634Y-1454480D1*
X-895185Y-1458290D1*
X-879945Y-1309700D2*
Y-1313510D1*
Y-1317320D1*
Y-1321130D1*
Y-1324940D1*
Y-1328750D1*
Y-1332560D1*
Y-1336370D1*
Y-1340180D1*
Y-1343990D1*
Y-1347800D1*
Y-1351610D1*
Y-1355420D1*
Y-1359230D1*
Y-1363040D1*
Y-1366850D1*
Y-1370660D1*
Y-1374470D1*
Y-1378280D1*
Y-1382090D1*
Y-1385900D1*
Y-1389710D1*
Y-1393520D1*
Y-1397330D1*
Y-1401140D1*
X-879915Y-1404950D1*
X-879625Y-1408760D1*
X-878933Y-1412570D1*
X-875964Y-1416380D1*
X-872325Y-1420190D1*
X-864705Y-1309700D2*
Y-1313510D1*
Y-1317320D1*
Y-1321130D1*
Y-1324940D1*
Y-1328750D1*
Y-1332560D1*
Y-1336370D1*
Y-1340180D1*
Y-1343990D1*
Y-1347800D1*
Y-1351610D1*
Y-1355420D1*
Y-1359230D1*
Y-1363040D1*
Y-1366850D1*
Y-1370660D1*
Y-1374470D1*
Y-1378280D1*
Y-1382090D1*
Y-1385900D1*
Y-1389710D1*
Y-1393520D1*
Y-1397330D1*
X-864720Y-1401140D1*
X-864899Y-1404950D1*
X-865345Y-1408760D1*
X-867700Y-1412570D1*
X-873366Y-1416380D1*
X-879945Y-1420190D1*
X-822795Y-1309700D2*
Y-1313510D1*
Y-1317320D1*
Y-1321130D1*
Y-1324940D1*
Y-1328750D1*
Y-1332560D1*
Y-1336370D1*
Y-1340180D1*
Y-1343990D1*
Y-1347800D1*
Y-1351610D1*
Y-1355420D1*
Y-1359230D1*
Y-1363040D1*
Y-1366850D1*
Y-1370660D1*
Y-1374470D1*
Y-1378280D1*
Y-1382090D1*
Y-1385900D1*
Y-1389710D1*
Y-1393520D1*
Y-1397330D1*
Y-1401140D1*
X-822765Y-1404950D1*
X-822475Y-1408760D1*
X-821783Y-1412570D1*
X-818814Y-1416380D1*
X-815175Y-1420190D1*
X-807555Y-1309700D2*
Y-1313510D1*
Y-1317320D1*
Y-1321130D1*
Y-1324940D1*
Y-1328750D1*
Y-1332560D1*
Y-1336370D1*
Y-1340180D1*
Y-1343990D1*
Y-1347800D1*
Y-1351610D1*
Y-1355420D1*
Y-1359230D1*
Y-1363040D1*
Y-1366850D1*
Y-1370660D1*
Y-1374470D1*
Y-1378280D1*
Y-1382090D1*
Y-1385900D1*
Y-1389710D1*
Y-1393520D1*
X-807570Y-1397330D1*
X-807704Y-1401140D1*
X-808219Y-1404950D1*
X-809423Y-1408760D1*
X-811587Y-1412570D1*
X-814914Y-1416380D1*
X-818985Y-1420190D1*
X-769455Y-1309700D2*
Y-1313510D1*
Y-1317320D1*
Y-1321130D1*
Y-1324940D1*
Y-1328750D1*
Y-1332560D1*
Y-1336370D1*
Y-1340180D1*
Y-1343990D1*
Y-1347800D1*
Y-1351610D1*
Y-1355420D1*
Y-1359230D1*
Y-1363040D1*
Y-1366850D1*
Y-1370660D1*
Y-1374470D1*
Y-1378280D1*
Y-1382090D1*
Y-1385900D1*
Y-1389710D1*
Y-1393520D1*
Y-1397330D1*
Y-1401140D1*
Y-1404950D1*
Y-1408760D1*
Y-1412570D1*
Y-1416380D1*
X-769470Y-1420190D1*
X-769604Y-1424000D1*
X-770104Y-1427810D1*
X-771166Y-1431620D1*
X-772777Y-1435430D1*
X-774988Y-1439240D1*
X-777880Y-1443050D1*
X-781375Y-1446860D1*
X-785572Y-1450670D1*
X-790601Y-1454480D1*
X-796125Y-1458290D1*
X-742785Y-1309700D2*
Y-1313510D1*
Y-1317320D1*
Y-1321130D1*
Y-1324940D1*
Y-1328750D1*
Y-1332560D1*
Y-1336370D1*
Y-1340180D1*
Y-1343990D1*
Y-1347800D1*
Y-1351610D1*
Y-1355420D1*
Y-1359230D1*
Y-1363040D1*
Y-1366850D1*
Y-1370660D1*
Y-1374470D1*
Y-1378280D1*
Y-1382090D1*
Y-1385900D1*
Y-1389710D1*
Y-1393520D1*
Y-1397330D1*
Y-1401140D1*
Y-1404950D1*
X-742770Y-1408760D1*
X-742636Y-1412570D1*
X-742151Y-1416380D1*
X-741238Y-1420190D1*
X-740246Y-1424000D1*
X-739448Y-1427810D1*
X-738594Y-1431620D1*
X-737371Y-1435430D1*
X-735693Y-1439240D1*
X-733441Y-1443050D1*
X-730410Y-1446860D1*
X-726469Y-1450670D1*
X-721564Y-1454480D1*
X-716115Y-1458290D1*
X-700875Y-1309700D2*
Y-1313510D1*
Y-1317320D1*
Y-1321130D1*
Y-1324940D1*
Y-1328750D1*
Y-1332560D1*
Y-1336370D1*
Y-1340180D1*
Y-1343990D1*
Y-1347800D1*
Y-1351610D1*
Y-1355420D1*
Y-1359230D1*
Y-1363040D1*
Y-1366850D1*
Y-1370660D1*
Y-1374470D1*
Y-1378280D1*
Y-1382090D1*
Y-1385900D1*
Y-1389710D1*
Y-1393520D1*
Y-1397330D1*
Y-1401140D1*
X-700845Y-1404950D1*
X-700555Y-1408760D1*
X-699863Y-1412570D1*
X-696894Y-1416380D1*
X-693255Y-1420190D1*
X-685635Y-1309700D2*
Y-1313510D1*
Y-1317320D1*
Y-1321130D1*
Y-1324940D1*
Y-1328750D1*
Y-1332560D1*
Y-1336370D1*
Y-1340180D1*
Y-1343990D1*
Y-1347800D1*
Y-1351610D1*
Y-1355420D1*
Y-1359230D1*
Y-1363040D1*
Y-1366850D1*
Y-1370660D1*
Y-1374470D1*
Y-1378280D1*
Y-1382090D1*
Y-1385900D1*
Y-1389710D1*
Y-1393520D1*
Y-1397330D1*
X-685650Y-1401140D1*
X-685829Y-1404950D1*
X-686275Y-1408760D1*
X-688630Y-1412570D1*
X-694296Y-1416380D1*
X-700875Y-1420190D1*
X-643725Y-1309700D2*
Y-1313510D1*
Y-1317320D1*
Y-1321130D1*
Y-1324940D1*
Y-1328750D1*
Y-1332560D1*
Y-1336370D1*
Y-1340180D1*
Y-1343990D1*
Y-1347800D1*
Y-1351610D1*
Y-1355420D1*
Y-1359230D1*
Y-1363040D1*
Y-1366850D1*
Y-1370660D1*
Y-1374470D1*
Y-1378280D1*
Y-1382090D1*
Y-1385900D1*
Y-1389710D1*
Y-1393520D1*
Y-1397330D1*
Y-1401140D1*
X-643695Y-1404950D1*
X-643405Y-1408760D1*
X-642713Y-1412570D1*
X-639744Y-1416380D1*
X-636105Y-1420190D1*
X-628485Y-1309700D2*
Y-1313510D1*
Y-1317320D1*
Y-1321130D1*
Y-1324940D1*
Y-1328750D1*
Y-1332560D1*
Y-1336370D1*
Y-1340180D1*
Y-1343990D1*
Y-1347800D1*
Y-1351610D1*
Y-1355420D1*
Y-1359230D1*
Y-1363040D1*
Y-1366850D1*
Y-1370660D1*
Y-1374470D1*
Y-1378280D1*
Y-1382090D1*
Y-1385900D1*
Y-1389710D1*
Y-1393520D1*
X-628500Y-1397330D1*
X-628634Y-1401140D1*
X-629149Y-1404950D1*
X-630353Y-1408760D1*
X-632517Y-1412570D1*
X-635844Y-1416380D1*
X-639915Y-1420190D1*
X-590385Y-1309700D2*
Y-1313510D1*
Y-1317320D1*
Y-1321130D1*
Y-1324940D1*
Y-1328750D1*
Y-1332560D1*
Y-1336370D1*
Y-1340180D1*
Y-1343990D1*
Y-1347800D1*
Y-1351610D1*
Y-1355420D1*
Y-1359230D1*
Y-1363040D1*
Y-1366850D1*
Y-1370660D1*
Y-1374470D1*
Y-1378280D1*
Y-1382090D1*
Y-1385900D1*
Y-1389710D1*
Y-1393520D1*
Y-1397330D1*
Y-1401140D1*
Y-1404950D1*
Y-1408760D1*
Y-1412570D1*
Y-1416380D1*
X-590400Y-1420190D1*
X-590534Y-1424000D1*
X-591034Y-1427810D1*
X-592096Y-1431620D1*
X-593707Y-1435430D1*
X-595918Y-1439240D1*
X-598810Y-1443050D1*
X-602305Y-1446860D1*
X-606502Y-1450670D1*
X-611531Y-1454480D1*
X-617055Y-1458290D1*
X-449415Y-1309700D2*
X-456271Y-1313510D1*
X-462176Y-1317320D1*
X-466761Y-1321130D1*
X-470129Y-1324940D1*
X-472595Y-1328750D1*
X-474315Y-1332560D1*
X-475422Y-1336370D1*
X-476382Y-1340180D1*
X-477501Y-1343990D1*
X-478561Y-1347800D1*
X-479256Y-1351610D1*
X-479621Y-1355420D1*
X-479786Y-1359230D1*
X-479854Y-1363040D1*
X-479881Y-1366850D1*
X-479890Y-1370660D1*
X-479893Y-1374470D1*
X-479894Y-1378280D1*
X-479895Y-1382090D1*
Y-1385900D1*
Y-1389710D1*
Y-1393520D1*
Y-1397330D1*
Y-1401140D1*
X-479880Y-1404950D1*
X-479746Y-1408760D1*
X-479261Y-1412570D1*
X-478348Y-1416380D1*
X-477356Y-1420190D1*
X-476558Y-1424000D1*
X-475704Y-1427810D1*
X-474481Y-1431620D1*
X-472788Y-1435430D1*
X-470388Y-1439240D1*
X-466723Y-1443050D1*
X-461248Y-1446860D1*
X-453907Y-1450670D1*
X-445605Y-1454480D1*
X-396075Y-1309700D2*
Y-1313510D1*
Y-1317320D1*
Y-1321130D1*
Y-1324940D1*
Y-1328750D1*
Y-1332560D1*
Y-1336370D1*
Y-1340180D1*
Y-1343990D1*
Y-1347800D1*
X-415139Y-1351610D1*
X-428212Y-1355420D1*
X-437985Y-1359230D1*
X-419888Y-1363040D1*
X-399885Y-1366850D1*
Y-1370660D1*
Y-1374470D1*
Y-1378280D1*
Y-1382090D1*
Y-1385900D1*
Y-1389710D1*
Y-1393520D1*
Y-1397330D1*
Y-1401140D1*
X-437985D1*
Y-1404950D1*
Y-1408760D1*
Y-1412570D1*
Y-1416380D1*
X-396075D1*
Y-1420190D1*
Y-1424000D1*
Y-1427810D1*
Y-1431620D1*
Y-1435430D1*
Y-1439240D1*
Y-1443050D1*
Y-1446860D1*
Y-1450670D1*
Y-1454480D1*
X-236055Y-1309700D2*
X-242911Y-1313510D1*
X-248816Y-1317320D1*
X-253401Y-1321130D1*
X-256769Y-1324940D1*
X-259235Y-1328750D1*
X-260955Y-1332560D1*
X-262062Y-1336370D1*
X-263022Y-1340180D1*
X-264141Y-1343990D1*
X-265201Y-1347800D1*
X-265896Y-1351610D1*
X-266261Y-1355420D1*
X-266426Y-1359230D1*
X-266494Y-1363040D1*
X-266521Y-1366850D1*
X-266530Y-1370660D1*
X-266533Y-1374470D1*
X-266534Y-1378280D1*
X-266535Y-1382090D1*
Y-1385900D1*
Y-1389710D1*
Y-1393520D1*
Y-1397330D1*
Y-1401140D1*
X-266520Y-1404950D1*
X-266386Y-1408760D1*
X-265901Y-1412570D1*
X-264988Y-1416380D1*
X-263996Y-1420190D1*
X-263198Y-1424000D1*
X-262344Y-1427810D1*
X-261121Y-1431620D1*
X-259428Y-1435430D1*
X-257028Y-1439240D1*
X-253363Y-1443050D1*
X-247888Y-1446860D1*
X-240547Y-1450670D1*
X-232245Y-1454480D1*
X-182715Y-1309700D2*
Y-1313510D1*
Y-1317320D1*
Y-1321130D1*
Y-1324940D1*
Y-1328750D1*
Y-1332560D1*
Y-1336370D1*
Y-1340180D1*
Y-1343990D1*
Y-1347800D1*
X-201779Y-1351610D1*
X-214852Y-1355420D1*
X-224625Y-1359230D1*
X-206528Y-1363040D1*
X-186525Y-1366850D1*
Y-1370660D1*
Y-1374470D1*
Y-1378280D1*
Y-1382090D1*
Y-1385900D1*
Y-1389710D1*
Y-1393520D1*
Y-1397330D1*
Y-1401140D1*
X-224625D1*
Y-1404950D1*
Y-1408760D1*
Y-1412570D1*
Y-1416380D1*
X-182715D1*
Y-1420190D1*
Y-1424000D1*
Y-1427810D1*
Y-1431620D1*
Y-1435430D1*
Y-1439240D1*
Y-1443050D1*
Y-1446860D1*
Y-1450670D1*
Y-1454480D1*
X-156045Y-1309700D2*
Y-1313510D1*
Y-1317320D1*
Y-1321130D1*
Y-1324940D1*
Y-1328750D1*
Y-1332560D1*
Y-1336370D1*
Y-1340180D1*
Y-1343990D1*
Y-1347800D1*
Y-1351610D1*
Y-1355420D1*
Y-1359230D1*
Y-1363040D1*
Y-1366850D1*
Y-1370660D1*
Y-1374470D1*
Y-1378280D1*
Y-1382090D1*
Y-1385900D1*
Y-1389710D1*
Y-1393520D1*
Y-1397330D1*
Y-1401140D1*
Y-1404950D1*
Y-1408760D1*
Y-1412570D1*
Y-1416380D1*
Y-1420190D1*
Y-1424000D1*
Y-1427810D1*
Y-1431620D1*
Y-1435430D1*
Y-1439240D1*
Y-1443050D1*
Y-1446860D1*
Y-1450670D1*
Y-1454480D1*
X-114135Y-1309700D2*
Y-1313510D1*
Y-1317320D1*
Y-1321130D1*
Y-1324940D1*
Y-1328750D1*
Y-1332560D1*
Y-1336370D1*
Y-1340180D1*
Y-1343990D1*
Y-1347800D1*
Y-1351610D1*
Y-1355420D1*
X-114120Y-1359230D1*
X-113975Y-1363040D1*
X-113386Y-1366850D1*
X-112084Y-1370660D1*
X-110325Y-1374470D1*
X-72225Y-1309700D2*
X-75431Y-1313510D1*
X-78163Y-1317320D1*
X-80486Y-1321130D1*
X-82582Y-1324940D1*
X-84561Y-1328750D1*
X-86498Y-1332560D1*
X-88425Y-1336370D1*
X-90456Y-1340180D1*
X-92726Y-1343990D1*
X-95180Y-1347800D1*
X-97513Y-1351610D1*
X-99655Y-1355420D1*
X-101677Y-1359230D1*
X-103639Y-1363040D1*
X-105664Y-1366850D1*
X-107894Y-1370660D1*
X-110325Y-1374470D1*
X80175Y-1309700D2*
Y-1313510D1*
Y-1317320D1*
Y-1321130D1*
Y-1324940D1*
Y-1328750D1*
Y-1332560D1*
Y-1336370D1*
Y-1340180D1*
Y-1343990D1*
Y-1347800D1*
Y-1351610D1*
X45885D1*
Y-1355420D1*
Y-1359230D1*
Y-1363040D1*
Y-1366850D1*
Y-1370660D1*
Y-1374470D1*
Y-1378280D1*
Y-1382090D1*
Y-1385900D1*
Y-1389710D1*
Y-1393520D1*
Y-1397330D1*
Y-1401140D1*
Y-1404950D1*
Y-1408760D1*
Y-1412570D1*
Y-1416380D1*
Y-1420190D1*
Y-1424000D1*
Y-1427810D1*
Y-1431620D1*
Y-1435430D1*
Y-1439240D1*
Y-1443050D1*
Y-1446860D1*
Y-1450670D1*
Y-1454480D1*
X224955Y-1309700D2*
Y-1313510D1*
Y-1317320D1*
Y-1321130D1*
Y-1324940D1*
Y-1328750D1*
Y-1332560D1*
Y-1336370D1*
Y-1340180D1*
Y-1343990D1*
Y-1347800D1*
Y-1351610D1*
Y-1355420D1*
Y-1359230D1*
Y-1363040D1*
Y-1366850D1*
Y-1370660D1*
Y-1374470D1*
Y-1378280D1*
Y-1382090D1*
Y-1385900D1*
Y-1389710D1*
Y-1393520D1*
Y-1397330D1*
Y-1401140D1*
X224970Y-1404950D1*
X225104Y-1408760D1*
X225589Y-1412570D1*
X226517Y-1416380D1*
X227628Y-1420190D1*
X228792Y-1424000D1*
X230207Y-1427810D1*
X231980Y-1431620D1*
X234273Y-1435430D1*
X237325Y-1439240D1*
X241317Y-1443050D1*
X246462Y-1446860D1*
X252626Y-1450670D1*
X259245Y-1454480D1*
X266865Y-1309700D2*
Y-1313510D1*
Y-1317320D1*
Y-1321130D1*
Y-1324940D1*
Y-1328750D1*
Y-1332560D1*
Y-1336370D1*
Y-1340180D1*
Y-1343990D1*
Y-1347800D1*
Y-1351610D1*
Y-1355420D1*
Y-1359230D1*
Y-1363040D1*
Y-1366850D1*
Y-1370660D1*
Y-1374470D1*
Y-1378280D1*
Y-1382090D1*
Y-1385900D1*
Y-1389710D1*
Y-1393520D1*
X266895Y-1397330D1*
X267207Y-1401140D1*
X267966Y-1404950D1*
X271708Y-1408760D1*
X276515Y-1412570D1*
X280803Y-1416380D1*
X284018Y-1420190D1*
X285022Y-1424000D1*
X285546Y-1427810D1*
X285774Y-1431620D1*
X285864Y-1435430D1*
X285897Y-1439240D1*
X285909Y-1443050D1*
X285913Y-1446860D1*
X285914Y-1450670D1*
X285915Y-1454480D1*
X430695Y-1309700D2*
Y-1313510D1*
Y-1317320D1*
Y-1321130D1*
Y-1324940D1*
Y-1328750D1*
Y-1332560D1*
Y-1336370D1*
Y-1340180D1*
Y-1343990D1*
Y-1347800D1*
Y-1351610D1*
Y-1355420D1*
Y-1359230D1*
Y-1363040D1*
Y-1366850D1*
Y-1370660D1*
Y-1374470D1*
Y-1378280D1*
Y-1382090D1*
Y-1385900D1*
Y-1389710D1*
Y-1393520D1*
Y-1397330D1*
Y-1401140D1*
Y-1404950D1*
Y-1408760D1*
Y-1412570D1*
Y-1416380D1*
Y-1420190D1*
Y-1424000D1*
Y-1427810D1*
Y-1431620D1*
Y-1435430D1*
Y-1439240D1*
Y-1443050D1*
Y-1446860D1*
Y-1450670D1*
Y-1454480D1*
X499275Y-1309700D2*
X507760Y-1313510D1*
X514389Y-1317320D1*
X518982Y-1321130D1*
X522179Y-1324940D1*
X524630Y-1328750D1*
X526619Y-1332560D1*
X528110Y-1336370D1*
X528980Y-1340180D1*
X529287Y-1343990D1*
X528996Y-1347800D1*
X528147Y-1351610D1*
X527051Y-1355420D1*
X525763Y-1359230D1*
X523881Y-1363040D1*
X521376Y-1366850D1*
X518814Y-1370660D1*
X516493Y-1374470D1*
X518856Y-1378280D1*
X522010Y-1382090D1*
X525223Y-1385900D1*
X528004Y-1389710D1*
X530364Y-1393520D1*
X532464Y-1397330D1*
X534317Y-1401140D1*
X535757Y-1404950D1*
X536609Y-1408760D1*
X536910Y-1412570D1*
X536617Y-1416380D1*
X535767Y-1420190D1*
X534686Y-1424000D1*
X533532Y-1427810D1*
X532121Y-1431620D1*
X530334Y-1435430D1*
X527908Y-1439240D1*
X524372Y-1443050D1*
X519480Y-1446860D1*
X513439Y-1450670D1*
X506895Y-1454480D1*
X-30315Y-1309700D2*
X-33521Y-1313510D1*
X-36253Y-1317320D1*
X-38576Y-1321130D1*
X-40672Y-1324940D1*
X-42666Y-1328750D1*
X-44722Y-1332560D1*
X-47001Y-1336370D1*
X-49459Y-1340180D1*
X-51793Y-1343990D1*
X-53935Y-1347800D1*
X-55957Y-1351610D1*
X-57907Y-1355420D1*
X-59833Y-1359230D1*
X-61742Y-1363040D1*
X-63638Y-1366850D1*
X-65392Y-1370660D1*
X-66666Y-1374470D1*
X-67373Y-1378280D1*
X-66493Y-1382090D1*
X-65141Y-1385900D1*
X-63491Y-1389710D1*
X-61686Y-1393520D1*
X-59823Y-1397330D1*
X-57929Y-1401140D1*
X-56032Y-1404950D1*
X-54125Y-1408760D1*
X-52224Y-1412570D1*
X-50316Y-1416380D1*
X-48414Y-1420190D1*
X-46506Y-1424000D1*
X-44604Y-1427810D1*
X-42696Y-1431620D1*
X-40794Y-1435430D1*
X-38886Y-1439240D1*
X-36972Y-1443050D1*
X-34965Y-1446860D1*
X-32742Y-1450670D1*
X-30315Y-1454480D1*
X-26505Y-1309700D2*
Y-1313510D1*
Y-1317320D1*
Y-1321130D1*
Y-1324940D1*
Y-1328750D1*
Y-1332560D1*
Y-1336370D1*
Y-1340180D1*
Y-1343990D1*
Y-1347800D1*
Y-1351610D1*
X7785D1*
Y-1355420D1*
Y-1359230D1*
Y-1363040D1*
Y-1366850D1*
Y-1370660D1*
Y-1374470D1*
Y-1378280D1*
Y-1382090D1*
Y-1385900D1*
Y-1389710D1*
Y-1393520D1*
Y-1397330D1*
Y-1401140D1*
Y-1404950D1*
Y-1408760D1*
Y-1412570D1*
Y-1416380D1*
Y-1420190D1*
Y-1424000D1*
Y-1427810D1*
Y-1431620D1*
Y-1435430D1*
Y-1439240D1*
Y-1443050D1*
Y-1446860D1*
Y-1450670D1*
Y-1454480D1*
X-323685Y-1343990D2*
X-326746Y-1347800D1*
X-328974Y-1351610D1*
X-330250Y-1355420D1*
X-330869Y-1359230D1*
X-331137Y-1363040D1*
X-331243Y-1366850D1*
X-331283Y-1370660D1*
X-331298Y-1374470D1*
X-331305Y-1378280D1*
X-316065D1*
Y-1382090D1*
Y-1385900D1*
Y-1389710D1*
Y-1393520D1*
Y-1397330D1*
Y-1401140D1*
Y-1404950D1*
Y-1408760D1*
Y-1412570D1*
Y-1416380D1*
Y-1420190D1*
X-331305D1*
Y-1424000D1*
Y-1427810D1*
Y-1431620D1*
Y-1435430D1*
Y-1439240D1*
Y-1443050D1*
Y-1446860D1*
Y-1450670D1*
Y-1454480D1*
X-316065Y-1343990D2*
X-312255Y-1347800D1*
X-308445Y-1351610D1*
X144945Y-1343990D2*
X141884Y-1347800D1*
X139656Y-1351610D1*
X138380Y-1355420D1*
X137761Y-1359230D1*
X137493Y-1363040D1*
X137387Y-1366850D1*
X137347Y-1370660D1*
X137332Y-1374470D1*
X137327Y-1378280D1*
X137325Y-1382090D1*
X148755D1*
Y-1385900D1*
Y-1389710D1*
Y-1393520D1*
Y-1397330D1*
Y-1401140D1*
Y-1404950D1*
Y-1408760D1*
Y-1412570D1*
Y-1416380D1*
Y-1420190D1*
Y-1424000D1*
X137325D1*
Y-1427810D1*
Y-1431620D1*
Y-1435430D1*
Y-1439240D1*
Y-1443050D1*
Y-1446860D1*
Y-1450670D1*
Y-1454480D1*
X156375Y-1343990D2*
X156964Y-1347800D1*
X157908Y-1351610D1*
X158895Y-1355420D1*
X159562Y-1359230D1*
X159916Y-1363040D1*
X160078Y-1366850D1*
X160145Y-1370660D1*
X160171Y-1374470D1*
X160180Y-1378280D1*
X160183Y-1382090D1*
X160184Y-1385900D1*
X160185Y-1389710D1*
Y-1393520D1*
Y-1397330D1*
Y-1401140D1*
Y-1404950D1*
Y-1408760D1*
Y-1412570D1*
Y-1416380D1*
Y-1420190D1*
Y-1424000D1*
Y-1427810D1*
Y-1431620D1*
Y-1435430D1*
Y-1439240D1*
Y-1443050D1*
Y-1446860D1*
Y-1450670D1*
Y-1454480D1*
X346875Y-1343990D2*
X343814Y-1347800D1*
X341586Y-1351610D1*
X340310Y-1355420D1*
X339691Y-1359230D1*
X339423Y-1363040D1*
X339317Y-1366850D1*
X339277Y-1370660D1*
X339262Y-1374470D1*
X339257Y-1378280D1*
X339255Y-1382090D1*
X350685D1*
Y-1385900D1*
Y-1389710D1*
Y-1393520D1*
Y-1397330D1*
Y-1401140D1*
Y-1404950D1*
Y-1408760D1*
Y-1412570D1*
Y-1416380D1*
Y-1420190D1*
Y-1424000D1*
X339255D1*
Y-1427810D1*
Y-1431620D1*
Y-1435430D1*
Y-1439240D1*
Y-1443050D1*
Y-1446860D1*
Y-1450670D1*
Y-1454480D1*
X358305Y-1343990D2*
X358894Y-1347800D1*
X359838Y-1351610D1*
X360825Y-1355420D1*
X361492Y-1359230D1*
X361846Y-1363040D1*
X362008Y-1366850D1*
X362075Y-1370660D1*
X362101Y-1374470D1*
X362110Y-1378280D1*
X362113Y-1382090D1*
X362114Y-1385900D1*
X362115Y-1389710D1*
Y-1393520D1*
Y-1397330D1*
Y-1401140D1*
Y-1404950D1*
Y-1408760D1*
Y-1412570D1*
Y-1416380D1*
Y-1420190D1*
Y-1424000D1*
Y-1427810D1*
Y-1431620D1*
Y-1435430D1*
Y-1439240D1*
Y-1443050D1*
Y-1446860D1*
Y-1450670D1*
Y-1454480D1*
X697395Y-1343990D2*
X693141Y-1347800D1*
X688890Y-1351610D1*
X685141Y-1355420D1*
X682141Y-1359230D1*
X679703Y-1363040D1*
X677695Y-1366850D1*
X676191Y-1370660D1*
X675300Y-1374470D1*
X674856Y-1378280D1*
X674660Y-1382090D1*
X674596Y-1385900D1*
X674715Y-1389710D1*
X675324Y-1393520D1*
X676733Y-1397330D1*
X678785Y-1401140D1*
X681298Y-1404950D1*
X684324Y-1408760D1*
X693208Y-1412570D1*
X707051Y-1416380D1*
X724065Y-1420190D1*
X712635Y-1343990D2*
X719361Y-1347800D1*
X724896Y-1351610D1*
X728935Y-1355420D1*
X731898Y-1359230D1*
X734364Y-1363040D1*
X736777Y-1366850D1*
X739305Y-1370660D1*
X872655Y-1343990D2*
X865784Y-1347800D1*
X859760Y-1351610D1*
X854808Y-1355420D1*
X850880Y-1359230D1*
X847864Y-1363040D1*
X845558Y-1366850D1*
X843920Y-1370660D1*
X842973Y-1374470D1*
X842507Y-1378280D1*
X842319Y-1382090D1*
X842371Y-1385900D1*
X842841Y-1389710D1*
X843891Y-1393520D1*
X845499Y-1397330D1*
X847724Y-1401140D1*
X850824Y-1404950D1*
X855532Y-1408760D1*
X863618Y-1412570D1*
X876293Y-1416380D1*
X891705Y-1420190D1*
X880275Y-1343990D2*
X887146Y-1347800D1*
X893170Y-1351610D1*
X898107Y-1355420D1*
X901916Y-1359230D1*
X904581Y-1363040D1*
X906459Y-1366850D1*
X908033Y-1370660D1*
X909293Y-1374470D1*
X910054Y-1378280D1*
X910315Y-1382090D1*
X910006Y-1385900D1*
X909151Y-1389710D1*
X908052Y-1393520D1*
X906763Y-1397330D1*
X904852Y-1401140D1*
X901944Y-1404950D1*
X898236Y-1408760D1*
X889513Y-1412570D1*
X876685Y-1416380D1*
X861225Y-1420190D1*
X1021245Y-1343990D2*
X1018184Y-1347800D1*
X1015956Y-1351610D1*
X1014680Y-1355420D1*
X1014061Y-1359230D1*
X1013793Y-1363040D1*
X1013687Y-1366850D1*
X1013647Y-1370660D1*
X1013632Y-1374470D1*
X1013627Y-1378280D1*
X1013626Y-1382090D1*
X1013625Y-1385900D1*
Y-1389710D1*
Y-1393520D1*
Y-1397330D1*
Y-1401140D1*
Y-1404950D1*
Y-1408760D1*
Y-1412570D1*
Y-1416380D1*
Y-1420190D1*
Y-1424000D1*
Y-1427810D1*
Y-1431620D1*
Y-1435430D1*
Y-1439240D1*
Y-1443050D1*
Y-1446860D1*
Y-1450670D1*
Y-1454480D1*
X1028865Y-1343990D2*
Y-1347800D1*
Y-1351610D1*
Y-1355420D1*
Y-1359230D1*
Y-1363040D1*
Y-1366850D1*
Y-1370660D1*
Y-1374470D1*
Y-1378280D1*
Y-1382090D1*
Y-1385900D1*
Y-1389710D1*
Y-1393520D1*
Y-1397330D1*
Y-1401140D1*
Y-1404950D1*
Y-1408760D1*
Y-1412570D1*
Y-1416380D1*
Y-1420190D1*
Y-1424000D1*
Y-1427810D1*
Y-1431620D1*
Y-1435430D1*
Y-1439240D1*
Y-1443050D1*
Y-1446860D1*
Y-1450670D1*
Y-1454480D1*
X1070775Y-1343990D2*
Y-1347800D1*
Y-1351610D1*
Y-1355420D1*
Y-1359230D1*
Y-1363040D1*
Y-1366850D1*
Y-1370660D1*
Y-1374470D1*
Y-1378280D1*
Y-1382090D1*
Y-1385900D1*
Y-1389710D1*
Y-1393520D1*
Y-1397330D1*
Y-1401140D1*
Y-1404950D1*
Y-1408760D1*
Y-1412570D1*
Y-1416380D1*
Y-1420190D1*
Y-1424000D1*
Y-1427810D1*
Y-1431620D1*
Y-1435430D1*
Y-1439240D1*
Y-1443050D1*
Y-1446860D1*
Y-1450670D1*
Y-1454480D1*
X1078395Y-1343990D2*
X1081456Y-1347800D1*
X1083684Y-1351610D1*
X1084960Y-1355420D1*
X1085579Y-1359230D1*
X1085847Y-1363040D1*
X1085953Y-1366850D1*
X1085993Y-1370660D1*
X1086008Y-1374470D1*
X1086013Y-1378280D1*
X1086014Y-1382090D1*
X1086015Y-1385900D1*
Y-1389710D1*
Y-1393520D1*
Y-1397330D1*
Y-1401140D1*
Y-1404950D1*
Y-1408760D1*
Y-1412570D1*
Y-1416380D1*
Y-1420190D1*
Y-1424000D1*
Y-1427810D1*
Y-1431620D1*
Y-1435430D1*
Y-1439240D1*
Y-1443050D1*
Y-1446860D1*
Y-1450670D1*
Y-1454480D1*
X472605Y-1347800D2*
Y-1351610D1*
Y-1355420D1*
Y-1359230D1*
Y-1363040D1*
Y-1366850D1*
Y-1370660D1*
Y-1374470D1*
Y-1378280D1*
Y-1382090D1*
Y-1385900D1*
Y-1389710D1*
Y-1393520D1*
Y-1397330D1*
Y-1401140D1*
Y-1404950D1*
Y-1408760D1*
Y-1412570D1*
Y-1416380D1*
Y-1420190D1*
Y-1424000D1*
Y-1427810D1*
Y-1431620D1*
Y-1435430D1*
Y-1439240D1*
Y-1443050D1*
Y-1446860D1*
Y-1450670D1*
Y-1454480D1*
X487845Y-1347800D2*
X491655Y-1351610D1*
X495465Y-1355420D1*
X493692Y-1359230D1*
X492515Y-1363040D1*
X491655Y-1366850D1*
X480225D1*
Y-1370660D1*
Y-1374470D1*
Y-1378280D1*
Y-1382090D1*
Y-1385900D1*
Y-1389710D1*
Y-1393520D1*
Y-1397330D1*
Y-1401140D1*
Y-1404950D1*
X499275D1*
Y-1408760D1*
Y-1412570D1*
Y-1416380D1*
X480225D1*
Y-1420190D1*
Y-1424000D1*
Y-1427810D1*
Y-1431620D1*
Y-1435430D1*
Y-1439240D1*
Y-1443050D1*
Y-1446860D1*
Y-1450670D1*
Y-1454480D1*
X-114135Y-1378280D2*
Y-1382090D1*
Y-1385900D1*
Y-1389710D1*
Y-1393520D1*
Y-1397330D1*
Y-1401140D1*
Y-1404950D1*
Y-1408760D1*
Y-1412570D1*
Y-1416380D1*
Y-1420190D1*
Y-1424000D1*
Y-1427810D1*
Y-1431620D1*
Y-1435430D1*
Y-1439240D1*
Y-1443050D1*
Y-1446860D1*
Y-1450670D1*
Y-1454480D1*
X-106515Y-1378280D2*
X-106370Y-1382090D1*
X-105867Y-1385900D1*
X-104820Y-1389710D1*
X-103342Y-1393520D1*
X-101631Y-1397330D1*
X-99815Y-1401140D1*
X-98062Y-1404950D1*
X-96531Y-1408760D1*
X-95179Y-1412570D1*
X-93703Y-1416380D1*
X-92050Y-1420190D1*
X-90381Y-1424000D1*
X-88887Y-1427810D1*
X-87550Y-1431620D1*
X-86080Y-1435430D1*
X-84414Y-1439240D1*
X-82614Y-1443050D1*
X-80656Y-1446860D1*
X-78452Y-1450670D1*
X-76035Y-1454480D1*
X739305Y-1385900D2*
X739160Y-1389710D1*
X738657Y-1393520D1*
X737595Y-1397330D1*
X735968Y-1401140D1*
X733519Y-1404950D1*
X730201Y-1408760D1*
X720988Y-1412570D1*
X706937Y-1416380D1*
X689775Y-1420190D1*
X773595Y-1385900D2*
X777098Y-1389710D1*
X779658Y-1393520D1*
X779900Y-1397330D1*
X779369Y-1401140D1*
X778434Y-1404950D1*
X777338Y-1408760D1*
X775964Y-1412570D1*
X774334Y-1416380D1*
X772545Y-1420190D1*
X770555Y-1424000D1*
X768173Y-1427810D1*
X765226Y-1431620D1*
X761850Y-1435430D1*
X758217Y-1439240D1*
X754306Y-1443050D1*
X749602Y-1446860D1*
X743091Y-1450670D1*
X734244Y-1454480D1*
X724065Y-1458290D1*
X-540855Y-1412570D2*
X-546264Y-1416380D1*
X-550531Y-1420190D1*
X-553829Y-1424000D1*
X-554999Y-1427810D1*
X-555630Y-1431620D1*
X-555899Y-1435430D1*
X-555865Y-1439240D1*
X-555273Y-1443050D1*
X-553742Y-1446860D1*
X-551228Y-1450670D1*
X-548071Y-1454480D1*
X-544665Y-1458290D1*
X-525615Y-1412570D2*
X-520650Y-1416380D1*
X-516839Y-1420190D1*
X-514096Y-1424000D1*
X-512255Y-1427810D1*
X-511238Y-1431620D1*
X-510874Y-1435430D1*
X-511160Y-1439240D1*
X-512150Y-1443050D1*
X-513874Y-1446860D1*
X-516652Y-1450670D1*
X-520760Y-1454480D1*
X-525615Y-1458290D1*
X575475Y-1412570D2*
X570066Y-1416380D1*
X565799Y-1420190D1*
X562501Y-1424000D1*
X561331Y-1427810D1*
X560700Y-1431620D1*
X560431Y-1435430D1*
X560465Y-1439240D1*
X561057Y-1443050D1*
X562588Y-1446860D1*
X565102Y-1450670D1*
X568259Y-1454480D1*
X571665Y-1458290D1*
X590715Y-1412570D2*
X595680Y-1416380D1*
X599491Y-1420190D1*
X602234Y-1424000D1*
X604075Y-1427810D1*
X605092Y-1431620D1*
X605456Y-1435430D1*
X605170Y-1439240D1*
X604180Y-1443050D1*
X602456Y-1446860D1*
X599678Y-1450670D1*
X595570Y-1454480D1*
X590715Y-1458290D1*
X-1024725Y-1439240D2*
X-1028550Y-1443050D1*
X-1032505Y-1446860D1*
X-1036904Y-1450670D1*
X-1042016Y-1454480D1*
X-1047585Y-1458290D1*
X-1024725Y-1439240D2*
X-1020885Y-1443050D1*
X-1016785Y-1446860D1*
X-1011797Y-1450670D1*
X-1005382Y-1454480D1*
X-998055Y-1458290D1*
X-845655Y-1439240D2*
X-849480Y-1443050D1*
X-853435Y-1446860D1*
X-857834Y-1450670D1*
X-862946Y-1454480D1*
X-868515Y-1458290D1*
X-845655Y-1439240D2*
X-841815Y-1443050D1*
X-837715Y-1446860D1*
X-832727Y-1450670D1*
X-826312Y-1454480D1*
X-818985Y-1458290D1*
X-666585Y-1439240D2*
X-670410Y-1443050D1*
X-674365Y-1446860D1*
X-678764Y-1450670D1*
X-683876Y-1454480D1*
X-689445Y-1458290D1*
X-666585Y-1439240D2*
X-662745Y-1443050D1*
X-658645Y-1446860D1*
X-653657Y-1450670D1*
X-647242Y-1454480D1*
X-639915Y-1458290D1*
X30794Y776344D2*
X25196Y772534D1*
X20001Y768724D1*
X14459Y764914D1*
X7789Y761104D1*
X314Y757294D1*
X61274Y776344D2*
X66828Y772534D1*
X71598Y768724D1*
X75461Y764914D1*
X78456Y761104D1*
X80754Y757294D1*
X82390Y753484D1*
X83337Y749674D1*
X83802Y745864D1*
X84005Y742054D1*
X84086Y738244D1*
X84117Y734434D1*
X84128Y730624D1*
X84132Y726814D1*
X84134Y723004D1*
X-37786Y768724D2*
X-43210Y764914D1*
X-47611Y761104D1*
X-50912Y757294D1*
X-53371Y753484D1*
X-55203Y749674D1*
X-56660Y745864D1*
X-58046Y742054D1*
X-59229Y738244D1*
X-59976Y734434D1*
X-60361Y730624D1*
X-60533Y726814D1*
X-60604Y723004D1*
X-60631Y719194D1*
X-60641Y715384D1*
X-60644Y711574D1*
X-60645Y707764D1*
X-60646Y703954D1*
Y700144D1*
Y696334D1*
Y692524D1*
Y688714D1*
Y684904D1*
Y681094D1*
Y677284D1*
Y673474D1*
X-7306Y768724D2*
X-2095Y764914D1*
X4389Y761104D1*
X11744Y757294D1*
X38414Y742054D2*
X35353Y738244D1*
X33124Y734434D1*
X31844Y730624D1*
X31196Y726814D1*
X30794Y723004D1*
X46034Y742054D2*
Y738244D1*
Y734434D1*
Y730624D1*
Y726814D1*
Y723004D1*
X-14926Y734434D2*
X-17972Y730624D1*
X-20503Y726814D1*
X-21228Y723004D1*
X-19914Y719194D1*
X-17655Y715384D1*
X-14926Y711574D1*
X-3496Y734434D2*
Y730624D1*
Y726814D1*
Y723004D1*
X84134Y711574D2*
Y707764D1*
Y703954D1*
Y700144D1*
Y696334D1*
Y692524D1*
Y688714D1*
Y684904D1*
Y681094D1*
Y677284D1*
Y673474D1*
X-60646Y612514D2*
Y608704D1*
Y604894D1*
Y601084D1*
Y597274D1*
Y593464D1*
Y589654D1*
Y585844D1*
Y582034D1*
Y578224D1*
Y574414D1*
X84134Y612514D2*
Y608704D1*
Y604894D1*
Y601084D1*
Y597274D1*
Y593464D1*
Y589654D1*
Y585844D1*
Y582034D1*
Y578224D1*
Y574414D1*
X-60646Y521074D2*
X-61948Y517264D1*
X-63082Y513454D1*
X-63790Y509644D1*
X-64029Y505834D1*
X-63712Y502024D1*
X-62853Y498214D1*
X-61769Y494404D1*
X-60613Y490594D1*
X-59202Y486784D1*
X-57430Y482974D1*
X-55153Y479164D1*
X-52235Y475354D1*
X-48712Y471544D1*
X-44322Y467734D1*
X-38470Y463924D1*
X-30952Y460114D1*
X-22546Y456304D1*
Y521074D2*
X-23725Y517264D1*
X-24302Y513454D1*
X-18695Y509644D1*
X-10159Y505834D1*
X314Y502024D1*
X23174Y517264D2*
X14473Y513454D1*
X4532Y509644D1*
X-8102Y505834D1*
X-22546Y502024D1*
X53654Y517264D2*
X60525Y513454D1*
X66563Y509644D1*
X71635Y505834D1*
X75929Y502024D1*
X79507Y498214D1*
X82362Y494404D1*
X84601Y490594D1*
X86213Y486784D1*
X87151Y482974D1*
X87613Y479164D1*
X87815Y475354D1*
X87897Y471544D1*
X87927Y467734D1*
X87923Y463924D1*
X87782Y460114D1*
X87195Y456304D1*
X85893Y452494D1*
X84134Y448684D1*
X34604Y471544D2*
X26828Y467734D1*
X18616Y463924D1*
X9693Y460114D1*
X314Y456304D1*
X42224Y471544D2*
X45285Y467734D1*
X47499Y463924D1*
X48987Y460114D1*
X48750Y456304D1*
X47658Y452494D1*
X46034Y448684D1*
X-60646Y429634D2*
Y425824D1*
Y422014D1*
Y418204D1*
Y414394D1*
Y410584D1*
Y406774D1*
Y402964D1*
Y399154D1*
Y395344D1*
Y391534D1*
Y387724D1*
Y383914D1*
X-60631Y380104D1*
X-60467Y376294D1*
X-60066Y372484D1*
X-58138Y368674D1*
X-53446Y364864D1*
X-47112Y361054D1*
X-39305Y357244D1*
X-30590Y353434D1*
X-21523Y349624D1*
X-12493Y345814D1*
X-3581Y342004D1*
X5366Y338194D1*
X14158Y334384D1*
X22578Y330574D1*
X30794Y326764D1*
X84134Y429634D2*
Y425824D1*
Y422014D1*
Y418204D1*
Y414394D1*
Y410584D1*
Y406774D1*
Y402964D1*
Y399154D1*
Y395344D1*
Y391534D1*
X-30166D2*
X-22691Y387724D1*
X-15545Y383914D1*
X-8693Y380104D1*
X-1471Y376294D1*
X6729Y372484D1*
X15554Y368674D1*
X11744Y376294D2*
X9958Y372484D1*
X7934Y368674D1*
X38414Y376294D2*
Y372484D1*
Y368674D1*
Y364864D1*
Y361054D1*
Y357244D1*
Y353434D1*
Y349624D1*
Y345814D1*
Y342004D1*
Y338194D1*
Y334384D1*
Y330574D1*
Y326764D1*
X-26356Y300094D2*
X-33227Y296284D1*
X-39265Y292474D1*
X-44337Y288664D1*
X-48631Y284854D1*
X-52209Y281044D1*
X-55064Y277234D1*
X-57317Y273424D1*
X-59064Y269614D1*
X-60488Y265804D1*
X-61862Y261994D1*
X-63041Y258184D1*
X-63772Y254374D1*
X-64022Y250564D1*
X-63709Y246754D1*
X-62867Y242944D1*
X-61902Y239134D1*
X-61099Y235324D1*
X-60115Y231514D1*
X-58407Y227704D1*
X-55817Y223894D1*
X-52588Y220084D1*
X-48889Y216274D1*
X-44549Y212464D1*
X-39244Y208654D1*
X-33012Y204844D1*
X-26356Y201034D1*
X53654Y300094D2*
X60525Y296284D1*
X66563Y292474D1*
X71635Y288664D1*
X75929Y284854D1*
X79507Y281044D1*
X82362Y277234D1*
X84601Y273424D1*
X86213Y269614D1*
X87151Y265804D1*
X87613Y261994D1*
X87815Y258184D1*
X87897Y254374D1*
X87927Y250564D1*
X87938Y246754D1*
X87927Y242944D1*
X87795Y239134D1*
X87295Y235324D1*
X86233Y231514D1*
X84622Y227704D1*
X82411Y223894D1*
X79519Y220084D1*
X76020Y216274D1*
X71778Y212464D1*
X66516Y208654D1*
X60301Y204844D1*
X53654Y201034D1*
X-22546Y261994D2*
X-23246Y258184D1*
X-24583Y254374D1*
X-26356Y250564D1*
X-24583Y246754D1*
X-23406Y242944D1*
X-22546Y239134D1*
X49844Y261994D2*
Y258184D1*
Y254374D1*
Y250564D1*
Y246754D1*
Y242944D1*
Y239134D1*
X-33976Y174364D2*
X-40847Y170554D1*
X-46871Y166744D1*
X-51808Y162934D1*
X-55617Y159124D1*
X-58282Y155314D1*
X-60160Y151504D1*
X-61734Y147694D1*
X-62994Y143884D1*
X-63755Y140074D1*
X-64016Y136264D1*
X-63707Y132454D1*
X-62852Y128644D1*
X-61768Y124834D1*
X-60613Y121024D1*
X-59187Y117214D1*
X-57282Y113404D1*
X-54516Y109594D1*
X-50671Y105784D1*
X-46201Y101974D1*
X-41596Y98164D1*
X-47020Y94354D1*
X-51421Y90544D1*
X-54737Y86734D1*
X-57315Y82924D1*
X-59499Y79114D1*
X-61382Y75304D1*
X-62833Y71494D1*
X-63689Y67684D1*
X-63991Y63874D1*
X-63698Y60064D1*
X-62848Y56254D1*
X-61752Y52444D1*
X-60479Y48634D1*
X-58702Y44824D1*
X-56369Y41014D1*
X-53512Y37204D1*
X-49718Y33394D1*
X-44509Y29584D1*
X-37783Y25774D1*
X-30166Y21964D1*
X84134Y174364D2*
Y170554D1*
Y166744D1*
Y162934D1*
Y159124D1*
Y155314D1*
Y151504D1*
Y147694D1*
Y143884D1*
Y140074D1*
Y136264D1*
Y132454D1*
X-30166D2*
X-26356Y128644D1*
X-22546Y124834D1*
X-18736Y121024D1*
X-14926Y117214D1*
X84134D2*
Y113404D1*
Y109594D1*
Y105784D1*
Y101974D1*
Y98164D1*
Y94354D1*
Y90544D1*
Y86734D1*
Y82924D1*
Y79114D1*
X-18736D2*
X-22546Y75304D1*
X-26356Y71494D1*
X-22546Y67684D1*
X-18736Y63874D1*
X84134D2*
Y60064D1*
Y56254D1*
Y52444D1*
Y48634D1*
Y44824D1*
Y41014D1*
Y37204D1*
Y33394D1*
Y29584D1*
Y25774D1*
Y21964D1*
X-60646Y-896D2*
Y-4706D1*
Y-8516D1*
Y-12326D1*
Y-16136D1*
Y-19946D1*
Y-23756D1*
Y-27566D1*
Y-31376D1*
Y-35186D1*
Y-38996D1*
Y-42806D1*
Y-46616D1*
X-60631Y-50426D1*
X-60467Y-54236D1*
X-60066Y-58046D1*
X-58138Y-61856D1*
X-53446Y-65666D1*
X-47112Y-69476D1*
X-39305Y-73286D1*
X-30590Y-77096D1*
X-21523Y-80906D1*
X-12493Y-84716D1*
X-3581Y-88526D1*
X5366Y-92336D1*
X14158Y-96146D1*
X22578Y-99956D1*
X30794Y-103766D1*
X84134Y-896D2*
Y-4706D1*
Y-8516D1*
Y-12326D1*
Y-16136D1*
Y-19946D1*
Y-23756D1*
Y-27566D1*
Y-31376D1*
Y-35186D1*
Y-38996D1*
X-30166D2*
X-22691Y-42806D1*
X-15545Y-46616D1*
X-8693Y-50426D1*
X-1471Y-54236D1*
X6729Y-58046D1*
X15554Y-61856D1*
X11744Y-54236D2*
X9958Y-58046D1*
X7934Y-61856D1*
X38414Y-54236D2*
Y-58046D1*
Y-61856D1*
Y-65666D1*
Y-69476D1*
Y-73286D1*
Y-77096D1*
Y-80906D1*
Y-84716D1*
Y-88526D1*
Y-92336D1*
Y-96146D1*
Y-99956D1*
Y-103766D1*
X30794Y-122816D2*
X22179Y-126626D1*
X15195Y-130436D1*
X10190Y-134246D1*
X6502Y-138056D1*
X5269Y-141866D1*
X4608Y-145676D1*
X4312Y-149486D1*
X4193Y-153296D1*
X4148Y-157106D1*
X4132Y-160916D1*
X4127Y-164726D1*
X4125Y-168536D1*
X4124Y-172346D1*
Y-176156D1*
X49844Y-122816D2*
X57745Y-126626D1*
X64554Y-130436D1*
X69973Y-134246D1*
X74014Y-138056D1*
X77266Y-141866D1*
X80148Y-145676D1*
X82638Y-149486D1*
X84710Y-153296D1*
X86254Y-157106D1*
X87166Y-160916D1*
X87618Y-164726D1*
X87817Y-168536D1*
X87897Y-172346D1*
X87927Y-176156D1*
X87938Y-179966D1*
X87927Y-183776D1*
X87795Y-187586D1*
X87309Y-191396D1*
X86382Y-195206D1*
X85257Y-199016D1*
X83973Y-202826D1*
X82206Y-206636D1*
X80007Y-210446D1*
X77664Y-214256D1*
X75074Y-218066D1*
X72011Y-221876D1*
X68442Y-225686D1*
X64172Y-229496D1*
X58887Y-233306D1*
X52584Y-237116D1*
X45626Y-240926D1*
X38414Y-244736D1*
X-60646Y-153296D2*
X-61235Y-157106D1*
X-62179Y-160916D1*
X-63166Y-164726D1*
X-63833Y-168536D1*
X-64172Y-172346D1*
X-64200Y-176156D1*
X-63782Y-179966D1*
X-62895Y-183776D1*
X-61912Y-187586D1*
X-61117Y-191396D1*
X-60265Y-195206D1*
X-59057Y-199016D1*
X-57513Y-202826D1*
X-55761Y-206636D1*
X-53788Y-210446D1*
X-51411Y-214256D1*
X-48466Y-218066D1*
X-45090Y-221876D1*
X-41458Y-225686D1*
X-37562Y-229496D1*
X-33003Y-233306D1*
X-27081Y-237116D1*
X-19536Y-240926D1*
X-11116Y-244736D1*
X-18736Y-153296D2*
X-20640Y-157106D1*
X-22208Y-160916D1*
X-23541Y-164726D1*
X-24608Y-168536D1*
X-24197Y-172346D1*
X-23415Y-176156D1*
X-22410Y-179966D1*
X-21048Y-183776D1*
X-19138Y-187586D1*
X-16694Y-191396D1*
X-10533Y-195206D1*
X-643Y-199016D1*
X13798Y-202826D1*
X30794Y-206636D1*
X42224Y-157106D2*
X39163Y-160916D1*
X36934Y-164726D1*
X35654Y-168536D1*
X35006Y-172346D1*
X34604Y-176156D1*
X42224Y-157106D2*
X45285Y-160916D1*
X47513Y-164726D1*
X48789Y-168536D1*
X49393Y-172346D1*
X49512Y-176156D1*
X48984Y-179966D1*
X47477Y-183776D1*
X44938Y-187586D1*
X41398Y-191396D1*
X36010Y-195206D1*
X26886Y-199016D1*
X13034Y-202826D1*
X-3496Y-206636D1*
X-22546Y-267596D2*
X-31176Y-271406D1*
X-38308Y-275216D1*
X-43933Y-279026D1*
X-48474Y-282836D1*
X-52150Y-286646D1*
X-55043Y-290456D1*
X-57310Y-294266D1*
X-59062Y-298076D1*
X-60487Y-301886D1*
X-61862Y-305696D1*
X-63041Y-309506D1*
X-63772Y-313316D1*
X-64022Y-317126D1*
X-63709Y-320936D1*
X-62852Y-324746D1*
X-61769Y-328556D1*
X-60613Y-332366D1*
X-59202Y-336176D1*
X-57430Y-339986D1*
X-55153Y-343796D1*
X-52250Y-347606D1*
X-48861Y-351416D1*
X-44959Y-355226D1*
X-40052Y-359036D1*
X-33668Y-362846D1*
X-26356Y-366656D1*
X-3496Y-267596D2*
X5883Y-271406D1*
X14612Y-275216D1*
X22931Y-279026D1*
X31385Y-282836D1*
X40410Y-286646D1*
X49844Y-290456D1*
X46034Y-267596D2*
Y-271406D1*
X46019Y-275216D1*
X45874Y-279026D1*
X45285Y-282836D1*
X43983Y-286646D1*
X42224Y-290456D1*
X84134Y-267596D2*
Y-271406D1*
Y-275216D1*
Y-279026D1*
Y-282836D1*
Y-286646D1*
Y-290456D1*
Y-294266D1*
Y-298076D1*
Y-301886D1*
Y-305696D1*
Y-309506D1*
Y-313316D1*
Y-317126D1*
Y-320936D1*
Y-324746D1*
Y-328556D1*
Y-332366D1*
Y-336176D1*
Y-339986D1*
Y-343796D1*
Y-347606D1*
Y-351416D1*
Y-355226D1*
X-18736Y-309506D2*
X-21637Y-313316D1*
X-23852Y-317126D1*
X-24287Y-320936D1*
X-19389Y-324746D1*
X-12194Y-328556D1*
X-3496Y-332366D1*
X-11116Y-309506D2*
X-3496Y-313316D1*
X4124Y-317126D1*
X11744Y-320936D1*
X19364Y-324746D1*
X26984Y-328556D1*
X34604Y-332366D1*
X42224Y-336176D1*
X49844Y-339986D1*
X57464Y-343796D1*
X65084Y-347606D1*
X72704Y-351416D1*
X80324Y-355226D1*
X-3496Y-328556D2*
X-7306Y-332366D1*
X4124Y-328556D2*
X9985Y-332366D1*
X16507Y-336176D1*
X23545Y-339986D1*
X30794Y-343796D1*
X28272Y-347606D1*
X25447Y-351416D1*
X21726Y-355226D1*
X16756Y-359036D1*
X10685Y-362846D1*
X4124Y-366656D1*
X7934Y-381896D2*
Y-385706D1*
Y-389516D1*
Y-393326D1*
Y-397136D1*
Y-400946D1*
Y-404756D1*
Y-408566D1*
Y-412376D1*
Y-416186D1*
Y-419996D1*
Y-423806D1*
Y-427616D1*
X34604Y-381896D2*
Y-385706D1*
Y-389516D1*
Y-393326D1*
Y-397136D1*
Y-400946D1*
Y-404756D1*
Y-408566D1*
Y-412376D1*
Y-416186D1*
Y-419996D1*
Y-423806D1*
Y-427616D1*
X26984Y-454286D2*
X19657Y-458096D1*
X13613Y-461906D1*
X8261Y-465716D1*
X2192Y-469526D1*
X-5730Y-473336D1*
X-14926Y-477146D1*
X49844Y-454286D2*
X58474Y-458096D1*
X65592Y-461906D1*
X71097Y-465716D1*
X75271Y-469526D1*
X78402Y-473336D1*
X80879Y-477146D1*
X83017Y-480956D1*
X84881Y-484766D1*
X86324Y-488576D1*
X87193Y-492386D1*
X87628Y-496196D1*
X87820Y-500006D1*
X87898Y-503816D1*
X87928Y-507626D1*
X87938Y-511436D1*
X87927Y-515246D1*
X87783Y-519056D1*
X87195Y-522866D1*
X85893Y-526676D1*
X84134Y-530486D1*
X-60646Y-458096D2*
Y-461906D1*
Y-465716D1*
Y-469526D1*
Y-473336D1*
Y-477146D1*
Y-480956D1*
Y-484766D1*
Y-488576D1*
Y-492386D1*
Y-496196D1*
Y-500006D1*
Y-503816D1*
Y-507626D1*
Y-511436D1*
Y-515246D1*
Y-519056D1*
Y-522866D1*
Y-526676D1*
Y-530486D1*
X-53026Y-458096D2*
X-43443Y-461906D1*
X-33657Y-465716D1*
X-22181Y-469526D1*
X-7962Y-473336D1*
X7934Y-477146D1*
X23174Y-496196D2*
X19509Y-500006D1*
X16202Y-503816D1*
X13454Y-507626D1*
X11255Y-511436D1*
X9646Y-515246D1*
X8645Y-519056D1*
X7934Y-522866D1*
X38414Y-496196D2*
X42064Y-500006D1*
X45237Y-503816D1*
X47499Y-507626D1*
X48785Y-511436D1*
X49392Y-515246D1*
X49516Y-519056D1*
X49034Y-522866D1*
X47772Y-526676D1*
X46034Y-530486D1*
X-22546Y-515246D2*
Y-519056D1*
Y-522866D1*
Y-526676D1*
Y-530486D1*
X-18736Y-515246D2*
X-7306Y-519056D1*
X4124Y-522866D1*
X-60646Y-572396D2*
Y-576206D1*
Y-580016D1*
Y-583826D1*
Y-587636D1*
Y-591446D1*
Y-595256D1*
Y-599066D1*
Y-602876D1*
Y-606686D1*
Y-610496D1*
Y-614306D1*
Y-618116D1*
Y-621926D1*
Y-625736D1*
Y-629546D1*
Y-633356D1*
Y-637166D1*
Y-640976D1*
Y-644786D1*
Y-648596D1*
Y-652406D1*
Y-656216D1*
Y-660026D1*
Y-663836D1*
Y-667646D1*
X-49216Y-572396D2*
X-35438Y-576206D1*
X-21955Y-580016D1*
X-8851Y-583826D1*
X3993Y-587636D1*
X16923Y-591446D1*
X30029Y-595256D1*
X43206Y-599066D1*
X56036Y-602876D1*
X67312Y-606686D1*
X76769Y-610496D1*
X81160Y-614306D1*
X82746Y-618116D1*
X83565Y-621926D1*
X83918Y-625736D1*
X84057Y-629546D1*
X84107Y-633356D1*
X84125Y-637166D1*
X84131Y-640976D1*
X84133Y-644786D1*
X84134Y-648596D1*
Y-652406D1*
X-22546Y-621926D2*
Y-625736D1*
Y-629546D1*
Y-633356D1*
Y-637166D1*
Y-640976D1*
Y-644786D1*
Y-648596D1*
Y-652406D1*
Y-656216D1*
Y-660026D1*
Y-663836D1*
Y-667646D1*
X-18736Y-621926D2*
X-7306Y-625736D1*
X4139Y-629546D1*
X15703Y-633356D1*
X27618Y-637166D1*
X39962Y-640976D1*
X52378Y-644786D1*
X64530Y-648596D1*
X76514Y-652406D1*
X-60646Y-694316D2*
Y-698126D1*
Y-701936D1*
Y-705746D1*
Y-709556D1*
Y-713366D1*
Y-717176D1*
Y-720986D1*
Y-724796D1*
X-60631Y-728606D1*
X-60497Y-732416D1*
X-60012Y-736226D1*
X-59084Y-740036D1*
X-57973Y-743846D1*
X-56809Y-747656D1*
X-55394Y-751466D1*
X-53606Y-755276D1*
X-51179Y-759086D1*
X-47643Y-762896D1*
X-42751Y-766706D1*
X-36710Y-770516D1*
X-30166Y-774326D1*
X-22546Y-694316D2*
Y-698126D1*
Y-701936D1*
Y-705746D1*
X-22531Y-709556D1*
X-22397Y-713366D1*
X-21867Y-717176D1*
X-20901Y-720986D1*
X-17861Y-724796D1*
X-13160Y-728606D1*
X-7306Y-732416D1*
X-3496Y-694316D2*
Y-698126D1*
Y-701936D1*
Y-705746D1*
Y-709556D1*
Y-713366D1*
X-3541Y-717176D1*
X-3976Y-720986D1*
X-5014Y-724796D1*
X-9468Y-728606D1*
X-14926Y-732416D1*
X26984Y-694316D2*
Y-698126D1*
Y-701936D1*
Y-705746D1*
Y-709556D1*
X26999Y-713366D1*
X27133Y-717176D1*
X27648Y-720986D1*
X28852Y-724796D1*
X31016Y-728606D1*
X34343Y-732416D1*
X38414Y-736226D1*
X46034Y-694316D2*
Y-698126D1*
Y-701936D1*
Y-705746D1*
Y-709556D1*
Y-713366D1*
X46019Y-717176D1*
X45841Y-720986D1*
X45394Y-724796D1*
X43039Y-728606D1*
X37373Y-732416D1*
X30794Y-736226D1*
X84134Y-694316D2*
Y-698126D1*
Y-701936D1*
Y-705746D1*
Y-709556D1*
Y-713366D1*
Y-717176D1*
Y-720986D1*
Y-724796D1*
Y-728606D1*
Y-732416D1*
X84119Y-736226D1*
X83985Y-740036D1*
X83485Y-743846D1*
X82423Y-747656D1*
X80812Y-751466D1*
X78601Y-755276D1*
X75694Y-759086D1*
X72054Y-762896D1*
X67268Y-766706D1*
X60937Y-770516D1*
X53654Y-774326D1*
X187968Y1150311D2*
D13*
Y1146977D1*
Y1143644D1*
Y1140311D1*
Y1136977D1*
Y1133644D1*
Y1130311D1*
Y1126977D1*
Y1123644D1*
Y1120311D1*
Y1116977D1*
Y1113644D1*
Y1110311D1*
Y1106977D1*
Y1103644D1*
Y1100311D1*
Y1096977D1*
Y1093644D1*
Y1090311D1*
Y1086977D1*
Y1083644D1*
Y1080311D1*
Y1076977D1*
Y1073644D1*
Y1070311D1*
Y1066977D1*
Y1063644D1*
Y1060311D1*
Y1056977D1*
X214635Y1150311D2*
Y1146977D1*
Y1143644D1*
Y1140311D1*
Y1136977D1*
Y1133644D1*
Y1130311D1*
Y1126977D1*
Y1123644D1*
Y1120311D1*
Y1116977D1*
Y1113644D1*
Y1110311D1*
Y1106977D1*
Y1103644D1*
Y1100311D1*
Y1096977D1*
Y1093644D1*
Y1090311D1*
Y1086977D1*
Y1083644D1*
Y1080311D1*
Y1076977D1*
Y1073644D1*
Y1070311D1*
Y1066977D1*
Y1063644D1*
Y1060311D1*
Y1056977D1*
X261301Y1150311D2*
X255303Y1146977D1*
X250137Y1143644D1*
X246125Y1140311D1*
X243179Y1136977D1*
X241021Y1133644D1*
X239529Y1130311D1*
X238678Y1126977D1*
X238263Y1123644D1*
X238083Y1120311D1*
X238010Y1116977D1*
X237983Y1113644D1*
X237973Y1110311D1*
X237970Y1106977D1*
X237969Y1103644D1*
X237968Y1100311D1*
Y1096977D1*
Y1093644D1*
Y1090311D1*
Y1086977D1*
Y1083644D1*
Y1080311D1*
Y1076977D1*
Y1073644D1*
Y1070311D1*
Y1066977D1*
Y1063644D1*
Y1060311D1*
Y1056977D1*
X284635Y1150311D2*
X289507Y1146977D1*
X293784Y1143644D1*
X297472Y1140311D1*
X300478Y1136977D1*
X302662Y1133644D1*
X304245Y1130311D1*
X305600Y1126977D1*
X306680Y1123644D1*
X307239Y1120311D1*
X307159Y1116977D1*
X306502Y1113644D1*
X305580Y1110311D1*
X304467Y1106977D1*
X302800Y1103644D1*
X300327Y1100311D1*
X296966Y1096977D1*
X292714Y1093644D1*
X287968Y1090311D1*
X307968Y1150311D2*
X310773Y1146977D1*
X313163Y1143644D1*
X315195Y1140311D1*
X317029Y1136977D1*
X318760Y1133644D1*
X320455Y1130311D1*
X322129Y1126977D1*
X323801Y1123644D1*
X325466Y1120311D1*
X327136Y1116977D1*
X328810Y1113644D1*
X330566Y1110311D1*
X332511Y1106977D1*
X334635Y1103644D1*
X332568Y1100311D1*
X330667Y1096977D1*
X328882Y1093644D1*
X327154Y1090311D1*
X325361Y1086977D1*
X323369Y1083644D1*
X321219Y1080311D1*
X319177Y1076977D1*
X317303Y1073644D1*
X315534Y1070311D1*
X313818Y1066977D1*
X312046Y1063644D1*
X310095Y1060311D1*
X307968Y1056977D1*
X337968Y1150311D2*
X339234Y1146977D1*
X340667Y1143644D1*
X342225Y1140311D1*
X343931Y1136977D1*
X345855Y1133644D1*
X347968Y1130311D1*
X357968Y1150311D2*
X356815Y1146977D1*
X355680Y1143644D1*
X354367Y1140311D1*
X352628Y1136977D1*
X348870Y1133644D1*
X344635Y1130311D1*
X381301Y1150311D2*
X381174Y1146977D1*
X380734Y1143644D1*
X379818Y1140311D1*
X378525Y1136977D1*
X377015Y1133644D1*
X375310Y1130311D1*
X373351Y1126977D1*
X371213Y1123644D1*
X369175Y1120311D1*
X367303Y1116977D1*
X365560Y1113644D1*
X364089Y1110311D1*
X362940Y1106977D1*
X363355Y1103644D1*
X364332Y1100311D1*
X365677Y1096977D1*
X367214Y1093644D1*
X368828Y1090311D1*
X370479Y1086977D1*
X372137Y1083644D1*
X373804Y1080311D1*
X375467Y1076977D1*
X377123Y1073644D1*
X378670Y1070311D1*
X379901Y1066977D1*
X380653Y1063644D1*
X381049Y1060311D1*
X381301Y1056977D1*
X264635Y1126977D2*
Y1123644D1*
Y1120311D1*
Y1116977D1*
Y1113644D1*
Y1110311D1*
Y1106977D1*
Y1103644D1*
Y1100311D1*
Y1096977D1*
Y1093644D1*
Y1090311D1*
Y1086977D1*
Y1083644D1*
Y1080311D1*
Y1076977D1*
Y1073644D1*
Y1070311D1*
Y1066977D1*
Y1063644D1*
Y1060311D1*
Y1056977D1*
X274635Y1126977D2*
X277968Y1123644D1*
X281301Y1120311D1*
X277484Y1116977D1*
X274116Y1113644D1*
X272687Y1110311D1*
X271899Y1106977D1*
X271538Y1103644D1*
X271389Y1100311D1*
X271333Y1096977D1*
X271312Y1093644D1*
X271301Y1090311D1*
X341301Y1076977D2*
X341174Y1073644D1*
X340734Y1070311D1*
X339808Y1066977D1*
X338429Y1063644D1*
X336658Y1060311D1*
X334635Y1056977D1*
X351301Y1076977D2*
X351829Y1073644D1*
X352773Y1070311D1*
X354064Y1066977D1*
X355476Y1063644D1*
X356796Y1060311D1*
X357968Y1056977D1*
X201540Y-105345D2*
X193296Y-108678D1*
X185291Y-112012D1*
X176593Y-115345D1*
X166285Y-118678D1*
X154873Y-122012D1*
X204873Y-105345D2*
Y-108678D1*
Y-112012D1*
Y-115345D1*
Y-118678D1*
X204834Y-122012D1*
X204444Y-125345D1*
X203506Y-128678D1*
X199027Y-132012D1*
X192642Y-135345D1*
X184532Y-138678D1*
X174031Y-142012D1*
X160391Y-145345D1*
X144873Y-148678D1*
X138207Y-112012D2*
Y-115345D1*
Y-118678D1*
Y-122012D1*
X138233Y-125345D1*
X138493Y-128678D1*
X139118Y-132012D1*
X142241Y-135345D1*
X147255Y-138678D1*
X154915Y-142012D1*
X165659Y-145345D1*
X178207Y-148678D1*
X144873Y-112012D2*
X153378Y-115345D1*
X163554Y-118678D1*
X174873Y-122012D1*
X111540Y-152012D2*
Y-155345D1*
Y-158678D1*
Y-162012D1*
Y-165345D1*
Y-168678D1*
Y-172012D1*
Y-175345D1*
X204873Y-152012D2*
Y-155345D1*
Y-158678D1*
Y-162012D1*
Y-165345D1*
Y-168678D1*
Y-172012D1*
Y-175345D1*
X138207Y-185345D2*
X138220Y-188678D1*
X138337Y-192012D1*
X138775Y-195345D1*
X139690Y-198678D1*
X140983Y-202012D1*
X142506Y-205345D1*
X144368Y-208678D1*
X147125Y-212012D1*
X151554Y-215345D1*
X157759Y-218678D1*
X164873Y-222012D1*
X161540Y-185345D2*
X163656Y-188678D1*
X171989Y-192012D1*
X186410Y-195345D1*
X204873Y-198678D1*
Y-202012D1*
Y-205345D1*
Y-208678D1*
Y-212012D1*
Y-215345D1*
Y-218678D1*
Y-222012D1*
X158207Y-235345D2*
X154249Y-238678D1*
X150763Y-242012D1*
X147791Y-245345D1*
X145257Y-248678D1*
X143322Y-252012D1*
X141854Y-255345D1*
X140547Y-258678D1*
X139471Y-262012D1*
X138815Y-265345D1*
X138590Y-268678D1*
X138861Y-272012D1*
X139610Y-275345D1*
X140558Y-278678D1*
X141569Y-282012D1*
X142803Y-285345D1*
X144366Y-288678D1*
X146489Y-292012D1*
X149583Y-295345D1*
X153863Y-298678D1*
X159148Y-302012D1*
X164873Y-305345D1*
X174873Y-235345D2*
Y-238678D1*
Y-242012D1*
Y-245345D1*
Y-248678D1*
Y-252012D1*
Y-255345D1*
Y-258678D1*
X174821Y-262012D1*
X174665Y-265345D1*
X173103Y-268678D1*
X167907Y-272012D1*
X161540Y-275345D1*
X198207Y-248678D2*
X194886Y-252012D1*
X191683Y-255345D1*
X188905Y-258678D1*
X186912Y-262012D1*
X185643Y-265345D1*
X184388Y-268678D1*
X182664Y-272012D1*
X177490Y-275345D1*
X170154Y-278678D1*
X161540Y-282012D1*
X201540Y-248678D2*
X202680Y-252012D1*
X203672Y-255345D1*
X204304Y-258678D1*
X204630Y-262012D1*
X204777Y-265345D1*
X204838Y-268678D1*
X204848Y-272012D1*
X204739Y-275345D1*
X204304Y-278678D1*
X203376Y-282012D1*
X201967Y-285345D1*
X200032Y-288678D1*
X197502Y-292012D1*
X194445Y-295345D1*
X190773Y-298678D1*
X186373Y-302012D1*
X181540Y-305345D1*
X161540Y-258678D2*
X158989Y-262012D1*
X157012Y-265345D1*
X156957Y-268678D1*
X158439Y-272012D1*
X163026Y-275345D1*
X169930Y-278678D1*
X178207Y-282012D1*
X164873Y-258678D2*
X164925Y-262012D1*
X165082Y-265345D1*
X166644Y-268678D1*
X171839Y-272012D1*
X178207Y-275345D1*
Y-312012D2*
X171522Y-315345D1*
X165232Y-318678D1*
X158600Y-322012D1*
X151540Y-325345D1*
X184873Y-312012D2*
X190758Y-315345D1*
X195600Y-318678D1*
X199121Y-322012D1*
X201586Y-325345D1*
X203219Y-328678D1*
X204128Y-332012D1*
X204566Y-335345D1*
X204755Y-338678D1*
X204830Y-342012D1*
X204859Y-345345D1*
X204873Y-348678D1*
X178207Y-352012D1*
X124873Y-318678D2*
X121680Y-322012D1*
X118891Y-325345D1*
X116795Y-328678D1*
X115245Y-332012D1*
X113902Y-335345D1*
X112813Y-338678D1*
X112138Y-342012D1*
X111794Y-345345D1*
X111640Y-348678D1*
X111577Y-352012D1*
X111553Y-355345D1*
X111545Y-358678D1*
X111542Y-362012D1*
X111540Y-365345D1*
Y-368678D1*
Y-372012D1*
Y-375345D1*
Y-378678D1*
Y-382012D1*
X144873Y-318678D2*
X154665Y-322012D1*
X164873Y-325345D1*
X178207Y-335345D2*
X175528Y-338678D1*
X173566Y-342012D1*
X172374Y-345345D1*
X171540Y-348678D1*
X144873Y-352012D1*
X181540Y-335345D2*
Y-338678D1*
Y-342012D1*
Y-345345D1*
Y-348678D1*
X141540Y-342012D2*
X138861Y-345345D1*
X136900Y-348678D1*
X135707Y-352012D1*
X134873Y-355345D1*
X148207Y-342012D2*
Y-345345D1*
Y-348678D1*
X174873Y-352012D1*
X204873Y-355345D2*
Y-358678D1*
Y-362012D1*
Y-365345D1*
Y-368678D1*
Y-372012D1*
Y-375345D1*
Y-378678D1*
Y-382012D1*
X138207Y-442012D2*
Y-445345D1*
Y-448678D1*
Y-452012D1*
Y-455345D1*
Y-458678D1*
Y-462012D1*
Y-465345D1*
X214873Y-442012D2*
X219745Y-445345D1*
X224023Y-448678D1*
X227711Y-452012D1*
X230704Y-455345D1*
X232771Y-458678D1*
X233929Y-462012D1*
X234485Y-465345D1*
X234724Y-468678D1*
X234819Y-472012D1*
X234854Y-475345D1*
X234867Y-478678D1*
X234871Y-482012D1*
X234873Y-485345D1*
Y-488678D1*
Y-492012D1*
X181540Y-465345D2*
Y-468678D1*
Y-472012D1*
Y-475345D1*
Y-478678D1*
X198207Y-465345D2*
X200885Y-468678D1*
X202834Y-472012D1*
X203951Y-475345D1*
X204479Y-478678D1*
X204596Y-482012D1*
X204251Y-485345D1*
X203345Y-488678D1*
X201821Y-492012D1*
X199385Y-495345D1*
X195789Y-498678D1*
X191540Y-502012D1*
X208207Y-465345D2*
X211400Y-468678D1*
X214176Y-472012D1*
X216155Y-475345D1*
X217280Y-478678D1*
X217824Y-482012D1*
X218060Y-485345D1*
X218156Y-488678D1*
X218207Y-492012D1*
X138207Y-478678D2*
Y-482012D1*
Y-485345D1*
Y-488678D1*
Y-492012D1*
Y-495345D1*
Y-498678D1*
Y-502012D1*
X161540Y-515345D2*
X156668Y-518678D1*
X152390Y-522012D1*
X148703Y-525345D1*
X145697Y-528678D1*
X143512Y-532012D1*
X141929Y-535345D1*
X140575Y-538678D1*
X139481Y-542012D1*
X138805Y-545345D1*
X138460Y-548678D1*
X138300Y-552012D1*
X138207Y-555345D1*
X168207Y-558678D1*
X184873Y-515345D2*
X189732Y-518678D1*
X193906Y-522012D1*
X197286Y-525345D1*
X199905Y-528678D1*
X201916Y-532012D1*
X203348Y-535345D1*
X204176Y-538678D1*
X204582Y-542012D1*
X204760Y-545345D1*
X204832Y-548678D1*
X204859Y-552012D1*
X204855Y-555345D1*
X204741Y-558678D1*
X204305Y-562012D1*
X203377Y-565345D1*
X201954Y-568678D1*
X199889Y-572012D1*
X196818Y-575345D1*
X192546Y-578678D1*
X187264Y-582012D1*
X181540Y-585345D1*
X164873Y-538678D2*
X164371Y-542012D1*
X163671Y-545345D1*
X163021Y-548678D1*
X163747Y-552012D1*
X164873Y-555345D1*
X138207Y-558678D1*
X174873Y-538678D2*
X177552Y-542012D1*
X179488Y-545345D1*
X180790Y-548678D1*
X180828Y-552012D1*
X179446Y-555345D1*
X177341Y-558678D1*
X174873Y-562012D1*
X111540D2*
Y-565345D1*
Y-568678D1*
Y-572012D1*
Y-575345D1*
Y-578678D1*
Y-582012D1*
Y-585345D1*
X-563348Y-38605D2*
D12*
Y-42415D1*
Y-46225D1*
Y-50035D1*
Y-53845D1*
Y-57655D1*
Y-61465D1*
Y-65275D1*
Y-69085D1*
Y-72895D1*
Y-76705D1*
Y-80515D1*
Y-84325D1*
X-563333Y-88135D1*
X-563199Y-91945D1*
X-562714Y-95755D1*
X-561801Y-99565D1*
X-560809Y-103375D1*
X-560011Y-107185D1*
X-559157Y-110995D1*
X-557949Y-114805D1*
X-556405Y-118615D1*
X-554653Y-122425D1*
X-552665Y-126235D1*
X-550140Y-130045D1*
X-546545Y-133855D1*
X-541478Y-137665D1*
X-534751Y-141475D1*
X-526560Y-145285D1*
X-517628Y-149095D1*
X-510008Y-38605D2*
Y-42415D1*
Y-46225D1*
Y-50035D1*
Y-53845D1*
Y-57655D1*
Y-61465D1*
X-509993Y-65275D1*
X-509859Y-69085D1*
X-509359Y-72895D1*
X-508268Y-76705D1*
X-506367Y-80515D1*
X-503707Y-84325D1*
X-497753Y-88135D1*
X-490958Y-91945D1*
X-422378Y-38605D2*
Y-42415D1*
Y-46225D1*
Y-50035D1*
Y-53845D1*
Y-57655D1*
Y-61465D1*
Y-65275D1*
Y-69085D1*
Y-72895D1*
X-422393Y-76705D1*
X-422571Y-80515D1*
X-423018Y-84325D1*
X-425373Y-88135D1*
X-431039Y-91945D1*
X-437618Y-95755D1*
X-369038Y-38605D2*
Y-42415D1*
Y-46225D1*
Y-50035D1*
Y-53845D1*
Y-57655D1*
Y-61465D1*
Y-65275D1*
Y-69085D1*
Y-72895D1*
Y-76705D1*
Y-80515D1*
Y-84325D1*
Y-88135D1*
Y-91945D1*
X-369053Y-95755D1*
X-369187Y-99565D1*
X-369672Y-103375D1*
X-370600Y-107185D1*
X-371711Y-110995D1*
X-372875Y-114805D1*
X-374290Y-118615D1*
X-376063Y-122425D1*
X-378341Y-126235D1*
X-381259Y-130045D1*
X-384797Y-133855D1*
X-389332Y-137665D1*
X-395773Y-141475D1*
X-404593Y-145285D1*
X-414758Y-149095D1*
X-487148Y-42415D2*
Y-46225D1*
Y-50035D1*
Y-53845D1*
Y-57655D1*
Y-61465D1*
Y-65275D1*
Y-69085D1*
X-487163Y-72895D1*
X-487341Y-76705D1*
X-487788Y-80515D1*
X-490143Y-84325D1*
X-495809Y-88135D1*
X-502388Y-91945D1*
X-445238Y-42415D2*
Y-46225D1*
Y-50035D1*
Y-53845D1*
Y-57655D1*
Y-61465D1*
Y-65275D1*
X-445223Y-69085D1*
X-445089Y-72895D1*
X-444589Y-76705D1*
X-443498Y-80515D1*
X-441597Y-84325D1*
X-438937Y-88135D1*
X-432983Y-91945D1*
X-426188Y-95755D1*
X-563348Y-168145D2*
Y-171955D1*
Y-175765D1*
Y-179575D1*
Y-183385D1*
Y-187195D1*
Y-191005D1*
Y-194815D1*
Y-198625D1*
Y-202435D1*
Y-206245D1*
Y-210055D1*
Y-213865D1*
Y-217675D1*
Y-221485D1*
Y-225295D1*
Y-229105D1*
Y-232915D1*
Y-236725D1*
Y-240535D1*
Y-244345D1*
Y-248155D1*
Y-251965D1*
Y-255775D1*
Y-259585D1*
Y-263395D1*
Y-267205D1*
Y-271015D1*
Y-274825D1*
Y-278635D1*
Y-282445D1*
Y-286255D1*
Y-290065D1*
Y-293875D1*
Y-297685D1*
Y-301495D1*
Y-305305D1*
Y-309115D1*
Y-312925D1*
Y-316735D1*
Y-320545D1*
Y-324355D1*
Y-328165D1*
Y-331975D1*
Y-335785D1*
Y-339595D1*
Y-343405D1*
Y-347215D1*
Y-351025D1*
X-563318Y-354835D1*
X-563035Y-358645D1*
X-562366Y-362455D1*
X-559424Y-366265D1*
X-555335Y-370075D1*
X-550414Y-373885D1*
X-545037Y-377695D1*
X-539448Y-381505D1*
X-533681Y-385315D1*
X-527666Y-389125D1*
X-521438Y-392935D1*
X-526710Y-396745D1*
X-532277Y-400555D1*
X-538223Y-404365D1*
X-544414Y-408175D1*
X-550371Y-411985D1*
X-555546Y-415795D1*
X-559905Y-419605D1*
X-561660Y-423415D1*
X-562623Y-427225D1*
X-563062Y-431035D1*
X-563242Y-434845D1*
X-563310Y-438655D1*
X-563335Y-442465D1*
X-563344Y-446275D1*
X-563347Y-450085D1*
X-563348Y-453895D1*
Y-457705D1*
Y-461515D1*
Y-465325D1*
Y-469135D1*
Y-472945D1*
X-510008Y-168145D2*
Y-171955D1*
Y-175765D1*
Y-179575D1*
Y-183385D1*
Y-187195D1*
Y-191005D1*
Y-194815D1*
Y-198625D1*
Y-202435D1*
Y-206245D1*
Y-210055D1*
Y-213865D1*
X-369038D2*
Y-217675D1*
Y-221485D1*
Y-225295D1*
Y-229105D1*
Y-232915D1*
Y-236725D1*
Y-240535D1*
Y-244345D1*
Y-248155D1*
Y-251965D1*
Y-255775D1*
Y-259585D1*
Y-263395D1*
Y-267205D1*
Y-271015D1*
X-510008D2*
Y-274825D1*
Y-278635D1*
Y-282445D1*
Y-286255D1*
Y-290065D1*
Y-293875D1*
Y-297685D1*
Y-301495D1*
Y-305305D1*
Y-309115D1*
Y-312925D1*
X-551918Y-316735D1*
X-545746Y-320545D1*
X-539748Y-324355D1*
X-533778Y-328165D1*
X-527642Y-331975D1*
X-521356Y-335785D1*
X-515204Y-339595D1*
X-509250Y-343405D1*
X-503417Y-347215D1*
X-497642Y-351025D1*
X-491772Y-354835D1*
X-485563Y-358645D1*
X-478861Y-362455D1*
X-471908Y-366265D1*
X-369038D2*
Y-370075D1*
Y-373885D1*
Y-377695D1*
Y-381505D1*
Y-385315D1*
Y-389125D1*
Y-392935D1*
Y-396745D1*
Y-400555D1*
Y-404365D1*
Y-408175D1*
Y-411985D1*
Y-415795D1*
Y-419605D1*
X-475718D2*
X-480132Y-423415D1*
X-485035Y-427225D1*
X-490451Y-431035D1*
X-496341Y-434845D1*
X-502529Y-438655D1*
X-508642Y-442465D1*
X-514583Y-446275D1*
X-520411Y-450085D1*
X-526170Y-453895D1*
X-531907Y-457705D1*
X-537637Y-461515D1*
X-543457Y-465325D1*
X-549490Y-469135D1*
X-555728Y-472945D1*
X-445238Y-476755D2*
X-450807Y-480565D1*
X-455696Y-484375D1*
X-459941Y-488185D1*
X-463653Y-491995D1*
X-467207Y-495805D1*
X-471224Y-499615D1*
X-475718Y-503425D1*
X-403328Y-476755D2*
X-396457Y-480565D1*
X-390433Y-484375D1*
X-385481Y-488185D1*
X-381553Y-491995D1*
X-378522Y-495805D1*
X-376083Y-499615D1*
X-373958Y-503425D1*
X-372099Y-507235D1*
X-370657Y-511045D1*
X-369789Y-514855D1*
X-369354Y-518665D1*
X-369162Y-522475D1*
X-369084Y-526285D1*
X-369054Y-530095D1*
X-369044Y-533905D1*
X-369040Y-537715D1*
X-369039Y-541525D1*
X-369038Y-545335D1*
Y-549145D1*
X-529058Y-484375D2*
X-535914Y-488185D1*
X-541819Y-491995D1*
X-546404Y-495805D1*
X-549787Y-499615D1*
X-552387Y-503425D1*
X-554578Y-507235D1*
X-556463Y-511045D1*
X-557914Y-514855D1*
X-558800Y-518665D1*
X-559370Y-522475D1*
X-560049Y-526285D1*
X-561039Y-530095D1*
X-562046Y-533905D1*
X-562721Y-537715D1*
X-563078Y-541525D1*
X-563241Y-545335D1*
X-563308Y-549145D1*
X-563334Y-552955D1*
X-563343Y-556765D1*
X-563346Y-560575D1*
X-563347Y-564385D1*
X-563348Y-568195D1*
Y-572005D1*
Y-575815D1*
Y-579625D1*
Y-583435D1*
Y-587245D1*
Y-591055D1*
Y-594865D1*
Y-598675D1*
Y-602485D1*
Y-606295D1*
Y-610105D1*
Y-613915D1*
Y-617725D1*
X-502388Y-484375D2*
X-495487Y-488185D1*
X-489158Y-491995D1*
X-482891Y-495805D1*
X-475828Y-499615D1*
X-468098Y-503425D1*
X-429998Y-522475D2*
X-433204Y-526285D1*
X-435921Y-530095D1*
X-438110Y-533905D1*
X-439706Y-537715D1*
X-440641Y-541525D1*
X-441124Y-545335D1*
X-441428Y-549145D1*
X-422378Y-522475D2*
X-419317Y-526285D1*
X-417089Y-530095D1*
X-415813Y-533905D1*
X-415194Y-537715D1*
X-414926Y-541525D1*
X-414816Y-545335D1*
X-414758Y-549145D1*
X-510008Y-533905D2*
X-510597Y-537715D1*
X-511541Y-541525D1*
X-512528Y-545335D1*
X-513195Y-549145D1*
X-513550Y-552955D1*
X-513718Y-556765D1*
X-513818Y-560575D1*
X-490958Y-533905D2*
X-490366Y-537715D1*
X-489390Y-541525D1*
X-488246Y-545335D1*
X-487148Y-549145D1*
X-369038Y-560575D2*
Y-564385D1*
Y-568195D1*
Y-572005D1*
Y-575815D1*
Y-579625D1*
Y-583435D1*
Y-587245D1*
Y-591055D1*
Y-594865D1*
Y-598675D1*
Y-602485D1*
Y-606295D1*
Y-610105D1*
Y-613915D1*
Y-617725D1*
X-563348Y-655825D2*
Y-659635D1*
Y-663445D1*
Y-667255D1*
Y-671065D1*
Y-674875D1*
Y-678685D1*
Y-682495D1*
Y-686305D1*
Y-690115D1*
Y-693925D1*
Y-697735D1*
Y-701545D1*
X-563333Y-705355D1*
X-563199Y-709165D1*
X-562714Y-712975D1*
X-561801Y-716785D1*
X-560809Y-720595D1*
X-560011Y-724405D1*
X-559157Y-728215D1*
X-557949Y-732025D1*
X-556405Y-735835D1*
X-554653Y-739645D1*
X-552665Y-743455D1*
X-550140Y-747265D1*
X-546545Y-751075D1*
X-541478Y-754885D1*
X-534751Y-758695D1*
X-526560Y-762505D1*
X-517628Y-766315D1*
X-510008Y-655825D2*
Y-659635D1*
Y-663445D1*
Y-667255D1*
Y-671065D1*
Y-674875D1*
Y-678685D1*
X-509993Y-682495D1*
X-509859Y-686305D1*
X-509359Y-690115D1*
X-508268Y-693925D1*
X-506367Y-697735D1*
X-503707Y-701545D1*
X-497753Y-705355D1*
X-490958Y-709165D1*
X-422378Y-655825D2*
Y-659635D1*
Y-663445D1*
Y-667255D1*
Y-671065D1*
Y-674875D1*
Y-678685D1*
Y-682495D1*
Y-686305D1*
Y-690115D1*
X-422393Y-693925D1*
X-422571Y-697735D1*
X-423018Y-701545D1*
X-425373Y-705355D1*
X-431039Y-709165D1*
X-437618Y-712975D1*
X-369038Y-655825D2*
Y-659635D1*
Y-663445D1*
Y-667255D1*
Y-671065D1*
Y-674875D1*
Y-678685D1*
Y-682495D1*
Y-686305D1*
Y-690115D1*
Y-693925D1*
Y-697735D1*
Y-701545D1*
Y-705355D1*
Y-709165D1*
X-369053Y-712975D1*
X-369187Y-716785D1*
X-369672Y-720595D1*
X-370600Y-724405D1*
X-371711Y-728215D1*
X-372875Y-732025D1*
X-374290Y-735835D1*
X-376063Y-739645D1*
X-378341Y-743455D1*
X-381259Y-747265D1*
X-384797Y-751075D1*
X-389332Y-754885D1*
X-395773Y-758695D1*
X-404593Y-762505D1*
X-414758Y-766315D1*
X-487148Y-659635D2*
Y-663445D1*
Y-667255D1*
Y-671065D1*
Y-674875D1*
Y-678685D1*
Y-682495D1*
Y-686305D1*
X-487163Y-690115D1*
X-487341Y-693925D1*
X-487788Y-697735D1*
X-490143Y-701545D1*
X-495809Y-705355D1*
X-502388Y-709165D1*
X-445238Y-659635D2*
Y-663445D1*
Y-667255D1*
Y-671065D1*
Y-674875D1*
Y-678685D1*
Y-682495D1*
X-445223Y-686305D1*
X-445089Y-690115D1*
X-444589Y-693925D1*
X-443498Y-697735D1*
X-441597Y-701545D1*
X-438937Y-705355D1*
X-432983Y-709165D1*
X-426188Y-712975D1*
X771025Y-3146875D2*
D52*
Y-3212491D1*
X738259Y-3179725D2*
X803875D1*
X749499Y-2978887D2*
X791614D1*
X562696Y-2764438D2*
X555452Y-2757110D1*
X544502Y-2753488D1*
X529930D1*
X518980Y-2757110D1*
X511652Y-2764438D1*
Y-2771682D1*
X515359Y-2779010D1*
X518980Y-2782632D1*
X526224Y-2786254D1*
X548124Y-2793582D1*
X555452Y-2797204D1*
X559074Y-2800910D1*
X562696Y-2808154D1*
Y-2819104D1*
X555452Y-2826348D1*
X544502Y-2830054D1*
X529930D1*
X518980Y-2826348D1*
X511652Y-2819104D1*
X586226Y-2753488D2*
X604504Y-2830054D1*
X622698Y-2753488D1*
X640891Y-2830054D1*
X659169Y-2753488D1*
X682699D2*
Y-2830054D1*
X708221D1*
X719171Y-2826348D1*
X726499Y-2819104D1*
X730121Y-2811776D1*
X733743Y-2800910D1*
Y-2782632D1*
X730121Y-2771682D1*
X726499Y-2764438D1*
X719171Y-2757110D1*
X708221Y-2753488D1*
X682699D1*
X757272D2*
Y-2830054D1*
X802702Y-2753488D2*
X795373Y-2757110D1*
X788130Y-2764438D1*
X784423Y-2771682D1*
X780802Y-2782632D1*
Y-2800910D1*
X784423Y-2811776D1*
X788130Y-2819104D1*
X795373Y-2826348D1*
X802702Y-2830054D1*
X817273D1*
X824517Y-2826348D1*
X831845Y-2819104D1*
X835467Y-2811776D1*
X839089Y-2800910D1*
Y-2782632D1*
X835467Y-2771682D1*
X831845Y-2764438D1*
X824517Y-2757110D1*
X817273Y-2753488D1*
X802702D1*
X461780Y-2573698D2*
X454536Y-2566370D1*
X443586Y-2562748D1*
X429014D1*
X418064Y-2566370D1*
X410736Y-2573698D1*
Y-2580942D1*
X414442Y-2588270D1*
X418064Y-2591892D1*
X425308Y-2595514D1*
X447208Y-2602842D1*
X454536Y-2606464D1*
X458158Y-2610170D1*
X461780Y-2617414D1*
Y-2628364D1*
X454536Y-2635608D1*
X443586Y-2639314D1*
X429014D1*
X418064Y-2635608D1*
X410736Y-2628364D1*
X485309Y-2562748D2*
X503587Y-2639314D1*
X521781Y-2562748D1*
X539975Y-2639314D1*
X558253Y-2562748D1*
X581782D2*
Y-2639314D1*
X607304D1*
X618254Y-2635608D1*
X625582Y-2628364D1*
X629204Y-2621036D1*
X632826Y-2610170D1*
Y-2591892D1*
X629204Y-2580942D1*
X625582Y-2573698D1*
X618254Y-2566370D1*
X607304Y-2562748D1*
X581782D1*
X711021Y-2580942D2*
X707399Y-2573698D1*
X700071Y-2566370D1*
X692827Y-2562748D1*
X678255D1*
X670927Y-2566370D1*
X663684Y-2573698D1*
X659977Y-2580942D1*
X656355Y-2591892D1*
Y-2610170D1*
X659977Y-2621036D1*
X663684Y-2628364D1*
X670927Y-2635608D1*
X678255Y-2639314D1*
X692827D1*
X700071Y-2635608D1*
X707399Y-2628364D1*
X711021Y-2621036D1*
X734551Y-2562748D2*
Y-2639314D1*
X778266D1*
X801796Y-2562748D2*
Y-2639314D1*
X852840Y-2562748D2*
X801796Y-2613792D1*
X819990Y-2595514D2*
X852840Y-2639314D1*
X778504Y-2314992D2*
Y-2391557D1*
X752982Y-2314992D2*
X804026D1*
X827556D2*
X878599Y-2391557D1*
Y-2314992D2*
X827556Y-2391557D1*
X802899Y-2172820D2*
X835665D1*
X846615Y-2169114D1*
X850321Y-2165492D1*
X853943Y-2158248D1*
Y-2150920D1*
X850321Y-2143676D1*
X846615Y-2139970D1*
X835665Y-2136348D1*
X802899D1*
Y-2212914D1*
X828421Y-2172820D2*
X853943Y-2212914D1*
X877472Y-2136348D2*
X928516Y-2212914D1*
Y-2136348D2*
X877472Y-2212914D1*
M02*
