G04 DipTrace 3.2.0.1*
G04 Верхний.gbr*
%MOMM*%
G04 #@! TF.FileFunction,Copper,L1,Top*
G04 #@! TF.Part,Single*
%AMOUTLINE3*
4,1,4,
0.52847,-0.84007,
-0.90667,-0.4037,
-0.52847,0.84007,
0.90667,0.4037,
0.52847,-0.84007,
0*%
%AMOUTLINE6*
4,1,4,
0.69643,-0.7071,
-0.7989,-0.58883,
-0.69643,0.7071,
0.7989,0.58883,
0.69643,-0.7071,
0*%
%AMOUTLINE9*
4,1,4,
0.75013,-0.64983,
-0.7499,-0.65013,
-0.75013,0.64983,
0.7499,0.65013,
0.75013,-0.64983,
0*%
%ADD15C,0.3*%
%ADD19C,0.2*%
%ADD31C,0.9*%
G04 #@! TA.AperFunction,CopperBalancing*
%ADD10C,0.25*%
G04 #@! TA.AperFunction,ViaPad*
%ADD16C,0.6*%
G04 #@! TA.AperFunction,CopperBalancing*
%ADD17C,0.5*%
G04 #@! TA.AperFunction,Conductor*
%ADD18C,0.4*%
%ADD20R,3.2X1.8*%
%ADD21R,1.3X1.5*%
%ADD23R,0.65X1.05*%
%ADD25R,0.75X1.6*%
%ADD26R,1.6X0.75*%
G04 #@! TA.AperFunction,ComponentPad*
%ADD27C,2.1*%
%ADD57OUTLINE3*%
%ADD60OUTLINE6*%
%ADD63OUTLINE9*%
%FSLAX35Y35*%
G04*
G71*
G90*
G75*
G01*
G04 Top*
%LPD*%
X-900000Y-626500D2*
D15*
X-1049977D1*
X-1107477Y-684000D1*
X-900000Y-499500D2*
X-1061493D1*
X-1111983Y-449010D1*
X-1297477Y-684000D2*
Y-449010D1*
X-1301983D1*
X900000Y-626500D2*
X1050000D1*
X1107500Y-684000D1*
X1297500D2*
Y-449000D1*
X1302000D1*
X1108917Y-312217D2*
Y-445917D1*
X1112000Y-449000D1*
X1108917Y-312217D2*
X1329763Y-91370D1*
Y658587D1*
X1174537Y813813D1*
X1108430D1*
X1016897Y905347D1*
Y976407D1*
X968803Y1024500D1*
X900000D1*
X-900000Y1151500D2*
X2277D1*
X900000D1*
X-900000Y1024500D2*
X2277D1*
X900000D1*
X2277Y1151500D2*
Y1024500D1*
X-254000Y-3150000D2*
D16*
Y-2715283D1*
X-291887Y-2677397D1*
X-530620D1*
X-767500Y-2440517D1*
Y-2286697D1*
X-900000Y-880500D2*
D15*
Y-888910D1*
D17*
X-1106547D1*
Y-884310D1*
X-900000Y-880500D2*
D15*
X-737673D1*
X-566313Y-709140D1*
Y730233D1*
X-606580Y770500D1*
X-900000D1*
X506357Y-1878090D2*
Y-2644507D1*
X832827Y-2970977D1*
X943737D1*
X963533Y-2990773D1*
X-418780Y-2210937D2*
X-363953Y-2156110D1*
X-109427D1*
X-95177Y-2170360D1*
Y-1924177D1*
X-94610Y-1923610D1*
X-698500Y-1080000D2*
D16*
Y-1322557D1*
Y-1726230D1*
X-304650D1*
Y-1725780D1*
X-1107593Y-1119303D2*
D18*
X-707320D1*
D15*
Y-1080000D1*
X-698500D1*
Y-1322557D2*
X-692600D1*
Y-1651797D1*
X-767500Y-1726697D1*
X264207Y-2405507D2*
Y-2585213D1*
X854357Y-3175363D1*
X958163D1*
X963573Y-3180773D1*
X-177Y-2400360D2*
D18*
Y-3150000D1*
X0D1*
X-189413Y-1257187D2*
D15*
Y-1081087D1*
X-190500Y-1080000D1*
X254000Y-2896000D2*
Y-3150000D1*
X95390Y-1923610D2*
Y-2169793D1*
X94823Y-2170360D1*
X92127Y-1693497D2*
Y-1920347D1*
X95390Y-1923610D1*
X698500Y-1080000D2*
Y-1458283D1*
X980800Y-1740583D1*
Y-2175827D1*
X985553Y-2180580D1*
X1019760Y-2214787D1*
X1094277D1*
X979887Y-2180580D2*
X985553D1*
X571500Y-1080000D2*
Y-1460853D1*
X899277Y-1788630D1*
Y-2338060D1*
X927713Y-2366497D1*
X1008927D1*
X1039003Y-2396573D1*
X929383Y-2360080D2*
X907363Y-2338060D1*
X899277D1*
X624897Y-1880660D2*
Y-2589183D1*
X837027Y-2801313D1*
X969700D1*
X900000Y389500D2*
X1073257D1*
Y389020D1*
X762763Y-1876577D2*
Y-2541490D1*
X829047Y-2607773D1*
X984680D1*
Y-2611900D1*
X900000Y262500D2*
X1178130D1*
X1214700Y299070D1*
Y387453D1*
X1212133Y390020D1*
X-63500Y-1080000D2*
Y-1659123D1*
X-97873Y-1693497D1*
X-1308273Y783380D2*
X-1126910D1*
X-1012537Y897753D1*
X-69533D1*
X693140Y135080D1*
X899580D1*
X900000Y135500D1*
D17*
X-1308273Y783380D3*
X1212133Y390020D3*
X1073257Y389020D3*
D16*
X3047Y117053D3*
X112053Y5570D3*
X-103480Y3093D3*
X570D3*
X3047Y-108393D3*
D17*
X1108917Y-312217D3*
X-1106547Y-884310D3*
X-1107593Y-1119303D3*
X-189413Y-1257187D3*
X-304650Y-1725780D3*
X762763Y-1876577D3*
X506357Y-1878090D3*
X624897Y-1880660D3*
X979887Y-2180580D3*
X-418780Y-2210937D3*
X929383Y-2360080D3*
X264207Y-2405507D3*
X-738003Y1094353D2*
X738037D1*
X-738003Y1044687D2*
X738037D1*
X-738003Y995020D2*
X738037D1*
X17960Y945353D2*
X738037D1*
X67633Y895687D2*
X1037180D1*
X117310Y846020D2*
X738037D1*
X1062037D2*
X1084940D1*
X1295097D2*
X1340513D1*
X-738003Y796353D2*
X-103237D1*
X166983D2*
X738037D1*
X1062037D2*
X1340420D1*
X-738003Y746687D2*
X-53563D1*
X216657D2*
X738037D1*
X1062037D2*
X1340420D1*
X-1090190Y697020D2*
X-1062000D1*
X-738003D2*
X-3890D1*
X266333D2*
X738037D1*
X1062037D2*
X1340420D1*
X-1339383Y647353D2*
X-1062000D1*
X-738003D2*
X45787D1*
X316007D2*
X738037D1*
X1062037D2*
X1340330D1*
X-1339293Y597687D2*
X-1062000D1*
X-738003D2*
X95460D1*
X365680D2*
X738037D1*
X1062037D2*
X1340330D1*
X-1339200Y548020D2*
X-1062000D1*
X-738003D2*
X145133D1*
X415263D2*
X738037D1*
X1062037D2*
X1340330D1*
X-1339110Y498353D2*
X-1062000D1*
X-738003D2*
X194717D1*
X464940D2*
X738037D1*
X1062037D2*
X1340240D1*
X-1339020Y448687D2*
X-1062000D1*
X-738003D2*
X244393D1*
X514613D2*
X738037D1*
X1300563D2*
X1340240D1*
X-1338927Y399020D2*
X-1062000D1*
X-738003D2*
X294067D1*
X564287D2*
X738037D1*
X1318703D2*
X1340147D1*
X-1338747Y349353D2*
X-1062000D1*
X-738003D2*
X343740D1*
X613963D2*
X738037D1*
X1311683D2*
X1340147D1*
X-1338653Y299687D2*
X-1062000D1*
X-738003D2*
X393417D1*
X663637D2*
X738037D1*
X1311683D2*
X1340147D1*
X-1338563Y250020D2*
X-1062000D1*
X-738003D2*
X443090D1*
X713310D2*
X738037D1*
X1297557D2*
X1340057D1*
X-1338473Y200353D2*
X-1062000D1*
X-738003D2*
X492763D1*
X1251073D2*
X1340057D1*
X-1338380Y150687D2*
X-1062000D1*
X-738003D2*
X542440D1*
X1062037D2*
X1340057D1*
X-1338290Y101020D2*
X-1062000D1*
X-738003D2*
X592113D1*
X1062037D2*
X1339967D1*
X-1338200Y51353D2*
X-1062000D1*
X-738003D2*
X649990D1*
X1062037D2*
X1339967D1*
X-1338017Y1687D2*
X-1062000D1*
X-738003D2*
X738037D1*
X1062037D2*
X1339873D1*
X-1337927Y-47980D2*
X-1062000D1*
X-738003D2*
X738037D1*
X1062037D2*
X1339873D1*
X-1337833Y-97647D2*
X-1062000D1*
X-738003D2*
X738037D1*
X1062037D2*
X1339873D1*
X-1337743Y-147313D2*
X-1062000D1*
X-738003D2*
X738037D1*
X1062037D2*
X1339783D1*
X-1337653Y-196980D2*
X-1062000D1*
X-738003D2*
X738037D1*
X1062037D2*
X1339783D1*
X-1337560Y-246647D2*
X-1062000D1*
X-738003D2*
X738037D1*
X1062037D2*
X1339783D1*
X-1337470Y-296313D2*
X-1062000D1*
X-738003D2*
X738037D1*
X1062037D2*
X1339693D1*
X-738003Y-345980D2*
X738037D1*
X-738003Y-395647D2*
X738037D1*
X-738003Y-445313D2*
X738037D1*
X-738003Y-494980D2*
X738037D1*
X-738003Y-544647D2*
X738037D1*
X-738003Y-594313D2*
X738037D1*
X-738003Y-643980D2*
X738037D1*
X-738003Y-693647D2*
X738037D1*
X-738003Y-743313D2*
X738037D1*
X-738003Y-792980D2*
X738037D1*
X-1336283Y-842647D2*
X-1062000D1*
X-738003D2*
X738037D1*
X1062037D2*
X1339327D1*
X-1336193Y-892313D2*
X-1062000D1*
X-738003D2*
X738037D1*
X1062037D2*
X1339327D1*
X-1336103Y-941980D2*
X-1062000D1*
X1062037D2*
X1339237D1*
X-1336010Y-991647D2*
X-1062000D1*
X1062037D2*
X1339237D1*
X-1335830Y-1041313D2*
X-1178303D1*
X818037D2*
X1339237D1*
X-1335737Y-1090980D2*
X-1210570D1*
X818037D2*
X1339143D1*
X-1335647Y-1140647D2*
X-1212300D1*
X818037D2*
X1339143D1*
X-1335557Y-1190313D2*
X-1185777D1*
X818037D2*
X1339143D1*
X-1335463Y-1239980D2*
X-810530D1*
X-586520D2*
X-294917D1*
X33453D2*
X474537D1*
X795527D2*
X1339053D1*
X-1335373Y-1289647D2*
X-810530D1*
X-586520D2*
X-291090D1*
X33453D2*
X474537D1*
X795527D2*
X1339053D1*
X-1335283Y-1339313D2*
X-810530D1*
X-586520D2*
X-254903D1*
X33453D2*
X474537D1*
X795527D2*
X1338963D1*
X-1335100Y-1388980D2*
X-810530D1*
X-586520D2*
X-160477D1*
X33453D2*
X474537D1*
X795527D2*
X1338963D1*
X-1335010Y-1438647D2*
X-810530D1*
X-586520D2*
X-160477D1*
X33453D2*
X474537D1*
X813937D2*
X1338963D1*
X-1334917Y-1488313D2*
X-810530D1*
X-586520D2*
X-160477D1*
X33453D2*
X478727D1*
X863610D2*
X1338870D1*
X-1334827Y-1537980D2*
X-1282390D1*
X-1097667D2*
X-810530D1*
X-586520D2*
X-160477D1*
X33453D2*
X513547D1*
X913287D2*
X1097610D1*
X1282333D2*
X1338870D1*
X-1042613Y-1587647D2*
X-1009500D1*
X-525543D2*
X-244880D1*
X239170D2*
X563220D1*
X962960D2*
X1042647D1*
X239170Y-1637313D2*
X612893D1*
X239170Y-1686980D2*
X662477D1*
X239170Y-1736647D2*
X712153D1*
X-1038510Y-1786313D2*
X-1009500D1*
X242360D2*
X581177D1*
X668650D2*
X710240D1*
X-1087913Y-1835980D2*
X-1009500D1*
X-525543D2*
X-244880D1*
X242360D2*
X528220D1*
X-1251700Y-1885647D2*
X-1009500D1*
X-525543D2*
X-241597D1*
X242360D2*
X518013D1*
X1077803D2*
X1251553D1*
X-1237210Y-1935313D2*
X-241597D1*
X242360D2*
X527857D1*
X1077803D2*
X1237153D1*
X-1222717Y-1984980D2*
X-241597D1*
X242360D2*
X527857D1*
X1077803D2*
X1222750D1*
X-1208223Y-2034647D2*
X-241597D1*
X242360D2*
X527857D1*
X1077803D2*
X1208350D1*
X-1193733Y-2084313D2*
X-426440D1*
X209367D2*
X527857D1*
X1158287D2*
X1193950D1*
X-1179333Y-2133980D2*
X-1009500D1*
X-525543D2*
X-490700D1*
X209367D2*
X527857D1*
X-1164930Y-2183647D2*
X-1009500D1*
X209367D2*
X527857D1*
X-1150620Y-2233313D2*
X-1009500D1*
X209367D2*
X527857D1*
X-1136220Y-2282980D2*
X-1009500D1*
X-525543D2*
X-495987D1*
X-341610D2*
X-209697D1*
X209367D2*
X527857D1*
X-1121910Y-2332647D2*
X-1009500D1*
X-525543D2*
X-114630D1*
X114300D2*
X187790D1*
X340617D2*
X527857D1*
X-1107510Y-2382313D2*
X-1009500D1*
X-525543D2*
X-114630D1*
X114300D2*
X159900D1*
X368507D2*
X527857D1*
X-1093200Y-2431980D2*
X-1009500D1*
X-525543D2*
X-114630D1*
X114300D2*
X160720D1*
X367687D2*
X527857D1*
X-1078797Y-2481647D2*
X-114630D1*
X114300D2*
X167193D1*
X361217D2*
X527857D1*
X-1064397Y-2531313D2*
X-102143D1*
X101813D2*
X167193D1*
X361217D2*
X527857D1*
X-1050087Y-2580980D2*
X-102143D1*
X101813D2*
X167193D1*
X395120D2*
X527857D1*
X-1035687Y-2630647D2*
X-102143D1*
X101813D2*
X179223D1*
X444703D2*
X537790D1*
X-1030400Y-2680313D2*
X-102143D1*
X101813D2*
X224157D1*
X494380D2*
X580903D1*
X-1030763Y-2729980D2*
X-333563D1*
X-174450D2*
X-102143D1*
X101813D2*
X174393D1*
X544053D2*
X630577D1*
X-1031220Y-2779647D2*
X-398917D1*
X593727D2*
X680250D1*
X-1031583Y-2829313D2*
X-428357D1*
X643403D2*
X729927D1*
X-1032040Y-2878980D2*
X-440203D1*
X693077D2*
X782700D1*
X-1032403Y-2928647D2*
X-438017D1*
X438050D2*
X472530D1*
X742750D2*
X806490D1*
X-1032860Y-2978313D2*
X-421337D1*
X421280D2*
X522203D1*
X-1033317Y-3027980D2*
X-393993D1*
X394027D2*
X571880D1*
X-1033680Y-3077647D2*
X-425987D1*
X426020D2*
X621553D1*
X-1034137Y-3127313D2*
X-439567D1*
X439600D2*
X671227D1*
X-1034500Y-3176980D2*
X-439020D1*
X438963D2*
X720903D1*
X-1034957Y-3226647D2*
X-424070D1*
X424107D2*
X770577D1*
X-1328950Y883267D2*
X-1338930Y897540D1*
X-1339793Y880387D1*
X-1329047Y883167D1*
X-1096557Y1138270D2*
X-1076130Y1123323D1*
X-1057003Y1104227D1*
X-1057000Y1138393D1*
X-1096450Y1138293D1*
X-1015207Y-1703757D2*
X-1019510Y-1730930D1*
X-1028013Y-1757097D1*
X-1040503Y-1781610D1*
X-1056677Y-1803870D1*
X-1076130Y-1823323D1*
X-1098390Y-1839497D1*
X-1122903Y-1851987D1*
X-1149070Y-1860490D1*
X-1176243Y-1864793D1*
X-1203757D1*
X-1230930Y-1860490D1*
X-1257097Y-1851987D1*
X-1267987Y-1846967D1*
X-1092903Y-2450153D1*
X-1035200Y-2651757D1*
X-1040003Y-3234573D1*
X-414667Y-3235637D1*
X-423527Y-3216213D1*
X-429417Y-3198510D1*
X-433460Y-3180293D1*
X-435620Y-3161760D1*
X-435870Y-3143103D1*
X-434207Y-3124520D1*
X-430653Y-3106203D1*
X-425240Y-3088347D1*
X-418027Y-3071140D1*
X-409090Y-3054760D1*
X-398527Y-3039380D1*
X-384350Y-3023003D1*
X-401240Y-3002977D1*
X-416163Y-2978627D1*
X-427093Y-2952240D1*
X-433760Y-2924470D1*
X-436000Y-2896000D1*
X-433760Y-2867530D1*
X-427093Y-2839760D1*
X-416163Y-2813373D1*
X-401240Y-2789023D1*
X-382693Y-2767307D1*
X-360977Y-2748760D1*
X-336627Y-2733837D1*
X-310240Y-2722907D1*
X-282470Y-2716240D1*
X-254000Y-2714000D1*
X-225530Y-2716240D1*
X-197760Y-2722907D1*
X-171373Y-2733837D1*
X-147023Y-2748760D1*
X-127070Y-2765677D1*
X-106977Y-2748760D1*
X-97183Y-2742217D1*
X-97177Y-2529933D1*
X-109677Y-2529860D1*
Y-2299900D1*
X-204677Y-2299860D1*
Y-2248180D1*
X-323710Y-2248110D1*
X-331810Y-2264230D1*
X-341220Y-2277180D1*
X-352537Y-2288497D1*
X-365487Y-2297907D1*
X-379747Y-2305173D1*
X-394970Y-2310120D1*
X-410777Y-2312623D1*
X-426783D1*
X-442590Y-2310120D1*
X-457813Y-2305173D1*
X-472073Y-2297907D1*
X-485023Y-2288497D1*
X-496340Y-2277180D1*
X-505750Y-2264230D1*
X-513017Y-2249970D1*
X-517963Y-2234747D1*
X-520467Y-2218940D1*
Y-2202933D1*
X-517963Y-2187127D1*
X-513017Y-2171903D1*
X-505750Y-2157643D1*
X-496340Y-2144693D1*
X-485023Y-2133377D1*
X-472073Y-2123967D1*
X-457813Y-2116700D1*
X-452793Y-2114850D1*
X-423703Y-2086153D1*
X-412023Y-2077667D1*
X-399160Y-2071113D1*
X-385430Y-2066653D1*
X-371170Y-2064393D1*
X-236623Y-2064110D1*
X-236610Y-1845467D1*
X-239873Y-1845497D1*
Y-1811317D1*
X-248743Y-1817463D1*
X-263703Y-1825087D1*
X-279670Y-1830273D1*
X-296253Y-1832900D1*
X-397983Y-1833230D1*
X-530417D1*
X-530500Y-1893697D1*
X-1004500D1*
Y-1559697D1*
X-805527D1*
X-805500Y-1236970D1*
X-813000Y-1237000D1*
Y-1216310D1*
X-1076073D1*
X-1091637Y-1220047D1*
X-1107593Y-1221303D1*
X-1123550Y-1220047D1*
X-1139113Y-1216310D1*
X-1153900Y-1210187D1*
X-1167547Y-1201823D1*
X-1179717Y-1191427D1*
X-1190113Y-1179257D1*
X-1198477Y-1165610D1*
X-1204600Y-1150823D1*
X-1208337Y-1135260D1*
X-1209593Y-1119303D1*
X-1208337Y-1103347D1*
X-1204600Y-1087783D1*
X-1198477Y-1072997D1*
X-1190113Y-1059350D1*
X-1179717Y-1047180D1*
X-1167547Y-1036783D1*
X-1153900Y-1028420D1*
X-1139113Y-1022297D1*
X-1123550Y-1018560D1*
X-1107593Y-1017303D1*
X-1091637Y-1018560D1*
X-1076043Y-1022307D1*
X-812920Y-1022303D1*
X-813000Y-995000D1*
X-1057000D1*
Y-835987D1*
X-1341323Y-836000D1*
X-1339723Y-1583850D1*
X-1331847Y-1586940D1*
X-1313980Y-1566020D1*
X-1293060Y-1548153D1*
X-1269600Y-1533777D1*
X-1244180Y-1523247D1*
X-1217427Y-1516827D1*
X-1190000Y-1514667D1*
X-1162573Y-1516827D1*
X-1135820Y-1523247D1*
X-1110400Y-1533777D1*
X-1086940Y-1548153D1*
X-1066020Y-1566020D1*
X-1048153Y-1586940D1*
X-1033777Y-1610400D1*
X-1023247Y-1635820D1*
X-1016827Y-1662573D1*
X-1014667Y-1690000D1*
X-1015207Y-1703757D1*
X1267793Y-1847057D2*
X1244180Y-1856753D1*
X1217427Y-1863173D1*
X1190000Y-1865333D1*
X1162573Y-1863173D1*
X1135820Y-1856753D1*
X1110400Y-1846223D1*
X1086940Y-1831847D1*
X1072773Y-1820220D1*
X1072800Y-2059867D1*
X1195247Y-2097070D1*
X1267717Y-1847237D1*
X1019500Y-1649123D2*
X1028013Y-1622903D1*
X1040503Y-1598390D1*
X1056677Y-1576130D1*
X1076130Y-1556677D1*
X1098390Y-1540503D1*
X1122903Y-1528013D1*
X1149070Y-1519510D1*
X1176243Y-1515207D1*
X1203757D1*
X1230930Y-1519510D1*
X1257097Y-1528013D1*
X1281610Y-1540503D1*
X1303870Y-1556677D1*
X1323323Y-1576130D1*
X1339497Y-1598390D1*
X1343860Y-1541830D1*
X1344343Y-836087D1*
X1057090Y-836000D1*
X1057000Y-995000D1*
X813003D1*
X813000Y-1237000D1*
X790487D1*
X790500Y-1420247D1*
X1019483Y-1649160D1*
X204323Y-2075587D2*
Y-2299860D1*
X109260D1*
X109323Y-2529860D1*
X96837D1*
X96823Y-2741883D1*
X118200Y-2757607D1*
X126930Y-2765677D1*
X147023Y-2748760D1*
X171373Y-2733837D1*
X197760Y-2722907D1*
X225530Y-2716240D1*
X254000Y-2714000D1*
X263203Y-2714360D1*
X194250Y-2644963D1*
X185763Y-2633283D1*
X179210Y-2620420D1*
X174747Y-2606690D1*
X172490Y-2592430D1*
X172207Y-2449497D1*
X167200Y-2437027D1*
X163463Y-2421463D1*
X162207Y-2405507D1*
X163463Y-2389550D1*
X167200Y-2373987D1*
X173323Y-2359200D1*
X181687Y-2345553D1*
X192083Y-2333383D1*
X204253Y-2322987D1*
X217900Y-2314623D1*
X232687Y-2308500D1*
X248250Y-2304763D1*
X264207Y-2303507D1*
X280163Y-2304763D1*
X295727Y-2308500D1*
X310513Y-2314623D1*
X324160Y-2322987D1*
X336330Y-2333383D1*
X346727Y-2345553D1*
X355090Y-2359200D1*
X361213Y-2373987D1*
X364950Y-2389550D1*
X366207Y-2405507D1*
X364950Y-2421463D1*
X361213Y-2437027D1*
X356203Y-2449400D1*
X356207Y-2547057D1*
X811540Y-3002437D1*
X811683Y-2920760D1*
X813860Y-2906950D1*
X818507Y-2893743D1*
X815550Y-2890770D1*
X801820Y-2886310D1*
X788957Y-2879757D1*
X777277Y-2871270D1*
X689477Y-2783870D1*
X554940Y-2648933D1*
X546453Y-2637253D1*
X539900Y-2624390D1*
X535440Y-2610660D1*
X533180Y-2596400D1*
X532897Y-2472517D1*
Y-1924640D1*
X527890Y-1912180D1*
X524153Y-1896617D1*
X522897Y-1880660D1*
X524153Y-1864703D1*
X527890Y-1849140D1*
X534013Y-1834353D1*
X542377Y-1820707D1*
X552773Y-1808537D1*
X564943Y-1798140D1*
X578590Y-1789777D1*
X593377Y-1783653D1*
X608940Y-1779917D1*
X624897Y-1778660D1*
X640853Y-1779917D1*
X656417Y-1783653D1*
X671203Y-1789777D1*
X684850Y-1798140D1*
X691577Y-1803503D1*
X702810Y-1794057D1*
X716457Y-1785693D1*
X731243Y-1779570D1*
X746807Y-1775833D1*
X755417Y-1774867D1*
X501543Y-1520603D1*
X493057Y-1508923D1*
X486503Y-1496060D1*
X482040Y-1482330D1*
X479783Y-1468070D1*
X479500Y-1344187D1*
Y-1237090D1*
X330000Y-1236910D1*
X28430Y-1237000D1*
X28500Y-1541470D1*
X234127Y-1541497D1*
Y-1771640D1*
X237390Y-1771610D1*
Y-2075610D1*
X204303D1*
X-1342357Y-297010D2*
X-1057017D1*
X-1056910Y-4000D1*
X-1057000Y377000D1*
Y723230D1*
X-1067160Y713423D1*
X-1078840Y704937D1*
X-1091703Y698383D1*
X-1105433Y693920D1*
X-1119693Y691663D1*
X-1243577Y691380D1*
X-1264267D1*
X-1276753Y686373D1*
X-1292317Y682637D1*
X-1308273Y681380D1*
X-1324230Y682637D1*
X-1339793Y686373D1*
X-1344460Y688093D1*
X-1342423Y-296937D1*
X-591517Y-1559697D2*
X-530500D1*
Y-1619217D1*
X-296253Y-1619560D1*
X-279670Y-1622187D1*
X-263703Y-1627373D1*
X-248743Y-1634997D1*
X-241730Y-1639687D1*
X-239873Y-1635497D1*
Y-1541497D1*
X-155563D1*
X-155500Y-1353330D1*
X-173457Y-1357930D1*
X-189413Y-1359187D1*
X-205370Y-1357930D1*
X-220933Y-1354193D1*
X-235720Y-1348070D1*
X-249367Y-1339707D1*
X-261537Y-1329310D1*
X-271933Y-1317140D1*
X-280297Y-1303493D1*
X-286420Y-1288707D1*
X-290157Y-1273143D1*
X-291413Y-1257187D1*
X-290157Y-1241230D1*
X-289320Y-1237027D1*
X-591563Y-1237000D1*
X-591500Y-1559627D1*
X-999833Y-2119697D2*
X-530500D1*
Y-2453697D1*
X-1004500D1*
Y-2119697D1*
X-999833D1*
X877780Y-2467777D2*
X873817Y-2456337D1*
X871700Y-2444417D1*
X857260Y-2432203D1*
X854773Y-2429517D1*
X854763Y-2493360D1*
X865050Y-2482620D1*
X874850Y-2475510D1*
X-154667Y-923000D2*
X559000D1*
X743050D1*
X743090Y-385000D1*
X743000Y-4000D1*
Y43023D1*
X685923Y43363D1*
X671663Y45623D1*
X657933Y50083D1*
X645070Y56637D1*
X633390Y65123D1*
X545590Y152523D1*
X-107610Y805720D1*
X-743000Y805667D1*
Y148000D1*
X-743090Y-233000D1*
X-743000Y-614000D1*
Y-923000D1*
X-154667D1*
X1057000Y656007D2*
X1057300Y489763D1*
X1073257Y491020D1*
X1089213Y489763D1*
X1104777Y486027D1*
X1119563Y479903D1*
X1133210Y471540D1*
X1142190Y464163D1*
X1152180Y472540D1*
X1165827Y480903D1*
X1180613Y487027D1*
X1196177Y490763D1*
X1212133Y492020D1*
X1228090Y490763D1*
X1243653Y487027D1*
X1258440Y480903D1*
X1272087Y472540D1*
X1284257Y462143D1*
X1294653Y449973D1*
X1303017Y436327D1*
X1309140Y421540D1*
X1312877Y405977D1*
X1314133Y390020D1*
X1312877Y374063D1*
X1309140Y358500D1*
X1306703Y351897D1*
X1306417Y291853D1*
X1304157Y277593D1*
X1299697Y263863D1*
X1293143Y251000D1*
X1284657Y239320D1*
X1243183Y197447D1*
X1232207Y188070D1*
X1219897Y180527D1*
X1206560Y175003D1*
X1192523Y171633D1*
X1178103Y170500D1*
X1056997D1*
X1057000Y-233000D1*
X1057007Y-297000D1*
X1344753D1*
X1345520Y889987D1*
X1339497Y898390D1*
X1323323Y876130D1*
X1303870Y856677D1*
X1281610Y840503D1*
X1257097Y828013D1*
X1230930Y819510D1*
X1203757Y815207D1*
X1176243D1*
X1149070Y819510D1*
X1122903Y828013D1*
X1098390Y840503D1*
X1076130Y856677D1*
X1057003Y875773D1*
X1046333Y885000D1*
X1049627D1*
X1040503Y898390D1*
X1033667Y910000D1*
X743000D1*
Y1143073D1*
X-743073Y1139217D1*
X-743000Y989757D1*
X-62317Y989470D1*
X-48057Y987210D1*
X-34327Y982750D1*
X-21463Y976197D1*
X-9783Y967710D1*
X78017Y880310D1*
X731217Y227113D1*
X742997Y227080D1*
X743000Y631000D1*
Y885000D1*
X1046333D1*
X1057000Y875793D1*
X1056910Y656000D1*
X435440Y-3164280D2*
X430970Y-3192487D1*
X422147Y-3219650D1*
X413737Y-3236960D1*
X786450Y-3237547D1*
X435797Y-2886910D1*
X435440Y-2910280D1*
X430970Y-2938487D1*
X422147Y-2965650D1*
X409180Y-2991093D1*
X392393Y-3014200D1*
X384323Y-3022930D1*
X401240Y-3043023D1*
X416163Y-3067373D1*
X427093Y-3093760D1*
X433760Y-3121530D1*
X436000Y-3150000D1*
X435440Y-3164280D1*
X1343830Y-1584940D2*
X1343860Y-1541830D1*
X1094057Y1144010D2*
X1057050Y1143913D1*
X1057000Y1140000D1*
X1101813Y1141413D1*
X1086940Y1131847D1*
X1066020Y1113980D1*
X1057003Y1104227D1*
X1112000Y-297090D2*
D10*
Y-449000D1*
X-767500Y-2119787D2*
Y-2453607D1*
X-1004410Y-2286697D2*
X-530590D1*
X811537Y-2990773D2*
X963533D1*
X-900000Y-880500D2*
Y-994910D1*
X-1056910Y-880500D2*
X-743090D1*
X-900000Y770500D2*
X-743090D1*
X-900000Y1024500D2*
X-743090D1*
X-900000Y1151500D2*
X-743090D1*
X900000Y1024500D2*
Y910090D1*
X743093Y1024500D2*
X900000D1*
X743093Y1151500D2*
X1056910D1*
X-435910Y-3150000D2*
X-254000D1*
D20*
X-767500Y-1726697D3*
Y-2286697D3*
D21*
X1112000Y-449000D3*
X1302000D3*
X-1301983Y-449010D3*
X-1111983D3*
X-1297477Y-684000D3*
X-1107477D3*
D23*
X94823Y-2170360D3*
X-95177D3*
X-177Y-2400360D3*
D21*
X1297500Y-684000D3*
X1107500D3*
X-97873Y-1693497D3*
X92127D3*
X-94610Y-1923610D3*
X95390D3*
D57*
X1039003Y-2396573D3*
X1094277Y-2214787D3*
D60*
X969700Y-2801313D3*
X984680Y-2611900D3*
D63*
X963573Y-3180773D3*
X963533Y-2990773D3*
D25*
X-63500Y-1080000D3*
X63500D3*
X-190500D3*
X-317500D3*
X-444500D3*
X-571500D3*
X-698500D3*
X190500D3*
X317500D3*
X444500D3*
X571500D3*
X698500D3*
D26*
X-900000Y-880500D3*
Y-753500D3*
X900000Y-880500D3*
X-900000Y-626500D3*
Y-499500D3*
Y-372500D3*
Y-245500D3*
Y-118500D3*
Y8500D3*
Y135500D3*
Y262500D3*
Y389500D3*
Y516500D3*
Y643500D3*
Y770500D3*
X900000Y-753500D3*
Y-626500D3*
Y-499500D3*
Y-372500D3*
Y-245500D3*
Y-118500D3*
Y8500D3*
Y135500D3*
Y262500D3*
Y389500D3*
Y516500D3*
Y643500D3*
Y770500D3*
X-900000Y1024500D3*
Y1151500D3*
X900000Y1024500D3*
Y1151500D3*
D27*
X-254000Y-3150000D3*
X0D3*
X254000D3*
X-254000Y-2896000D3*
X0D3*
X254000D3*
G04 Top Clear*
%LPC*%
D19*
X-1308273Y783380D3*
X1212133Y390020D3*
X1073257Y389020D3*
D15*
X3047Y117053D3*
X112053Y5570D3*
X-103480Y3093D3*
X570D3*
X3047Y-108393D3*
D19*
X1108917Y-312217D3*
X-1106547Y-884310D3*
X-1107593Y-1119303D3*
X-189413Y-1257187D3*
X-304650Y-1725780D3*
X762763Y-1876577D3*
X506357Y-1878090D3*
X624897Y-1880660D3*
X979887Y-2180580D3*
X-418780Y-2210937D3*
X929383Y-2360080D3*
X264207Y-2405507D3*
D31*
X-254000Y-3150000D3*
X0D3*
X254000D3*
X-254000Y-2896000D3*
X0D3*
X254000D3*
M02*
