G04 DipTrace 3.2.0.1*
G04 Верхняямаска.gbr*
%MOMM*%
G04 #@! TF.FileFunction,Soldermask,Top*
G04 #@! TF.Part,Single*
%AMOUTLINE4*
4,1,4,
0.59505,-0.96483,
-1.03143,-0.47028,
-0.59505,0.96483,
1.03143,0.47028,
0.59505,-0.96483,
0*%
%AMOUTLINE7*
4,1,4,
0.78824,-0.81467,
-0.90647,-0.68064,
-0.78824,0.81467,
0.90647,0.68064,
0.78824,-0.81467,
0*%
%AMOUTLINE10*
4,1,4,
0.85015,-0.74981,
-0.84988,-0.75015,
-0.85015,0.74981,
0.84988,0.75015,
0.85015,-0.74981,
0*%
%ADD30C,1.5*%
%ADD38C,2.3*%
%ADD40R,1.8X0.95*%
%ADD42R,0.95X1.8*%
%ADD46R,0.85X1.25*%
%ADD48R,1.5X1.7*%
%ADD50R,3.4X2.0*%
%ADD58OUTLINE4*%
%ADD61OUTLINE7*%
%ADD64OUTLINE10*%
%FSLAX35Y35*%
G04*
G71*
G90*
G75*
G01*
G04 TopMask*
%LPD*%
D50*
X-767500Y-1726697D3*
Y-2286697D3*
D48*
X1112000Y-449000D3*
X1302000D3*
D30*
X-1190000Y990000D3*
X1190000D3*
X-1190000Y-1690000D3*
X1190000D3*
D48*
X-1301983Y-449010D3*
X-1111983D3*
X-1297477Y-684000D3*
X-1107477D3*
D46*
X94823Y-2170360D3*
X-95177D3*
X-177Y-2400360D3*
D48*
X1297500Y-684000D3*
X1107500D3*
X-97873Y-1693497D3*
X92127D3*
X-94610Y-1923610D3*
X95390D3*
D58*
X1039003Y-2396573D3*
X1094277Y-2214787D3*
D61*
X969700Y-2801313D3*
X984680Y-2611900D3*
D64*
X963573Y-3180773D3*
X963533Y-2990773D3*
D42*
X-63500Y-1080000D3*
X63500D3*
X-190500D3*
X-317500D3*
X-444500D3*
X-571500D3*
X-698500D3*
X190500D3*
X317500D3*
X444500D3*
X571500D3*
X698500D3*
D40*
X-900000Y-880500D3*
Y-753500D3*
X900000Y-880500D3*
X-900000Y-626500D3*
Y-499500D3*
Y-372500D3*
Y-245500D3*
Y-118500D3*
Y8500D3*
Y135500D3*
Y262500D3*
Y389500D3*
Y516500D3*
Y643500D3*
Y770500D3*
X900000Y-753500D3*
Y-626500D3*
Y-499500D3*
Y-372500D3*
Y-245500D3*
Y-118500D3*
Y8500D3*
Y135500D3*
Y262500D3*
Y389500D3*
Y516500D3*
Y643500D3*
Y770500D3*
X-900000Y1024500D3*
Y1151500D3*
X900000Y1024500D3*
Y1151500D3*
D38*
X-254000Y-3150000D3*
X0D3*
X254000D3*
X-254000Y-2896000D3*
X0D3*
X254000D3*
M02*
