G04 DipTrace 3.2.0.1*
G04 Нижний.gbr*
%MOMM*%
G04 #@! TF.FileFunction,Copper,L2,Bot*
G04 #@! TF.Part,Single*
%AMOUTLINE0*
4,1,4,
-0.3758,0.7496,
0.3742,0.75043,
0.3758,-0.7496,
-0.3742,-0.75043,
-0.3758,0.7496,
0*%
%ADD15C,0.3*%
%ADD19C,0.2*%
%ADD31C,0.9*%
G04 #@! TA.AperFunction,CopperBalancing*
%ADD10C,0.25*%
G04 #@! TA.AperFunction,ViaPad*
%ADD16C,0.6*%
G04 #@! TA.AperFunction,CopperBalancing*
%ADD17C,0.5*%
%ADD24R,1.5X1.3*%
G04 #@! TA.AperFunction,ComponentPad*
%ADD27C,2.1*%
%ADD28R,4.2X3.2*%
%ADD29R,0.7X1.1*%
%ADD54OUTLINE0*%
%FSLAX35Y35*%
G04*
G71*
G90*
G75*
G01*
G04 Bottom*
%LPD*%
X-254000Y-3150000D2*
D16*
Y-2942539D1*
X-304822Y-2891717D1*
X-481647D1*
X-973067Y-2400298D1*
Y-998817D1*
X-992040D1*
X-1106547Y-884310D1*
X-973067Y-998817D2*
X-832970D1*
X-154003Y-319850D1*
X-3483D1*
Y-108392D1*
Y3092D1*
Y117053D1*
Y989360D1*
X-1097727Y232953D2*
D15*
Y-875490D1*
X-1106547Y-884310D1*
X506357Y-1878090D2*
Y-326133D1*
X-154003D1*
Y-319850D1*
X1108917Y-312217D2*
X1119900Y-323200D1*
X-133D1*
X-3483Y-319850D1*
X501683Y-2098333D2*
Y-2092303D1*
X504023Y-2094643D1*
Y-1880423D1*
X506357Y-1878090D1*
X570Y3092D2*
D16*
X-3483D1*
X3048Y-108392D2*
X-3483D1*
X3048Y117053D2*
X-3483D1*
X-418780Y-2210937D2*
Y-2214270D1*
X-116730D1*
D15*
X0Y-2331000D1*
X-304650Y-1725780D2*
D16*
Y-2195840D1*
D15*
X0D1*
Y-2331000D1*
X-1289510Y-409070D2*
Y-937387D1*
X-1107593Y-1119303D1*
X264207Y-2405507D2*
X74507D1*
X0Y-2331000D1*
X502090Y-2475337D2*
X334037D1*
X264207Y-2405507D1*
X0Y-2896000D2*
Y-3150000D1*
X254000D2*
Y-2702043D1*
X184340Y-2632383D1*
X-249387D1*
X-542870Y-2338900D1*
Y-1652050D1*
X-168710Y-1277890D1*
X-189413Y-1257187D1*
X755683Y-2098060D2*
X897367D1*
X979887Y-2180580D1*
X756093Y-2475060D2*
X900747D1*
X937503Y-2438303D1*
Y-2360080D1*
X929383D1*
X1073257Y389020D2*
Y-71457D1*
X1254863Y-253063D1*
Y-1048343D1*
X624897Y-1678310D1*
Y-1880660D1*
X628680D1*
Y-2098197D1*
X1212133Y390020D2*
Y-41423D1*
X1330990Y-160280D1*
Y-1110470D1*
X762763Y-1678697D1*
Y-1876577D1*
Y-1883613D1*
X794757Y-1915607D1*
X861557D1*
X1069723Y-2123773D1*
Y-2477657D1*
X898393Y-2648987D1*
X662579D1*
X625123Y-2611531D1*
Y-2479167D1*
X629093Y-2475197D1*
X-1312727Y647953D2*
Y232953D1*
Y-195853D1*
X-1289510Y-219070D1*
X-1312727Y647953D2*
Y783380D1*
X-1308273D1*
D17*
D3*
X1212133Y390020D3*
X1073257Y389020D3*
X1108917Y-312217D3*
X-1106547Y-884310D3*
X-1107593Y-1119303D3*
X-189413Y-1257187D3*
X-304650Y-1725780D3*
X762763Y-1876577D3*
X506357Y-1878090D3*
X624897Y-1880660D3*
X979887Y-2180580D3*
X-418780Y-2210937D3*
X929383Y-2360080D3*
X264207Y-2405507D3*
D16*
X570Y3092D3*
X-103481D3*
X112054Y5569D3*
X3048Y-108392D3*
Y117053D3*
X-1041195Y1090304D2*
D17*
X-292041D1*
X291995D2*
X1041149D1*
X-1017132Y1040637D2*
X-292041D1*
X291995D2*
X1017178D1*
X-1009658Y990971D2*
X-292041D1*
X291995D2*
X1009704D1*
X-1016585Y941304D2*
X-292041D1*
X291995D2*
X1016540D1*
X-1039827Y891637D2*
X-292041D1*
X291995D2*
X1039873D1*
X-1091051Y841971D2*
X-292041D1*
X291995D2*
X1091006D1*
X1288949D2*
X1331722D1*
X-1201702Y792304D2*
X1331722D1*
X-980765Y742637D2*
X1331722D1*
X-980765Y692971D2*
X1331722D1*
X-980765Y643304D2*
X1331722D1*
X-980765Y593637D2*
X1331722D1*
X-980765Y543971D2*
X1331722D1*
X-1215739Y494304D2*
X1331722D1*
X-1215739Y444637D2*
X982725D1*
X1303259D2*
X1331792D1*
X-1215739Y394971D2*
X966410D1*
X-980765Y345304D2*
X976071D1*
X1309092D2*
X1331735D1*
X-980765Y295637D2*
X976253D1*
X1309092D2*
X1331735D1*
X-980765Y245971D2*
X976253D1*
X1309092D2*
X1331735D1*
X-980765Y196304D2*
X976253D1*
X1309092D2*
X1331735D1*
X-980765Y146637D2*
X976253D1*
X1309092D2*
X1331735D1*
X-1215739Y96971D2*
X976253D1*
X1309092D2*
X1331735D1*
X-1215739Y47304D2*
X976253D1*
X1309092D2*
X1331735D1*
X-1215739Y-2363D2*
X976253D1*
X1309092D2*
X1331735D1*
X-1215739Y-52029D2*
X976253D1*
X-1132523Y-101696D2*
X981357D1*
X-1132523Y-151363D2*
X1018089D1*
X-1132523Y-201029D2*
X1067764D1*
X-1132523Y-250696D2*
X1117347D1*
X-1132523Y-300363D2*
X1157907D1*
X-1132523Y-350029D2*
X1157907D1*
X-1132523Y-399696D2*
X1157907D1*
X-1132523Y-449363D2*
X1157907D1*
X-1132523Y-499029D2*
X1157907D1*
X-1132523Y-548696D2*
X1157907D1*
X-1192497Y-598363D2*
X1157907D1*
X-1192497Y-648029D2*
X1157907D1*
X-1192497Y-697696D2*
X1157907D1*
X-1192497Y-747363D2*
X1157907D1*
X-1192497Y-797029D2*
X1157907D1*
X-1192497Y-846696D2*
X1157907D1*
X-1192497Y-896363D2*
X1157907D1*
X-1145739Y-946029D2*
X1157907D1*
X-1096064Y-995696D2*
X1157907D1*
X-1336598Y-1045363D2*
X-1316692D1*
X-1032353D2*
X1122725D1*
X-1336598Y-1095029D2*
X-1266937D1*
X-1003551D2*
X1073050D1*
X-1336598Y-1144696D2*
X-1217353D1*
X-1003825D2*
X1023376D1*
X-1336507Y-1194363D2*
X-1181624D1*
X-1033538D2*
X-274814D1*
X-104033D2*
X973701D1*
X-1336507Y-1244029D2*
X-295596D1*
X-78148D2*
X924027D1*
X-1336507Y-1293696D2*
X-319658D1*
X-73044D2*
X874443D1*
X1282842D2*
X1331722D1*
X-1336416Y-1343363D2*
X-369333D1*
X-99111D2*
X824769D1*
X1233167D2*
X1331722D1*
X-1336416Y-1393029D2*
X-418916D1*
X-148786D2*
X775094D1*
X1183584D2*
X1331722D1*
X-1336416Y-1442696D2*
X-468590D1*
X-198369D2*
X725420D1*
X1133910D2*
X1331722D1*
X-1336325Y-1492363D2*
X-518265D1*
X-248044D2*
X675745D1*
X1084235D2*
X1331722D1*
X-1336325Y-1542029D2*
X-1289085D1*
X-1090960D2*
X-567939D1*
X-297718D2*
X626071D1*
X1034561D2*
X1090915D1*
X1289040D2*
X1331722D1*
X-1039827Y-1591696D2*
X-617340D1*
X-347393D2*
X576397D1*
X984886D2*
X1039782D1*
X-1016585Y-1641363D2*
X-639215D1*
X-397067D2*
X-375416D1*
X-233916D2*
X535654D1*
X935212D2*
X1016540D1*
X-1009658Y-1691029D2*
X-639853D1*
X-445830D2*
X-410895D1*
X-198460D2*
X527907D1*
X885537D2*
X1009704D1*
X-1017132Y-1740696D2*
X-639853D1*
X-445830D2*
X-416675D1*
X-192627D2*
X527907D1*
X859743D2*
X1017178D1*
X-1041195Y-1790363D2*
X-639853D1*
X-445830D2*
X-416675D1*
X-192627D2*
X527907D1*
X859743D2*
X1041240D1*
X-1094241Y-1840029D2*
X-639853D1*
X-445830D2*
X-416675D1*
X-192627D2*
X526357D1*
X918988D2*
X1094287D1*
X-1250010Y-1889696D2*
X-639853D1*
X-445830D2*
X-416675D1*
X-192627D2*
X518337D1*
X970759D2*
X1243037D1*
X-1235700Y-1939363D2*
X-639853D1*
X-445830D2*
X-416675D1*
X-192627D2*
X531644D1*
X1020433D2*
X1228636D1*
X-1221390Y-1989029D2*
X-639853D1*
X-445830D2*
X-416675D1*
X-192627D2*
X390186D1*
X1070107D2*
X1214144D1*
X-1207080Y-2038696D2*
X-639853D1*
X-445830D2*
X-416675D1*
X-192627D2*
X382165D1*
X1119782D2*
X1199743D1*
X-1192770Y-2088363D2*
X-639853D1*
X-445830D2*
X-416675D1*
X-192627D2*
X382165D1*
X1159613D2*
X1185376D1*
X-1178369Y-2138029D2*
X-639853D1*
X291995D2*
X382256D1*
X-1164059Y-2187696D2*
X-639853D1*
X291995D2*
X383623D1*
X-1149749Y-2237363D2*
X-639853D1*
X291995D2*
X416436D1*
X840602D2*
X890120D1*
X-1135439Y-2287029D2*
X-639853D1*
X291995D2*
X853206D1*
X-1121130Y-2336696D2*
X-639853D1*
X-410010D2*
X-292041D1*
X344495D2*
X416253D1*
X-1106820Y-2386363D2*
X-626637D1*
X-360335D2*
X-292041D1*
X-1092510Y-2436029D2*
X-580882D1*
X-310661D2*
X-292078D1*
X-1078200Y-2485696D2*
X-531208D1*
X-1063890Y-2535363D2*
X-481533D1*
X-1049580Y-2585029D2*
X-431859D1*
X272126D2*
X390915D1*
X-1036364Y-2634696D2*
X-382184D1*
X321800D2*
X531097D1*
X-1036090Y-2684363D2*
X-332510D1*
X349326D2*
X562816D1*
X998102D2*
X1027609D1*
X-1035817Y-2734029D2*
X-341989D1*
X-166012D2*
X-87965D1*
X88011D2*
X150837D1*
X350967D2*
X622516D1*
X938493D2*
X1027660D1*
X-1035544Y-2783696D2*
X-402236D1*
X402191D2*
X1027660D1*
X-1035361Y-2833363D2*
X-429853D1*
X429899D2*
X1027660D1*
X-1035088Y-2883029D2*
X-440518D1*
X440563D2*
X1027660D1*
X-1034814Y-2932696D2*
X-437236D1*
X437282D2*
X1027660D1*
X-1034541Y-2982363D2*
X-419189D1*
X419235D2*
X1027660D1*
X-1034359Y-3032029D2*
X-397588D1*
X397634D2*
X1027660D1*
X-1034085Y-3081696D2*
X-427666D1*
X427712D2*
X1027660D1*
X-1033812Y-3131363D2*
X-440062D1*
X440016D2*
X1027660D1*
X-1033538Y-3181029D2*
X-438330D1*
X438376D2*
X1027660D1*
X-1328951Y883267D2*
X-1340153Y899562D1*
X-1341225Y879890D1*
X-1329047Y883166D1*
X1259393Y-1850929D2*
X1244181Y-1856752D1*
X1217428Y-1863175D1*
X1190000Y-1865333D1*
X1162572Y-1863175D1*
X1135819Y-1856752D1*
X1110400Y-1846223D1*
X1086942Y-1831848D1*
X1066021Y-1813979D1*
X1048152Y-1793058D1*
X1033777Y-1769600D1*
X1023248Y-1744181D1*
X1016825Y-1717428D1*
X1014667Y-1690000D1*
X1016825Y-1662572D1*
X1023248Y-1635819D1*
X1033777Y-1610400D1*
X1048152Y-1586942D1*
X1066021Y-1566021D1*
X1086942Y-1548152D1*
X1110400Y-1533777D1*
X1135819Y-1523248D1*
X1162572Y-1516825D1*
X1190000Y-1514667D1*
X1217428Y-1516825D1*
X1244181Y-1523248D1*
X1269600Y-1533777D1*
X1293058Y-1548152D1*
X1313979Y-1566021D1*
X1331848Y-1586942D1*
X1334806Y-1591368D1*
X1336766Y-1565003D1*
Y-1234782D1*
X854730Y-1716838D1*
X854763Y-1823527D1*
X875949Y-1824739D1*
X889986Y-1828109D1*
X903324Y-1833634D1*
X915633Y-1841177D1*
X926611Y-1850553D1*
X1139681Y-2064024D1*
X1148166Y-2075703D1*
X1154720Y-2088566D1*
X1159182Y-2102296D1*
X1161440Y-2116555D1*
X1161724Y-2186573D1*
X1259295Y-1851126D1*
X534560Y-2627302D2*
X458711Y-2627149D1*
X446775Y-2625272D1*
X435279Y-2621550D1*
X424508Y-2616076D1*
X414725Y-2608985D1*
X406172Y-2600450D1*
X399060Y-2590682D1*
X393563Y-2579923D1*
X389812Y-2568412D1*
X385423Y-2567337D1*
X326818Y-2567053D1*
X312560Y-2564795D1*
X298830Y-2560334D1*
X292245Y-2557296D1*
X287000Y-2560667D1*
Y-2568000D1*
X250086D1*
X323957Y-2642294D1*
X332443Y-2653973D1*
X338997Y-2666836D1*
X343458Y-2680566D1*
X345716Y-2694825D1*
X346000Y-2738957D1*
X360977Y-2748759D1*
X382693Y-2767307D1*
X401241Y-2789023D1*
X416163Y-2813374D1*
X427092Y-2839759D1*
X433759Y-2867529D1*
X436000Y-2896000D1*
X433759Y-2924471D1*
X427092Y-2952241D1*
X416163Y-2978626D1*
X401241Y-3002977D1*
X384323Y-3022931D1*
X401241Y-3043023D1*
X416163Y-3067374D1*
X427092Y-3093759D1*
X433759Y-3121529D1*
X436000Y-3150000D1*
X433759Y-3178471D1*
X427092Y-3206241D1*
X418757Y-3226999D1*
X1032713Y-3228819D1*
X1032636Y-2644894D1*
X958143Y-2718944D1*
X946463Y-2727430D1*
X933600Y-2733984D1*
X919870Y-2738445D1*
X905612Y-2740703D1*
X781727Y-2740987D1*
X655361Y-2740703D1*
X641102Y-2738445D1*
X627372Y-2733984D1*
X614509Y-2727430D1*
X602830Y-2718944D1*
X560069Y-2676585D1*
X550694Y-2665607D1*
X543151Y-2653298D1*
X537626Y-2639961D1*
X535660Y-2632980D1*
X464109Y-1946373D2*
X536697Y-1946293D1*
X536680Y-1931856D1*
X530661Y-1919694D1*
X525715Y-1904471D1*
X523211Y-1888663D1*
Y-1872657D1*
X525715Y-1856849D1*
X530661Y-1841626D1*
X532901Y-1836768D1*
X533180Y-1671092D1*
X535438Y-1656833D1*
X539899Y-1643103D1*
X546453Y-1630240D1*
X554939Y-1618561D1*
X642338Y-1530760D1*
X1162900Y-1010199D1*
X1162863Y-291195D1*
X1003299Y-131206D1*
X994814Y-119527D1*
X988259Y-106664D1*
X983798Y-92934D1*
X981540Y-78675D1*
X981256Y45210D1*
Y344989D1*
X976249Y357500D1*
X972512Y373064D1*
X971257Y389020D1*
X972512Y404976D1*
X976249Y420540D1*
X982374Y435327D1*
X990737Y448974D1*
X1001132Y461145D1*
X1013303Y471540D1*
X1026950Y479903D1*
X1041737Y486028D1*
X1057300Y489764D1*
X1073257Y491020D1*
X1089213Y489764D1*
X1104776Y486028D1*
X1119564Y479903D1*
X1133211Y471540D1*
X1142096Y464182D1*
X1152179Y472540D1*
X1165826Y480903D1*
X1180614Y487028D1*
X1196177Y490764D1*
X1212133Y492020D1*
X1228090Y490764D1*
X1243653Y487028D1*
X1258440Y480903D1*
X1272087Y472540D1*
X1284258Y462145D1*
X1294653Y449974D1*
X1303016Y436327D1*
X1309141Y421540D1*
X1312878Y405976D1*
X1314133Y390020D1*
X1312878Y374064D1*
X1309141Y358500D1*
X1304129Y346128D1*
X1304133Y-3274D1*
X1336803Y-35986D1*
X1336658Y894141D1*
X1323325Y876130D1*
X1303870Y856675D1*
X1281611Y840504D1*
X1257097Y828013D1*
X1230931Y819511D1*
X1203756Y815207D1*
X1176244D1*
X1149069Y819511D1*
X1122903Y828013D1*
X1098389Y840504D1*
X1076130Y856675D1*
X1056675Y876130D1*
X1040504Y898389D1*
X1028013Y922903D1*
X1019511Y949069D1*
X1015207Y976244D1*
Y1003756D1*
X1019511Y1030931D1*
X1028013Y1057097D1*
X1040504Y1081611D1*
X1056675Y1103870D1*
X1076130Y1123325D1*
X1094498Y1136897D1*
X1089357Y1138953D1*
X286997Y1139327D1*
X287000Y794000D1*
X-287000D1*
Y1139534D1*
X-1098999Y1139838D1*
X-1086942Y1131848D1*
X-1066021Y1113979D1*
X-1048152Y1093058D1*
X-1033777Y1069600D1*
X-1023248Y1044181D1*
X-1016825Y1017428D1*
X-1014667Y990000D1*
X-1016825Y962572D1*
X-1023248Y935819D1*
X-1033777Y910400D1*
X-1048152Y886942D1*
X-1066021Y866021D1*
X-1086942Y848152D1*
X-1110400Y833777D1*
X-1135819Y823248D1*
X-1162572Y816825D1*
X-1190000Y814667D1*
X-1211714Y816149D1*
X-1207529Y799336D1*
X-1206273Y783380D1*
X-1206407Y779973D1*
X-985726Y779953D1*
Y515953D1*
X-1220687D1*
X-1220726Y364946D1*
X-985726Y364953D1*
Y100953D1*
X-1220687D1*
X-1220726Y-77034D1*
X-1137510Y-77070D1*
Y-551070D1*
X-1197575D1*
X-1197510Y-899343D1*
X-1073708Y-1023081D1*
X-1061286Y-1028421D1*
X-1047639Y-1036784D1*
X-1035468Y-1047178D1*
X-1025074Y-1059349D1*
X-1016711Y-1072996D1*
X-1010586Y-1087784D1*
X-1006849Y-1103347D1*
X-1005593Y-1119303D1*
X-1006849Y-1135260D1*
X-1010586Y-1150823D1*
X-1016711Y-1165610D1*
X-1025074Y-1179257D1*
X-1035468Y-1191428D1*
X-1047639Y-1201823D1*
X-1061286Y-1210186D1*
X-1076074Y-1216311D1*
X-1091637Y-1220048D1*
X-1107593Y-1221303D1*
X-1123550Y-1220048D1*
X-1139113Y-1216311D1*
X-1153900Y-1210186D1*
X-1167547Y-1201823D1*
X-1179718Y-1191428D1*
X-1190113Y-1179257D1*
X-1198476Y-1165610D1*
X-1203681Y-1153318D1*
X-1341654Y-1015489D1*
X-1341293Y-1590371D1*
X-1331848Y-1586942D1*
X-1313979Y-1566021D1*
X-1293058Y-1548152D1*
X-1269600Y-1533777D1*
X-1244181Y-1523248D1*
X-1217428Y-1516825D1*
X-1190000Y-1514667D1*
X-1162572Y-1516825D1*
X-1135819Y-1523248D1*
X-1110400Y-1533777D1*
X-1086942Y-1548152D1*
X-1066021Y-1566021D1*
X-1048152Y-1586942D1*
X-1033777Y-1610400D1*
X-1023248Y-1635819D1*
X-1016825Y-1662572D1*
X-1014667Y-1690000D1*
X-1016825Y-1717428D1*
X-1023248Y-1744181D1*
X-1033777Y-1769600D1*
X-1048152Y-1793058D1*
X-1066021Y-1813979D1*
X-1086942Y-1831848D1*
X-1110400Y-1846223D1*
X-1135819Y-1856752D1*
X-1162572Y-1863175D1*
X-1190000Y-1865333D1*
X-1217428Y-1863175D1*
X-1244181Y-1856752D1*
X-1267207Y-1847326D1*
X-1041413Y-2632328D1*
X-1038374Y-3222810D1*
X-419963Y-3224604D1*
X-426699Y-3207438D1*
X-431672Y-3189454D1*
X-434778Y-3171056D1*
X-435984Y-3152436D1*
X-435277Y-3133791D1*
X-432665Y-3115317D1*
X-428175Y-3097206D1*
X-421854Y-3079651D1*
X-413769Y-3062835D1*
X-404006Y-3046935D1*
X-392665Y-3032119D1*
X-384349Y-3023004D1*
X-401241Y-3002977D1*
X-416163Y-2978626D1*
X-427092Y-2952241D1*
X-433759Y-2924471D1*
X-436000Y-2896000D1*
X-433759Y-2867529D1*
X-427092Y-2839759D1*
X-416163Y-2813374D1*
X-401241Y-2789023D1*
X-382693Y-2767307D1*
X-360977Y-2748759D1*
X-336626Y-2733837D1*
X-310241Y-2722908D1*
X-285701Y-2716883D1*
X-297457Y-2710826D1*
X-309136Y-2702341D1*
X-396936Y-2614941D1*
X-612827Y-2398649D1*
X-621313Y-2386970D1*
X-627867Y-2374107D1*
X-632328Y-2360377D1*
X-634586Y-2346118D1*
X-634870Y-2222233D1*
X-634587Y-1644832D1*
X-632328Y-1630573D1*
X-627867Y-1616843D1*
X-621313Y-1603980D1*
X-612827Y-1592301D1*
X-525428Y-1504500D1*
X-290637Y-1269710D1*
X-291413Y-1257187D1*
X-290158Y-1241230D1*
X-286421Y-1225667D1*
X-280296Y-1210880D1*
X-271933Y-1197233D1*
X-261538Y-1185062D1*
X-249367Y-1174667D1*
X-235720Y-1166304D1*
X-220933Y-1160179D1*
X-205370Y-1156442D1*
X-189413Y-1155187D1*
X-173457Y-1156442D1*
X-157894Y-1160179D1*
X-143106Y-1166304D1*
X-129459Y-1174667D1*
X-117288Y-1185062D1*
X-106894Y-1197233D1*
X-98531Y-1210880D1*
X-92006Y-1227082D1*
X-83713Y-1242683D1*
X-79252Y-1256413D1*
X-76993Y-1270672D1*
Y-1285108D1*
X-79252Y-1299367D1*
X-83713Y-1313097D1*
X-90267Y-1325960D1*
X-98753Y-1337639D1*
X-186152Y-1425440D1*
X-450847Y-1690135D1*
X-450870Y-2108782D1*
X-435519Y-2105254D1*
X-418780Y-2103936D1*
X-411664Y-2104216D1*
X-411320Y-1717385D1*
X-408694Y-1700801D1*
X-403505Y-1684833D1*
X-395883Y-1669873D1*
X-386014Y-1656289D1*
X-374141Y-1644416D1*
X-360557Y-1634547D1*
X-345597Y-1626925D1*
X-329629Y-1621736D1*
X-313045Y-1619110D1*
X-296255D1*
X-279671Y-1621736D1*
X-263703Y-1626925D1*
X-248743Y-1634547D1*
X-235159Y-1644416D1*
X-223286Y-1656289D1*
X-213417Y-1669873D1*
X-205795Y-1684833D1*
X-200606Y-1700801D1*
X-197980Y-1717385D1*
X-197650Y-1819113D1*
Y-2093918D1*
X287000Y-2094000D1*
Y-2306097D1*
X303240Y-2311271D1*
X317502Y-2318537D1*
X330450Y-2327945D1*
X341768Y-2339263D1*
X351176Y-2352212D1*
X358442Y-2366473D1*
X360294Y-2371492D1*
X372120Y-2383312D1*
X389362Y-2383336D1*
X393340Y-2370986D1*
X398814Y-2360214D1*
X405905Y-2350432D1*
X414440Y-2341879D1*
X424208Y-2334766D1*
X434967Y-2329269D1*
X446455Y-2325523D1*
X458387Y-2323620D1*
X539428Y-2323293D1*
X551474Y-2324228D1*
X563248Y-2327045D1*
X567641Y-2327031D1*
X579387Y-2324197D1*
X591455Y-2323237D1*
X672473Y-2323384D1*
X684409Y-2325262D1*
X690252Y-2326905D1*
X694641Y-2326894D1*
X706387Y-2324061D1*
X718455Y-2323101D1*
X799473Y-2323247D1*
X811409Y-2325125D1*
X822904Y-2328846D1*
X828418Y-2331383D1*
X832376Y-2328560D1*
X838501Y-2313773D1*
X846864Y-2300126D1*
X857258Y-2287955D1*
X869429Y-2277560D1*
X883076Y-2269197D1*
X897864Y-2263072D1*
X914887Y-2259163D1*
X902325Y-2246824D1*
X892917Y-2233875D1*
X885651Y-2219614D1*
X883799Y-2214595D1*
X866431Y-2197232D1*
X861910Y-2207901D1*
X855608Y-2218210D1*
X847771Y-2227407D1*
X838592Y-2235264D1*
X828297Y-2241589D1*
X817139Y-2246225D1*
X805393Y-2249059D1*
X793349Y-2250020D1*
X712304Y-2249873D1*
X700368Y-2247995D1*
X694525Y-2246352D1*
X690136Y-2246362D1*
X678390Y-2249195D1*
X666346Y-2250157D1*
X585301Y-2250009D1*
X573365Y-2248132D1*
X567522Y-2246489D1*
X557089Y-2248202D1*
X543250Y-2250190D1*
X459300Y-2250217D1*
X445488Y-2248053D1*
X432295Y-2243427D1*
X420155Y-2236492D1*
X409470Y-2227476D1*
X400591Y-2216677D1*
X393811Y-2204450D1*
X389354Y-2191199D1*
X387366Y-2177345D1*
X387240Y-2018792D1*
X389335Y-2004969D1*
X393895Y-1991753D1*
X400770Y-1979579D1*
X409733Y-1968849D1*
X420488Y-1959917D1*
X432681Y-1953076D1*
X445910Y-1948553D1*
X459757Y-1946497D1*
X-193726Y-2724395D2*
X-171374Y-2733837D1*
X-147023Y-2748759D1*
X-127069Y-2765677D1*
X-106977Y-2748759D1*
X-82626Y-2733837D1*
X-60274Y-2724395D1*
X-193459Y-2724383D1*
X60274Y-2724395D2*
X82626Y-2733837D1*
X106977Y-2748759D1*
X126931Y-2765677D1*
X147023Y-2748759D1*
X161292Y-2739483D1*
X146216Y-2724367D1*
X60655Y-2724383D1*
X-287000Y-2464732D2*
Y-2321268D1*
X-427208Y-2320936D1*
X-428319Y-2323344D1*
X-286980Y-2464682D1*
X501683Y-1946308D2*
D10*
Y-2250359D1*
X387121Y-2098333D2*
X501683D1*
X-435909Y-3150000D2*
X-254000D1*
X-1097727Y364862D2*
Y101044D1*
Y232953D2*
X-985818D1*
D54*
X502090Y-2475337D3*
X629093Y-2475197D3*
X756093Y-2475060D3*
X501683Y-2098333D3*
X628680Y-2098197D3*
X755683Y-2098060D3*
D24*
X-1289510Y-409070D3*
Y-219070D3*
D27*
X-254000Y-3150000D3*
X0D3*
X254000D3*
X-254000Y-2896000D3*
X0D3*
X254000D3*
D28*
X0Y1031000D3*
Y-2331000D3*
D29*
X-1097727Y232953D3*
X-1312727D3*
X-1097727Y647953D3*
X-1312727D3*
G04 Bottom Clear*
%LPC*%
D19*
X-1308273Y783380D3*
X1212133Y390020D3*
X1073257Y389020D3*
X1108917Y-312217D3*
X-1106547Y-884310D3*
X-1107593Y-1119303D3*
X-189413Y-1257187D3*
X-304650Y-1725780D3*
X762763Y-1876577D3*
X506357Y-1878090D3*
X624897Y-1880660D3*
X979887Y-2180580D3*
X-418780Y-2210937D3*
X929383Y-2360080D3*
X264207Y-2405507D3*
D15*
X570Y3092D3*
X-103481D3*
X112054Y5569D3*
X3048Y-108392D3*
Y117053D3*
D31*
X-254000Y-3150000D3*
X0D3*
X254000D3*
X-254000Y-2896000D3*
X0D3*
X254000D3*
M02*
