G04 DipTrace 3.2.0.1*
G04 Нижний.gbr*
%MOIN*%
G04 #@! TF.FileFunction,Copper,L2,Bot*
G04 #@! TF.Part,Single*
%AMOUTLINE0*
4,1,4,
-0.014795,0.029512,
0.014732,0.029545,
0.014795,-0.029512,
-0.014732,-0.029545,
-0.014795,0.029512,
0*%
%ADD15C,0.011811*%
%ADD31C,0.035433*%
G04 #@! TA.AperFunction,CopperBalancing*
%ADD10C,0.009843*%
G04 #@! TA.AperFunction,ViaPad*
%ADD16C,0.023622*%
G04 #@! TA.AperFunction,CopperBalancing*
%ADD17C,0.019685*%
%ADD24R,0.059055X0.051181*%
G04 #@! TA.AperFunction,ComponentPad*
%ADD27C,0.082677*%
%ADD28R,0.165354X0.125984*%
%ADD29R,0.027559X0.043307*%
%ADD53OUTLINE0*%
%FSLAX26Y26*%
G04*
G70*
G90*
G75*
G01*
G04 Bottom*
%LPD*%
X-100000Y-1240157D2*
D16*
Y-1158480D1*
X-120009Y-1138471D1*
X-189625D1*
X-383097Y-944999D1*
Y-393235D1*
X-390567D1*
X-435648Y-348154D1*
X-383097Y-393235D2*
X-327941D1*
X-60631Y-125925D1*
X-1371D1*
Y-42675D1*
Y1218D1*
Y46084D1*
Y389512D1*
X-432176Y91714D2*
D15*
Y-344681D1*
X-435648Y-348154D1*
X199353Y-739406D2*
Y-128399D1*
X-60631D1*
Y-125925D1*
X436581Y-122920D2*
X440906Y-127244D1*
X-52D1*
X-1371Y-125925D1*
X197513Y-826115D2*
Y-823741D1*
X198434Y-824663D1*
Y-740324D1*
X199353Y-739406D1*
X224Y1218D2*
D16*
X-1371D1*
X1199Y-42675D2*
X-1371D1*
X1199Y46084D2*
X-1371D1*
X-164874Y-870448D2*
Y-871760D1*
X-45957D1*
D15*
X0Y-917717D1*
X-119941Y-679441D2*
D16*
Y-864504D1*
D15*
X0D1*
Y-917717D1*
X-507681Y-161051D2*
Y-369050D1*
X-436060Y-440671D1*
X104018Y-947050D2*
X29333D1*
X0Y-917717D1*
X197673Y-974542D2*
X131510D1*
X104018Y-947050D1*
X0Y-1140157D2*
Y-1240157D1*
X100000D2*
Y-1063797D1*
X72575Y-1036371D1*
X-98184D1*
X-213728Y-920827D1*
Y-650413D1*
X-74572Y-511257D1*
Y-494955D1*
X297513Y-826008D2*
X353294D1*
X385782Y-858496D1*
X297675Y-974433D2*
X354625D1*
X369096Y-959962D1*
Y-929165D1*
X365899D1*
X422542Y153157D2*
Y-28133D1*
X494041Y-99631D1*
Y-412734D1*
X246022Y-660752D1*
Y-740417D1*
X247512D1*
Y-826062D1*
X477218Y153551D2*
Y-16308D1*
X524012Y-63102D1*
Y-437193D1*
X300301Y-660904D1*
Y-738810D1*
Y-741580D1*
X312896Y-754176D1*
X339196D1*
X421151Y-836131D1*
Y-975455D1*
X353698Y-1042908D1*
X260858D1*
X246112Y-1028161D1*
Y-976050D1*
X247675Y-974487D1*
X-516822Y255100D2*
Y91714D1*
Y-77108D1*
X-507681Y-86248D1*
X-516822Y255100D2*
Y308417D1*
X-515068D1*
D16*
D3*
X477218Y153551D3*
X422542Y153157D3*
X436581Y-122920D3*
X-435648Y-348154D3*
X-436060Y-440671D3*
X-74572Y-494955D3*
X-119941Y-679441D3*
X300301Y-738810D3*
X199353Y-739406D3*
X246022Y-740417D3*
X385782Y-858496D3*
X-164874Y-870448D3*
X365899Y-929165D3*
X104018Y-947050D3*
X224Y1218D3*
X-40740D3*
X44115Y2193D3*
X1199Y-42675D3*
Y46084D3*
X-409920Y429253D2*
D17*
X-114977D1*
X114958D2*
X409901D1*
X-400446Y409699D2*
X-114977D1*
X114958D2*
X400463D1*
X-397504Y390146D2*
X-114977D1*
X114958D2*
X397521D1*
X-400231Y370592D2*
X-114977D1*
X114958D2*
X400212D1*
X-409381Y351038D2*
X-114977D1*
X114958D2*
X409398D1*
X-429548Y331484D2*
X-114977D1*
X114958D2*
X429529D1*
X507460D2*
X524335D1*
X-471138Y311930D2*
X524335D1*
X-386128Y292377D2*
X524335D1*
X-386128Y272823D2*
X524335D1*
X-386128Y253269D2*
X524335D1*
X-386128Y233715D2*
X524335D1*
X-386128Y214161D2*
X524335D1*
X-478638Y194608D2*
X413059D1*
X432031D2*
X465808D1*
X488620D2*
X524335D1*
X-478638Y175054D2*
X384602D1*
X515426D2*
X524308D1*
X-478638Y155500D2*
X378502D1*
X-386128Y135946D2*
X382126D1*
X517471D2*
X524329D1*
X-386128Y116392D2*
X384351D1*
X515390D2*
X524305D1*
X-386128Y96839D2*
X384351D1*
X515390D2*
X524305D1*
X-386128Y77285D2*
X384351D1*
X515390D2*
X524305D1*
X-386128Y57731D2*
X384351D1*
X515390D2*
X524305D1*
X-478638Y38177D2*
X384351D1*
X515390D2*
X524305D1*
X-478638Y18623D2*
X384351D1*
X515390D2*
X524305D1*
X-478638Y-930D2*
X384351D1*
X515390D2*
X524305D1*
X-478638Y-20484D2*
X384351D1*
X-445876Y-40038D2*
X386361D1*
X-445876Y-59592D2*
X400822D1*
X-445876Y-79146D2*
X420379D1*
X-445876Y-98699D2*
X439900D1*
X-445876Y-118253D2*
X455868D1*
X-445876Y-137807D2*
X455868D1*
X-445876Y-157361D2*
X455868D1*
X-445876Y-176915D2*
X455868D1*
X-445876Y-196469D2*
X455868D1*
X-445876Y-216022D2*
X455868D1*
X-469487Y-235576D2*
X455868D1*
X-469487Y-255130D2*
X455868D1*
X-469487Y-274684D2*
X455868D1*
X-469487Y-294238D2*
X455868D1*
X-469487Y-313791D2*
X455868D1*
X-469487Y-333345D2*
X455868D1*
X-469487Y-352899D2*
X455868D1*
X-451079Y-372453D2*
X455868D1*
X-431522Y-392007D2*
X455868D1*
X-526220Y-411560D2*
X-518383D1*
X-403640D2*
X442017D1*
X-526220Y-431114D2*
X-498795D1*
X-393054D2*
X422460D1*
X-526220Y-450668D2*
X-479238D1*
X-393162D2*
X402903D1*
X-526184Y-470222D2*
X-468042D1*
X-404071D2*
X-110635D1*
X-38518D2*
X383346D1*
X-526184Y-489776D2*
X-118350D1*
X-30803D2*
X363790D1*
X-526184Y-509329D2*
X-125850D1*
X-32992D2*
X344269D1*
X505055D2*
X524335D1*
X-526149Y-528883D2*
X-145407D1*
X-40958D2*
X324712D1*
X485498D2*
X524335D1*
X-526149Y-548437D2*
X-164928D1*
X-58578D2*
X305155D1*
X465977D2*
X524335D1*
X-526149Y-567991D2*
X-184485D1*
X-78099D2*
X285598D1*
X446421D2*
X524335D1*
X-526113Y-587545D2*
X-204042D1*
X-97655D2*
X266041D1*
X426864D2*
X524335D1*
X-526113Y-607098D2*
X-507514D1*
X-429512D2*
X-223599D1*
X-117212D2*
X246484D1*
X407307D2*
X429493D1*
X507495D2*
X524335D1*
X-409381Y-626652D2*
X-243048D1*
X-136769D2*
X226927D1*
X387750D2*
X409362D1*
X-400231Y-646206D2*
X-251660D1*
X-156326D2*
X-147802D1*
X-92093D2*
X210887D1*
X368193D2*
X400212D1*
X-397504Y-665760D2*
X-251911D1*
X-175524D2*
X-161734D1*
X-78134D2*
X207837D1*
X348636D2*
X397521D1*
X-400446Y-685314D2*
X-251911D1*
X-175524D2*
X-164046D1*
X-75838D2*
X207837D1*
X338481D2*
X400463D1*
X-409920Y-704867D2*
X-251911D1*
X-175524D2*
X-164046D1*
X-75838D2*
X207837D1*
X338481D2*
X409937D1*
X-430804Y-724421D2*
X-251911D1*
X-175524D2*
X-164046D1*
X-75838D2*
X205074D1*
X361806D2*
X430821D1*
X-492130Y-743975D2*
X-251911D1*
X-175524D2*
X-164046D1*
X-75838D2*
X202095D1*
X382188D2*
X489384D1*
X-486496Y-763529D2*
X-251911D1*
X-175524D2*
X-164046D1*
X-75838D2*
X208842D1*
X401745D2*
X483715D1*
X-480863Y-783083D2*
X-251911D1*
X-175524D2*
X-164046D1*
X-75838D2*
X153616D1*
X421302D2*
X478009D1*
X-475229Y-802636D2*
X-251911D1*
X-175524D2*
X-164046D1*
X-75838D2*
X150458D1*
X440859D2*
X472339D1*
X-469595Y-822190D2*
X-251911D1*
X-175524D2*
X-164046D1*
X-75838D2*
X150458D1*
X456540D2*
X466683D1*
X-463925Y-841744D2*
X-251911D1*
X114958D2*
X150494D1*
X-458292Y-861298D2*
X-251911D1*
X114958D2*
X151032D1*
X-452658Y-880852D2*
X-251911D1*
X114958D2*
X163951D1*
X330945D2*
X348108D1*
X-447024Y-900406D2*
X-251911D1*
X114958D2*
X333144D1*
X-441390Y-919959D2*
X-251911D1*
X-161422D2*
X-114977D1*
X138247D2*
X163879D1*
X-435756Y-939513D2*
X-246708D1*
X-141865D2*
X-114977D1*
X-430122Y-959067D2*
X-228694D1*
X-122308D2*
X-114992D1*
X-424489Y-978621D2*
X-209137D1*
X-418855Y-998175D2*
X-189580D1*
X-413221Y-1017728D2*
X-170024D1*
X107136D2*
X153903D1*
X-408018Y-1037282D2*
X-150467D1*
X126692D2*
X209093D1*
X-407910Y-1056836D2*
X-130910D1*
X137530D2*
X221581D1*
X392953D2*
X404570D1*
X-407802Y-1076390D2*
X-134642D1*
X-65360D2*
X-34633D1*
X34650D2*
X59384D1*
X138175D2*
X245085D1*
X369485D2*
X404590D1*
X-407695Y-1095944D2*
X-158361D1*
X158342D2*
X404590D1*
X-407623Y-1115497D2*
X-169234D1*
X169251D2*
X404590D1*
X-407515Y-1135051D2*
X-173433D1*
X173450D2*
X404590D1*
X-407408Y-1154605D2*
X-172141D1*
X172158D2*
X404590D1*
X-407300Y-1174159D2*
X-165036D1*
X165053D2*
X404590D1*
X-407228Y-1193713D2*
X-156531D1*
X156548D2*
X404590D1*
X-407121Y-1213266D2*
X-168373D1*
X168390D2*
X404590D1*
X-407013Y-1232820D2*
X-173253D1*
X173234D2*
X404590D1*
X-406905Y-1252374D2*
X-172571D1*
X172588D2*
X404590D1*
X-524526Y349454D2*
X-527619Y354158D1*
X-527924Y348563D1*
X-524535Y349452D1*
X495824Y-728712D2*
X489835Y-731005D1*
X479302Y-733533D1*
X468504Y-734383D1*
X457705Y-733533D1*
X447173Y-731005D1*
X437165Y-726860D1*
X427930Y-721200D1*
X419693Y-714165D1*
X412658Y-705928D1*
X406999Y-696693D1*
X402854Y-686685D1*
X400325Y-676153D1*
X399475Y-665354D1*
X400325Y-654556D1*
X402854Y-644023D1*
X406999Y-634016D1*
X412658Y-624780D1*
X419693Y-616544D1*
X427930Y-609509D1*
X437165Y-603849D1*
X447173Y-599704D1*
X457705Y-597175D1*
X468504Y-596325D1*
X479302Y-597175D1*
X489835Y-599704D1*
X499842Y-603849D1*
X509078Y-609509D1*
X517315Y-616544D1*
X524349Y-624780D1*
X525538Y-626558D1*
X526286Y-616143D1*
Y-486135D1*
X336508Y-675920D1*
X336521Y-717278D1*
X339196Y-717955D1*
X344862Y-718401D1*
X350388Y-719728D1*
X355639Y-721903D1*
X360485Y-724873D1*
X364807Y-728564D1*
X448693Y-812608D1*
X452034Y-817206D1*
X454614Y-822270D1*
X456371Y-827676D1*
X457260Y-833289D1*
X457371Y-860855D1*
X495786Y-728790D1*
X210457Y-1034371D2*
X180595Y-1034311D1*
X175895Y-1033572D1*
X171370Y-1032106D1*
X167129Y-1029951D1*
X163278Y-1027159D1*
X159910Y-1023799D1*
X157110Y-1019954D1*
X154946Y-1015718D1*
X153469Y-1011186D1*
X151741Y-1010763D1*
X128669Y-1010651D1*
X123055Y-1009762D1*
X117649Y-1008005D1*
X115057Y-1006809D1*
X112992Y-1008137D1*
Y-1011024D1*
X98459D1*
X127542Y-1040273D1*
X130883Y-1044871D1*
X133463Y-1049936D1*
X135220Y-1055341D1*
X136109Y-1060955D1*
X136220Y-1078330D1*
X142117Y-1082189D1*
X150667Y-1089491D1*
X157969Y-1098041D1*
X163844Y-1107627D1*
X168147Y-1118015D1*
X170771Y-1128948D1*
X171654Y-1140157D1*
X170771Y-1151367D1*
X168147Y-1162300D1*
X163844Y-1172688D1*
X157969Y-1182274D1*
X151308Y-1190130D1*
X157969Y-1198041D1*
X163844Y-1207627D1*
X168147Y-1218015D1*
X170771Y-1228948D1*
X171654Y-1240157D1*
X170771Y-1251367D1*
X168147Y-1262300D1*
X164865Y-1270472D1*
X406580Y-1271188D1*
X406550Y-1041296D1*
X377222Y-1070450D1*
X372623Y-1073791D1*
X367559Y-1076372D1*
X362154Y-1078128D1*
X356540Y-1079017D1*
X307766Y-1079129D1*
X258016Y-1079017D1*
X252403Y-1078128D1*
X246997Y-1076372D1*
X241933Y-1073791D1*
X237335Y-1070450D1*
X220500Y-1053773D1*
X216808Y-1049451D1*
X213839Y-1044605D1*
X211664Y-1039354D1*
X210890Y-1036606D1*
X182720Y-766289D2*
X211298Y-766257D1*
X210104Y-762428D1*
X207103Y-756538D1*
X205060Y-750251D1*
X204026Y-743722D1*
Y-737112D1*
X205060Y-730583D1*
X207103Y-724296D1*
X209807Y-718936D1*
X209913Y-657910D1*
X210802Y-652296D1*
X212559Y-646891D1*
X215139Y-641827D1*
X218480Y-637229D1*
X252889Y-602661D1*
X457835Y-397716D1*
X457820Y-114644D1*
X395000Y-51656D1*
X391659Y-47058D1*
X389079Y-41994D1*
X387322Y-36588D1*
X386433Y-30974D1*
X386321Y17799D1*
Y131660D1*
X383623Y137037D1*
X381580Y143323D1*
X380546Y149852D1*
Y156463D1*
X381580Y162992D1*
X383623Y169278D1*
X386624Y175168D1*
X390509Y180516D1*
X395183Y185190D1*
X400531Y189076D1*
X406421Y192077D1*
X412708Y194120D1*
X419237Y195154D1*
X425847D1*
X432376Y194120D1*
X438663Y192077D1*
X444553Y189076D1*
X449647Y185390D1*
X455207Y189469D1*
X461097Y192471D1*
X467384Y194513D1*
X473913Y195547D1*
X480523D1*
X487052Y194513D1*
X493339Y192471D1*
X499229Y189469D1*
X504576Y185584D1*
X509251Y180910D1*
X513136Y175562D1*
X516137Y169672D1*
X518180Y163385D1*
X519214Y156856D1*
Y150246D1*
X518180Y143717D1*
X516137Y137430D1*
X513433Y132070D1*
X513438Y-1289D1*
X526301Y-14168D1*
X526243Y352024D1*
X520994Y344933D1*
X513335Y337274D1*
X504571Y330907D1*
X494920Y325989D1*
X484618Y322642D1*
X473920Y320948D1*
X463088D1*
X452389Y322642D1*
X442088Y325989D1*
X432436Y330907D1*
X423673Y337274D1*
X416014Y344933D1*
X409647Y353696D1*
X404730Y363348D1*
X401382Y373649D1*
X399688Y384348D1*
Y395180D1*
X401382Y405878D1*
X404730Y416180D1*
X409647Y425831D1*
X416014Y434594D1*
X423673Y442254D1*
X430905Y447597D1*
X428881Y448407D1*
X112992Y448554D1*
Y312598D1*
X-112992D1*
Y448635D1*
X-432677Y448755D1*
X-427930Y445609D1*
X-419693Y438575D1*
X-412658Y430338D1*
X-406999Y421102D1*
X-402854Y411095D1*
X-400325Y400562D1*
X-399475Y389764D1*
X-400325Y378965D1*
X-402854Y368433D1*
X-406999Y358425D1*
X-412658Y349190D1*
X-419693Y340953D1*
X-427930Y333918D1*
X-437165Y328259D1*
X-447173Y324113D1*
X-457705Y321585D1*
X-468504Y320735D1*
X-474866Y321060D1*
X-473461Y315007D1*
X-472942Y308417D1*
X-472996Y307062D1*
X-388081Y307068D1*
Y203131D1*
X-480586D1*
X-480601Y143679D1*
X-388081Y143682D1*
Y39745D1*
X-480586D1*
X-480601Y-30328D1*
X-447839Y-30343D1*
Y-216957D1*
X-471486D1*
X-471461Y-354072D1*
X-425663Y-399844D1*
X-419939Y-401751D1*
X-414050Y-404752D1*
X-408702Y-408638D1*
X-404028Y-413312D1*
X-400142Y-418660D1*
X-397141Y-424550D1*
X-395098Y-430836D1*
X-394064Y-437365D1*
Y-443976D1*
X-395098Y-450505D1*
X-397141Y-456792D1*
X-400142Y-462681D1*
X-404028Y-468029D1*
X-408702Y-472703D1*
X-414050Y-476589D1*
X-419939Y-479590D1*
X-426226Y-481633D1*
X-432755Y-482667D1*
X-439366D1*
X-445894Y-481633D1*
X-452181Y-479590D1*
X-458071Y-476589D1*
X-463419Y-472703D1*
X-468093Y-468029D1*
X-471979Y-462681D1*
X-474980Y-456792D1*
X-476858Y-451089D1*
X-528210Y-399799D1*
X-528068Y-626131D1*
X-524349Y-624780D1*
X-517315Y-616544D1*
X-509078Y-609509D1*
X-499842Y-603849D1*
X-489835Y-599704D1*
X-479302Y-597175D1*
X-468504Y-596325D1*
X-457705Y-597175D1*
X-447173Y-599704D1*
X-437165Y-603849D1*
X-427930Y-609509D1*
X-419693Y-616544D1*
X-412658Y-624780D1*
X-406999Y-634016D1*
X-402854Y-644023D1*
X-400325Y-654556D1*
X-399475Y-665354D1*
X-400325Y-676153D1*
X-402854Y-686685D1*
X-406999Y-696693D1*
X-412658Y-705928D1*
X-419693Y-714165D1*
X-427930Y-721200D1*
X-437165Y-726860D1*
X-447173Y-731005D1*
X-457705Y-733533D1*
X-468504Y-734383D1*
X-479302Y-733533D1*
X-489835Y-731005D1*
X-498900Y-727294D1*
X-410005Y-1036349D1*
X-408809Y-1268823D1*
X-165340Y-1269529D1*
X-167992Y-1262771D1*
X-169950Y-1255691D1*
X-171172Y-1248447D1*
X-171647Y-1241117D1*
X-171369Y-1233776D1*
X-170340Y-1226503D1*
X-168573Y-1219373D1*
X-166084Y-1212461D1*
X-162901Y-1205841D1*
X-159057Y-1199581D1*
X-154593Y-1193748D1*
X-151319Y-1190159D1*
X-157969Y-1182274D1*
X-163844Y-1172688D1*
X-168147Y-1162300D1*
X-170771Y-1151367D1*
X-171654Y-1140157D1*
X-170771Y-1128948D1*
X-168147Y-1118015D1*
X-163844Y-1107627D1*
X-157969Y-1098041D1*
X-150667Y-1089491D1*
X-142117Y-1082189D1*
X-132530Y-1076314D1*
X-122142Y-1072011D1*
X-112481Y-1069639D1*
X-117109Y-1067254D1*
X-121707Y-1063914D1*
X-156274Y-1029504D1*
X-241271Y-944350D1*
X-244611Y-939752D1*
X-247192Y-934688D1*
X-248948Y-929282D1*
X-249837Y-923669D1*
X-249949Y-874895D1*
X-249837Y-647572D1*
X-248948Y-641958D1*
X-247192Y-636552D1*
X-244611Y-631488D1*
X-241271Y-626890D1*
X-206861Y-592323D1*
X-116180Y-501545D1*
X-116698Y-494955D1*
X-116180Y-488365D1*
X-114636Y-481938D1*
X-112107Y-475831D1*
X-108653Y-470194D1*
X-104360Y-465168D1*
X-99333Y-460875D1*
X-93697Y-457421D1*
X-87590Y-454891D1*
X-81162Y-453348D1*
X-74572Y-452829D1*
X-67982Y-453348D1*
X-61555Y-454891D1*
X-55447Y-457421D1*
X-49811Y-460875D1*
X-44785Y-465168D1*
X-40492Y-470194D1*
X-37038Y-475831D1*
X-34508Y-481938D1*
X-32965Y-488365D1*
X-32446Y-494955D1*
X-32965Y-501545D1*
X-34508Y-507973D1*
X-37038Y-514080D1*
X-38848Y-517256D1*
X-40124Y-522450D1*
X-42299Y-527701D1*
X-45269Y-532547D1*
X-48969Y-536877D1*
X-177530Y-665439D1*
X-177508Y-830229D1*
X-171464Y-828840D1*
X-164861Y-828322D1*
X-162067Y-827759D1*
X-161937Y-676136D1*
X-160903Y-669607D1*
X-158860Y-663320D1*
X-155859Y-657430D1*
X-151974Y-652082D1*
X-147300Y-647408D1*
X-141952Y-643523D1*
X-136062Y-640522D1*
X-129775Y-638479D1*
X-123246Y-637445D1*
X-116636D1*
X-110107Y-638479D1*
X-103820Y-640522D1*
X-97930Y-643523D1*
X-92582Y-647408D1*
X-87908Y-652082D1*
X-84023Y-657430D1*
X-81022Y-663320D1*
X-78979Y-669607D1*
X-77945Y-676136D1*
X-77815Y-716186D1*
Y-824377D1*
X112992Y-824410D1*
Y-905902D1*
X120139Y-908131D1*
X126029Y-911132D1*
X131377Y-915017D1*
X136051Y-919691D1*
X139937Y-925039D1*
X142938Y-930929D1*
X144816Y-936631D1*
X149883Y-938321D1*
X153292D1*
X154858Y-933459D1*
X157013Y-929218D1*
X159805Y-925367D1*
X163165Y-921999D1*
X167011Y-919199D1*
X171247Y-917035D1*
X175770Y-915560D1*
X180467Y-914811D1*
X212373Y-914682D1*
X217116Y-915051D1*
X221751Y-916159D1*
X223481Y-916154D1*
X228105Y-915038D1*
X232856Y-914660D1*
X264753Y-914718D1*
X269452Y-915457D1*
X271753Y-916104D1*
X273481Y-916100D1*
X278105Y-914984D1*
X282856Y-914607D1*
X314753Y-914664D1*
X319452Y-915403D1*
X323986Y-916872D1*
X325835Y-916148D1*
X328364Y-910041D1*
X331818Y-904404D1*
X336111Y-899378D1*
X341138Y-895085D1*
X346774Y-891631D1*
X352881Y-889101D1*
X355953Y-888235D1*
X351702Y-883257D1*
X348248Y-877621D1*
X345718Y-871514D1*
X344985Y-868915D1*
X340329Y-867090D1*
X338174Y-871331D1*
X335382Y-875182D1*
X332022Y-878550D1*
X328177Y-881350D1*
X323941Y-883514D1*
X319418Y-884989D1*
X314720Y-885739D1*
X282813Y-885868D1*
X278070Y-885499D1*
X273435Y-884391D1*
X271707Y-884394D1*
X267083Y-885510D1*
X262341Y-885889D1*
X230433Y-885830D1*
X225734Y-885091D1*
X223434Y-884444D1*
X219326Y-885119D1*
X213878Y-885902D1*
X180827Y-885912D1*
X175389Y-885060D1*
X170195Y-883239D1*
X165416Y-880509D1*
X161209Y-876959D1*
X157713Y-872707D1*
X155044Y-867894D1*
X153289Y-862677D1*
X152506Y-857222D1*
X152457Y-794800D1*
X153282Y-789358D1*
X155077Y-784155D1*
X157784Y-779362D1*
X161312Y-775137D1*
X165547Y-771621D1*
X170347Y-768928D1*
X175555Y-767147D1*
X181007Y-766337D1*
X-76270Y-1072597D2*
X-67470Y-1076314D1*
X-57883Y-1082189D1*
X-50027Y-1088849D1*
X-42117Y-1082189D1*
X-32530Y-1076314D1*
X-23730Y-1072597D1*
X-76165Y-1072592D1*
X23730Y-1072597D2*
X32530Y-1076314D1*
X42117Y-1082189D1*
X49973Y-1088849D1*
X57883Y-1082189D1*
X63501Y-1078537D1*
X57565Y-1072585D1*
X23880Y-1072592D1*
X-112992Y-970367D2*
Y-913885D1*
X-168192Y-913755D1*
X-168629Y-914702D1*
X-112984Y-970347D1*
X197513Y-766263D2*
D10*
Y-885968D1*
X152410Y-826115D2*
X197513D1*
X-171618Y-1240157D2*
X-100000D1*
X-432176Y143646D2*
Y39781D1*
Y91714D2*
X-388117D1*
D53*
X197673Y-974542D3*
X247675Y-974487D3*
X297675Y-974433D3*
X197513Y-826115D3*
X247512Y-826062D3*
X297513Y-826008D3*
D24*
X-507681Y-161051D3*
Y-86248D3*
D27*
X-100000Y-1240157D3*
X0D3*
X100000D3*
X-100000Y-1140157D3*
X0D3*
X100000D3*
D28*
X0Y405906D3*
Y-917717D3*
D29*
X-432176Y91714D3*
X-516822D3*
X-432176Y255100D3*
X-516822D3*
G04 Bottom Clear*
%LPC*%
D15*
X-515068Y308417D3*
X477218Y153551D3*
X422542Y153157D3*
X436581Y-122920D3*
X-435648Y-348154D3*
X-436060Y-440671D3*
X-74572Y-494955D3*
X-119941Y-679441D3*
X300301Y-738810D3*
X199353Y-739406D3*
X246022Y-740417D3*
X385782Y-858496D3*
X-164874Y-870448D3*
X365899Y-929165D3*
X104018Y-947050D3*
X224Y1218D3*
X-40740D3*
X44115Y2193D3*
X1199Y-42675D3*
Y46084D3*
D31*
X-100000Y-1240157D3*
X0D3*
X100000D3*
X-100000Y-1140157D3*
X0D3*
X100000D3*
M02*
