G04 DipTrace 3.2.0.1*
G04 Нижняямаркировка.gbr*
%MOMM*%
G04 #@! TF.FileFunction,Legend,Bot*
G04 #@! TF.Part,Single*
%ADD10C,0.25*%
%ADD14C,0.05*%
%ADD19C,0.2*%
%ADD53C,0.15686*%
%FSLAX35Y35*%
G04*
G71*
G90*
G75*
G01*
G04 BotSilk*
%LPD*%
X494633Y-2588325D2*
D10*
X431713Y-2588382D1*
X430223Y-2587873D2*
X430187Y-2524948D1*
X800000Y693194D2*
X-800000D1*
Y-1996876D1*
X800000D1*
Y693194D1*
X360000Y992908D2*
Y692825D1*
X-360000Y992908D2*
Y692825D1*
X360000Y992908D2*
X-360000D1*
X360000Y-1992825D2*
Y-2292908D1*
X-360000Y-1992825D2*
Y-2292908D1*
X360000D2*
X-360000D1*
X-1385727Y-132467D2*
D19*
X-1194290D1*
Y-489673D1*
X-1385727D1*
Y-132467D1*
X862606Y-2234935D2*
D14*
X897606D1*
X910106D2*
X920106D1*
X950106D2*
X957606D1*
X987606D2*
X997606D1*
X1022606D2*
X1042606D1*
X858192Y-2237435D2*
X897606D1*
X910960D2*
X920201D1*
X950011D2*
X957992D1*
X987511D2*
X996751D1*
X1018212D2*
X1047019D1*
X854560Y-2239935D2*
X897606D1*
X911714D2*
X920521D1*
X949690D2*
X958612D1*
X987190D2*
X996007D1*
X1014288D2*
X1050651D1*
X851910Y-2242435D2*
X897606D1*
X912276D2*
X921121D1*
X949081D2*
X959269D1*
X986591D2*
X995523D1*
X1012262D2*
X1053291D1*
X849974Y-2244935D2*
X865607D1*
X887606D2*
X897606D1*
X912840D2*
X921771D1*
X948352D2*
X959795D1*
X985940D2*
X995191D1*
X1011976D2*
X1025106D1*
X1039605D2*
X1055140D1*
X848431Y-2247435D2*
X861742D1*
X887606D2*
X897606D1*
X913549D2*
X922295D1*
X947597D2*
X960346D1*
X985416D2*
X994762D1*
X1012606D2*
X1017606D1*
X1043469D2*
X1056365D1*
X847150Y-2249935D2*
X858821D1*
X887606D2*
X897606D1*
X914245D2*
X922846D1*
X946767D2*
X961051D1*
X984866D2*
X994118D1*
X1046380D2*
X1057047D1*
X846181Y-2252435D2*
X856602D1*
X887606D2*
X897606D1*
X914786D2*
X923551D1*
X946010D2*
X961745D1*
X984161D2*
X993450D1*
X1048570D2*
X1057375D1*
X845603Y-2254935D2*
X855829D1*
X887606D2*
X897606D1*
X915343D2*
X924245D1*
X945442D2*
X962286D1*
X983476D2*
X992919D1*
X1049213D2*
X1057517D1*
X845315Y-2257435D2*
X855412D1*
X887606D2*
X897606D1*
X916050D2*
X924786D1*
X944875D2*
X962843D1*
X983013D2*
X992367D1*
X1048851D2*
X1057563D1*
X845187Y-2259935D2*
X855225D1*
X887606D2*
X897606D1*
X916745D2*
X925343D1*
X944164D2*
X963550D1*
X982687D2*
X991661D1*
X1047550D2*
X1057487D1*
X845136Y-2262435D2*
X855150D1*
X887606D2*
X897606D1*
X917286D2*
X926050D1*
X943467D2*
X950096D1*
X954624D2*
X964245D1*
X982261D2*
X990966D1*
X1043890D2*
X1057078D1*
X845116Y-2264935D2*
X855121D1*
X887606D2*
X897606D1*
X917843D2*
X926735D1*
X942926D2*
X950008D1*
X956174D2*
X964786D1*
X981617D2*
X990426D1*
X1038139D2*
X1056056D1*
X845109Y-2267435D2*
X855111D1*
X887606D2*
X897606D1*
X918550D2*
X927198D1*
X942369D2*
X949690D1*
X957330D2*
X965343D1*
X980949D2*
X989869D1*
X1030855D2*
X1054274D1*
X845107Y-2269935D2*
X855107D1*
X887606D2*
X897606D1*
X919245D2*
X927524D1*
X941662D2*
X949091D1*
X958335D2*
X966050D1*
X980419D2*
X989162D1*
X1023793D2*
X1051483D1*
X845106Y-2272435D2*
X855106D1*
X887606D2*
X897606D1*
X919786D2*
X927951D1*
X940967D2*
X948440D1*
X959161D2*
X966745D1*
X979867D2*
X988467D1*
X1018247D2*
X1047012D1*
X845106Y-2274935D2*
X855106D1*
X887606D2*
X897606D1*
X920343D2*
X928594D1*
X940426D2*
X947916D1*
X959755D2*
X967286D1*
X979161D2*
X987926D1*
X1014370D2*
X1040513D1*
X845106Y-2277435D2*
X855106D1*
X887606D2*
X897606D1*
X921050D2*
X929262D1*
X939869D2*
X947366D1*
X960332D2*
X967843D1*
X978476D2*
X987369D1*
X1011769D2*
X1033012D1*
X845106Y-2279935D2*
X855106D1*
X887606D2*
X897606D1*
X921745D2*
X929792D1*
X939162D2*
X946651D1*
X961046D2*
X968569D1*
X978004D2*
X986662D1*
X1009991D2*
X1026352D1*
X845106Y-2282435D2*
X855106D1*
X887606D2*
X897606D1*
X922286D2*
X930355D1*
X938467D2*
X945878D1*
X961744D2*
X969445D1*
X977575D2*
X985967D1*
X1008811D2*
X1021579D1*
X845116Y-2284935D2*
X855116D1*
X887606D2*
X897606D1*
X922843D2*
X931156D1*
X937918D2*
X945107D1*
X962286D2*
X970673D1*
X976987D2*
X985426D1*
X1008150D2*
X1018109D1*
X845203Y-2287435D2*
X855213D1*
X887606D2*
X897606D1*
X923550D2*
X932234D1*
X937293D2*
X944270D1*
X962842D2*
X972633D1*
X975012D2*
X984869D1*
X1007831D2*
X1016706D1*
X845532Y-2289935D2*
X855639D1*
X887606D2*
X897606D1*
X924235D2*
X933579D1*
X936326D2*
X943511D1*
X963559D2*
X984162D1*
X1007703D2*
X1016615D1*
X846218Y-2292435D2*
X856449D1*
X887606D2*
X897606D1*
X924698D2*
X942943D1*
X964333D2*
X983467D1*
X1007745D2*
X1017430D1*
X847188Y-2294935D2*
X858784D1*
X887606D2*
X897606D1*
X925024D2*
X942375D1*
X965105D2*
X982926D1*
X1008141D2*
X1019521D1*
X1055106D2*
X1057606D1*
X848330Y-2297435D2*
X865632D1*
X887606D2*
X897606D1*
X925451D2*
X941664D1*
X965941D2*
X982369D1*
X1009148D2*
X1025953D1*
X1046471D2*
X1058943D1*
X849717Y-2299935D2*
X876550D1*
X887606D2*
X897606D1*
X926094D2*
X940967D1*
X966700D2*
X981662D1*
X1010821D2*
X1035748D1*
X1035358D2*
X1060670D1*
X851689Y-2302435D2*
X897606D1*
X926752D2*
X940418D1*
X967276D2*
X980976D1*
X1013103D2*
X1062606D1*
X854625Y-2304935D2*
X897606D1*
X927196D2*
X939793D1*
X967912D2*
X980521D1*
X1016199D2*
X1057146D1*
X858424Y-2307435D2*
X897606D1*
X927444D2*
X938826D1*
X968883D2*
X980270D1*
X1020336D2*
X1051269D1*
X862606Y-2309935D2*
X897606D1*
X927606D2*
X937606D1*
X970106D2*
X980106D1*
X1025106D2*
X1045106D1*
X-1068900Y-276627D2*
X-993900D1*
X-1068900Y-279127D2*
X-993900D1*
X-1068900Y-281627D2*
X-993900D1*
X-1068900Y-284127D2*
X-993900D1*
X-1068900Y-286627D2*
X-1061400D1*
X-1036400D2*
X-1026400D1*
X-1068900Y-289127D2*
X-1061400D1*
X-1036400D2*
X-1026400D1*
X-1068900Y-291627D2*
X-1061400D1*
X-1036400D2*
X-1026400D1*
X-1068900Y-294127D2*
X-1061400D1*
X-1036400D2*
X-1026390D1*
X-1068900Y-296627D2*
X-1061400D1*
X-1036400D2*
X-1026283D1*
X-1068900Y-299127D2*
X-1061400D1*
X-1036400D2*
X-1026019D1*
X-1068900Y-301627D2*
X-1061400D1*
X-1036400D2*
X-1024754D1*
X-1068900Y-304127D2*
X-1061390D1*
X-1036410D2*
X-1021771D1*
X-1068900Y-306627D2*
X-1061283D1*
X-1036517D2*
X-1017945D1*
X-1068890Y-309127D2*
X-1061019D1*
X-1036781D2*
X-1013509D1*
X-1068793Y-311627D2*
X-1059637D1*
X-1038163D2*
X-1008770D1*
X-1068376Y-314127D2*
X-1055358D1*
X-1042442D2*
X-1004061D1*
X-1067361Y-316627D2*
X-1049008D1*
X-1048792D2*
X-1028523D1*
X-1021400D2*
X-999928D1*
X-1065705Y-319127D2*
X-1030498D1*
X-1016410D2*
X-996505D1*
X-1063614Y-321627D2*
X-1032731D1*
X-1011505D2*
X-995171D1*
X-1061297Y-324127D2*
X-1035610D1*
X-1006891D2*
X-994442D1*
X-1058900Y-326627D2*
X-1038900D1*
X-1002746D2*
X-994099D1*
X-998900Y-329127D2*
X-993900D1*
X-1058900Y-346627D2*
X-1036400D1*
X-1062158Y-349127D2*
X-1033995D1*
X-1064658Y-351627D2*
X-1031825D1*
X-1066458Y-354127D2*
X-1030022D1*
X-1067667Y-356627D2*
X-1056295D1*
X-1042287D2*
X-1028580D1*
X-998900D2*
X-993900D1*
X-1068343Y-359127D2*
X-1058377D1*
X-1039053D2*
X-1027540D1*
X-1003900D2*
X-994015D1*
X-1068670Y-361627D2*
X-1059861D1*
X-1036523D2*
X-1027016D1*
X-1008910D2*
X-994281D1*
X-1068811Y-364127D2*
X-1060696D1*
X-1035368D2*
X-1027035D1*
X-1014005D2*
X-995546D1*
X-1068867Y-366627D2*
X-1060986D1*
X-1035567D2*
X-1027522D1*
X-1019391D2*
X-998529D1*
X-1068879Y-369127D2*
X-1060913D1*
X-1036171D2*
X-1028211D1*
X-1025246D2*
X-1002355D1*
X-1068789Y-371627D2*
X-1059312D1*
X-1037851D2*
X-1006791D1*
X-1068375Y-374127D2*
X-1054340D1*
X-1041836D2*
X-1011549D1*
X-1067351Y-376627D2*
X-1047230D1*
X-1047399D2*
X-1016464D1*
X-1065600Y-379127D2*
X-1021524D1*
X-1063123Y-381627D2*
X-1026898D1*
X-1059951Y-384127D2*
X-1032748D1*
X-1056400Y-386627D2*
X-1038900D1*
X-167500Y-665860D2*
X-152500D1*
X-117500D2*
X-80000D1*
X-50000D2*
X-40000D1*
X12500D2*
X30000D1*
X75000D2*
X112500D1*
X147500D2*
X162500D1*
X-171144Y-668360D2*
X-148856D1*
X-117500D2*
X-80000D1*
X-49050D2*
X-39050D1*
X9242D2*
X33559D1*
X71356D2*
X112500D1*
X143087D2*
X167298D1*
X-174265Y-670860D2*
X-145735D1*
X-117500D2*
X-80000D1*
X-47976D2*
X-37976D1*
X6732D2*
X36447D1*
X68235D2*
X112500D1*
X139445D2*
X171146D1*
X-176712Y-673360D2*
X-143288D1*
X-117500D2*
X-80000D1*
X-46815D2*
X-36815D1*
X4844D2*
X38613D1*
X65779D2*
X112500D1*
X136717D2*
X174045D1*
X-178632Y-675860D2*
X-164404D1*
X-155596D2*
X-141368D1*
X-90000D2*
X-80000D1*
X-45600D2*
X-35610D1*
X3317D2*
X18096D1*
X26621D2*
X40217D1*
X64045D2*
X78387D1*
X102500D2*
X112500D1*
X134549D2*
X150501D1*
X159499D2*
X176171D1*
X-179336Y-678360D2*
X-167948D1*
X-152052D2*
X-140569D1*
X-90000D2*
X-80000D1*
X-44367D2*
X-34455D1*
X2051D2*
X14552D1*
X29951D2*
X41339D1*
X62817D2*
X75143D1*
X102500D2*
X112500D1*
X132725D2*
X146634D1*
X163373D2*
X177744D1*
X-179717Y-680860D2*
X-170673D1*
X-149327D2*
X-139867D1*
X-90000D2*
X-80000D1*
X-43121D2*
X-33449D1*
X1172D2*
X11827D1*
X32595D2*
X42020D1*
X61785D2*
X72869D1*
X102500D2*
X112500D1*
X131394D2*
X143681D1*
X166382D2*
X178852D1*
X-179889Y-683360D2*
X-171620D1*
X-148380D2*
X-139096D1*
X-90010D2*
X-80000D1*
X-41875D2*
X-32562D1*
X688D2*
X10755D1*
X35000D2*
X42500D1*
X60969D2*
X71165D1*
X102500D2*
X112500D1*
X130576D2*
X141610D1*
X168592D2*
X179570D1*
X-179959Y-685860D2*
X-172128D1*
X-147872D2*
X-138385D1*
X-90105D2*
X-80000D1*
X-40624D2*
X-31593D1*
X1177D2*
X10742D1*
X60548D2*
X70661D1*
X102500D2*
X112500D1*
X130000D2*
X140000D1*
X170210D2*
X180197D1*
X-179986Y-688360D2*
X-172355D1*
X-147645D2*
X-137922D1*
X-90491D2*
X-80000D1*
X-39376D2*
X-30499D1*
X1821D2*
X11243D1*
X60607D2*
X70473D1*
X102500D2*
X112500D1*
X171329D2*
X180930D1*
X-179995Y-690860D2*
X-172447D1*
X-147553D2*
X-137681D1*
X-107500D2*
X-95000D1*
X-91346D2*
X-80000D1*
X-38124D2*
X-29325D1*
X2545D2*
X12132D1*
X61100D2*
X71099D1*
X102500D2*
X112500D1*
X171967D2*
X181625D1*
X-179998Y-693360D2*
X-172481D1*
X-147519D2*
X-137572D1*
X-111059D2*
X-80000D1*
X-36876D2*
X-28105D1*
X3456D2*
X13232D1*
X61791D2*
X72775D1*
X102500D2*
X112500D1*
X172279D2*
X182081D1*
X-179999Y-695860D2*
X-172494D1*
X-147506D2*
X-137527D1*
X-113947D2*
X-80000D1*
X-57500D2*
X-50000D1*
X-35634D2*
X-26869D1*
X4603D2*
X14510D1*
X62626D2*
X79360D1*
X102500D2*
X112500D1*
X172414D2*
X182320D1*
X-180000Y-698360D2*
X-172498D1*
X-147502D2*
X-137510D1*
X-116113D2*
X-80000D1*
X-57500D2*
X-50000D1*
X-34464D2*
X-25622D1*
X6008D2*
X16053D1*
X63876D2*
X90656D1*
X102500D2*
X112500D1*
X172468D2*
X182429D1*
X-180000Y-700860D2*
X-172499D1*
X-147501D2*
X-137503D1*
X-117717D2*
X-104905D1*
X-95460D2*
X-80000D1*
X-57500D2*
X-50000D1*
X-33452D2*
X-24375D1*
X7593D2*
X17895D1*
X65714D2*
X112500D1*
X172489D2*
X182473D1*
X-180000Y-703360D2*
X-172500D1*
X-147500D2*
X-137501D1*
X-118831D2*
X-107075D1*
X-91337D2*
X-80000D1*
X-57500D2*
X-50000D1*
X-32563D2*
X-23124D1*
X9198D2*
X19791D1*
X68060D2*
X112500D1*
X172496D2*
X182490D1*
X-180000Y-705860D2*
X-172500D1*
X-147500D2*
X-137500D1*
X-119468D2*
X-108878D1*
X-87500D2*
X-80000D1*
X-57500D2*
X-50000D1*
X-31593D2*
X-21876D1*
X10918D2*
X21566D1*
X70495D2*
X112500D1*
X172499D2*
X182497D1*
X-180000Y-708360D2*
X-172500D1*
X-147500D2*
X-137500D1*
X-119779D2*
X-110320D1*
X-57500D2*
X-50000D1*
X-30499D2*
X-20624D1*
X12841D2*
X23374D1*
X72634D2*
X112500D1*
X172500D2*
X182489D1*
X-180000Y-710860D2*
X-172500D1*
X-147500D2*
X-137500D1*
X-119914D2*
X-111369D1*
X-57500D2*
X-50000D1*
X-29317D2*
X-19376D1*
X14771D2*
X25409D1*
X73151D2*
X85396D1*
X102500D2*
X112500D1*
X172490D2*
X182402D1*
X-180000Y-713360D2*
X-172500D1*
X-147500D2*
X-137510D1*
X-119968D2*
X-111972D1*
X-57500D2*
X-50000D1*
X-28032D2*
X-18134D1*
X16559D2*
X27582D1*
X72462D2*
X83604D1*
X102500D2*
X112500D1*
X172402D2*
X182084D1*
X-180000Y-715860D2*
X-172500D1*
X-147500D2*
X-137598D1*
X-119989D2*
X-112186D1*
X-57500D2*
X-50000D1*
X-26586D2*
X-16974D1*
X18362D2*
X29655D1*
X71310D2*
X82079D1*
X102500D2*
X112500D1*
X172074D2*
X181485D1*
X-180000Y-718360D2*
X-172490D1*
X-147510D2*
X-137916D1*
X-119996D2*
X-111990D1*
X-57500D2*
X-50000D1*
X-25000D2*
X-16050D1*
X20320D2*
X31512D1*
X69847D2*
X80704D1*
X102500D2*
X112500D1*
X171378D2*
X180834D1*
X-180000Y-720860D2*
X-172383D1*
X-147617D2*
X-138515D1*
X-119989D2*
X-111346D1*
X-62500D2*
X-15489D1*
X22263D2*
X33344D1*
X68374D2*
X79406D1*
X102500D2*
X112500D1*
X130000D2*
X140000D1*
X170311D2*
X180310D1*
X-179990Y-723360D2*
X-172119D1*
X-147881D2*
X-139166D1*
X-119902D2*
X-110280D1*
X-87500D2*
X-80000D1*
X-62500D2*
X-15205D1*
X24056D2*
X35314D1*
X66990D2*
X78135D1*
X102500D2*
X112500D1*
X130482D2*
X141480D1*
X168733D2*
X179750D1*
X-179893Y-725860D2*
X-170737D1*
X-149263D2*
X-139699D1*
X-119574D2*
X-108908D1*
X-89146D2*
X-80396D1*
X-62500D2*
X-15075D1*
X25871D2*
X37251D1*
X65671D2*
X76880D1*
X102500D2*
X112500D1*
X131432D2*
X143450D1*
X166643D2*
X178948D1*
X-179476Y-728360D2*
X-166458D1*
X-153542D2*
X-140348D1*
X-118878D2*
X-105598D1*
X-93493D2*
X-81114D1*
X-62500D2*
X-15000D1*
X27916D2*
X38948D1*
X64394D2*
X75625D1*
X102500D2*
X112500D1*
X132785D2*
X148138D1*
X161906D2*
X177847D1*
X-178452Y-730860D2*
X-160108D1*
X-159892D2*
X-141478D1*
X-117811D2*
X-100785D1*
X-99875D2*
X-82187D1*
X-57500D2*
X-50000D1*
X30164D2*
X40347D1*
X63131D2*
X74376D1*
X102500D2*
X112500D1*
X134378D2*
X154730D1*
X155287D2*
X176359D1*
X-176700Y-733360D2*
X-143273D1*
X-116264D2*
X-83735D1*
X-57500D2*
X-50000D1*
X0D2*
X41379D1*
X61870D2*
X73132D1*
X102500D2*
X112500D1*
X136477D2*
X174275D1*
X-174223Y-735860D2*
X-145768D1*
X-113992D2*
X-86008D1*
X-57500D2*
X-50000D1*
X0D2*
X41987D1*
X60552D2*
X71949D1*
X102500D2*
X112500D1*
X139476D2*
X171302D1*
X-171051Y-738360D2*
X-148946D1*
X-110955D2*
X-89045D1*
X-57500D2*
X-50000D1*
X0D2*
X42302D1*
X59093D2*
X70907D1*
X102500D2*
X112500D1*
X143303D2*
X167230D1*
X-167500Y-740860D2*
X-152500D1*
X-107500D2*
X-92500D1*
X-57500D2*
X-50000D1*
X0D2*
X42500D1*
X57500D2*
X70000D1*
X102500D2*
X112500D1*
X147500D2*
X162500D1*
X-1358360Y94717D2*
X-1308360D1*
X-1300860D2*
X-1253360D1*
X-1220860D2*
X-1200860D1*
X-1168360D2*
X-1120860D1*
X-1085860D2*
X-1048360D1*
X-1358360Y92217D2*
X-1308360D1*
X-1300860D2*
X-1253360D1*
X-1225254D2*
X-1196447D1*
X-1168360D2*
X-1120860D1*
X-1089504D2*
X-1048360D1*
X-1358360Y89717D2*
X-1308360D1*
X-1300860D2*
X-1253360D1*
X-1229178D2*
X-1192815D1*
X-1168360D2*
X-1120860D1*
X-1092625D2*
X-1048360D1*
X-1358360Y87217D2*
X-1308360D1*
X-1300860D2*
X-1253360D1*
X-1231204D2*
X-1190174D1*
X-1168360D2*
X-1120860D1*
X-1095081D2*
X-1048360D1*
X-1338360Y84717D2*
X-1330860D1*
X-1263360D2*
X-1253360D1*
X-1231489D2*
X-1218360D1*
X-1203861D2*
X-1188326D1*
X-1130860D2*
X-1120860D1*
X-1096815D2*
X-1082473D1*
X-1058360D2*
X-1048360D1*
X-1338360Y82217D2*
X-1330860D1*
X-1263360D2*
X-1253360D1*
X-1230860D2*
X-1225860D1*
X-1199997D2*
X-1187101D1*
X-1130860D2*
X-1120860D1*
X-1098043D2*
X-1085717D1*
X-1058360D2*
X-1048360D1*
X-1338360Y79717D2*
X-1330860D1*
X-1263360D2*
X-1253360D1*
X-1197085D2*
X-1186419D1*
X-1130860D2*
X-1120860D1*
X-1099075D2*
X-1087991D1*
X-1058360D2*
X-1048360D1*
X-1338360Y77217D2*
X-1330860D1*
X-1263360D2*
X-1253360D1*
X-1194895D2*
X-1186091D1*
X-1130860D2*
X-1120860D1*
X-1099891D2*
X-1089695D1*
X-1058360D2*
X-1048360D1*
X-1338360Y74717D2*
X-1330860D1*
X-1263360D2*
X-1253360D1*
X-1194253D2*
X-1185949D1*
X-1130860D2*
X-1120860D1*
X-1100312D2*
X-1090199D1*
X-1058360D2*
X-1048360D1*
X-1338360Y72217D2*
X-1330860D1*
X-1263360D2*
X-1253360D1*
X-1194615D2*
X-1185902D1*
X-1130860D2*
X-1120860D1*
X-1100253D2*
X-1090387D1*
X-1058360D2*
X-1048360D1*
X-1338360Y69717D2*
X-1330860D1*
X-1263360D2*
X-1253360D1*
X-1195915D2*
X-1185979D1*
X-1130860D2*
X-1120860D1*
X-1099760D2*
X-1089761D1*
X-1058360D2*
X-1048360D1*
X-1338360Y67217D2*
X-1330860D1*
X-1263360D2*
X-1253360D1*
X-1199576D2*
X-1186388D1*
X-1130860D2*
X-1120860D1*
X-1099069D2*
X-1088085D1*
X-1058360D2*
X-1048360D1*
X-1338360Y64717D2*
X-1330860D1*
X-1263360D2*
X-1253360D1*
X-1205327D2*
X-1187410D1*
X-1130860D2*
X-1120860D1*
X-1098234D2*
X-1081500D1*
X-1058360D2*
X-1048360D1*
X-1338360Y62217D2*
X-1330860D1*
X-1263360D2*
X-1253360D1*
X-1212610D2*
X-1189192D1*
X-1130860D2*
X-1120860D1*
X-1096984D2*
X-1070204D1*
X-1058360D2*
X-1048360D1*
X-1338360Y59717D2*
X-1330860D1*
X-1295860D2*
X-1253360D1*
X-1219673D2*
X-1191983D1*
X-1163360D2*
X-1120860D1*
X-1095146D2*
X-1048360D1*
X-1338360Y57217D2*
X-1330860D1*
X-1295860D2*
X-1253360D1*
X-1225219D2*
X-1196453D1*
X-1163360D2*
X-1120860D1*
X-1092800D2*
X-1048360D1*
X-1338360Y54717D2*
X-1330860D1*
X-1295860D2*
X-1253360D1*
X-1229096D2*
X-1202953D1*
X-1163360D2*
X-1120860D1*
X-1090365D2*
X-1048360D1*
X-1338360Y52217D2*
X-1330860D1*
X-1295860D2*
X-1253360D1*
X-1231697D2*
X-1210454D1*
X-1163360D2*
X-1120860D1*
X-1088226D2*
X-1048360D1*
X-1338360Y49717D2*
X-1330860D1*
X-1263360D2*
X-1253360D1*
X-1233475D2*
X-1217114D1*
X-1130860D2*
X-1120860D1*
X-1087709D2*
X-1075464D1*
X-1058360D2*
X-1048360D1*
X-1338360Y47217D2*
X-1330860D1*
X-1263360D2*
X-1253360D1*
X-1234655D2*
X-1221887D1*
X-1130860D2*
X-1120860D1*
X-1088398D2*
X-1077256D1*
X-1058360D2*
X-1048360D1*
X-1338360Y44717D2*
X-1330860D1*
X-1263360D2*
X-1253360D1*
X-1235316D2*
X-1225357D1*
X-1130860D2*
X-1120860D1*
X-1089550D2*
X-1078781D1*
X-1058360D2*
X-1048360D1*
X-1338360Y42217D2*
X-1330860D1*
X-1263360D2*
X-1253360D1*
X-1235635D2*
X-1226760D1*
X-1130860D2*
X-1120860D1*
X-1091013D2*
X-1080156D1*
X-1058360D2*
X-1048360D1*
X-1338360Y39717D2*
X-1330860D1*
X-1263360D2*
X-1253360D1*
X-1235763D2*
X-1226851D1*
X-1130860D2*
X-1120860D1*
X-1092486D2*
X-1081454D1*
X-1058360D2*
X-1048360D1*
X-1338360Y37217D2*
X-1330860D1*
X-1263360D2*
X-1253360D1*
X-1235721D2*
X-1226036D1*
X-1130860D2*
X-1120860D1*
X-1093870D2*
X-1082725D1*
X-1058360D2*
X-1048360D1*
X-1338360Y34717D2*
X-1330860D1*
X-1263360D2*
X-1253360D1*
X-1235325D2*
X-1223945D1*
X-1188360D2*
X-1185860D1*
X-1130860D2*
X-1120860D1*
X-1095189D2*
X-1083980D1*
X-1058360D2*
X-1048360D1*
X-1338360Y32217D2*
X-1330860D1*
X-1263360D2*
X-1253360D1*
X-1234317D2*
X-1217513D1*
X-1196995D2*
X-1184523D1*
X-1130860D2*
X-1120860D1*
X-1096466D2*
X-1085235D1*
X-1058360D2*
X-1048360D1*
X-1338360Y29717D2*
X-1330860D1*
X-1263360D2*
X-1253360D1*
X-1232645D2*
X-1207718D1*
X-1208108D2*
X-1182796D1*
X-1130860D2*
X-1120860D1*
X-1097729D2*
X-1086484D1*
X-1058360D2*
X-1048360D1*
X-1338360Y27217D2*
X-1330860D1*
X-1300860D2*
X-1253360D1*
X-1230363D2*
X-1180860D1*
X-1168360D2*
X-1120860D1*
X-1098990D2*
X-1087728D1*
X-1058360D2*
X-1048360D1*
X-1338360Y24717D2*
X-1330860D1*
X-1300860D2*
X-1253360D1*
X-1227267D2*
X-1186320D1*
X-1168360D2*
X-1120860D1*
X-1100308D2*
X-1088911D1*
X-1058360D2*
X-1048360D1*
X-1338360Y22217D2*
X-1330860D1*
X-1300860D2*
X-1253360D1*
X-1223130D2*
X-1192197D1*
X-1168360D2*
X-1120860D1*
X-1101767D2*
X-1089953D1*
X-1058360D2*
X-1048360D1*
X-1338360Y19717D2*
X-1330860D1*
X-1300860D2*
X-1253360D1*
X-1218360D2*
X-1198360D1*
X-1168360D2*
X-1120860D1*
X-1103360D2*
X-1090860D1*
X-1058360D2*
X-1048360D1*
X862606Y-2234935D2*
X858192Y-2237435D1*
X854560Y-2239935D1*
X851910Y-2242435D1*
X849974Y-2244935D1*
X848431Y-2247435D1*
X847150Y-2249935D1*
X846181Y-2252435D1*
X845603Y-2254935D1*
X845315Y-2257435D1*
X845187Y-2259935D1*
X845136Y-2262435D1*
X845116Y-2264935D1*
X845109Y-2267435D1*
X845107Y-2269935D1*
X845106Y-2272435D1*
Y-2274935D1*
Y-2277435D1*
Y-2279935D1*
Y-2282435D1*
X845116Y-2284935D1*
X845203Y-2287435D1*
X845532Y-2289935D1*
X846218Y-2292435D1*
X847188Y-2294935D1*
X848330Y-2297435D1*
X849717Y-2299935D1*
X851689Y-2302435D1*
X854625Y-2304935D1*
X858424Y-2307435D1*
X862606Y-2309935D1*
X897606Y-2234935D2*
Y-2237435D1*
Y-2239935D1*
Y-2242435D1*
Y-2244935D1*
Y-2247435D1*
Y-2249935D1*
Y-2252435D1*
Y-2254935D1*
Y-2257435D1*
Y-2259935D1*
Y-2262435D1*
Y-2264935D1*
Y-2267435D1*
Y-2269935D1*
Y-2272435D1*
Y-2274935D1*
Y-2277435D1*
Y-2279935D1*
Y-2282435D1*
Y-2284935D1*
Y-2287435D1*
Y-2289935D1*
Y-2292435D1*
Y-2294935D1*
Y-2297435D1*
Y-2299935D1*
Y-2302435D1*
Y-2304935D1*
Y-2307435D1*
Y-2309935D1*
X910106Y-2234935D2*
X910960Y-2237435D1*
X911714Y-2239935D1*
X912276Y-2242435D1*
X912840Y-2244935D1*
X913549Y-2247435D1*
X914245Y-2249935D1*
X914786Y-2252435D1*
X915343Y-2254935D1*
X916050Y-2257435D1*
X916745Y-2259935D1*
X917286Y-2262435D1*
X917843Y-2264935D1*
X918550Y-2267435D1*
X919245Y-2269935D1*
X919786Y-2272435D1*
X920343Y-2274935D1*
X921050Y-2277435D1*
X921745Y-2279935D1*
X922286Y-2282435D1*
X922843Y-2284935D1*
X923550Y-2287435D1*
X924235Y-2289935D1*
X924698Y-2292435D1*
X925024Y-2294935D1*
X925451Y-2297435D1*
X926094Y-2299935D1*
X926752Y-2302435D1*
X927196Y-2304935D1*
X927444Y-2307435D1*
X927606Y-2309935D1*
X920106Y-2234935D2*
X920201Y-2237435D1*
X920521Y-2239935D1*
X921121Y-2242435D1*
X921771Y-2244935D1*
X922295Y-2247435D1*
X922846Y-2249935D1*
X923551Y-2252435D1*
X924245Y-2254935D1*
X924786Y-2257435D1*
X925343Y-2259935D1*
X926050Y-2262435D1*
X926735Y-2264935D1*
X927198Y-2267435D1*
X927524Y-2269935D1*
X927951Y-2272435D1*
X928594Y-2274935D1*
X929262Y-2277435D1*
X929792Y-2279935D1*
X930355Y-2282435D1*
X931156Y-2284935D1*
X932234Y-2287435D1*
X933579Y-2289935D1*
X935106Y-2292435D1*
X950106Y-2234935D2*
X950011Y-2237435D1*
X949690Y-2239935D1*
X949081Y-2242435D1*
X948352Y-2244935D1*
X947597Y-2247435D1*
X946767Y-2249935D1*
X946010Y-2252435D1*
X945442Y-2254935D1*
X944875Y-2257435D1*
X944164Y-2259935D1*
X943467Y-2262435D1*
X942926Y-2264935D1*
X942369Y-2267435D1*
X941662Y-2269935D1*
X940967Y-2272435D1*
X940426Y-2274935D1*
X939869Y-2277435D1*
X939162Y-2279935D1*
X938467Y-2282435D1*
X937918Y-2284935D1*
X937293Y-2287435D1*
X936326Y-2289935D1*
X935106Y-2292435D1*
X957606Y-2234935D2*
X957992Y-2237435D1*
X958612Y-2239935D1*
X959269Y-2242435D1*
X959795Y-2244935D1*
X960346Y-2247435D1*
X961051Y-2249935D1*
X961745Y-2252435D1*
X962286Y-2254935D1*
X962843Y-2257435D1*
X963550Y-2259935D1*
X964245Y-2262435D1*
X964786Y-2264935D1*
X965343Y-2267435D1*
X966050Y-2269935D1*
X966745Y-2272435D1*
X967286Y-2274935D1*
X967843Y-2277435D1*
X968569Y-2279935D1*
X969445Y-2282435D1*
X970673Y-2284935D1*
X972633Y-2287435D1*
X975106Y-2289935D1*
X987606Y-2234935D2*
X987511Y-2237435D1*
X987190Y-2239935D1*
X986591Y-2242435D1*
X985940Y-2244935D1*
X985416Y-2247435D1*
X984866Y-2249935D1*
X984161Y-2252435D1*
X983476Y-2254935D1*
X983013Y-2257435D1*
X982687Y-2259935D1*
X982261Y-2262435D1*
X981617Y-2264935D1*
X980949Y-2267435D1*
X980419Y-2269935D1*
X979867Y-2272435D1*
X979161Y-2274935D1*
X978476Y-2277435D1*
X978004Y-2279935D1*
X977575Y-2282435D1*
X976987Y-2284935D1*
X975012Y-2287435D1*
X972606Y-2289935D1*
X997606Y-2234935D2*
X996751Y-2237435D1*
X996007Y-2239935D1*
X995523Y-2242435D1*
X995191Y-2244935D1*
X994762Y-2247435D1*
X994118Y-2249935D1*
X993450Y-2252435D1*
X992919Y-2254935D1*
X992367Y-2257435D1*
X991661Y-2259935D1*
X990966Y-2262435D1*
X990426Y-2264935D1*
X989869Y-2267435D1*
X989162Y-2269935D1*
X988467Y-2272435D1*
X987926Y-2274935D1*
X987369Y-2277435D1*
X986662Y-2279935D1*
X985967Y-2282435D1*
X985426Y-2284935D1*
X984869Y-2287435D1*
X984162Y-2289935D1*
X983467Y-2292435D1*
X982926Y-2294935D1*
X982369Y-2297435D1*
X981662Y-2299935D1*
X980976Y-2302435D1*
X980521Y-2304935D1*
X980270Y-2307435D1*
X980106Y-2309935D1*
X1022606Y-2234935D2*
X1018212Y-2237435D1*
X1014288Y-2239935D1*
X1012262Y-2242435D1*
X1011976Y-2244935D1*
X1012606Y-2247435D1*
X1042606Y-2234935D2*
X1047019Y-2237435D1*
X1050651Y-2239935D1*
X1053291Y-2242435D1*
X1055140Y-2244935D1*
X1056365Y-2247435D1*
X1057047Y-2249935D1*
X1057375Y-2252435D1*
X1057517Y-2254935D1*
X1057563Y-2257435D1*
X1057487Y-2259935D1*
X1057078Y-2262435D1*
X1056056Y-2264935D1*
X1054274Y-2267435D1*
X1051483Y-2269935D1*
X1047012Y-2272435D1*
X1040513Y-2274935D1*
X1033012Y-2277435D1*
X1026352Y-2279935D1*
X1021579Y-2282435D1*
X1018109Y-2284935D1*
X1016706Y-2287435D1*
X1016615Y-2289935D1*
X1017430Y-2292435D1*
X1019521Y-2294935D1*
X1025953Y-2297435D1*
X1035748Y-2299935D1*
X1047606Y-2302435D1*
X870106Y-2242435D2*
X865607Y-2244935D1*
X861742Y-2247435D1*
X858821Y-2249935D1*
X856602Y-2252435D1*
X855829Y-2254935D1*
X855412Y-2257435D1*
X855225Y-2259935D1*
X855150Y-2262435D1*
X855121Y-2264935D1*
X855111Y-2267435D1*
X855107Y-2269935D1*
X855106Y-2272435D1*
Y-2274935D1*
Y-2277435D1*
Y-2279935D1*
Y-2282435D1*
X855116Y-2284935D1*
X855213Y-2287435D1*
X855639Y-2289935D1*
X856449Y-2292435D1*
X858784Y-2294935D1*
X865632Y-2297435D1*
X876550Y-2299935D1*
X890106Y-2302435D1*
X887606Y-2242435D2*
Y-2244935D1*
Y-2247435D1*
Y-2249935D1*
Y-2252435D1*
Y-2254935D1*
Y-2257435D1*
Y-2259935D1*
Y-2262435D1*
Y-2264935D1*
Y-2267435D1*
Y-2269935D1*
Y-2272435D1*
Y-2274935D1*
Y-2277435D1*
Y-2279935D1*
Y-2282435D1*
Y-2284935D1*
Y-2287435D1*
Y-2289935D1*
Y-2292435D1*
Y-2294935D1*
Y-2297435D1*
Y-2299935D1*
X867606Y-2302435D1*
X1032606Y-2242435D2*
X1025106Y-2244935D1*
X1017606Y-2247435D1*
X1035106Y-2242435D2*
X1039605Y-2244935D1*
X1043469Y-2247435D1*
X1046380Y-2249935D1*
X1048570Y-2252435D1*
X1049213Y-2254935D1*
X1048851Y-2257435D1*
X1047550Y-2259935D1*
X1043890Y-2262435D1*
X1038139Y-2264935D1*
X1030855Y-2267435D1*
X1023793Y-2269935D1*
X1018247Y-2272435D1*
X1014370Y-2274935D1*
X1011769Y-2277435D1*
X1009991Y-2279935D1*
X1008811Y-2282435D1*
X1008150Y-2284935D1*
X1007831Y-2287435D1*
X1007703Y-2289935D1*
X1007745Y-2292435D1*
X1008141Y-2294935D1*
X1009148Y-2297435D1*
X1010821Y-2299935D1*
X1013103Y-2302435D1*
X1016199Y-2304935D1*
X1020336Y-2307435D1*
X1025106Y-2309935D1*
X950106Y-2259935D2*
X950096Y-2262435D1*
X950008Y-2264935D1*
X949690Y-2267435D1*
X949091Y-2269935D1*
X948440Y-2272435D1*
X947916Y-2274935D1*
X947366Y-2277435D1*
X946651Y-2279935D1*
X945878Y-2282435D1*
X945107Y-2284935D1*
X944270Y-2287435D1*
X943511Y-2289935D1*
X942943Y-2292435D1*
X942375Y-2294935D1*
X941664Y-2297435D1*
X940967Y-2299935D1*
X940418Y-2302435D1*
X939793Y-2304935D1*
X938826Y-2307435D1*
X937606Y-2309935D1*
X952606Y-2259935D2*
X954624Y-2262435D1*
X956174Y-2264935D1*
X957330Y-2267435D1*
X958335Y-2269935D1*
X959161Y-2272435D1*
X959755Y-2274935D1*
X960332Y-2277435D1*
X961046Y-2279935D1*
X961744Y-2282435D1*
X962286Y-2284935D1*
X962842Y-2287435D1*
X963559Y-2289935D1*
X964333Y-2292435D1*
X965105Y-2294935D1*
X965941Y-2297435D1*
X966700Y-2299935D1*
X967276Y-2302435D1*
X967912Y-2304935D1*
X968883Y-2307435D1*
X970106Y-2309935D1*
X1055106Y-2294935D2*
X1046471Y-2297435D1*
X1035358Y-2299935D1*
X1022606Y-2302435D1*
X1057606Y-2294935D2*
X1058943Y-2297435D1*
X1060670Y-2299935D1*
X1062606Y-2302435D1*
X1057146Y-2304935D1*
X1051269Y-2307435D1*
X1045106Y-2309935D1*
X-1068900Y-276627D2*
Y-279127D1*
Y-281627D1*
Y-284127D1*
Y-286627D1*
Y-289127D1*
Y-291627D1*
Y-294127D1*
Y-296627D1*
Y-299127D1*
Y-301627D1*
Y-304127D1*
Y-306627D1*
X-1068890Y-309127D1*
X-1068793Y-311627D1*
X-1068376Y-314127D1*
X-1067361Y-316627D1*
X-1065705Y-319127D1*
X-1063614Y-321627D1*
X-1061297Y-324127D1*
X-1058900Y-326627D1*
X-993900Y-276627D2*
Y-279127D1*
Y-281627D1*
Y-284127D1*
X-1061400D2*
Y-286627D1*
Y-289127D1*
Y-291627D1*
Y-294127D1*
Y-296627D1*
Y-299127D1*
Y-301627D1*
X-1061390Y-304127D1*
X-1061283Y-306627D1*
X-1061019Y-309127D1*
X-1059637Y-311627D1*
X-1055358Y-314127D1*
X-1049008Y-316627D1*
X-1041400Y-319127D1*
X-1036400Y-284127D2*
Y-286627D1*
Y-289127D1*
Y-291627D1*
Y-294127D1*
Y-296627D1*
Y-299127D1*
Y-301627D1*
X-1036410Y-304127D1*
X-1036517Y-306627D1*
X-1036781Y-309127D1*
X-1038163Y-311627D1*
X-1042442Y-314127D1*
X-1048792Y-316627D1*
X-1056400Y-319127D1*
X-1026400Y-284127D2*
Y-286627D1*
Y-289127D1*
Y-291627D1*
X-1026390Y-294127D1*
X-1026283Y-296627D1*
X-1026019Y-299127D1*
X-1024754Y-301627D1*
X-1021771Y-304127D1*
X-1017945Y-306627D1*
X-1013509Y-309127D1*
X-1008770Y-311627D1*
X-1004061Y-314127D1*
X-999928Y-316627D1*
X-996505Y-319127D1*
X-995171Y-321627D1*
X-994442Y-324127D1*
X-994099Y-326627D1*
X-993900Y-329127D1*
X-1026400Y-314127D2*
X-1028523Y-316627D1*
X-1030498Y-319127D1*
X-1032731Y-321627D1*
X-1035610Y-324127D1*
X-1038900Y-326627D1*
X-1026400Y-314127D2*
X-1021400Y-316627D1*
X-1016410Y-319127D1*
X-1011505Y-321627D1*
X-1006891Y-324127D1*
X-1002746Y-326627D1*
X-998900Y-329127D1*
X-1058900Y-346627D2*
X-1062158Y-349127D1*
X-1064658Y-351627D1*
X-1066458Y-354127D1*
X-1067667Y-356627D1*
X-1068343Y-359127D1*
X-1068670Y-361627D1*
X-1068811Y-364127D1*
X-1068867Y-366627D1*
X-1068879Y-369127D1*
X-1068789Y-371627D1*
X-1068375Y-374127D1*
X-1067351Y-376627D1*
X-1065600Y-379127D1*
X-1063123Y-381627D1*
X-1059951Y-384127D1*
X-1056400Y-386627D1*
X-1036400Y-346627D2*
X-1033995Y-349127D1*
X-1031825Y-351627D1*
X-1030022Y-354127D1*
X-1028580Y-356627D1*
X-1027540Y-359127D1*
X-1027016Y-361627D1*
X-1027035Y-364127D1*
X-1027522Y-366627D1*
X-1028211Y-369127D1*
X-1028900Y-371627D1*
X-1053900Y-354127D2*
X-1056295Y-356627D1*
X-1058377Y-359127D1*
X-1059861Y-361627D1*
X-1060696Y-364127D1*
X-1060986Y-366627D1*
X-1060913Y-369127D1*
X-1059312Y-371627D1*
X-1054340Y-374127D1*
X-1047230Y-376627D1*
X-1038900Y-379127D1*
X-1046400Y-354127D2*
X-1042287Y-356627D1*
X-1039053Y-359127D1*
X-1036523Y-361627D1*
X-1035368Y-364127D1*
X-1035567Y-366627D1*
X-1036171Y-369127D1*
X-1037851Y-371627D1*
X-1041836Y-374127D1*
X-1047399Y-376627D1*
X-1053900Y-379127D1*
X-998900Y-356627D2*
X-1003900Y-359127D1*
X-1008910Y-361627D1*
X-1014005Y-364127D1*
X-1019391Y-366627D1*
X-1025246Y-369127D1*
X-1031400Y-371627D1*
X-993900Y-356627D2*
X-994015Y-359127D1*
X-994281Y-361627D1*
X-995546Y-364127D1*
X-998529Y-366627D1*
X-1002355Y-369127D1*
X-1006791Y-371627D1*
X-1011549Y-374127D1*
X-1016464Y-376627D1*
X-1021524Y-379127D1*
X-1026898Y-381627D1*
X-1032748Y-384127D1*
X-1038900Y-386627D1*
X-167500Y-665860D2*
X-171144Y-668360D1*
X-174265Y-670860D1*
X-176712Y-673360D1*
X-178632Y-675860D1*
X-179336Y-678360D1*
X-179717Y-680860D1*
X-179889Y-683360D1*
X-179959Y-685860D1*
X-179986Y-688360D1*
X-179995Y-690860D1*
X-179998Y-693360D1*
X-179999Y-695860D1*
X-180000Y-698360D1*
Y-700860D1*
Y-703360D1*
Y-705860D1*
Y-708360D1*
Y-710860D1*
Y-713360D1*
Y-715860D1*
Y-718360D1*
Y-720860D1*
X-179990Y-723360D1*
X-179893Y-725860D1*
X-179476Y-728360D1*
X-178452Y-730860D1*
X-176700Y-733360D1*
X-174223Y-735860D1*
X-171051Y-738360D1*
X-167500Y-740860D1*
X-152500Y-665860D2*
X-148856Y-668360D1*
X-145735Y-670860D1*
X-143288Y-673360D1*
X-141368Y-675860D1*
X-140569Y-678360D1*
X-139867Y-680860D1*
X-139096Y-683360D1*
X-138385Y-685860D1*
X-137922Y-688360D1*
X-137681Y-690860D1*
X-137572Y-693360D1*
X-137527Y-695860D1*
X-137510Y-698360D1*
X-137503Y-700860D1*
X-137501Y-703360D1*
X-137500Y-705860D1*
Y-708360D1*
Y-710860D1*
X-137510Y-713360D1*
X-137598Y-715860D1*
X-137916Y-718360D1*
X-138515Y-720860D1*
X-139166Y-723360D1*
X-139699Y-725860D1*
X-140348Y-728360D1*
X-141478Y-730860D1*
X-143273Y-733360D1*
X-145768Y-735860D1*
X-148946Y-738360D1*
X-152500Y-740860D1*
X-117500Y-665860D2*
Y-668360D1*
Y-670860D1*
Y-673360D1*
Y-675860D1*
X-90000D1*
Y-678360D1*
Y-680860D1*
X-90010Y-683360D1*
X-90105Y-685860D1*
X-90491Y-688360D1*
X-91346Y-690860D1*
X-92500Y-693360D1*
X-80000Y-665860D2*
Y-668360D1*
Y-670860D1*
Y-673360D1*
Y-675860D1*
Y-678360D1*
Y-680860D1*
Y-683360D1*
Y-685860D1*
Y-688360D1*
Y-690860D1*
Y-693360D1*
Y-695860D1*
Y-698360D1*
Y-700860D1*
Y-703360D1*
Y-705860D1*
X-50000Y-665860D2*
X-49050Y-668360D1*
X-47976Y-670860D1*
X-46815Y-673360D1*
X-45600Y-675860D1*
X-44367Y-678360D1*
X-43121Y-680860D1*
X-41875Y-683360D1*
X-40624Y-685860D1*
X-39376Y-688360D1*
X-38124Y-690860D1*
X-36876Y-693360D1*
X-35634Y-695860D1*
X-34464Y-698360D1*
X-33452Y-700860D1*
X-32563Y-703360D1*
X-31593Y-705860D1*
X-30499Y-708360D1*
X-29317Y-710860D1*
X-28032Y-713360D1*
X-26586Y-715860D1*
X-25000Y-718360D1*
X-45000Y-720860D1*
X-40000Y-665860D2*
X-39050Y-668360D1*
X-37976Y-670860D1*
X-36815Y-673360D1*
X-35610Y-675860D1*
X-34455Y-678360D1*
X-33449Y-680860D1*
X-32562Y-683360D1*
X-31593Y-685860D1*
X-30499Y-688360D1*
X-29325Y-690860D1*
X-28105Y-693360D1*
X-26869Y-695860D1*
X-25622Y-698360D1*
X-24375Y-700860D1*
X-23124Y-703360D1*
X-21876Y-705860D1*
X-20624Y-708360D1*
X-19376Y-710860D1*
X-18134Y-713360D1*
X-16974Y-715860D1*
X-16050Y-718360D1*
X-15489Y-720860D1*
X-15205Y-723360D1*
X-15075Y-725860D1*
X-15000Y-728360D1*
X12500Y-665860D2*
X9242Y-668360D1*
X6732Y-670860D1*
X4844Y-673360D1*
X3317Y-675860D1*
X2051Y-678360D1*
X1172Y-680860D1*
X688Y-683360D1*
X1177Y-685860D1*
X1821Y-688360D1*
X2545Y-690860D1*
X3456Y-693360D1*
X4603Y-695860D1*
X6008Y-698360D1*
X7593Y-700860D1*
X9198Y-703360D1*
X10918Y-705860D1*
X12841Y-708360D1*
X14771Y-710860D1*
X16559Y-713360D1*
X18362Y-715860D1*
X20320Y-718360D1*
X22263Y-720860D1*
X24056Y-723360D1*
X25871Y-725860D1*
X27916Y-728360D1*
X30164Y-730860D1*
X32500Y-733360D1*
X30000Y-665860D2*
X33559Y-668360D1*
X36447Y-670860D1*
X38613Y-673360D1*
X40217Y-675860D1*
X41339Y-678360D1*
X42020Y-680860D1*
X42500Y-683360D1*
X75000Y-665860D2*
X71356Y-668360D1*
X68235Y-670860D1*
X65779Y-673360D1*
X64045Y-675860D1*
X62817Y-678360D1*
X61785Y-680860D1*
X60969Y-683360D1*
X60548Y-685860D1*
X60607Y-688360D1*
X61100Y-690860D1*
X61791Y-693360D1*
X62626Y-695860D1*
X63876Y-698360D1*
X65714Y-700860D1*
X68060Y-703360D1*
X70495Y-705860D1*
X72634Y-708360D1*
X73151Y-710860D1*
X72462Y-713360D1*
X71310Y-715860D1*
X69847Y-718360D1*
X68374Y-720860D1*
X66990Y-723360D1*
X65671Y-725860D1*
X64394Y-728360D1*
X63131Y-730860D1*
X61870Y-733360D1*
X60552Y-735860D1*
X59093Y-738360D1*
X57500Y-740860D1*
X112500Y-665860D2*
Y-668360D1*
Y-670860D1*
Y-673360D1*
Y-675860D1*
Y-678360D1*
Y-680860D1*
Y-683360D1*
Y-685860D1*
Y-688360D1*
Y-690860D1*
Y-693360D1*
Y-695860D1*
Y-698360D1*
Y-700860D1*
Y-703360D1*
Y-705860D1*
Y-708360D1*
Y-710860D1*
Y-713360D1*
Y-715860D1*
Y-718360D1*
Y-720860D1*
Y-723360D1*
Y-725860D1*
Y-728360D1*
Y-730860D1*
Y-733360D1*
Y-735860D1*
Y-738360D1*
Y-740860D1*
X147500Y-665860D2*
X143087Y-668360D1*
X139445Y-670860D1*
X136717Y-673360D1*
X134549Y-675860D1*
X132725Y-678360D1*
X131394Y-680860D1*
X130576Y-683360D1*
X130000Y-685860D1*
X162500Y-665860D2*
X167298Y-668360D1*
X171146Y-670860D1*
X174045Y-673360D1*
X176171Y-675860D1*
X177744Y-678360D1*
X178852Y-680860D1*
X179570Y-683360D1*
X180197Y-685860D1*
X180930Y-688360D1*
X181625Y-690860D1*
X182081Y-693360D1*
X182320Y-695860D1*
X182429Y-698360D1*
X182473Y-700860D1*
X182490Y-703360D1*
X182497Y-705860D1*
X182489Y-708360D1*
X182402Y-710860D1*
X182084Y-713360D1*
X181485Y-715860D1*
X180834Y-718360D1*
X180310Y-720860D1*
X179750Y-723360D1*
X178948Y-725860D1*
X177847Y-728360D1*
X176359Y-730860D1*
X174275Y-733360D1*
X171302Y-735860D1*
X167230Y-738360D1*
X162500Y-740860D1*
X-160000Y-673360D2*
X-164404Y-675860D1*
X-167948Y-678360D1*
X-170673Y-680860D1*
X-171620Y-683360D1*
X-172128Y-685860D1*
X-172355Y-688360D1*
X-172447Y-690860D1*
X-172481Y-693360D1*
X-172494Y-695860D1*
X-172498Y-698360D1*
X-172499Y-700860D1*
X-172500Y-703360D1*
Y-705860D1*
Y-708360D1*
Y-710860D1*
Y-713360D1*
Y-715860D1*
X-172490Y-718360D1*
X-172383Y-720860D1*
X-172119Y-723360D1*
X-170737Y-725860D1*
X-166458Y-728360D1*
X-160108Y-730860D1*
X-152500Y-733360D1*
X-160000Y-673360D2*
X-155596Y-675860D1*
X-152052Y-678360D1*
X-149327Y-680860D1*
X-148380Y-683360D1*
X-147872Y-685860D1*
X-147645Y-688360D1*
X-147553Y-690860D1*
X-147519Y-693360D1*
X-147506Y-695860D1*
X-147502Y-698360D1*
X-147501Y-700860D1*
X-147500Y-703360D1*
Y-705860D1*
Y-708360D1*
Y-710860D1*
Y-713360D1*
Y-715860D1*
X-147510Y-718360D1*
X-147617Y-720860D1*
X-147881Y-723360D1*
X-149263Y-725860D1*
X-153542Y-728360D1*
X-159892Y-730860D1*
X-167500Y-733360D1*
X22500Y-673360D2*
X18096Y-675860D1*
X14552Y-678360D1*
X11827Y-680860D1*
X10755Y-683360D1*
X10742Y-685860D1*
X11243Y-688360D1*
X12132Y-690860D1*
X13232Y-693360D1*
X14510Y-695860D1*
X16053Y-698360D1*
X17895Y-700860D1*
X19791Y-703360D1*
X21566Y-705860D1*
X23374Y-708360D1*
X25409Y-710860D1*
X27582Y-713360D1*
X29655Y-715860D1*
X31512Y-718360D1*
X33344Y-720860D1*
X35314Y-723360D1*
X37251Y-725860D1*
X38948Y-728360D1*
X40347Y-730860D1*
X41379Y-733360D1*
X41987Y-735860D1*
X42302Y-738360D1*
X42500Y-740860D1*
X22500Y-673360D2*
X26621Y-675860D1*
X29951Y-678360D1*
X32595Y-680860D1*
X35000Y-683360D1*
X82500Y-673360D2*
X78387Y-675860D1*
X75143Y-678360D1*
X72869Y-680860D1*
X71165Y-683360D1*
X70661Y-685860D1*
X70473Y-688360D1*
X71099Y-690860D1*
X72775Y-693360D1*
X79360Y-695860D1*
X90656Y-698360D1*
X105000Y-700860D1*
X102500Y-673360D2*
Y-675860D1*
Y-678360D1*
Y-680860D1*
Y-683360D1*
Y-685860D1*
Y-688360D1*
Y-690860D1*
Y-693360D1*
Y-695860D1*
Y-698360D1*
X80000Y-700860D1*
X155000Y-673360D2*
X150501Y-675860D1*
X146634Y-678360D1*
X143681Y-680860D1*
X141610Y-683360D1*
X140000Y-685860D1*
X155000Y-673360D2*
X159499Y-675860D1*
X163373Y-678360D1*
X166382Y-680860D1*
X168592Y-683360D1*
X170210Y-685860D1*
X171329Y-688360D1*
X171967Y-690860D1*
X172279Y-693360D1*
X172414Y-695860D1*
X172468Y-698360D1*
X172489Y-700860D1*
X172496Y-703360D1*
X172499Y-705860D1*
X172500Y-708360D1*
X172490Y-710860D1*
X172402Y-713360D1*
X172074Y-715860D1*
X171378Y-718360D1*
X170311Y-720860D1*
X168733Y-723360D1*
X166643Y-725860D1*
X161906Y-728360D1*
X155287Y-730860D1*
X147500Y-733360D1*
X-107500Y-690860D2*
X-111059Y-693360D1*
X-113947Y-695860D1*
X-116113Y-698360D1*
X-117717Y-700860D1*
X-118831Y-703360D1*
X-119468Y-705860D1*
X-119779Y-708360D1*
X-119914Y-710860D1*
X-119968Y-713360D1*
X-119989Y-715860D1*
X-119996Y-718360D1*
X-119989Y-720860D1*
X-119902Y-723360D1*
X-119574Y-725860D1*
X-118878Y-728360D1*
X-117811Y-730860D1*
X-116264Y-733360D1*
X-113992Y-735860D1*
X-110955Y-738360D1*
X-107500Y-740860D1*
X-95000Y-690860D2*
X-92500Y-693360D1*
X-57500Y-695860D2*
Y-698360D1*
Y-700860D1*
Y-703360D1*
Y-705860D1*
Y-708360D1*
Y-710860D1*
Y-713360D1*
Y-715860D1*
Y-718360D1*
Y-720860D1*
X-62500D1*
Y-723360D1*
Y-725860D1*
Y-728360D1*
Y-730860D1*
X-57500D1*
Y-733360D1*
Y-735860D1*
Y-738360D1*
Y-740860D1*
X-50000Y-695860D2*
Y-698360D1*
Y-700860D1*
Y-703360D1*
Y-705860D1*
Y-708360D1*
Y-710860D1*
Y-713360D1*
Y-715860D1*
Y-718360D1*
X-27500Y-720860D1*
X-102500Y-698360D2*
X-104905Y-700860D1*
X-107075Y-703360D1*
X-108878Y-705860D1*
X-110320Y-708360D1*
X-111369Y-710860D1*
X-111972Y-713360D1*
X-112186Y-715860D1*
X-111990Y-718360D1*
X-111346Y-720860D1*
X-110280Y-723360D1*
X-108908Y-725860D1*
X-105598Y-728360D1*
X-100785Y-730860D1*
X-95000Y-733360D1*
X-100000Y-698360D2*
X-95460Y-700860D1*
X-91337Y-703360D1*
X-87500Y-705860D1*
X87500Y-708360D2*
X85396Y-710860D1*
X83604Y-713360D1*
X82079Y-715860D1*
X80704Y-718360D1*
X79406Y-720860D1*
X78135Y-723360D1*
X76880Y-725860D1*
X75625Y-728360D1*
X74376Y-730860D1*
X73132Y-733360D1*
X71949Y-735860D1*
X70907Y-738360D1*
X70000Y-740860D1*
X102500Y-708360D2*
Y-710860D1*
Y-713360D1*
Y-715860D1*
Y-718360D1*
Y-720860D1*
Y-723360D1*
Y-725860D1*
Y-728360D1*
Y-730860D1*
Y-733360D1*
Y-735860D1*
Y-738360D1*
Y-740860D1*
X130000Y-720860D2*
X130482Y-723360D1*
X131432Y-725860D1*
X132785Y-728360D1*
X134378Y-730860D1*
X136477Y-733360D1*
X139476Y-735860D1*
X143303Y-738360D1*
X147500Y-740860D1*
X140000Y-720860D2*
X141480Y-723360D1*
X143450Y-725860D1*
X148138Y-728360D1*
X154730Y-730860D1*
X162500Y-733360D1*
X-87500Y-723360D2*
X-89146Y-725860D1*
X-93493Y-728360D1*
X-99875Y-730860D1*
X-107500Y-733360D1*
X-80000Y-723360D2*
X-80396Y-725860D1*
X-81114Y-728360D1*
X-82187Y-730860D1*
X-83735Y-733360D1*
X-86008Y-735860D1*
X-89045Y-738360D1*
X-92500Y-740860D1*
X-50000Y-728360D2*
Y-730860D1*
Y-733360D1*
Y-735860D1*
Y-738360D1*
Y-740860D1*
X0Y-733360D2*
Y-735860D1*
Y-738360D1*
Y-740860D1*
X-1358360Y94717D2*
Y92217D1*
Y89717D1*
Y87217D1*
Y84717D1*
X-1338360D1*
Y82217D1*
Y79717D1*
Y77217D1*
Y74717D1*
Y72217D1*
Y69717D1*
Y67217D1*
Y64717D1*
Y62217D1*
Y59717D1*
Y57217D1*
Y54717D1*
Y52217D1*
Y49717D1*
Y47217D1*
Y44717D1*
Y42217D1*
Y39717D1*
Y37217D1*
Y34717D1*
Y32217D1*
Y29717D1*
Y27217D1*
Y24717D1*
Y22217D1*
Y19717D1*
X-1308360Y94717D2*
Y92217D1*
Y89717D1*
Y87217D1*
Y84717D1*
X-1330860D1*
Y82217D1*
Y79717D1*
Y77217D1*
Y74717D1*
Y72217D1*
Y69717D1*
Y67217D1*
Y64717D1*
Y62217D1*
Y59717D1*
Y57217D1*
Y54717D1*
Y52217D1*
Y49717D1*
Y47217D1*
Y44717D1*
Y42217D1*
Y39717D1*
Y37217D1*
Y34717D1*
Y32217D1*
Y29717D1*
Y27217D1*
Y24717D1*
Y22217D1*
Y19717D1*
X-1300860Y94717D2*
Y92217D1*
Y89717D1*
Y87217D1*
X-1253360Y94717D2*
Y92217D1*
Y89717D1*
Y87217D1*
Y84717D1*
Y82217D1*
Y79717D1*
Y77217D1*
Y74717D1*
Y72217D1*
Y69717D1*
Y67217D1*
Y64717D1*
Y62217D1*
Y59717D1*
Y57217D1*
Y54717D1*
Y52217D1*
Y49717D1*
Y47217D1*
Y44717D1*
Y42217D1*
Y39717D1*
Y37217D1*
Y34717D1*
Y32217D1*
Y29717D1*
Y27217D1*
Y24717D1*
Y22217D1*
Y19717D1*
X-1220860Y94717D2*
X-1225254Y92217D1*
X-1229178Y89717D1*
X-1231204Y87217D1*
X-1231489Y84717D1*
X-1230860Y82217D1*
X-1200860Y94717D2*
X-1196447Y92217D1*
X-1192815Y89717D1*
X-1190174Y87217D1*
X-1188326Y84717D1*
X-1187101Y82217D1*
X-1186419Y79717D1*
X-1186091Y77217D1*
X-1185949Y74717D1*
X-1185902Y72217D1*
X-1185979Y69717D1*
X-1186388Y67217D1*
X-1187410Y64717D1*
X-1189192Y62217D1*
X-1191983Y59717D1*
X-1196453Y57217D1*
X-1202953Y54717D1*
X-1210454Y52217D1*
X-1217114Y49717D1*
X-1221887Y47217D1*
X-1225357Y44717D1*
X-1226760Y42217D1*
X-1226851Y39717D1*
X-1226036Y37217D1*
X-1223945Y34717D1*
X-1217513Y32217D1*
X-1207718Y29717D1*
X-1195860Y27217D1*
X-1168360Y94717D2*
Y92217D1*
Y89717D1*
Y87217D1*
X-1120860Y94717D2*
Y92217D1*
Y89717D1*
Y87217D1*
Y84717D1*
Y82217D1*
Y79717D1*
Y77217D1*
Y74717D1*
Y72217D1*
Y69717D1*
Y67217D1*
Y64717D1*
Y62217D1*
Y59717D1*
Y57217D1*
Y54717D1*
Y52217D1*
Y49717D1*
Y47217D1*
Y44717D1*
Y42217D1*
Y39717D1*
Y37217D1*
Y34717D1*
Y32217D1*
Y29717D1*
Y27217D1*
Y24717D1*
Y22217D1*
Y19717D1*
X-1085860Y94717D2*
X-1089504Y92217D1*
X-1092625Y89717D1*
X-1095081Y87217D1*
X-1096815Y84717D1*
X-1098043Y82217D1*
X-1099075Y79717D1*
X-1099891Y77217D1*
X-1100312Y74717D1*
X-1100253Y72217D1*
X-1099760Y69717D1*
X-1099069Y67217D1*
X-1098234Y64717D1*
X-1096984Y62217D1*
X-1095146Y59717D1*
X-1092800Y57217D1*
X-1090365Y54717D1*
X-1088226Y52217D1*
X-1087709Y49717D1*
X-1088398Y47217D1*
X-1089550Y44717D1*
X-1091013Y42217D1*
X-1092486Y39717D1*
X-1093870Y37217D1*
X-1095189Y34717D1*
X-1096466Y32217D1*
X-1097729Y29717D1*
X-1098990Y27217D1*
X-1100308Y24717D1*
X-1101767Y22217D1*
X-1103360Y19717D1*
X-1048360Y94717D2*
Y92217D1*
Y89717D1*
Y87217D1*
Y84717D1*
Y82217D1*
Y79717D1*
Y77217D1*
Y74717D1*
Y72217D1*
Y69717D1*
Y67217D1*
Y64717D1*
Y62217D1*
Y59717D1*
Y57217D1*
Y54717D1*
Y52217D1*
Y49717D1*
Y47217D1*
Y44717D1*
Y42217D1*
Y39717D1*
Y37217D1*
Y34717D1*
Y32217D1*
Y29717D1*
Y27217D1*
Y24717D1*
Y22217D1*
Y19717D1*
X-1263360Y87217D2*
Y84717D1*
Y82217D1*
Y79717D1*
Y77217D1*
Y74717D1*
Y72217D1*
Y69717D1*
Y67217D1*
Y64717D1*
Y62217D1*
Y59717D1*
X-1210860Y87217D2*
X-1218360Y84717D1*
X-1225860Y82217D1*
X-1208360Y87217D2*
X-1203861Y84717D1*
X-1199997Y82217D1*
X-1197085Y79717D1*
X-1194895Y77217D1*
X-1194253Y74717D1*
X-1194615Y72217D1*
X-1195915Y69717D1*
X-1199576Y67217D1*
X-1205327Y64717D1*
X-1212610Y62217D1*
X-1219673Y59717D1*
X-1225219Y57217D1*
X-1229096Y54717D1*
X-1231697Y52217D1*
X-1233475Y49717D1*
X-1234655Y47217D1*
X-1235316Y44717D1*
X-1235635Y42217D1*
X-1235763Y39717D1*
X-1235721Y37217D1*
X-1235325Y34717D1*
X-1234317Y32217D1*
X-1232645Y29717D1*
X-1230363Y27217D1*
X-1227267Y24717D1*
X-1223130Y22217D1*
X-1218360Y19717D1*
X-1130860Y87217D2*
Y84717D1*
Y82217D1*
Y79717D1*
Y77217D1*
Y74717D1*
Y72217D1*
Y69717D1*
Y67217D1*
Y64717D1*
Y62217D1*
Y59717D1*
X-1078360Y87217D2*
X-1082473Y84717D1*
X-1085717Y82217D1*
X-1087991Y79717D1*
X-1089695Y77217D1*
X-1090199Y74717D1*
X-1090387Y72217D1*
X-1089761Y69717D1*
X-1088085Y67217D1*
X-1081500Y64717D1*
X-1070204Y62217D1*
X-1055860Y59717D1*
X-1058360Y87217D2*
Y84717D1*
Y82217D1*
Y79717D1*
Y77217D1*
Y74717D1*
Y72217D1*
Y69717D1*
Y67217D1*
Y64717D1*
Y62217D1*
X-1080860Y59717D1*
X-1295860D2*
Y57217D1*
Y54717D1*
Y52217D1*
X-1163360Y59717D2*
Y57217D1*
Y54717D1*
Y52217D1*
X-1263360D2*
Y49717D1*
Y47217D1*
Y44717D1*
Y42217D1*
Y39717D1*
Y37217D1*
Y34717D1*
Y32217D1*
Y29717D1*
Y27217D1*
X-1130860Y52217D2*
Y49717D1*
Y47217D1*
Y44717D1*
Y42217D1*
Y39717D1*
Y37217D1*
Y34717D1*
Y32217D1*
Y29717D1*
Y27217D1*
X-1073360Y52217D2*
X-1075464Y49717D1*
X-1077256Y47217D1*
X-1078781Y44717D1*
X-1080156Y42217D1*
X-1081454Y39717D1*
X-1082725Y37217D1*
X-1083980Y34717D1*
X-1085235Y32217D1*
X-1086484Y29717D1*
X-1087728Y27217D1*
X-1088911Y24717D1*
X-1089953Y22217D1*
X-1090860Y19717D1*
X-1058360Y52217D2*
Y49717D1*
Y47217D1*
Y44717D1*
Y42217D1*
Y39717D1*
Y37217D1*
Y34717D1*
Y32217D1*
Y29717D1*
Y27217D1*
Y24717D1*
Y22217D1*
Y19717D1*
X-1188360Y34717D2*
X-1196995Y32217D1*
X-1208108Y29717D1*
X-1220860Y27217D1*
X-1185860Y34717D2*
X-1184523Y32217D1*
X-1182796Y29717D1*
X-1180860Y27217D1*
X-1186320Y24717D1*
X-1192197Y22217D1*
X-1198360Y19717D1*
X-1300860Y27217D2*
Y24717D1*
Y22217D1*
Y19717D1*
X-1168360Y27217D2*
Y24717D1*
Y22217D1*
Y19717D1*
X1170376Y623879D2*
D53*
Y686996D1*
X1272463D1*
Y623879D1*
X1219005Y686996D2*
Y648137D1*
X1272463Y573077D2*
X1170488Y524448D1*
Y592506D1*
Y483304D2*
Y429958D1*
X1209346Y459046D1*
Y444446D1*
X1214176Y434787D1*
X1219005Y429958D1*
X1233605Y425017D1*
X1243263D1*
X1257863Y429958D1*
X1267634Y439617D1*
X1272463Y454217D1*
Y468817D1*
X1267634Y483304D1*
X1262693Y488134D1*
X1253034Y493075D1*
X1289309Y393644D2*
Y301327D1*
X1170376Y269955D2*
X1272463D1*
Y226155D1*
X1267522Y211555D1*
X1262693Y206725D1*
X1253034Y201896D1*
X1238434D1*
X1228663Y206725D1*
X1223834Y211555D1*
X1219005Y226155D1*
X1214063Y211555D1*
X1209234Y206725D1*
X1199576Y201896D1*
X1189805D1*
X1180146Y206725D1*
X1175205Y211555D1*
X1170376Y226155D1*
Y269955D1*
X1219005D2*
Y226155D1*
X1289309Y170524D2*
Y78207D1*
X1272463Y-30883D2*
X1170376D1*
X1272463Y7976D1*
X1170376Y46834D1*
X1272463D1*
X1204405Y-86514D2*
X1209234Y-76855D1*
X1219005Y-67085D1*
X1233605Y-62255D1*
X1243263D1*
X1257863Y-67085D1*
X1267522Y-76855D1*
X1272463Y-86514D1*
Y-101114D1*
X1267522Y-110885D1*
X1257863Y-120543D1*
X1243263Y-125485D1*
X1233605D1*
X1219005Y-120543D1*
X1209234Y-110885D1*
X1204405Y-101114D1*
Y-86514D1*
X1170376Y-215145D2*
X1272463D1*
X1219005D2*
X1209234Y-205486D1*
X1204405Y-195716D1*
Y-181116D1*
X1209234Y-171457D1*
X1219005Y-161686D1*
X1233605Y-156857D1*
X1243263D1*
X1257863Y-161686D1*
X1267522Y-171457D1*
X1272463Y-181116D1*
Y-195716D1*
X1267522Y-205486D1*
X1257863Y-215145D1*
X1289309Y-246517D2*
Y-338834D1*
X1223834Y-370207D2*
Y-414007D1*
X1219005Y-428495D1*
X1214063Y-433436D1*
X1204405Y-438265D1*
X1189805D1*
X1180146Y-433436D1*
X1175205Y-428495D1*
X1170376Y-414007D1*
Y-370207D1*
X1272463D1*
X1170376Y-469638D2*
X1272463Y-494009D1*
X1170376Y-518267D1*
X1272463Y-542526D1*
X1170376Y-566896D1*
X1184976Y-666327D2*
X1175205Y-656669D1*
X1170376Y-642069D1*
Y-622640D1*
X1175205Y-608040D1*
X1184976Y-598269D1*
X1194634D1*
X1204405Y-603210D1*
X1209234Y-608040D1*
X1214063Y-617698D1*
X1223834Y-646898D1*
X1228663Y-656669D1*
X1233605Y-661498D1*
X1243263Y-666327D1*
X1257863D1*
X1267522Y-656669D1*
X1272463Y-642069D1*
Y-622640D1*
X1267522Y-608040D1*
X1257863Y-598269D1*
X1170488Y-726900D2*
X1175317Y-712300D1*
X1189917Y-702529D1*
X1214176Y-697700D1*
X1228776D1*
X1253034Y-702529D1*
X1267634Y-712300D1*
X1272463Y-726900D1*
Y-736558D1*
X1267634Y-751158D1*
X1253034Y-760817D1*
X1228776Y-765758D1*
X1214176D1*
X1189917Y-760817D1*
X1175317Y-751158D1*
X1170488Y-736558D1*
Y-726900D1*
X1189917Y-760817D2*
X1253034Y-702529D1*
X1189917Y-797131D2*
X1184976Y-806902D1*
X1170488Y-821502D1*
X1272463D1*
X1289309Y-852874D2*
Y-945191D1*
X1170488Y-1005764D2*
X1175317Y-991164D1*
X1189917Y-981393D1*
X1214176Y-976564D1*
X1228776D1*
X1253034Y-981393D1*
X1267634Y-991164D1*
X1272463Y-1005764D1*
Y-1015422D1*
X1267634Y-1030022D1*
X1253034Y-1039681D1*
X1228776Y-1044622D1*
X1214176D1*
X1189917Y-1039681D1*
X1175317Y-1030022D1*
X1170488Y-1015422D1*
Y-1005764D1*
X1189917Y-1039681D2*
X1253034Y-981393D1*
X1272463Y-1095424D2*
X1170488Y-1144053D1*
Y-1075995D1*
X1289309Y-1175426D2*
Y-1267743D1*
X1189917Y-1299115D2*
X1184976Y-1308886D1*
X1170488Y-1323486D1*
X1272463D1*
X1204405Y-1418087D2*
X1219005Y-1413146D1*
X1228776Y-1403487D1*
X1233605Y-1388887D1*
Y-1384058D1*
X1228776Y-1369458D1*
X1219005Y-1359800D1*
X1204405Y-1354858D1*
X1199576D1*
X1184976Y-1359800D1*
X1175317Y-1369458D1*
X1170488Y-1384058D1*
Y-1388887D1*
X1175317Y-1403487D1*
X1184976Y-1413146D1*
X1204405Y-1418087D1*
X1228776D1*
X1253034Y-1413146D1*
X1267634Y-1403487D1*
X1272463Y-1388888D1*
Y-1379229D1*
X1267634Y-1364629D1*
X1257863Y-1359800D1*
M02*
